<svg xmlns="http://www.w3.org/2000/svg" viewBox="0 0 2400 1204.08"><defs><style>.cls-1{fill:#08171c;}.cls-2{fill:#fcfdf9;}.cls-3{fill:#f6a022;}</style></defs><g id="Layer_1" data-name="Layer 1"><rect class="cls-1" width="2400" height="1204.08"/></g><g id="Layer_2" data-name="Layer 2"><path class="cls-2" d="M992.77,525.44c0-34.83,26.84-60.83,63.37-60.83,36.2,0,63,25.83,63,60.83s-26.84,60.83-63,60.83C1019.61,586.27,992.77,560.27,992.77,525.44Zm109.42,0c0-26.34-19.71-45.71-46-45.71-26.67,0-46.38,19.37-46.38,45.71s19.71,45.7,46.38,45.7C1082.48,571.14,1102.19,551.77,1102.19,525.44Z" transform="translate(0 3.15)"/><path class="cls-2" d="M1144.17,533.59V466h17v66.94c0,26.34,12.06,38.23,33.47,38.23s33.64-11.89,33.64-38.23V466h16.48v67.62c0,34.5-18.86,52.68-50.29,52.68C1163.2,586.27,1144.17,568.09,1144.17,533.59Z" transform="translate(0 3.15)"/><path class="cls-2" d="M1359.11,584.91l-25.66-36.53c-2.38.17-4.92.34-7.47.34h-29.4v36.19h-17V466H1326c30.92,0,49.61,15.63,49.61,41.46,0,18.35-9.52,31.6-26.17,37.55l28.21,39.93Zm-.51-77.48c0-17-11.38-26.68-33.13-26.68h-28.89v53.52h28.89C1347.22,534.27,1358.6,524.42,1358.6,507.43Z" transform="translate(0 3.15)"/><path class="cls-2" d="M1117.82,735.21l-.17-101.78-49.78,86h-4.25l-49.78-85.64V735.21h-8.5V616.27h7.31l53.18,91.92L1119,616.27h7.14l.17,118.94Z" transform="translate(0 3.15)"/><path class="cls-2" d="M1166.77,684.75V616.27h8.66v68.14c0,29.73,14.27,43.66,39.08,43.66s38.91-13.93,38.91-43.66V616.27h8.67v68.48c0,34-18.18,51.31-47.75,51.31S1166.77,718.73,1166.77,684.75Z" transform="translate(0 3.15)"/><path class="cls-2" d="M1290.47,719.92l3.91-6.46c8.15,8.5,23.28,14.95,39.25,14.95,23.78,0,34.32-10.36,34.32-23.28,0-35.68-74.25-14.27-74.25-58.1,0-16.83,12.91-31.61,42.14-31.61,13.08,0,26.67,4.08,35.85,10.71l-3.23,7a58.84,58.84,0,0,0-32.62-10c-23.11,0-33.48,10.7-33.48,23.79,0,35.68,74.25,14.61,74.25,57.77,0,16.82-13.42,31.43-42.81,31.43C1316.13,736.06,1299.13,729.43,1290.47,719.92Z" transform="translate(0 3.15)"/><path class="cls-2" d="M1488.08,727.39v7.82H1406V616.27h79.52v7.82h-70.85V671h63.37v7.65h-63.37v48.76Z" transform="translate(0 3.15)"/><path class="cls-2" d="M1518.67,684.75V616.27h8.66v68.14c0,29.73,14.28,43.66,39.08,43.66s38.91-13.93,38.91-43.66V616.27H1614v68.48c0,34-18.18,51.31-47.75,51.31S1518.67,718.73,1518.67,684.75Z" transform="translate(0 3.15)"/><path class="cls-2" d="M1766.92,735.21l-.18-101.78-49.78,86h-4.24l-49.79-85.64V735.21h-8.49V616.27h7.3l53.18,91.92,53.18-91.92h7.14l.17,118.94Z" transform="translate(0 3.15)"/><circle class="cls-3" cx="646.44" cy="491.48" r="38.56"/><path class="cls-3" d="M683.2,599.8c1.79.64,3.68,1.22,5.69,1.72a26.37,26.37,0,0,0,30.37-15.37A266.61,266.61,0,0,1,737,551.54a3.32,3.32,0,0,1,6,2.76c-7.23,22.76-20.17,42.43-16.63,79.9,0,0,6.43,46.47,35.32,58.56,12.55,5.25,26.38-4.3,26.5-17.91.27-29,5.71-84.91,40.39-121.39a3.18,3.18,0,0,1,5,3.78c-15.35,27.3-40.94,82.81-32.71,138,5.32,35.68,37.76,59.51,73.18,52.64.52-.1,1.05-.2,1.58-.32,17.68-3.69,27.67-22.64,21.1-39.46-16.67-42.6-39.32-127.89,3.37-208.26,0,0,9.19-24.35-14.07-32.46,0,0-57.44-8.21-85.43,51.78-1.73,3.71-7.35,2.7-7.52-1.38a2,2,0,0,0,0-.25s4.37-17.25,18.92-35.78a15.3,15.3,0,0,0,3-12.8c-1.18-5-5.36-10.23-17.34-11,0,0-78.2-6.54-131,98.81C658.41,573.25,665.9,593.62,683.2,599.8Z" transform="translate(0 3.15)"/></g></svg>