<?xml version="1.0" encoding="utf-8"?>
<!-- Generator: Adobe Illustrator 25.2.0, SVG Export Plug-In . SVG Version: 6.00 Build 0)  -->
<svg version="1.1" xmlns="http://www.w3.org/2000/svg" xmlns:xlink="http://www.w3.org/1999/xlink" x="0px" y="0px"
	 viewBox="0 0 2400 1312" style="enable-background:new 0 0 2400 1312;" xml:space="preserve">
<style type="text/css">
	.st0{fill:#08171C;}
	.st1{fill:#F6A022;}
	.st2{fill:#FCFDF9;}
	.st3{fill:#FFFFFF;}
	.st4{display:none;}
	.st5{display:inline;opacity:0.41;fill:#36B4D6;}
</style>
<g id="Layer_1">
</g>
<g id="Layer_2">
	<rect x="2.06" y="3" class="st1" width="2395" height="1307"/>
	<g>
		<circle class="st0" cx="870.28" cy="423.54" r="85.67"/>
		<path class="st0" d="M950.04,670.52c4.6,1.73,9.53,3.27,14.81,4.57c27.57,6.75,55.92-7.92,67.14-33.99
			c9.71-22.55,23.48-51.66,39.43-77.1c4.61-7.36,15.92-2.14,13.29,6.13c-16.05,50.56-44.81,94.27-36.95,177.52
			c0,0,14.47,104.61,79.75,130.63c27.54,10.98,57.37-9.95,57.61-39.59c0.52-64.3,12.4-189.01,89.69-270.37
			c5.72-6.02,15.34,1.06,11.27,8.3c-34.39,61.14-91.9,186-72.24,309.66c12.25,77.08,84.85,128.77,161.51,114.12
			c1.18-0.22,2.36-0.46,3.56-0.71c39.61-8.18,62.21-50.11,47.47-87.78c-36.56-93.45-86.1-279.4,3.96-455.99
			c4.95-9.71,7.62-20.5,7.5-31.4c-0.14-12.3-3.75-26.8-16.93-37.56c-8.44-6.89-19.13-10.44-30.02-10.7
			c-32.96-0.79-127.32,7.05-178.08,115.84c-3.84,8.23-16.33,5.99-16.71-3.08c-0.01-0.18-0.01-0.36-0.02-0.54
			c0,0,9.69-38.26,41.93-79.39c5.93-7.56,8.82-17.24,7.18-26.71c-2.02-11.7-10.8-24.48-38.89-26.19c0,0-174.61-14.62-291.95,221.26
			C896.66,612.96,912.92,656.56,950.04,670.52z"/>
	</g>
</g>
<g id="Layer_3" class="st4">
</g>
</svg>
