<?xml version="1.0" encoding="utf-8"?>
<!-- Generator: Adobe Illustrator 25.2.0, SVG Export Plug-In . SVG Version: 6.00 Build 0)  -->
<svg version="1.1" xmlns="http://www.w3.org/2000/svg" xmlns:xlink="http://www.w3.org/1999/xlink" x="0px" y="0px"
	 viewBox="0 0 1200 800" style="enable-background:new 0 0 1200 800;" xml:space="preserve">
<style type="text/css">
	.st0{fill:#08171C;}
	.st1{fill:#F6A022;}
	.st2{fill:#FCFDF9;}
	.st3{fill:#FFFFFF;}
	.st4{display:none;}
	.st5{display:inline;opacity:0.41;fill:#36B4D6;}
</style>
<g id="Layer_1">
	<rect x="-0.94" y="1" class="st1" width="1200" height="797.55"/>
</g>
<g id="Layer_2">
	<g>
		<path class="st3" d="M323.76,512.45c-42.49,8.28-110.69,57.99-101.25,86.77c5.25,16.02,23.27,23.14,35.19,10.61
			c15.58-16.37,43.57-38.37,75.99-50.17C359.95,550.11,351.86,506.97,323.76,512.45z"/>
	</g>
	<g>
		<path class="st3" d="M366.85,646.13c-0.98,4.65,3.27,8.5,7.99,7.73c17.08-2.81,49.23-27.62,51.73-29.71
			c15.46-12.96,32.34-24.07,41.54-44.29c7.33-16.12,0.16-34.93-16.12-41.03c-0.24-0.09-0.48-0.18-0.72-0.26
			c-8.46-3.04-17.93,2.33-19.78,11.23c-4.66,22.35-20.36,59.33-58.22,87.53C373.17,637.4,367.89,641.22,366.85,646.13z"/>
	</g>
	<g>
		<path class="st3" d="M642.84,504.28c13.44,41.14,71.17,102.72,98.57,89.8c15.25-7.18,20.1-25.94,6.2-36.23
			c-18.17-13.45-43.44-38.51-59.14-69.24C675.77,463.74,633.95,477.08,642.84,504.28z"/>
	</g>
	<g>
		<path class="st3" d="M59.01,758.13c-1.87,4.37,1.55,8.98,6.33,9.14c17.3,0.57,53.67-17.5,56.53-19.07
			c17.69-9.7,36.41-17.31,49.37-35.36c10.33-14.39,6.96-34.23-7.82-43.39c-0.22-0.13-0.43-0.27-0.65-0.4
			c-7.71-4.63-18.04-1.2-21.59,7.16c-8.92,21.02-31.52,54.23-74.15,74.52C66.91,750.79,60.99,753.51,59.01,758.13z"/>
	</g>
	<g>
		<path class="st3" d="M13.12,206.91c-1.17-21.58,4.34-51.43,4.16-54.87c-0.2-3.72-2.07-6.72-5.16-8.33
			c-3.39-1.77-8.24-2.25-14.75,4.13c0,0-43.47,40.71-13.68,124.73c4.65,13.1,19.44,19.38,31.61,12.81c1.26-0.68,2.54-1.45,3.83-2.33
			c8.03-5.44,10.99-16.09,7.23-25.03c-3.23-7.68-7.11-17.89-9.6-27.8C16.66,229.86,13.79,219.4,13.12,206.91z"/>
	</g>
	<g>
		<path class="st3" d="M562.9,699.58c-3.8,2.86-3.13,8.56,0.94,11.07c14.72,9.11,55.26,11.54,58.52,11.61
			c20.17,0.39,40.2,3.12,60.42-6.08c16.12-7.33,23.08-26.21,14.82-41.52c-0.12-0.22-0.24-0.45-0.37-0.67
			c-4.38-7.85-15.05-10.03-22.29-4.54c-18.2,13.78-54.34,31.33-101.41,27.7C573.4,697.15,566.91,696.56,562.9,699.58z"/>
	</g>
	<g>
		<path class="st3" d="M700.23,350.48c-12.9-17.34-24.8-45.26-26.85-48.03c-2.22-2.99-5.44-4.45-8.9-4.09
			c-3.8,0.39-8.11,2.68-10.02,11.59c0,0-13.74,57.94,57.51,111.52c11.11,8.36,26.91,5.41,33.43-6.79c0.67-1.26,1.31-2.61,1.91-4.05
			c3.68-8.97,0.28-19.48-7.8-24.86c-6.94-4.62-15.81-10.99-23.37-17.87C715.86,367.66,707.69,360.52,700.23,350.48z"/>
	</g>
	<ellipse class="st3" cx="336.1" cy="415.66" rx="24.45" ry="25.28"/>
	<g>
		<path class="st3" d="M413.66,265.08c-14.17,40.9-5.43,124.84,24.21,131.13c16.49,3.5,31.7-8.51,26.85-25.11
			c-6.34-21.7-11.31-56.94-5.24-90.91C464.4,252.7,423.03,238.03,413.66,265.08z"/>
	</g>
	<g>
		<path class="st3" d="M498.91,442.64c-17.93,12.07-46.38,22.64-49.24,24.56c-3.09,2.08-4.7,5.22-4.51,8.7
			c0.22,3.82,2.3,8.23,11.11,10.55c0,0,57.23,16.45,114.1-52.21c8.87-10.71,6.67-26.63-5.21-33.71c-1.23-0.73-2.55-1.43-3.96-2.09
			c-8.79-4.1-19.45-1.19-25.2,6.62c-4.94,6.71-11.72,15.28-18.95,22.5C516.79,427.83,509.28,435.65,498.91,442.64z"/>
	</g>
	<ellipse class="st3" cx="565.11" cy="595.83" rx="24.45" ry="25.28"/>
	<ellipse class="st3" cx="151.5" cy="538.81" rx="24.45" ry="25.28"/>
	<g>
		<path class="st3" d="M188.61,427.36c40.86-14.29,101.23-73.27,87.75-100.4c-7.5-15.1-26.35-19.56-36.35-5.45
			c-13.07,18.44-37.61,44.22-68.01,60.55C147.4,395.28,161.59,436.81,188.61,427.36z"/>
	</g>
	<g>
		<path class="st3" d="M286.24,219.92c12.81,17.41,24.57,45.39,26.6,48.17c2.2,3,5.41,4.48,8.88,4.14
			c3.81-0.38,8.13-2.64,10.07-11.54c0,0,14.04-57.87-56.94-111.82c-11.07-8.41-26.88-5.55-33.46,6.62c-0.68,1.26-1.33,2.6-1.93,4.04
			c-3.73,8.95-0.38,19.48,7.67,24.9c6.91,4.65,15.75,11.07,23.27,17.99C270.69,202.67,278.82,209.85,286.24,219.92z"/>
	</g>
	<ellipse class="st3" cx="768.2" cy="298.31" rx="24.45" ry="25.28"/>
	<g>
		<path class="st3" d="M86.53,476.42c4.76-0.05,7.59-5.04,5.81-9.48c-6.45-16.06-37.66-42.05-40.25-44.03
			C36.08,410.65,21.56,396.58-0.18,392c-17.33-3.65-34.13,7.43-36.54,24.66c-0.04,0.25-0.07,0.5-0.1,0.76
			c-1.13,8.92,6.18,16.99,15.26,16.87c22.83-0.31,62.33,6.97,98.1,37.79C76.63,472.16,81.51,476.48,86.53,476.42z"/>
	</g>
	<g>
		<path class="st3" d="M937.55,476.42c4.76-0.05,7.59-5.04,5.81-9.48c-6.45-16.06-37.66-42.05-40.25-44.03
			c-16.01-12.27-30.53-26.34-52.27-30.92c-17.33-3.65-34.13,7.43-36.54,24.66c-0.04,0.25-0.07,0.5-0.1,0.76
			c-1.13,8.92,6.18,16.99,15.26,16.87c22.83-0.31,62.33,6.97,98.1,37.79C927.65,472.16,932.53,476.48,937.55,476.42z"/>
	</g>
	<g>
		<path class="st3" d="M583.55,229.45c4.76-0.05,7.59-5.04,5.81-9.48c-6.45-16.06-37.66-42.05-40.25-44.03
			c-16.01-12.27-30.53-26.34-52.27-30.92c-17.33-3.65-34.13,7.43-36.54,24.66c-0.04,0.25-0.07,0.5-0.1,0.76
			c-1.13,8.92,6.18,16.99,15.26,16.87c22.83-0.31,62.33,6.97,98.1,37.79C573.65,225.19,578.53,229.51,583.55,229.45z"/>
	</g>
	<ellipse class="st3" cx="142.3" cy="298.31" rx="24.45" ry="25.28"/>
	<ellipse class="st3" cx="357.63" cy="133.47" rx="24.45" ry="25.28"/>
	<g>
		<path class="st3" d="M153.66,142.72c18.42-11.31,47.29-20.67,50.23-22.47c3.18-1.95,4.92-5.02,4.87-8.5
			c-0.06-3.82-1.95-8.32-10.66-11.01c0,0-56.49-18.84-116.2,47.37c-9.31,10.32-7.78,26.32,3.79,33.9c1.2,0.78,2.48,1.54,3.87,2.26
			c8.61,4.47,19.38,2.01,25.45-5.56c5.22-6.5,12.35-14.77,19.88-21.69C135.17,156.76,143,149.26,153.66,142.72z"/>
	</g>
	<g>
		<path class="st3" d="M-26.08,580.31c-5.24,42.97,21,123.19,51.29,123.09c16.86-0.05,29.19-14.99,20.96-30.2
			c-10.77-19.88-23.05-53.28-24.27-87.76C20.91,557.52-22.62,551.9-26.08,580.31z"/>
	</g>
	<g>
		<path class="st3" d="M864.13,206.91c-1.17-21.58,4.34-51.43,4.16-54.87c-0.2-3.72-2.07-6.72-5.16-8.33
			c-3.39-1.77-8.24-2.25-14.75,4.13c0,0-43.47,40.71-13.68,124.73c4.65,13.1,19.44,19.38,31.61,12.81c1.26-0.68,2.54-1.45,3.83-2.33
			c8.03-5.44,10.99-16.09,7.23-25.03c-3.23-7.68-7.11-17.89-9.6-27.8C867.67,229.86,864.81,219.4,864.13,206.91z"/>
	</g>
	<g>
		<path class="st3" d="M824.93,580.31c-5.24,42.97,21,123.19,51.29,123.09c16.86-0.05,29.19-14.99,20.96-30.2
			c-10.77-19.88-23.05-53.28-24.27-87.76C871.93,557.52,828.4,551.9,824.93,580.31z"/>
	</g>
	<ellipse class="st3" cx="565.11" cy="305.57" rx="24.45" ry="25.28"/>
	<g>
		<path class="st3" d="M657.49,220.98c-1.48,4.52,2.33,8.81,7.11,8.54c17.28-0.95,51.92-22.16,54.63-23.97
			c16.76-11.22,34.75-20.45,46.07-39.57c9.03-15.24,3.92-34.71-11.61-42.53c-0.23-0.11-0.46-0.23-0.69-0.34
			c-8.09-3.93-18.08,0.39-20.88,9.04c-7.04,21.72-26.63,56.79-67.3,80.76C664.71,212.97,659.05,216.21,657.49,220.98z"/>
	</g>
	<g>
		<path class="st3" d="M470.28-33.63c-2.48-4.06-8.21-3.95-11.11-0.15c-10.51,13.75-16.92,53.85-17.3,57.09
			c-2.37,20.03-7.05,39.69,0.11,60.73c5.71,16.77,23.82,25.55,39.86,18.83c0.23-0.1,0.47-0.2,0.71-0.3
			c8.24-3.59,11.46-13.99,6.71-21.74c-11.93-19.47-25.83-57.15-17.6-103.64C471.67-22.94,472.9-29.34,470.28-33.63z"/>
	</g>
	<ellipse class="st3" cx="610.53" cy="92.73" rx="24.45" ry="25.28"/>
	<g>
		<path class="st3" d="M325.39,18.28c-21.61-37.5-90.77-85.89-114.93-67.62c-13.45,10.17-14.34,29.52,1.38,36.73
			c20.54,9.43,50.43,28.76,72.11,55.6C301.5,64.73,339.68,43.08,325.39,18.28z"/>
	</g>
	<g>
		<path class="st3" d="M630.43-47.44c-19.21-9.9-42.17-29.75-45.23-31.34c-3.31-1.71-6.84-1.61-9.8,0.24
			c-3.24,2.03-6.11,5.97-3.9,14.82c0,0,13.13,58.09,100.68,74.89c13.65,2.62,26.55-6.97,27.04-20.79c0.05-1.43,0.03-2.92-0.07-4.48
			c-0.64-9.68-8.32-17.62-17.93-18.9c-8.26-1.1-19.03-2.92-28.84-5.78C652.01-38.89,641.54-41.71,630.43-47.44z"/>
	</g>
	<g>
		<path class="st3" d="M325.39,869.3c-21.61-37.5-90.77-85.89-114.93-67.62c-13.45,10.17-14.34,29.52,1.38,36.73
			c20.54,9.43,50.43,28.76,72.11,55.6C301.5,915.74,339.68,894.1,325.39,869.3z"/>
	</g>
	<g>
		<path class="st3" d="M630.42,803.57c-19.21-9.9-42.17-29.75-45.23-31.34c-3.31-1.71-6.84-1.61-9.8,0.24
			c-3.24,2.03-6.11,5.97-3.9,14.82c0,0,13.13,58.09,100.68,74.89c13.65,2.62,26.55-6.97,27.04-20.79c0.05-1.43,0.03-2.92-0.07-4.48
			c-0.64-9.68-8.32-17.62-17.93-18.9c-8.26-1.1-19.03-2.92-28.84-5.78C652.01,812.12,641.54,809.31,630.42,803.57z"/>
	</g>
	<ellipse class="st3" cx="781.29" cy="482.78" rx="24.45" ry="25.28"/>
	<g>
		<path class="st3" d="M485.57,730.56c3.32-3.4,1.8-8.93-2.6-10.81c-15.92-6.78-56.37-3.07-59.6-2.64
			c-20,2.66-40.21,2.98-58.81,15.13c-14.83,9.68-18.86,29.4-8.38,43.28c0.15,0.2,0.31,0.41,0.47,0.61
			c5.51,7.1,16.39,7.64,22.72,1.12c15.91-16.37,48.99-39.17,96.07-42.69C475.56,734.55,482.07,734.16,485.57,730.56z"/>
	</g>
	<ellipse class="st3" cx="273.82" cy="694.67" rx="24.45" ry="25.28"/>
	<g>
		<path class="st3" d="M107.51,1.66C87.22-5.77,61.96-22.6,58.72-23.79c-3.5-1.29-6.99-0.74-9.69,1.46
			c-2.96,2.42-5.32,6.69-2.02,15.19c0,0,20.28,55.99,109.24,61.74c13.87,0.9,25.47-10.23,24.23-24c-0.13-1.42-0.33-2.9-0.63-4.44
			c-1.84-9.52-10.45-16.44-20.15-16.51c-8.33-0.06-19.25-0.52-29.34-2.13C130,7.45,119.26,5.96,107.51,1.66z"/>
	</g>
	<g>
		<path class="st3" d="M815.56,7.92c1.81-4.4-1.68-8.95-6.46-9.04c-17.3-0.33-53.41,18.27-56.25,19.88
			C735.31,28.7,716.7,36.58,704,54.81c-10.13,14.53-6.47,34.32,8.44,43.27c0.22,0.13,0.44,0.26,0.66,0.39
			c7.77,4.52,18.06,0.94,21.49-7.47c8.62-21.14,30.75-54.67,73.08-75.57C807.77,15.37,813.66,12.56,815.56,7.92z"/>
	</g>
	<g>
		<path class="st3" d="M780.42,777.47c3.15,3.56,8.77,2.45,10.97-1.8c7.94-15.38,7.21-55.99,7.02-59.24
			c-1.18-20.14-0.02-40.32-10.76-59.77c-8.56-15.5-27.93-20.97-42.55-11.55c-0.21,0.14-0.43,0.28-0.64,0.42
			c-7.49,4.98-8.83,15.78-2.79,22.58c15.16,17.08,35.46,51.74,35.5,98.95C777.18,767.18,777.1,773.7,780.42,777.47z"/>
	</g>
	<g>
		<path class="st3" d="M1172.18,511.74c-42.49,8.28-110.69,57.99-101.25,86.77c5.25,16.02,23.27,23.14,35.19,10.61
			c15.58-16.37,43.57-38.37,75.99-50.17C1208.36,549.41,1200.27,506.27,1172.18,511.74z"/>
	</g>
	<g>
		<path class="st3" d="M907.43,757.43c-1.87,4.37,1.55,8.98,6.33,9.14c17.3,0.57,53.67-17.5,56.53-19.07
			c17.69-9.7,36.41-17.31,49.37-35.36c10.33-14.39,6.96-34.23-7.82-43.39c-0.22-0.13-0.43-0.27-0.65-0.4
			c-7.71-4.63-18.04-1.2-21.59,7.16c-8.92,21.02-31.52,54.23-74.15,74.52C915.32,750.09,909.4,752.81,907.43,757.43z"/>
	</g>
	<g>
		<path class="st3" d="M861.53,206.21c-1.17-21.58,4.34-51.43,4.16-54.87c-0.2-3.72-2.07-6.72-5.16-8.33
			c-3.39-1.77-8.24-2.25-14.75,4.13c0,0-43.47,40.71-13.68,124.73c4.65,13.1,19.44,19.38,31.61,12.81c1.26-0.68,2.54-1.45,3.83-2.33
			c8.03-5.44,10.99-16.09,7.23-25.03c-3.23-7.68-7.11-17.89-9.6-27.8C865.07,229.16,862.21,218.7,861.53,206.21z"/>
	</g>
	<ellipse class="st3" cx="1184.51" cy="414.96" rx="24.45" ry="25.28"/>
	<ellipse class="st3" cx="999.91" cy="538.11" rx="24.45" ry="25.28"/>
	<ellipse class="st3" cx="855.71" cy="818.32" rx="24.45" ry="25.28"/>
	<g>
		<path class="st3" d="M1037.02,426.66c40.86-14.29,101.23-73.27,87.75-100.4c-7.5-15.1-26.35-19.56-36.35-5.45
			c-13.07,18.44-37.61,44.22-68.01,60.55C995.81,394.58,1010,436.11,1037.02,426.66z"/>
	</g>
	<g>
		<path class="st3" d="M1134.65,219.22c12.81,17.41,24.57,45.39,26.6,48.17c2.2,3,5.41,4.48,8.88,4.14
			c3.81-0.38,8.13-2.64,10.07-11.54c0,0,14.04-57.87-56.94-111.82c-11.07-8.41-26.88-5.55-33.46,6.62c-0.68,1.26-1.33,2.6-1.93,4.04
			c-3.73,8.95-0.38,19.48,7.67,24.9c6.91,4.65,15.75,11.07,23.28,17.99C1119.11,201.97,1127.23,209.14,1134.65,219.22z"/>
	</g>
	<g>
		<path class="st3" d="M934.95,475.72c4.76-0.05,7.59-5.04,5.81-9.48c-6.45-16.06-37.66-42.05-40.25-44.03
			c-16.01-12.27-30.53-26.34-52.27-30.92c-17.33-3.65-34.13,7.43-36.54,24.66c-0.04,0.25-0.07,0.5-0.1,0.76
			c-1.13,8.92,6.18,16.99,15.26,16.87c22.83-0.31,62.33,6.97,98.1,37.79C925.04,471.46,929.92,475.78,934.95,475.72z"/>
	</g>
	<ellipse class="st3" cx="990.72" cy="297.6" rx="24.45" ry="25.28"/>
	<ellipse class="st3" cx="851.26" cy="66.24" rx="24.45" ry="25.28"/>
	<ellipse class="st3" cx="1206.04" cy="132.77" rx="24.45" ry="25.28"/>
	<g>
		<path class="st3" d="M1002.08,142.02c18.42-11.31,47.29-20.67,50.23-22.47c3.18-1.95,4.92-5.02,4.87-8.5
			c-0.05-3.82-1.95-8.32-10.66-11.01c0,0-56.49-18.84-116.2,47.37c-9.31,10.32-7.78,26.32,3.79,33.9c1.2,0.78,2.48,1.54,3.87,2.26
			c8.61,4.47,19.38,2.01,25.45-5.56c5.22-6.5,12.35-14.77,19.88-21.69C983.58,156.06,991.41,148.56,1002.08,142.02z"/>
	</g>
	<g>
		<path class="st3" d="M822.33,579.61c-5.24,42.97,21,123.19,51.29,123.09c16.86-0.05,29.19-14.99,20.96-30.2
			c-10.77-19.88-23.05-53.28-24.27-87.76C869.32,556.82,825.8,551.2,822.33,579.61z"/>
	</g>
	<g>
		<path class="st3" d="M1173.8,17.58c-21.61-37.5-90.77-85.89-114.93-67.62c-13.45,10.17-14.34,29.52,1.38,36.73
			c20.54,9.43,50.43,28.76,72.11,55.6C1149.91,64.03,1188.09,42.38,1173.8,17.58z"/>
	</g>
	<g>
		<path class="st3" d="M1173.8,868.6c-21.61-37.5-90.77-85.89-114.93-67.62c-13.45,10.17-14.34,29.52,1.38,36.73
			c20.54,9.43,50.43,28.76,72.11,55.6C1149.91,915.04,1188.09,893.4,1173.8,868.6z"/>
	</g>
	<g>
		<path class="st3" d="M1318.26,734.15c3.32-3.4,1.8-8.93-2.6-10.81c-15.92-6.78-56.37-3.07-59.6-2.64
			c-20,2.66-40.21,2.98-58.81,15.13c-14.83,9.68-18.86,29.4-8.38,43.28c0.15,0.2,0.31,0.41,0.47,0.61
			c5.51,7.1,16.39,7.64,22.72,1.12c15.91-16.37,48.99-39.17,96.07-42.69C1308.25,738.14,1314.76,737.74,1318.26,734.15z"/>
	</g>
	<ellipse class="st3" cx="1122.24" cy="693.97" rx="24.45" ry="25.28"/>
	<g>
		<path class="st3" d="M955.93,0.96c-20.29-7.43-45.55-24.26-48.79-25.45c-3.5-1.29-6.99-0.74-9.69,1.46
			c-2.96,2.42-5.32,6.69-2.02,15.19c0,0,20.28,55.99,109.24,61.74c13.87,0.9,25.47-10.23,24.23-24c-0.13-1.42-0.33-2.9-0.63-4.44
			c-1.84-9.52-10.45-16.44-20.15-16.51c-8.33-0.06-19.25-0.52-29.34-2.13C978.41,6.75,967.67,5.26,955.93,0.96z"/>
	</g>
</g>
<g id="Layer_3" class="st4">
</g>
</svg>
