<?xml version="1.0" encoding="utf-8"?>
<!-- Generator: Adobe Illustrator 25.4.6, SVG Export Plug-In . SVG Version: 6.00 Build 0)  -->
<svg version="1.1" xmlns="http://www.w3.org/2000/svg" xmlns:xlink="http://www.w3.org/1999/xlink" x="0px" y="0px"
	 viewBox="0 0 2115 871.6" style="enable-background:new 0 0 2115 871.6;" xml:space="preserve">
<style type="text/css">
	.st0{fill:#312F41;}
	.st1{fill:#F5E5E2;}
	.st2{fill:#F39586;}
	.st3{fill:#F7B59E;}
</style>
<g id="Layer_1">
	<g id="Logo">
		<path class="st0" d="M1133.7,383.1c-10.9-4.7-20.6-11.8-28.4-20.7c-0.8-0.8-1.3-1.9-1.4-3.1c0.1-1.3,0.7-2.6,1.7-3.4l20.2-19.2
			c0.8-0.9,1.9-1.4,3.1-1.5c1.3,0,2.5,0.7,3.3,1.7c4.6,4.9,10.2,8.7,16.4,11.4c5.9,2.5,12.3,3.8,18.8,3.8c6.5,0,11.3-1.1,14.5-3.3
			c3.1-2,4.9-5.4,4.8-9c0.1-2.4-0.7-4.8-2.1-6.8c-1.4-1.9-4.1-3.8-8.1-5.7c-5.7-2.5-11.5-4.7-17.5-6.4c-12.4-3.6-24-9.7-34-17.9
			c-10-8.2-15-19.2-15-33.2c-0.1-8.1,2.1-16.1,6.3-23c4.2-7,10.6-12.6,19.2-16.9c8.6-4.2,19.2-6.3,31.8-6.4
			c10.4,0,20.7,1.9,30.4,5.7c9.4,3.7,18.2,8.9,25.8,15.4c1,0.8,1.7,2,1.7,3.3c-0.1,1.2-0.5,2.3-1.4,3.2l-18.5,20.8
			c-0.8,1.1-2,1.8-3.3,1.8c-1.1-0.1-2.2-0.5-3.1-1.3c-4.4-3.5-9.3-6.3-14.5-8.5c-5-2.2-10.5-3.4-16-3.5c-10.7,0-16.1,3.2-16.1,9.5
			c-0.1,2.5,0.9,5,2.7,6.8c2,2,4.4,3.6,7,4.7c2.9,1.3,7.4,3,13.6,5.1c0.8,0.2,2.1,0.7,3.8,1.3c9.4,3.1,18.4,7.2,26.9,12.2
			c6.7,4,12.3,9.4,16.5,16c3.9,6.3,5.8,13.9,5.8,22.7c0,10.2-2.5,19.2-7.4,26.9c-5.1,7.9-12.4,14.2-21,18
			c-9.1,4.2-19.6,6.3-31.6,6.4C1156.5,390.4,1144.7,387.9,1133.7,383.1z"/>
		<path class="st0" d="M1278.9,381.3c-11-6.2-20.1-15.2-26.5-26.1c-6.5-10.9-9.9-23.3-9.8-36c-0.1-12.8,3.3-25.5,9.8-36.5
			c6.4-10.9,15.7-20,26.7-26.2c23-12.9,51.1-12.9,74.1,0c11.1,6.2,20.3,15.3,26.8,26.2c6.5,11,9.9,23.7,9.8,36.5
			c0.1,12.7-3.3,25.1-9.9,36c-6.5,10.9-15.8,19.9-26.9,26.1c-11.4,6.4-24.2,9.7-37.2,9.6C1302.8,391,1290.1,387.7,1278.9,381.3z
			 M1333.7,349.2c5.2-3,9.6-7.3,12.6-12.5c3.1-5.4,4.7-11.5,4.6-17.7c0.1-6.3-1.5-12.4-4.6-17.8c-3-5.2-7.3-9.6-12.6-12.6
			c-10.9-6.1-24.1-6.1-35,0c-5.2,3-9.6,7.3-12.6,12.6c-3.1,5.4-4.7,11.6-4.6,17.8c-0.1,6.2,1.5,12.3,4.6,17.7
			c3,5.2,7.3,9.5,12.6,12.5C1309.6,355.3,1322.8,355.3,1333.7,349.2z"/>
		<path class="st0" d="M1520,256.4c10.8,6.2,19.8,15.2,26.1,26c6.4,10.9,9.8,23.3,9.7,36c0.1,12.7-3.2,25.2-9.6,36.2
			c-6.3,10.9-15.2,19.9-26.1,26.2c-10.9,6.4-23.3,9.8-36,9.7c-12.7,0-23.6-3.5-32.5-10.4v43.5c0,3.1-1.5,4.6-4.6,4.6h-29.7
			c-3,0-4.6-1.5-4.6-4.6V253.7c0-3,1.5-4.6,4.6-4.6h22c2.3-0.1,4.5,1.3,5.3,3.6l3.3,7.8c9.6-9.1,21.7-13.6,36.3-13.6
			C1496.7,246.7,1509.1,250,1520,256.4z M1500.6,348.9c5-2.9,9.2-7.1,12-12.2c3-5.4,4.5-11.5,4.3-17.7c0.1-6.3-1.4-12.5-4.4-18
			c-2.8-5.2-7-9.5-12.1-12.5c-16.1-9.5-36.9-4.1-46.4,12c-0.1,0.2-0.2,0.4-0.4,0.6c-3,5.5-4.6,11.6-4.5,17.9
			c-0.1,6.2,1.5,12.3,4.5,17.7c2.9,5.1,7.1,9.4,12.2,12.3c5.3,3,11.3,4.5,17.3,4.4C1489.4,353.4,1495.3,351.9,1500.6,348.9
			L1500.6,348.9z"/>
		<path class="st0" d="M1687.6,254.5c8.5,5.2,15.3,12.7,19.7,21.7c4.7,9.3,7,20.1,7,32.4v74.4c0,3-1.5,4.6-4.6,4.6H1680
			c-3,0-4.6-1.5-4.6-4.6v-70c0.1-5.5-1-11-3.4-16.1c-2.1-4.4-5.4-8.1-9.5-10.7c-4.3-2.6-9.2-3.9-14.2-3.8
			c-10.9-0.1-21.2,5.5-27,14.8c-2.7,4.2-4.1,9.1-4.1,14.1v71.7c0,3-1.5,4.6-4.6,4.6h-29.4c-3.1,0-4.6-1.5-4.6-4.6V213.3
			c0-3.1,1.5-4.6,4.6-4.6h29.4c3.1,0,4.6,1.5,4.6,4.6v49.9c5.7-5,12.2-9,19.3-11.8c6.8-2.9,14.2-4.5,21.6-4.6
			C1669.3,246.8,1679.2,249.3,1687.6,254.5z"/>
		<path class="st0" d="M1747.7,234.2c-3.1,0-4.6-1.5-4.6-4.6v-26.9c0-3,1.5-4.6,4.6-4.6h30.3c3.1,0,4.6,1.5,4.6,4.6v26.9
			c0,3.1-1.5,4.6-4.6,4.6H1747.7z M1782.2,382.9c0,3-1.5,4.6-4.6,4.6h-29.7c-3.1,0-4.6-1.5-4.6-4.6V253.7c0-3,1.5-4.6,4.6-4.6h29.7
			c3.1,0,4.6,1.5,4.6,4.6V382.9z"/>
		<path class="st0" d="M1840.3,381.2c-10.8-6.3-19.6-15.3-25.7-26.2c-6.1-11-9.3-23.4-9.2-35.9c-0.1-12.6,2.9-25,8.8-36.2
			c5.6-10.8,14.1-19.9,24.4-26.3c10.4-6.5,22.3-9.8,35.6-9.8c14.3,0,26.8,3.1,37.3,9.3c10.4,6,18.7,14.9,24.1,25.6
			c5.5,10.9,8.3,23.3,8.3,37.2c0,3-0.2,6-0.5,9c-0.3,2.8-1.9,4.2-4.8,4.2h-93.2c2.2,7.2,6.7,13.5,12.9,17.9
			c6.1,4.3,13.4,6.5,20.8,6.4c4.6,0.1,9.1-0.7,13.4-2.1c4.2-1.5,8.1-3.6,11.7-6.1c0.8-0.7,1.9-1.1,3-1.1c1.4,0.1,2.6,0.9,3.3,2.1
			l14.1,20c0.6,0.8,1,1.8,1,2.9c0,1.4-0.7,2.6-1.8,3.4c-6.4,5-13.6,8.9-21.2,11.5c-8.1,2.8-16.6,4.1-25.1,4.1
			C1863.7,390.9,1851.3,387.7,1840.3,381.2z M1905.4,303.5c-2.1-7.5-5.8-13.3-11-17.4c-5.2-4-11.5-6.1-19-6.1
			c-6.8-0.1-13.5,2-19,6.2c-5.4,4.1-9.2,9.9-11.4,17.3H1905.4z"/>
		<path class="st0" d="M1222.1,638.2c0,3-1.5,4.6-4.6,4.6h-98.6c-3.1,0-4.6-1.5-4.6-4.6V486.6c0-3,1.5-4.6,4.6-4.6h32
			c3,0,4.6,1.5,4.6,4.6v116.8h62c3.1,0,4.6,1.5,4.6,4.6L1222.1,638.2z"/>
		<path class="st0" d="M1342.7,507.9c0.8-2.2,2.9-3.7,5.3-3.5h22c3,0,4.6,1.5,4.6,4.6v129.3c0,3-1.5,4.6-4.6,4.6h-22.8
			c-2.3,0.1-4.5-1.3-5.3-3.5l-2.9-6.9c-9.5,8.9-21.5,13.4-35.9,13.4c-12.7,0.1-25.1-3.2-36-9.7c-10.9-6.3-19.9-15.3-26.1-26.2
			c-6.4-11-9.7-23.5-9.6-36.2c-0.1-12.7,3.2-25.1,9.7-36c6.3-10.8,15.3-19.7,26.1-26c10.9-6.4,23.3-9.7,35.9-9.6
			c14.6,0,26.6,4.5,36.3,13.6L1342.7,507.9z M1321.1,604.2c5.2-2.9,9.4-7.1,12.3-12.2c3.1-5.4,4.6-11.5,4.5-17.7
			c0.1-6.3-1.4-12.4-4.5-17.9c-2.9-5.2-7.1-9.5-12.2-12.5c-10.7-6.1-23.8-6.1-34.5-0.1c-5.1,3-9.3,7.3-12.1,12.5
			c-3,5.5-4.5,11.7-4.4,18c-0.1,6.2,1.4,12.3,4.3,17.7c2.8,5.1,7,9.3,12,12.2c5.2,3,11.2,4.5,17.2,4.4
			C1309.9,608.7,1315.8,607.1,1321.1,604.2z"/>
		<path class="st0" d="M1507.4,510.2c1.4,0.7,2.3,2.1,2.4,3.7c0,0.9-0.3,1.8-0.7,2.6l-13.2,24.7c-0.9,1.7-2.1,2.5-3.5,2.5
			c-0.9,0-1.8-0.3-2.6-0.8c-5.5-3-10.8-4.6-15.8-4.6c-4.9,0-9.7,1.5-13.8,4.1c-4.6,3-8.3,7.2-10.7,12.2c-2.7,5.4-4.1,11.8-4.1,19.4
			v64.2c0,3-1.5,4.6-4.6,4.6h-29.7c-3,0-4.6-1.5-4.6-4.6V509c0-3,1.5-4.6,4.6-4.6h22.8c2.3-0.1,4.5,1.3,5.3,3.5l5.6,13.4
			c3.5-5.9,8.5-10.7,14.4-14.1c6.3-3.5,13.3-5.3,20.5-5.1C1489,502.1,1498.2,504.8,1507.4,510.2z"/>
		<path class="st0" d="M1659.7,637.3c0.6,0.8,0.9,1.8,0.9,2.8c0,0.8-0.3,1.5-1,2c-0.9,0.5-1.9,0.8-2.9,0.7h-35.3
			c-2.2,0.1-4.4-1-5.5-3l-33.3-50.9L1567,606v32.3c0,3-1.5,4.6-4.6,4.6h-29.7c-3.1,0-4.6-1.5-4.6-4.6V468.6c0-3,1.5-4.6,4.6-4.6
			h29.7c3.1,0,4.6,1.5,4.6,4.6v86.7l39.8-48.3c1.3-1.7,3.4-2.7,5.6-2.6h40.2c1,0,2,0.2,2.9,0.7c0.7,0.4,1.1,1.1,1.1,1.9
			c-0.1,1.2-0.6,2.2-1.5,3l-46,50.1L1659.7,637.3z"/>
		<path class="st0" d="M1685.2,489.5c-3,0-4.6-1.5-4.6-4.6v-26.9c0-3,1.5-4.6,4.6-4.6h30.3c3,0,4.6,1.5,4.6,4.6v26.9
			c0,3-1.5,4.6-4.6,4.6H1685.2z M1719.8,638.2c0,3-1.5,4.6-4.6,4.6h-29.7c-3,0-4.6-1.5-4.6-4.6V509c0-3,1.5-4.6,4.6-4.6h29.7
			c3,0,4.6,1.5,4.6,4.6V638.2z"/>
		<path class="st0" d="M1861.5,509.8c8.5,5.2,15.3,12.7,19.7,21.7c4.7,9.3,7,20.1,7,32.4v74.3c0,3-1.5,4.6-4.6,4.6h-29.7
			c-3.1,0-4.6-1.5-4.6-4.6v-70c0-9.3-2.3-16.7-6.9-22.2s-10.9-8.3-19-8.3c-11.2,0-21.6,5.6-27.8,14.8c-2.8,4.1-4.4,9-4.4,14v71.7
			c0,3-1.5,4.6-4.6,4.6h-29.7c-3,0-4.6-1.5-4.6-4.6V509c0-3,1.5-4.6,4.6-4.6h22.8c2.3-0.1,4.5,1.3,5.3,3.5l4.9,11.8
			c5.8-5.4,12.5-9.7,19.8-12.6c7.1-3.2,14.8-4.9,22.5-5C1843.2,502.1,1853,504.6,1861.5,509.8z"/>
		<path class="st0" d="M1934.6,640.8c-9.4-3.8-18-9.2-25.6-16c-1.1-0.8-1.8-2-1.8-3.3c0.1-1.1,0.5-2.2,1.2-3.1l15.4-19.3
			c0.7-1.1,2-1.9,3.3-2c1.1,0.1,2.2,0.5,3.1,1.3c5.1,3.9,10.6,7.2,16.5,9.7c5.2,2.2,10.8,3.4,16.5,3.4c3.2,0.2,6.4-0.6,9.2-2.2
			c2.2-1.3,3.5-3.7,3.4-6.2c0-1.9-0.7-3.6-2-5c-2-2-4.3-3.5-6.9-4.6c-4.6-2.1-9.2-3.9-14-5.4c-11.5-3.9-21-9.2-28.5-15.9
			c-7.5-6.7-11.2-15.9-11.2-27.7c0-7.3,1.9-14.5,5.6-20.8c3.7-6.4,9.3-11.6,16.9-15.5c7.6-3.9,16.9-5.9,28-5.9
			c8,0.1,16,1.6,23.5,4.5c8,3,15.2,7.5,21.3,13.4c0.9,0.8,1.5,2,1.6,3.2c-0.1,1.2-0.7,2.4-1.6,3.2l-18.1,18.6c-0.8,1-2,1.6-3.2,1.6
			c-1.2-0.1-2.3-0.6-3.2-1.4c-3.2-2.5-6.6-4.6-10.4-6.2c-3.5-1.6-7.4-2.4-11.3-2.5c-3.9,0-6.8,0.7-8.9,2.2c-2,1.4-3.1,3.6-3,6
			c0,1.8,0.8,3.5,2.2,4.7c2.1,1.8,4.5,3.2,7.2,4.2c3.3,1.4,7.9,3.1,13.7,5c12.6,4,22.3,9.5,29.2,16.2c6.9,6.8,10.3,16,10.3,27.6
			c0,7.5-2,14.9-5.8,21.3c-4.1,6.8-9.9,12.3-16.9,16c-7.3,4.1-16,6.2-26.1,6.2C1954.3,646.3,1944.2,644.5,1934.6,640.8z"/>
	</g>
</g>
<g id="Layer_2">
	<g>
		<path class="st1" d="M284,297.2c0,0,86.7,33.1,207.2,51.2c0,0-170.6-18.9-200.7-42.9C260.3,281.4,284,297.2,284,297.2z"/>
		<path class="st1" d="M343.1,358.4c55.9,13.7,113.8,17.6,171.1,11.7c-52.6,5.6-105.7,5.7-158.4,0.3
			C273.1,361.1,343.1,358.4,343.1,358.4z"/>
		<path class="st1" d="M415.5,411.2c0,0,58.9,7.3,110.6-14.6c0,0-35.7,19.7-98.4,22.8S415.5,411.2,415.5,411.2z"/>
		<path class="st1" d="M507.4,449.7c0,0,24.9-2.7,50.2-29c-13.7,14.3-29.9,26-47.8,34.5C479.1,470,507.4,449.7,507.4,449.7z"/>
		<path class="st0" d="M929.2,91h-0.2h-0.2c-3.1,0.8-23.2,6.1-50.6,16.2h-0.1l-1.9,0.6l0,0c-75.7,24.9-163.8,55.8-163.8,55.8
			s-101.7-33.4-155.7,34.9l0,0c-2.2,2.7-4.2,5.6-6.2,8.7l0,0c-0.8,1.3-1.6,2.6-2.3,3.9C526,250.8,528,309.7,528,309.7l-0.4,39.5
			c-24.1-19.4-51.3-34.5-80.5-44.6c-74.2-25.4-161.4-58.9-351-77.2c0,0,5.8,8.5,16.6,22.4l0,0l0.3,0.4l1.4,1.9l0.2,0.3
			c9.4,11.9,21.9,21,36.2,26.2l3.8,1.1h0.3c115.6,33.6,217.8,53.5,221,54.2c-154.6-5.7-207-26.5-221.8-34.5
			c12,13.3,25.7,27.6,40.7,42.1l0,0l0,0l0,0c3.9,3.7,7.8,7.5,11.9,11.2c20.3,17.3,43.6,30.9,68.6,40l0,0h0.2
			c4,1.2,48.2,14.4,112.7,15.4c-31.2,8.2-63.6,11-95.8,8.5c-0.9-0.1-1.7,0.6-1.8,1.6c0,0.6,0.2,1.2,0.7,1.5
			c39.7,26.2,83.9,48,131,59.6h0.2c5.5,1.1,11,1.7,16.6,1.9l0,0h3.3h2.6l3.8-0.2h1.3h1.3c3.6-0.3,7.2-0.8,10.8-1.5
			c1.5-0.3,3-0.6,4.6-1l2.3-0.6l0,0c0.8-0.2,1.6-0.4,2.3-0.7l1.7-0.5l1.3-0.4l2.6-0.9l1.3-0.5l0,0l2.6-1.1l1.5-0.6l1.4-0.6l1.4-0.7
			l1.3-0.6l1.4-0.7l1.3-0.7h0.2l1.3-0.7l2.7-1.6c0.9-0.6,1.8-1.2,2.8-1.8l1.4-0.9c0,0,0,0,0.1,0c1.8-1.3,3.6-2.6,5.3-4
			c0,0-0.7,1.2-2,2.9c-1.6,2.3-3.3,4.5-5.1,6.7l-0.6,0.7c-1.6,1.8-3.4,3.7-5.6,5.7l-0.7,0.6c-1.5,1.4-3.2,2.9-5,4.3
			c-1,0.8-1.9,1.5-3,2.3c-1.1,0.8-2.3,1.7-3.6,2.6l-0.8,0.5l-0.5,0.3l0,0c-14.3,9.3-31,14.4-48.1,14.7
			c-90.1,167-153.1,268.2-175,302.6c-0.5,0.8-0.3,1.8,0.5,2.3c0.7,0.4,1.5,0.4,2.1-0.2c59.9-58.2,187.6-164.9,229.8-184.8
			c24.6-11.6,263.7-112.6,205.4-284.7c-14.3-42.1-7.3-78.3,11.3-109l0,0c36-47.2,126.1-93.1,180.7-117.8l0,0
			c14-6.1,29.3-12.6,45.9-19.3L929.2,91z M673.9,216.3c-10,2.5-20.3-3.4-23-13.4c-0.2-0.6-0.3-1.2-0.4-1.9
			c-1.8-10.4,5.2-20.2,15.6-21.9c10.4-1.8,20.2,5.2,21.9,15.6C689.6,204.4,683.5,213.9,673.9,216.3L673.9,216.3z"/>
		<path class="st2" d="M856,572.4c-37.8-0.1-68.6,30.4-68.7,68.3c0,0,0,0,0,0c0-9.9-2.1-19.6-6.1-28.6l0,0
			c-6.8-14.8-18.7-26.8-33.4-33.7l0,0l-0.3-0.2h-0.1l-0.9-0.4h-0.3l-0.7-0.3l-1-0.4l-1.7-0.7l-1.6-0.6l-0.4-0.1l-0.8-0.3l-0.5-0.2
			l-0.5-0.2l-0.9-0.3l-0.8-0.2l-1.2-0.3c-0.4,0-0.8-0.2-1.3-0.3l-1.5-0.4h-0.3l-1.3-0.3H731l-1.1-0.2h-0.5l-1.2-0.2
			c-0.2,0-0.5,0-0.7,0h-0.7h-0.3h-0.5h-0.6h-0.7h-0.7h-1.4H721h-1.9c37.8,0.1,68.5-30.4,68.6-68.2c0,0,0-0.1,0-0.1
			c-0.1,26.7,15.4,51.1,39.6,62.3l0,0C836.4,570.8,846.2,572.7,856,572.4z"/>
		<path class="st3" d="M266.8,563.6c-37.8-0.1-68.5,30.4-68.6,68.1c0,0,0,0.1,0,0.1c0-9.9-2.1-19.7-6.2-28.6l0,0
			c-6.8-14.9-18.6-26.8-33.4-33.7l0,0l-0.3-0.2l0,0l-1-0.4h-0.2l-0.7-0.3l-0.9-0.4l-1.7-0.7L152,567h-0.4l-0.8-0.3l-0.5-0.2
			l-0.5-0.2l-0.9-0.3l-0.8-0.2l-1.2-0.3c-0.4,0-0.8-0.2-1.3-0.3l-1.5-0.4h-0.3l-1.3-0.3H142l-1.1-0.2h-0.5l-1.2-0.2h-0.7h-0.7h-0.3
			H137h-0.4h-0.2c-0.2,0-0.4,0-0.7,0H135h-1.4H132h-1.9c9.9,0.1,19.7-2,28.6-6.1c24.3-11.1,39.9-35.4,40-62.1
			c-0.1,26.7,15.4,51.1,39.6,62.3l0,0C247.4,562.1,257.1,563.9,266.8,563.6z"/>
		<path class="st2" d="M401.9,124c-18.6,0-35.5,10.9-43.3,27.8c-2.9,6.3-4.4,13.1-4.3,20c0-6.9-1.5-13.7-4.4-19.9l0,0
			c-4.8-10.3-13.1-18.6-23.4-23.3l0,0h-0.2l0,0l-0.7-0.3h-0.2l-0.5-0.2l-0.7-0.3l-1.2-0.5l-1.1-0.4h-0.3l-0.6-0.2l-0.4-0.1h-0.3
			l-0.6-0.2l-0.5-0.2l-0.8-0.2l-0.9-0.2l-1.1-0.2h-0.2l-0.9-0.2h-0.4h-0.7h-0.3H313h-0.5H312h-0.5h-0.3H310h-1h-1.1h-1.3
			c26.3,0,47.6-21.4,47.6-47.7c0,0,0,0,0-0.1c0,6.9,1.5,13.7,4.4,19.9c4.8,10.3,13.1,18.6,23.4,23.3l0,0
			C388.3,123.4,395.1,124.4,401.9,124z"/>
		<path class="st3" d="M903.9,487c-5.1,0-10,1.1-14.6,3.3c-12.4,5.8-20.2,18.3-20.1,32c0-5.1-1.2-10-3.3-14.6l0,0
			c-3.6-7.6-9.7-13.6-17.3-17l0,0h-0.2l0,0l-0.5-0.2h-0.1l-0.4-0.2l-0.5-0.2l-0.9-0.4l-0.8-0.3H845l-0.4-0.1h-0.3H844l-0.5-0.2h-0.4
			l-0.6-0.2l-0.7-0.2l-0.8-0.2H841l-0.7-0.1h-0.3h-0.6h-0.2h-0.6h-0.4h-0.4h-1.4h-0.7h-1.8c19.3-0.1,34.9-15.9,34.7-35.2
			c0,0,0-0.1,0-0.1c0.1,13.7,8.1,26,20.6,31.6l0,0C893.9,486.6,898.9,487.3,903.9,487z"/>
	</g>
</g>
</svg>
