<?xml version="1.0" encoding="utf-8"?>
<!-- Generator: Adobe Illustrator 25.4.6, SVG Export Plug-In . SVG Version: 6.00 Build 0)  -->
<svg version="1.1" id="Layer_1" xmlns="http://www.w3.org/2000/svg" xmlns:xlink="http://www.w3.org/1999/xlink" x="0px" y="0px"
	 viewBox="0 0 1061.1 871.6" style="enable-background:new 0 0 1061.1 871.6;" xml:space="preserve">
<style type="text/css">
	.st0{fill:#F5E5E2;}
	.st1{fill:#312F41;}
	.st2{fill:#F39586;}
	.st3{fill:#F7B59E;}
</style>
<g id="Layer_2_00000060729093799558456410000012347748133324183960_">
	<g>
		<path class="st0" d="M284,297.2c0,0,86.7,33.1,207.2,51.2c0,0-170.6-18.9-200.7-42.9C260.3,281.4,284,297.2,284,297.2z"/>
		<path class="st0" d="M343.1,358.4c55.9,13.7,113.8,17.6,171.1,11.7c-52.6,5.6-105.7,5.7-158.4,0.3
			C273.1,361.1,343.1,358.4,343.1,358.4z"/>
		<path class="st0" d="M415.5,411.2c0,0,58.9,7.3,110.6-14.6c0,0-35.7,19.7-98.4,22.8S415.5,411.2,415.5,411.2z"/>
		<path class="st0" d="M507.4,449.7c0,0,24.9-2.7,50.2-29c-13.7,14.3-29.9,26-47.8,34.5C479.1,470,507.4,449.7,507.4,449.7z"/>
		<path class="st1" d="M929.2,91H929h-0.2c-3.1,0.8-23.2,6.1-50.6,16.2h-0.1l-1.9,0.6l0,0c-75.7,24.9-163.8,55.8-163.8,55.8
			s-101.7-33.4-155.7,34.9l0,0c-2.2,2.7-4.2,5.6-6.2,8.7l0,0c-0.8,1.3-1.6,2.6-2.3,3.9C526,250.8,528,309.7,528,309.7l-0.4,39.5
			c-24.1-19.4-51.3-34.5-80.5-44.6c-74.2-25.4-161.4-58.9-351-77.2c0,0,5.8,8.5,16.6,22.4l0,0l0.3,0.4l1.4,1.9l0.2,0.3
			c9.4,11.9,21.9,21,36.2,26.2l3.8,1.1h0.3c115.6,33.6,217.8,53.5,221,54.2c-154.6-5.7-207-26.5-221.8-34.5
			c12,13.3,25.7,27.6,40.7,42.1l0,0l0,0l0,0c3.9,3.7,7.8,7.5,11.9,11.2c20.3,17.3,43.6,30.9,68.6,40l0,0h0.2
			c4,1.2,48.2,14.4,112.7,15.4c-31.2,8.2-63.6,11-95.8,8.5c-0.9-0.1-1.7,0.6-1.8,1.6c0,0.6,0.2,1.2,0.7,1.5
			c39.7,26.2,83.9,48,131,59.6h0.2c5.5,1.1,11,1.7,16.6,1.9l0,0h3.3h2.6l3.8-0.2h1.3h1.3c3.6-0.3,7.2-0.8,10.8-1.5
			c1.5-0.3,3-0.6,4.6-1l2.3-0.6l0,0c0.8-0.2,1.6-0.4,2.3-0.7l1.7-0.5l1.3-0.4l2.6-0.9l1.3-0.5l0,0l2.6-1.1l1.5-0.6l1.4-0.6l1.4-0.7
			l1.3-0.6l1.4-0.7l1.3-0.7h0.2l1.3-0.7l2.7-1.6c0.9-0.6,1.8-1.2,2.8-1.8l1.4-0.9c0,0,0,0,0.1,0c1.8-1.3,3.6-2.6,5.3-4
			c0,0-0.7,1.2-2,2.9c-1.6,2.3-3.3,4.5-5.1,6.7l-0.6,0.7c-1.6,1.8-3.4,3.7-5.6,5.7l-0.7,0.6c-1.5,1.4-3.2,2.9-5,4.3
			c-1,0.8-1.9,1.5-3,2.3s-2.3,1.7-3.6,2.6l-0.8,0.5l-0.5,0.3l0,0c-14.3,9.3-31,14.4-48.1,14.7c-90.1,167-153.1,268.2-175,302.6
			c-0.5,0.8-0.3,1.8,0.5,2.3c0.7,0.4,1.5,0.4,2.1-0.2c59.9-58.2,187.6-164.9,229.8-184.8c24.6-11.6,263.7-112.6,205.4-284.7
			c-14.3-42.1-7.3-78.3,11.3-109l0,0c36-47.2,126.1-93.1,180.7-117.8l0,0c14-6.1,29.3-12.6,45.9-19.3L929.2,91z M673.9,216.3
			c-10,2.5-20.3-3.4-23-13.4c-0.2-0.6-0.3-1.2-0.4-1.9c-1.8-10.4,5.2-20.2,15.6-21.9c10.4-1.8,20.2,5.2,21.9,15.6
			C689.6,204.4,683.5,213.9,673.9,216.3L673.9,216.3z"/>
		<path class="st2" d="M856,572.4c-37.8-0.1-68.6,30.4-68.7,68.3l0,0c0-9.9-2.1-19.6-6.1-28.6l0,0c-6.8-14.8-18.7-26.8-33.4-33.7
			l0,0l-0.3-0.2h-0.1l-0.9-0.4h-0.3l-0.7-0.3l-1-0.4l-1.7-0.7l-1.6-0.6l-0.4-0.1l-0.8-0.3l-0.5-0.2L739,575l-0.9-0.3l-0.8-0.2
			l-1.2-0.3c-0.4,0-0.8-0.2-1.3-0.3l-1.5-0.4H733l-1.3-0.3H731l-1.1-0.2h-0.5l-1.2-0.2c-0.2,0-0.5,0-0.7,0h-0.7h-0.3H726h-0.6h-0.7
			H724h-1.4H721h-1.9c37.8,0.1,68.5-30.4,68.6-68.2v-0.1c-0.1,26.7,15.4,51.1,39.6,62.3l0,0C836.4,570.8,846.2,572.7,856,572.4z"/>
		<path class="st3" d="M266.8,563.6c-37.8-0.1-68.5,30.4-68.6,68.1v0.1c0-9.9-2.1-19.7-6.2-28.6l0,0c-6.8-14.9-18.6-26.8-33.4-33.7
			l0,0l-0.3-0.2l0,0l-1-0.4h-0.2l-0.7-0.3l-0.9-0.4l-1.7-0.7L152,567h-0.4l-0.8-0.3l-0.5-0.2l-0.5-0.2l-0.9-0.3l-0.8-0.2l-1.2-0.3
			c-0.4,0-0.8-0.2-1.3-0.3l-1.5-0.4h-0.3l-1.3-0.3H142l-1.1-0.2h-0.5l-1.2-0.2h-0.7h-0.7h-0.3H137h-0.4h-0.2c-0.2,0-0.4,0-0.7,0H135
			h-1.4H132h-1.9c9.9,0.1,19.7-2,28.6-6.1c24.3-11.1,39.9-35.4,40-62.1c-0.1,26.7,15.4,51.1,39.6,62.3l0,0
			C247.4,562.1,257.1,563.9,266.8,563.6z"/>
		<path class="st2" d="M401.9,124c-18.6,0-35.5,10.9-43.3,27.8c-2.9,6.3-4.4,13.1-4.3,20c0-6.9-1.5-13.7-4.4-19.9l0,0
			c-4.8-10.3-13.1-18.6-23.4-23.3l0,0h-0.2l0,0l-0.7-0.3h-0.2l-0.5-0.2l-0.7-0.3l-1.2-0.5l-1.1-0.4h-0.3l-0.6-0.2l-0.4-0.1h-0.3
			l-0.6-0.2l-0.5-0.2l-0.8-0.2l-0.9-0.2l-1.1-0.2h-0.2l-0.9-0.2h-0.4h-0.7h-0.3H313h-0.5H312h-0.5h-0.3H310h-1h-1.1h-1.3
			c26.3,0,47.6-21.4,47.6-47.7c0,0,0,0,0-0.1c0,6.9,1.5,13.7,4.4,19.9c4.8,10.3,13.1,18.6,23.4,23.3l0,0
			C388.3,123.4,395.1,124.4,401.9,124z"/>
		<path class="st3" d="M903.9,487c-5.1,0-10,1.1-14.6,3.3c-12.4,5.8-20.2,18.3-20.1,32c0-5.1-1.2-10-3.3-14.6l0,0
			c-3.6-7.6-9.7-13.6-17.3-17l0,0h-0.2l0,0l-0.5-0.2h-0.1l-0.4-0.2l-0.5-0.2l-0.9-0.4l-0.8-0.3H845l-0.4-0.1h-0.3H844l-0.5-0.2h-0.4
			l-0.6-0.2l-0.7-0.2l-0.8-0.2l0,0l-0.7-0.1H840h-0.6h-0.2h-0.6h-0.4h-0.4h-1.4h-0.7h-1.8c19.3-0.1,34.9-15.9,34.7-35.2v-0.1
			c0.1,13.7,8.1,26,20.6,31.6l0,0C893.9,486.6,898.9,487.3,903.9,487z"/>
	</g>
</g>
</svg>
