<svg id="Layer_1" data-name="Layer 1" xmlns="http://www.w3.org/2000/svg" viewBox="0 0 1200 700"><defs><style>.cls-1{fill:#f6a125;}.cls-2{fill:#08171d;}</style></defs><g id="Bg"><rect class="cls-1" x="0.18" y="-0.02" width="1199.76" height="699.62"/></g><g id="Final_Logo" data-name="Final Logo"><circle class="cls-2" cx="436.5" cy="225.44" r="45.69"/><path class="cls-2" d="M479,357.15a68.28,68.28,0,0,0,7.89,2.4,31.2,31.2,0,0,0,35.81-18.13,315.82,315.82,0,0,1,21-41.12,3.94,3.94,0,0,1,7.09,3.27c-8.56,27-23.89,50.27-19.7,94.67,0,0,7.72,55.77,42.53,69.65,14.68,5.85,30.58-5.3,30.72-21.11C604.66,412.5,611,346,652.21,302.61a3.77,3.77,0,0,1,6,4.42c-18.34,32.6-49,99.2-38.53,165.13a73.24,73.24,0,0,0,83.47,61.32c.89-.14,1.78-.29,2.66-.46l1.9-.38a34.79,34.79,0,0,0,27-41.13,33.69,33.69,0,0,0-1.69-5.65c-19.49-49.84-45.91-149,2.12-243.16a36.22,36.22,0,0,0,4-16.8c-.08-6.55-2-14.28-9-20a26.26,26.26,0,0,0-16-5.7c-17.57-.43-67.89,3.76-95,61.78-2,4.37-8.71,3.19-8.91-1.65V260c0-.1,5.16-20.4,22.35-42.35a18.12,18.12,0,0,0,3.79-14.18c-1.06-6.24-5.75-13.07-20.74-14,0,0-93.1-7.79-155.67,118C450.56,326.44,459.23,349.7,479,357.15Z"/></g></svg>