<svg xmlns="http://www.w3.org/2000/svg" viewBox="0 0 566.93 566.93"><defs><style>.cls-1{fill:#98b770;}.cls-2{fill:#4e5120;}.cls-3{fill:#d3ce8d;}.cls-4{fill:#e8e3c4;}.cls-5{fill:#edc769;}.cls-6{fill:#f2f0e9;}.cls-7{fill:#284289;}.cls-8{fill:#3c68af;}.cls-9{fill:#8a8e59;}.cls-10{fill:#9faf84;}.cls-11{fill:#eae4dc;}.cls-12{fill:#454f3f;}.cls-13{fill:#879677;}.cls-14{fill:#5b5852;}.cls-15{fill:#606029;}.cls-16{fill:#efbdcb;}.cls-17,.cls-19{fill:#706b65;}.cls-18{fill:#423f3b;}.cls-19{stroke:#5b5852;stroke-linecap:round;stroke-width:0.5px;}.cls-19,.cls-27{stroke-miterlimit:10;}.cls-20{fill:#aeb279;}.cls-21{fill:#aeb770;}.cls-22{fill:#d3897f;}.cls-23{fill:#efe9e1;}.cls-24{fill:#d3c6a5;}.cls-25{fill:#efcd81;}.cls-26{fill:#e0dad1;}.cls-27{fill:none;stroke:#d6aa49;stroke-width:0.75px;}</style></defs><g id="BG"><rect class="cls-1" x="-1.79" y="0.78" width="569.21" height="567.13"/></g><g id="Hair"><path class="cls-2" d="M262.62,73.88s32.5-.66,45.34,21.41c18.26,31.4-8.21,27.48,17.29,49.17s2.23,37.43,2.65,42.53,37.22,12.59,41.3,27.55-33.95-2.32-33.95-2.32h-69.7l.11,13.43-3.13,6.57H182.85s-24-2.72-19.95-17.68,40.87-22.45,41.3-27.55-34.86-.85-9.35-22.53,17-19.56,18.28-48c.76-17.1,15.3-28.52,26.81-34.93a66.25,66.25,0,0,1,20.14-7.18c.85-.16,1.69-.3,2.54-.43Z"/></g><g id="Skin"><path class="cls-3" d="M342.14,199.91c-5.41-1-34.72-7.43-46.36-16.87-9.65-7.83-4.14-23.86-4.14-23.86l-23.4-.2v0h-3.39v0l-23.4.2s5.51,16-4.14,23.86c-11.64,9.44-41.76,15.91-47.17,16.87s65.51,61.31,65.51,61.31l10.89,9.67,10.9-9.67S347.55,200.86,342.14,199.91Z"/><path class="cls-3" d="M295.58,138.54c0,22.64-13.05,41-29.15,41s-29.14-18.35-29.14-41,13-41,29.14-41c8,0,15.21,4.51,20.47,11.81.44.61.87,1.24,1.28,1.88C292.78,118.5,295.58,128.06,295.58,138.54Z"/><path class="cls-3" d="M240.09,127s-3.91-6.36-8.7-2.91-5.13,14.62-2.93,18.34,7.11,12.53,13.45,4.9Z"/></g><g id="Clothes"><path class="cls-4" d="M189,199.64l12.9-3.22s47.65-12.81,61,51.31S274.6,566.68,274.6,566.68H146.08s49.27-145,47.12-275.7Z"/><path class="cls-4" d="M343.26,199.64l-12.9-3.22s-47.64-12.81-61,51.31-1.76,318.95-1.76,318.95H386.15S336.89,421.63,339,291Z"/><path class="cls-4" d="M449.37,364.2c-14.84,53.51-114,67-114,67l-19.75-91.43s48.38-.34,56.39-7.52a2.58,2.58,0,0,0,.94-3,19.87,19.87,0,0,0-.9-2C367,316.83,353,304.14,343,295.92c-1.44-1.19-2.8-2.28-4-3.27-4.12-3.25-6.9-5.26-6.9-5.26l11.2-87.75S464.21,310.7,449.37,364.2Z"/><path class="cls-5" d="M225.18,334.77s-8,1.34-3.9,2.9c12.43,4.7,36.71,12.64,57.23,4.21,37.66-15.47,21.69-49.5,21.69-49.5s-21.85-11.57-80.62,35.25c-.71.57,7.27,2.14,6.55,2.72-1.4,1.14.33,0-1.11,1.19"/><path class="cls-6" d="M286.53,263.73h0a18.65,18.65,0,0,1,18.65,18.65v0a16.85,16.85,0,0,1-16.85,16.85H270.71a2.83,2.83,0,0,1-2.83-2.83v-14A18.65,18.65,0,0,1,286.53,263.73Z"/><polygon class="cls-7" points="268.29 297.94 198.6 351.94 243.71 351.31 253.3 325 268.29 297.94"/><path class="cls-4" d="M216.6,339.78l-19.76,91.43s-99.14-13.5-114-67S189,199.64,189,199.64l11.21,87.75s-1.89,1.36-4.86,3.67l-2.06,1.6c-.61.5-1.26,1-1.93,1.55l-2.11,1.72c-10,8.2-23.91,20.83-29,31.19-.36.72-.67,1.43-.94,2.13a2.55,2.55,0,0,0,.85,2.93h0C167.93,339.44,216.6,339.78,216.6,339.78Z"/><path class="cls-8" d="M259.85,295.16l-46,32.93s43.46,10.37,59.49-1.34c14.88-10.87,11.09-39.28-7-34.81A18.26,18.26,0,0,0,259.85,295.16Z"/><polygon class="cls-9" points="276.09 567.04 268.9 371.57 261.2 371.57 255.65 567.04 276.09 567.04"/><path class="cls-10" d="M265.8,275.51a.52.52,0,0,1-.46-.29c-9.69-21.08-26.8-49.05-53.34-62.62-15.82-8.09-27.61-7.19-27.73-7.18a.49.49,0,0,1-.54-.45.5.5,0,0,1,.46-.54c.11,0,12.19-.94,28.27,7.28,26.79,13.7,44,41.87,53.79,63.09a.49.49,0,0,1-.25.66A.46.46,0,0,1,265.8,275.51Z"/><path class="cls-10" d="M266.23,275.51a.54.54,0,0,1-.21-.05.5.5,0,0,1-.25-.66c9.76-21.22,27-49.39,53.8-63.09,16.07-8.22,28.15-7.29,28.27-7.28a.49.49,0,0,1,.45.54.48.48,0,0,1-.54.45c-.12,0-12-.9-27.8,7.21-26.5,13.59-43.59,41.53-53.27,62.59A.49.49,0,0,1,266.23,275.51Z"/><path class="cls-5" d="M300.75,294s11.27,6.4,4.79,30l-4.05-16.07Z"/><path class="cls-5" d="M302.45,319s-1.81,9.17-7.48,16.08l1.48-12.91,5.21-6.46Z"/><path class="cls-5" d="M304.21,316.62s-1.18,9.49-5.14,13.18l-8,.76L303,307.82Z"/><path class="cls-3" d="M272,337.38c7.79.29,28.77,2.18,44.56,6.24l12.83,53.09S247,386.89,241.53,341a3.35,3.35,0,0,1,4.11-3.68l16.64.31"/><path class="cls-3" d="M202.81,396.71s97.32-19.09,102.8-64.95a3.35,3.35,0,0,0-4.11-3.68l-36.95,9.13c-1.28.32-5.79-1.16-.74-7.22l5.3-5.19a2.16,2.16,0,0,0-1.87-3.28h0c-7,.09-19.94,7.42-25.45,11.76-6.12,4.82-10.31,6.28-26.1,10.34Z"/></g><g id="Details"><path class="cls-11" d="M276.14,155.34s-6.64,5.86-17.87-.78c0,0,5.78,6.39,11.22,5.87C269.49,160.43,273.22,160.8,276.14,155.34Z"/><ellipse class="cls-12" cx="258.32" cy="133.44" rx="1.82" ry="3.94"/><ellipse class="cls-12" cx="280.72" cy="133.26" rx="1.82" ry="3.94"/><path class="cls-13" d="M268.77,149.56a5.28,5.28,0,0,1-.93-.08.5.5,0,0,1-.4-.58.5.5,0,0,1,.58-.4c1.85.33,5.69-.79,6.42-2.17.14-.27.25-.7-.37-1.32a7.8,7.8,0,0,1-2.49-5.95.49.49,0,0,1,.54-.45.5.5,0,0,1,.45.55,6.89,6.89,0,0,0,2.21,5.15,2,2,0,0,1,.54,2.48C274.43,148.5,271,149.56,268.77,149.56Z"/><path class="cls-13" d="M257.6,153.75a34.18,34.18,0,0,0,4.79,2.08,22.89,22.89,0,0,0,5,1.13,15.24,15.24,0,0,0,5-.3l1.24-.34,1.19-.49.6-.24.56-.33,1.15-.64a11.66,11.66,0,0,1-4.52,2.79,13.19,13.19,0,0,1-5.37.55,18.5,18.5,0,0,1-9.68-4.21Z"/><path class="cls-13" d="M277.17,154.62a15.66,15.66,0,0,1-3.82,4.66,6.48,6.48,0,0,1-2.85,1.37,7.09,7.09,0,0,1-1.59,0,11.22,11.22,0,0,1-1.53-.19,14.09,14.09,0,0,1-5.61-2.39,15,15,0,0,1-4.17-4.34,21.76,21.76,0,0,0,4.59,3.68,15.81,15.81,0,0,0,5.37,2.07,9.69,9.69,0,0,0,1.42.19l.72.06c.24,0,.44,0,.66,0a6,6,0,0,0,2.53-1.07A22.3,22.3,0,0,0,277.17,154.62Z"/><path class="cls-13" d="M237.63,133.69a.24.24,0,0,1-.22-.14s-1.46-3.07-3.2-3.09h0c-.89,0-1.75.82-2.55,2.44a.25.25,0,0,1-.33.11.25.25,0,0,1-.12-.34c.89-1.8,1.9-2.71,3-2.71h0c2.06,0,3.59,3.24,3.65,3.38a.25.25,0,0,1-.12.33A.22.22,0,0,1,237.63,133.69Z"/><path class="cls-13" d="M234.94,138.14a.26.26,0,0,1-.19-.1c-2.58-3.16-.75-7.62-.67-7.81a.24.24,0,0,1,.32-.13.25.25,0,0,1,.14.33s-1.79,4.37.59,7.3a.25.25,0,0,1,0,.35A.25.25,0,0,1,234.94,138.14Z"/><path class="cls-14" d="M291,280.2a15.56,15.56,0,0,0-1.95-1.22,3.58,3.58,0,0,0-1.95-.46,2.81,2.81,0,0,0-1.71.91c-.25.25-.48.55-.74.83a10.19,10.19,0,0,1-.71.95,9.63,9.63,0,0,1,.28-1.18,6.75,6.75,0,0,1,.57-1.1,3.15,3.15,0,0,1,2.21-1.41,3.5,3.5,0,0,1,2.46.8A5.18,5.18,0,0,1,291,280.2Z"/><path class="cls-15" d="M245.78,107.32a34.46,34.46,0,0,0-3,5,38.09,38.09,0,0,0-2.2,5.43,26.13,26.13,0,0,0-1.13,11.46,21.41,21.41,0,0,0,1.55,5.55l1.15,2.92c.19.49.27,1,.41,1.55a13.69,13.69,0,0,1,.34,1.57A16.33,16.33,0,0,1,243,144a12,12,0,0,1-.14,1.6l-.3,1.57a27.75,27.75,0,0,1-2.26,5.83c-1.84,3.67-4.07,7.05-5.33,10.82s-1.66,7.89-.27,11.62a18.84,18.84,0,0,0,3,5.11c1.25,1.58,2.66,3,3.88,4.68a10.2,10.2,0,0,1,2.26,5.63,12.33,12.33,0,0,1-1.5,5.86,12.22,12.22,0,0,0,1.31-5.85,9.83,9.83,0,0,0-2.37-5.41c-1.24-1.58-2.7-3-4-4.55a19.54,19.54,0,0,1-3.3-5.2,15.37,15.37,0,0,1-1.08-6.11,18,18,0,0,1,.28-3.1c.09-.5.15-1,.28-1.53l.42-1.49c1.2-4,3.38-7.52,5.05-11.14a25.61,25.61,0,0,0,2-5.54l.23-1.43a9.72,9.72,0,0,0,.08-1.43,14.25,14.25,0,0,0-.21-2.84,11.42,11.42,0,0,0-.34-1.4,13.44,13.44,0,0,0-.41-1.37l-1.16-2.71a23.08,23.08,0,0,1-1.9-6.06,28.49,28.49,0,0,1,.84-12.56,39.74,39.74,0,0,1,2.18-5.9,36.75,36.75,0,0,1,3.11-5.54,1.5,1.5,0,0,1,2.48,1.69l0,0Z"/><path class="cls-2" d="M268.16,97.1s-.46,9.37,17.6,12.12L303.82,112,273,91.77Z"/><path class="cls-2" d="M272.92,96.9s-17.36,21.68-36.29,19.2c-15.84-2.08-4.88-18.95-4.88-18.95l31.45-5.38Z"/><path class="cls-2" d="M313.75,107.91a26.56,26.56,0,0,0,1.67,5.71c.74,1.94,1.52,3.9,2.26,5.88s1.4,4,2.14,5.85a30.69,30.69,0,0,0,2.82,5.35,31.63,31.63,0,0,0,8.59,8.51c3.36,2.37,7.11,4.31,10.5,6.95a21.78,21.78,0,0,1,4.48,4.66,18.4,18.4,0,0,1,2.69,5.87,27.27,27.27,0,0,1,.88,6.32,34.46,34.46,0,0,1-.38,6.34c-.31,2.09-.77,4.14-1.22,6.18a32.44,32.44,0,0,0-.94,6.16,8.62,8.62,0,0,0,.43,3,6.11,6.11,0,0,0,1.69,2.54,13.16,13.16,0,0,0,5.6,2.63,13.29,13.29,0,0,1-5.72-2.49,6.41,6.41,0,0,1-1.84-2.58,9,9,0,0,1-.54-3.13,34.55,34.55,0,0,1,.76-6.27c.39-2.06.79-4.11,1-6.17a33.7,33.7,0,0,0,.18-6.19,27.33,27.33,0,0,0-1-6.06,17.55,17.55,0,0,0-2.68-5.41,20.44,20.44,0,0,0-4.33-4.23c-3.29-2.42-7.08-4.25-10.64-6.59a32,32,0,0,1-12.6-14.45c-.88-2-1.55-3.94-2.35-5.87s-1.6-3.83-2.42-5.78a29.58,29.58,0,0,1-2-6.26v0a1.5,1.5,0,1,1,2.95-.52Z"/><path class="cls-15" d="M283.41,88.09a57.65,57.65,0,0,1,11.74,6.34,40.07,40.07,0,0,1,9.77,9.25,28.63,28.63,0,0,1,3,6.12,49.13,49.13,0,0,1,1.89,6.49,59.88,59.88,0,0,1,1.49,13.42,41.8,41.8,0,0,1-.55,6.78,49.85,49.85,0,0,1-1.73,6.57c-1.34,4.28-3.07,8.37-3.92,12.61a29.7,29.7,0,0,0-.62,6.41,12,12,0,0,0,1.79,6,18.76,18.76,0,0,0,4.45,4.67,49.54,49.54,0,0,0,5.57,3.6,38.88,38.88,0,0,1-6-3,18,18,0,0,1-5.06-4.56,12.72,12.72,0,0,1-1.62-3.1,14,14,0,0,1-.72-3.43,26.45,26.45,0,0,1,.45-6.84c.81-4.49,2.48-8.68,3.79-12.87a50,50,0,0,0,1.62-6.31,42.15,42.15,0,0,0,.55-6.47,65,65,0,0,0-1.24-13,40.48,40.48,0,0,0-4.24-12.28,29.38,29.38,0,0,0-4.15-5,46.65,46.65,0,0,0-5-4.35A63.17,63.17,0,0,0,283.41,88.09Z"/><path class="cls-15" d="M300.56,108.77a57.44,57.44,0,0,1-6.89,1.75c-1.16.22-2.34.4-3.53.54-.66.08-1.3.14-2,.19-.41-.64-.84-1.27-1.28-1.88,1,.12,2.1.17,3.16.19s2.33,0,3.5,0A55.44,55.44,0,0,0,300.56,108.77Z"/><path class="cls-15" d="M262.91,93.67a29.13,29.13,0,0,1-4.71,6.75,36.48,36.48,0,0,1-6.24,5.46A40.14,40.14,0,0,1,248.4,108c-.61.32-1.26.58-1.89.88l-.95.42c-.32.13-.66.23-1,.34-.66.22-1.31.46-2,.66l-2,.44c-.34.06-.68.14-1,.19l-1,.1c-.68.07-1.37.11-2.05.14a60.33,60.33,0,0,0,7.5-3,47.47,47.47,0,0,0,6.86-4,65.52,65.52,0,0,0,6.28-4.91C259.11,97.54,261,95.66,262.91,93.67Z"/><path class="cls-14" d="M302.65,276.18c-.35-.46-.63-.92-.93-1.32a1.65,1.65,0,0,0-.43-.42c-.06,0-.07,0-.07,0a.34.34,0,0,0-.09.06,4.88,4.88,0,0,0-.76,1.14,12.57,12.57,0,0,1-.85,1.41,5,5,0,0,1,.12-1.69,3.1,3.1,0,0,1,.86-1.63,1.11,1.11,0,0,1,.63-.26,1,1,0,0,1,.69.2,1.92,1.92,0,0,1,.58.82A3.69,3.69,0,0,1,302.65,276.18Z"/><circle class="cls-16" cx="284.04" cy="286.65" r="3.42"/><path class="cls-17" d="M290.85,287.19s5.07-9.18,8-9,10.41,3.69,10.41,3.69Z"/><polygon class="cls-18" points="292.17 286.75 306.15 292.1 300.84 284.23 292.17 286.75"/><path class="cls-14" d="M293.48,286.37l12.67,5.73s-5.41.42-15.3-4.91Z"/><line class="cls-19" x1="317.48" y1="285.96" x2="329.86" y2="284.11"/><line class="cls-19" x1="335.18" y1="296.95" x2="315.94" y2="291.64"/><line class="cls-19" x1="319.93" y1="303.36" x2="312.84" y2="296.38"/><ellipse class="cls-14" cx="317.02" cy="264.3" rx="2.54" ry="1.69"/><rect class="cls-14" x="317.85" y="256.09" width="1.71" height="8.21"/><ellipse class="cls-14" cx="333.65" cy="244.43" rx="2.54" ry="1.69"/><rect class="cls-14" x="334.48" y="244.43" width="1.71" height="8.21"/><path class="cls-20" d="M288.45,165.5S267.4,200.09,242,161.07c0,0,3.85,12.14-3.19,20.51C238.8,181.58,270.48,196.12,288.45,165.5Z"/><path class="cls-12" d="M252.24,122.09a.75.75,0,0,1-.54-1.27c3.71-3.86,9.39-2.27,9.62-2.2a.75.75,0,1,1-.41,1.44c-.05,0-5.06-1.4-8.13,1.8A.76.76,0,0,1,252.24,122.09Z"/><path class="cls-12" d="M286.12,122.09a.78.78,0,0,1-.55-.23c-3.08-3.22-8.07-1.82-8.12-1.8a.75.75,0,1,1-.42-1.44c.24-.07,5.92-1.66,9.63,2.2a.75.75,0,0,1-.54,1.27Z"/><path class="cls-21" d="M270,347a.51.51,0,0,1-.49-.4.5.5,0,0,1,.4-.59c23.59-4.61,34.23-14.2,34.34-14.29a.49.49,0,0,1,.7,0,.48.48,0,0,1,0,.7c-.1.1-10.93,9.87-34.82,14.54Z"/><path class="cls-21" d="M276.42,354.69a.5.5,0,0,1-.11-1c18.4-4,26.71-12.55,26.79-12.63a.5.5,0,0,1,.71,0,.49.49,0,0,1,0,.7c-.34.36-8.58,8.9-27.31,12.93Z"/><path class="cls-21" d="M282.69,359.67a.51.51,0,0,1-.49-.42.5.5,0,0,1,.41-.57,32.66,32.66,0,0,0,14.26-6.63.5.5,0,0,1,.66.75,32.9,32.9,0,0,1-14.75,6.86Z"/><path class="cls-21" d="M267.21,375.23a.49.49,0,0,1-.45-.29.5.5,0,0,1,.24-.67c.3-.14,29.83-14,36-33a.51.51,0,0,1,.63-.33.5.5,0,0,1,.32.63C297.65,361,267.72,375,267.42,375.18A.54.54,0,0,1,267.21,375.23Z"/><path class="cls-21" d="M262.57,325.3a4.22,4.22,0,0,1-3-1.2.5.5,0,0,1,0-.71.5.5,0,0,1,.7,0c2.29,2.23,5.9-.28,5.94-.31a.5.5,0,0,1,.69.12.51.51,0,0,1-.11.7A7.76,7.76,0,0,1,262.57,325.3Z"/><path class="cls-2" d="M203.14,161.1a138.76,138.76,0,0,0-16.56,12.51,31.93,31.93,0,0,0-3.5,3.69,9.25,9.25,0,0,0-1.25,2,2.83,2.83,0,0,0-.24.94,1,1,0,0,0,.23.69,5.06,5.06,0,0,0,1.8,1.29,17.16,17.16,0,0,0,2.34.89c1.62.51,3.32.9,5,1.26s3.42.67,5.15,1.08c.44.1.87.21,1.31.35a4.11,4.11,0,0,1,1.38.64,1,1,0,0,1,.37.58.85.85,0,0,1-.2.75,2.11,2.11,0,0,1-.69.52,8.19,8.19,0,0,1-1.3.52c-1.72.54-3.4.91-5.07,1.42s-3.33,1-5,1.62a67.9,67.9,0,0,0-9.58,4.18,37.77,37.77,0,0,0-4.43,2.78,17.4,17.4,0,0,0-3.75,3.62,17.35,17.35,0,0,1,3.65-3.76,40.08,40.08,0,0,1,4.36-2.94,68.38,68.38,0,0,1,9.51-4.52c1.63-.65,3.29-1.24,4.95-1.79s3.4-1,5-1.57a9.84,9.84,0,0,0,1.13-.49,1.34,1.34,0,0,0,.35-.26s0,0,0,.15,0,.08,0,.05a3.84,3.84,0,0,0-1-.4c-.4-.11-.82-.2-1.24-.29-1.68-.34-3.42-.6-5.15-.9s-3.47-.64-5.2-1.12a19.77,19.77,0,0,1-2.58-.9,6.54,6.54,0,0,1-2.46-1.71,3,3,0,0,1-.47-.79,2.89,2.89,0,0,1-.18-.94,4.52,4.52,0,0,1,.31-1.61,11.39,11.39,0,0,1,1.4-2.5,35.81,35.81,0,0,1,3.55-4.08,103.63,103.63,0,0,1,7.95-7c2.75-2.22,5.53-4.35,8.42-6.42a1.5,1.5,0,0,1,1.75,2.44l0,0Z"/><path class="cls-22" d="M254.55,76.18a13.28,13.28,0,0,1,4.87-2.8,18.61,18.61,0,0,1,5.54-1,18.22,18.22,0,0,1,5.6.67,14.61,14.61,0,0,1,5,2.46c-1.91,0-3.65-.12-5.4-.13s-3.44,0-5.15,0-3.41.15-5.14.29S256.43,76,254.55,76.18Z"/><ellipse class="cls-2" cx="264.12" cy="69.3" rx="15.94" ry="14.27"/><path class="cls-2" d="M252.75,60.71a34.39,34.39,0,0,0-5.09,4.86,15.57,15.57,0,0,0-2,2.88,5.33,5.33,0,0,0-.68,3.26,3.53,3.53,0,0,0,.7,1.51,2.52,2.52,0,0,1,.42,1.84,6.3,6.3,0,0,1-1.89,3.09,27.61,27.61,0,0,1-5.79,4.18A27.06,27.06,0,0,0,244.07,78a6,6,0,0,0,1.7-3,2.08,2.08,0,0,0-.41-1.53,4.17,4.17,0,0,1-.83-1.67,5.81,5.81,0,0,1,.61-3.63,16.32,16.32,0,0,1,1.94-3.08,34.83,34.83,0,0,1,5-5.18.49.49,0,0,1,.7.06.51.51,0,0,1-.06.71h0Z"/><circle class="cls-23" cx="236.01" cy="145.29" r="2.16"/><path class="cls-24" d="M343,295.92c-1.44-1.19-2.8-2.28-4-3.27,0-1.88,0-3.74.07-5.61.08-3,.24-6,.47-9s.54-5.95.93-8.91.89-5.89,1.45-8.81c-.23,3-.42,5.92-.46,8.89s0,5.91.08,8.87.28,5.9.53,8.84.55,5.89,1,8.74v0A1.28,1.28,0,0,1,343,295.92Z"/><path class="cls-24" d="M193.26,292.66c-.61.5-1.26,1-1.93,1.55l-2.11,1.72a1.21,1.21,0,0,1,0-.19,1.77,1.77,0,0,1,0-.23v0c.4-2.85.71-5.81,1-8.74s.42-5.89.52-8.84.14-5.91.08-8.87-.22-5.93-.46-8.89c.57,2.92,1.09,5.85,1.46,8.81s.7,5.93.92,8.91.4,6,.48,9C193.24,288.77,193.27,290.7,193.26,292.66Z"/><path class="cls-24" d="M160.11,332.18l-.23-.11a5.55,5.55,0,0,1-.87-.74c-.25-.23-.44-.48-.66-.72a11.69,11.69,0,0,1-1-1.52,15,15,0,0,1-.79-1.61c-.19-.55-.41-1.1-.55-1.65a18.52,18.52,0,0,1-.49-6.63l.06-.81.13-.8.27-1.58c.25-1,.49-2.07.79-3.08s.65-2,1-3l1.21-2.89-.73,3c-.21,1-.35,2-.53,3s-.2,2-.28,3.05v2.27l.06.74a16.19,16.19,0,0,0,1.32,5.62c.18.43.43.82.63,1.22s.48.75.77,1.07c-.36.72-.67,1.43-.94,2.13A2.55,2.55,0,0,0,160.11,332.18Z"/><path class="cls-24" d="M376.38,325.83c-.13.55-.36,1.1-.54,1.65a15.06,15.06,0,0,1-.8,1.61,10.77,10.77,0,0,1-1,1.52c-.22.24-.41.49-.65.72a6.23,6.23,0,0,1-.88.74,1.54,1.54,0,0,1-.44.19,2.58,2.58,0,0,0,.94-3,19.87,19.87,0,0,0-.9-2l.07-.08a12.4,12.4,0,0,0,.78-1.08c.2-.4.45-.79.63-1.22a16,16,0,0,0,1.32-5.62l.07-.74V316.2c-.08-1-.15-2-.28-3.05s-.32-2-.53-3l-.72-3,1.2,2.89c.38,1,.68,2,1,3s.54,2.05.79,3.08l.26,1.58.13.8.06.81A18.52,18.52,0,0,1,376.38,325.83Z"/><path class="cls-24" d="M249.08,454.81q.12,11.4-.14,22.81c-.15,7.6-.41,15.19-.7,22.79s-.67,15.19-1.14,22.77-1,15.17-1.69,22.75q-.14-11.41.13-22.81c.15-7.6.42-15.2.7-22.79s.68-15.19,1.14-22.77S248.39,462.38,249.08,454.81Z"/><path class="cls-24" d="M250.17,428.43a23,23,0,0,1,.58,4.16,40.66,40.66,0,0,1,0,4.13,38.16,38.16,0,0,1-.42,4.11,22.27,22.27,0,0,1-1,4.09,22.27,22.27,0,0,1-.58-4.16,38,38,0,0,1,.39-8.25A22.17,22.17,0,0,1,250.17,428.43Z"/><path class="cls-24" d="M190.55,349.27c-6.92-.69-13.82-1.55-20.68-2.68-3.43-.57-6.84-1.21-10.23-2-1.68-.41-3.36-.87-5-1.44a11.86,11.86,0,0,1-4.55-2.46,11.78,11.78,0,0,0,4.59,2.34c1.65.53,3.34.95,5,1.32,3.39.73,6.82,1.28,10.25,1.77,6.87,1,13.78,1.66,20.68,2.18h0a.49.49,0,0,1,.46.53.5.5,0,0,1-.53.47Z"/><path class="cls-24" d="M189.07,360.62c-3.86-.42-7.69-.95-11.52-1.53s-7.64-1.24-11.43-2-7.58-1.58-11.31-2.6a76.68,76.68,0,0,1-11-3.75,74.79,74.79,0,0,0,11,3.5c3.75.95,7.54,1.69,11.34,2.36s7.62,1.24,11.45,1.74,7.67.94,11.5,1.28h0a.5.5,0,0,1-.09,1Z"/><path class="cls-24" d="M187,373.29c-4.18-.44-8.32-1-12.45-1.69s-8.26-1.44-12.35-2.31-8.16-1.9-12.18-3a124.06,124.06,0,0,1-11.87-4.09c3.91,1.5,7.9,2.75,11.93,3.85s8.12,2,12.22,2.79,8.22,1.47,12.36,2.05,8.28,1.09,12.43,1.44h0a.5.5,0,0,1,.45.55.5.5,0,0,1-.54.45Z"/><path class="cls-24" d="M185.28,388.64c-4.51-.74-9-1.64-13.42-2.62S163,384,158.6,382.7s-8.73-2.6-13-4.24a82.66,82.66,0,0,1-12.35-5.79,81.91,81.91,0,0,0,12.44,5.55c4.26,1.57,8.64,2.81,13,4s8.82,2.16,13.27,3.07,8.93,1.71,13.41,2.36h0a.5.5,0,0,1-.14,1Z"/><path class="cls-24" d="M182.73,403.05c-4.75-.74-9.42-1.76-14.06-3s-9.2-2.61-13.7-4.21a133.17,133.17,0,0,1-13.24-5.49,112.23,112.23,0,0,1-12.5-7,113.74,113.74,0,0,0,12.6,6.75,136.43,136.43,0,0,0,13.3,5.24c4.52,1.51,9.1,2.84,13.73,4s9.31,2.05,14,2.69h0a.5.5,0,0,1,.42.56.49.49,0,0,1-.56.43Z"/><path class="cls-24" d="M180.6,415c-4.88-.79-9.67-1.88-14.43-3.13s-9.45-2.72-14.08-4.38a144.38,144.38,0,0,1-13.62-5.62,124.46,124.46,0,0,1-12.92-7.08,122.37,122.37,0,0,0,13,6.85A145.91,145.91,0,0,0,152.25,407q7,2.36,14.1,4.13c4.76,1.16,9.57,2.16,14.39,2.86h0a.5.5,0,1,1-.14,1Z"/><path class="cls-24" d="M342.51,348.28c6.91-.52,13.82-1.22,20.69-2.18,3.43-.49,6.86-1,10.25-1.77,1.69-.37,3.37-.79,5-1.32a11.67,11.67,0,0,0,4.58-2.34,11.74,11.74,0,0,1-4.54,2.46c-1.65.57-3.33,1-5,1.44-3.38.81-6.8,1.45-10.22,2-6.87,1.13-13.76,2-20.68,2.68a.5.5,0,1,1-.1-1Z"/><path class="cls-24" d="M344,359.63c3.83-.34,7.67-.79,11.5-1.28s7.65-1.07,11.45-1.74,7.59-1.41,11.34-2.36a75.17,75.17,0,0,0,11-3.5,76.68,76.68,0,0,1-11,3.75c-3.73,1-7.52,1.85-11.31,2.6s-7.61,1.41-11.44,2-7.65,1.11-11.51,1.53a.5.5,0,0,1-.55-.44.5.5,0,0,1,.44-.55h0Z"/><path class="cls-24" d="M346.06,372.29c4.14-.35,8.3-.86,12.43-1.44s8.26-1.27,12.36-2.05,8.17-1.73,12.22-2.79A124.43,124.43,0,0,0,395,362.16a122.93,122.93,0,0,1-11.86,4.09c-4,1.14-8.09,2.15-12.18,3s-8.21,1.64-12.35,2.31-8.28,1.25-12.46,1.69a.5.5,0,1,1-.1-1h0Z"/><path class="cls-24" d="M347.73,387.65c4.48-.65,9-1.47,13.41-2.36s8.88-1.9,13.27-3.07,8.76-2.43,13-4a81.91,81.91,0,0,0,12.44-5.55,82.66,82.66,0,0,1-12.35,5.79c-4.25,1.64-8.61,3-13,4.24s-8.8,2.33-13.25,3.32-8.91,1.88-13.42,2.62a.5.5,0,0,1-.16-1h0Z"/><path class="cls-24" d="M350.29,402.06c4.69-.64,9.38-1.59,14-2.69s9.21-2.45,13.73-4a135.27,135.27,0,0,0,13.29-5.24,113.88,113.88,0,0,0,12.61-6.75,113.13,113.13,0,0,1-12.5,7,134.17,134.17,0,0,1-13.24,5.49c-4.5,1.6-9.08,3-13.71,4.21s-9.3,2.22-14.05,3a.5.5,0,0,1-.57-.42.49.49,0,0,1,.41-.57h0Z"/><path class="cls-24" d="M352.41,414c4.82-.7,9.63-1.7,14.39-2.86s9.46-2.56,14.1-4.13a145.91,145.91,0,0,0,13.68-5.38,121.27,121.27,0,0,0,13-6.85,123.3,123.3,0,0,1-12.91,7.08,144.38,144.38,0,0,1-13.62,5.62q-6.94,2.49-14.08,4.38c-4.76,1.25-9.55,2.34-14.43,3.13a.5.5,0,1,1-.16-1h0Z"/><path class="cls-25" d="M269.49,96.07a123.94,123.94,0,0,1-41.28-6.94l.74-1.85c.36.14,37,14.37,74.91,1.22l.65,1.89A106.6,106.6,0,0,1,269.49,96.07Z"/><path class="cls-25" d="M248.69,90.59s-.78-6.37-6.88-8C241.81,82.63,241.52,90.74,248.69,90.59Z"/><path class="cls-25" d="M238.65,88.33s-.67-6.39-6.75-8.07C231.9,80.26,231.48,88.36,238.65,88.33Z"/><path class="cls-25" d="M250.84,96.36s-3.21,5.56-9.44,4.64C241.4,101,244.3,93.42,250.84,96.36Z"/><path class="cls-25" d="M239.44,94.6s-4.39,4.68-10.25,2.36C229.19,97,233.75,90.25,239.44,94.6Z"/><path class="cls-25" d="M288.34,90.59s.78-6.37,6.88-8C295.22,82.63,295.51,90.74,288.34,90.59Z"/><path class="cls-25" d="M298.38,88.33s.67-6.39,6.75-8.07C305.13,80.26,305.55,88.36,298.38,88.33Z"/><path class="cls-25" d="M286.19,96.36s3.21,5.56,9.44,4.64C295.63,101,292.73,93.42,286.19,96.36Z"/><path class="cls-25" d="M297.59,94.6S302,99.28,307.84,97C307.84,97,303.28,90.25,297.59,94.6Z"/><path class="cls-26" d="M318,109.91c-.41-1.7-3.1-2.51-6-1.81-.25.06-.49.14-.73.22,1.42-3,1.95-5.94,1.17-6.54s-2.51,1.3-3.94,4.24c0-.13,0-.26-.08-.4-.87-3.59-2.69-6.23-4.06-5.89s-1.79,3.51-.93,7.1c.1.37.2.73.31,1.09l-.19-.16c-2.67-2-5.18-3-5.6-2.08s1.22,3,3.66,5l-.07,0c-2.91.7-4.93,2.65-4.52,4.35s3.1,2.51,6,1.8l.44-.11c-.08.14-.15.28-.22.43-1.44,3-2,6-1.19,6.58s2.58-1.37,4-4.41q.17-.33.3-.66c.06.36.14.73.23,1.1.87,3.59,2.68,6.23,4.06,5.9s1.79-3.51.92-7.1l-.09-.36.16.13c2.66,2,5.17,3,5.59,2.08s-1.4-3.26-4.06-5.3c-.3-.23-.6-.45-.89-.65a8.83,8.83,0,0,0,1.2-.2C316.35,113.56,318.38,111.61,318,109.91Z"/><ellipse class="cls-27" cx="307.96" cy="112.21" rx="0.98" ry="1.7" transform="translate(-19.16 91.6) rotate(-16.41)"/><circle class="cls-22" cx="253.68" cy="144.49" r="0.74"/><circle class="cls-22" cx="256.25" cy="143.38" r="0.74"/><circle class="cls-22" cx="252.15" cy="141.96" r="0.59"/><circle class="cls-22" cx="257.14" cy="145.7" r="0.59"/><circle class="cls-22" cx="259.09" cy="144.23" r="0.64"/><circle class="cls-22" cx="285.61" cy="144.49" r="0.74"/><circle class="cls-22" cx="283.03" cy="143.38" r="0.74"/><circle class="cls-22" cx="287.14" cy="141.96" r="0.59"/><circle class="cls-22" cx="282.14" cy="145.7" r="0.59"/><circle class="cls-22" cx="280.19" cy="144.23" r="0.64"/><path class="cls-9" d="M183.23,204.93s7.05-12.34,25.76-11.21c18.88,1.15,24.76,3,40.09,20.07,15.7,17.46,17.22,62.1,17.22,62.1a142.49,142.49,0,0,0-16-38.45A68.39,68.39,0,0,0,194,205.24Z"/><path class="cls-9" d="M348.3,204.93s-7.05-12.34-25.76-11.21c-18.88,1.15-24.76,3-40.09,20.07-15.71,17.46-17.22,62.1-17.22,62.1a142.1,142.1,0,0,1,16-38.45,68.38,68.38,0,0,1,56.34-32.2Z"/><polygon class="cls-9" points="216.6 339.78 197.72 434.39 178.31 430.05 192.1 338.09 216.6 339.78"/><polygon class="cls-9" points="315.64 339.78 335.18 434.39 354.6 430.05 340.8 338.09 315.64 339.78"/><path class="cls-4" d="M209,344.5q-1.51,10.65-3.4,21.22c-1.22,7-2.57,14.09-3.93,21.11s-2.83,14-4.37,21-3.16,14-4.92,20.92q1.5-10.65,3.39-21.22c1.23-7.06,2.57-14.09,3.94-21.11s2.83-14,4.37-21S207.23,351.45,209,344.5Z"/><path class="cls-4" d="M322.38,344.5q2.64,10.42,4.92,20.92c1.54,7,3,14,4.37,21s2.71,14.05,3.94,21.11S338,421.68,339,428.78q-2.65-10.42-4.92-20.92c-1.54-7-3-14-4.37-21s-2.71-14.06-3.94-21.11S323.38,351.6,322.38,344.5Z"/><path class="cls-8" d="M298.48,268s-13.69-12.12-27.14,1.52c-1.42,1.45-.65,2.23-1.35,3-3.14,3.36-2.29,12.21-2.07,11.73C278.28,262,289,271.15,292.14,271.74s3.39-2.18,3.92-3.61S298.48,268,298.48,268Z"/><path class="cls-8" d="M283.58,264.83c-1.22-.06-12.47-.52-19.86,1.84,0,0,0,0,0,.05l6.85,3.14.52.17,12.49-5.16S283.61,264.83,283.58,264.83Z"/><path class="cls-8" d="M297.61,267.25s-9.78-7.89-29.09-4.71c0,0,0,0,0,0l8.79,2.12h0L295.49,267Z"/><path class="cls-8" d="M271.12,269.51c-.11,0-6.2,2.27-7,6.53,0,0,0,0,0,0H270l3.13-5.46s0,0,0,0l-2.66-.8Z"/><ellipse class="cls-14" cx="332.02" cy="269.28" rx="2.54" ry="1.69"/><rect class="cls-14" x="332.85" y="261.07" width="1.71" height="8.21"/><rect class="cls-14" x="340.36" y="261.28" width="1.71" height="8.21"/><rect class="cls-14" x="336.6" y="257.31" width="1.71" height="9.2" transform="translate(75.54 599.36) rotate(-90)"/><ellipse class="cls-14" cx="339.54" cy="269.31" rx="2.54" ry="1.69"/><path class="cls-25" d="M254,75.69a13.32,13.32,0,0,1,4.88-2.8A18.89,18.89,0,0,1,270,72.57,14.49,14.49,0,0,1,275,75c-1.91,0-3.66-.12-5.4-.12s-3.45,0-5.15,0-3.41.15-5.14.3S255.85,75.51,254,75.69Z"/></g></svg>