<svg xmlns="http://www.w3.org/2000/svg" xmlns:xlink="http://www.w3.org/1999/xlink" viewBox="0 0 566.93 566.93"><defs><style>.cls-1,.cls-23,.cls-26,.cls-28,.cls-31{fill:none;}.cls-2{clip-path:url(#clip-path);}.cls-3{fill:#e3c7b6;}.cls-4{fill:#bf8b47;}.cls-5{fill:#9b5c2d;}.cls-6{fill:#b7a18d;}.cls-7{fill:#a59284;}.cls-10,.cls-8{fill:#d8a69a;}.cls-8{opacity:0.83;}.cls-13,.cls-9{fill:#e5d8c6;}.cls-11{fill:#6f78a5;}.cls-12{fill:#e8b564;}.cls-13{stroke:#db9345;stroke-width:4px;}.cls-13,.cls-26,.cls-28,.cls-31{stroke-miterlimit:10;}.cls-14{fill:#8c887c;}.cls-15{fill:#efdba5;}.cls-16{fill:#d1c699;}.cls-17{fill:#d19033;}.cls-18{fill:#c18c81;}.cls-19{fill:#c6b9a8;}.cls-20,.cls-29{fill:#b5b0a3;}.cls-20{opacity:0.59;}.cls-21{fill:#eda556;}.cls-22{fill:#e0dad1;}.cls-23,.cls-31{stroke:#bc6f61;}.cls-23,.cls-26,.cls-28,.cls-31{stroke-linecap:round;}.cls-23{stroke-linejoin:round;}.cls-24{fill:#bc6f61;}.cls-25{fill:#6d3b27;}.cls-26{stroke:#efdba5;stroke-width:2px;}.cls-27{fill:#bc6a62;}.cls-28{stroke:#d8a69a;stroke-width:1.5px;}.cls-30{fill:#d8a22a;}.cls-32{fill:#c68355;}.cls-33{fill:#d19661;}.cls-34{fill:#564e47;}.cls-35{fill:#c69e38;}.cls-36{fill:#dbc68f;}.cls-37{fill:#cc8e5e;}.cls-38{fill:#a38f7e;}.cls-39{fill:#e09d92;}.cls-40{fill:#968f89;}.cls-41{fill:#cc9348;}</style><clipPath id="clip-path"><rect class="cls-1" x="-1.14" y="-0.35" width="569.21" height="567.63"/></clipPath></defs><g id="Details"><g class="cls-2"><rect class="cls-3" x="-1.14" y="-0.35" width="569.21" height="567.63"/><polyline class="cls-4" points="247.06 165.6 302.47 165.48 310.63 168.97 277.14 225.78 271.18 225.78 239.31 171.86 243.38 167.25 246.65 165.74"/><polygon class="cls-4" points="387.73 208.4 162.68 208.4 193.22 498.25 357.19 498.25 387.73 208.4"/><polygon class="cls-5" points="199.59 486.52 196.81 460.93 194.13 435.33 188.95 384.13 183.99 332.9 181.59 307.27 179.3 281.64 182.08 307.23 184.75 332.82 189.94 384.03 194.9 435.26 197.29 460.88 199.59 486.52"/><polygon class="cls-5" points="208.21 486.01 205.44 460.42 202.76 434.83 197.57 383.62 192.62 332.39 190.22 306.77 187.93 281.13 190.71 306.72 193.38 332.31 198.57 383.52 203.52 434.75 205.92 460.38 208.21 486.01"/><polygon class="cls-5" points="217.24 485.5 214.46 459.92 211.78 434.32 206.6 383.11 201.64 331.88 199.24 306.26 196.95 280.63 199.73 306.21 202.41 331.81 207.59 383.01 212.55 434.25 214.94 459.87 217.24 485.5"/><polygon class="cls-5" points="352.59 281.38 350.29 307.02 347.9 332.64 342.94 383.87 337.76 435.08 335.08 460.67 332.3 486.26 334.59 460.63 336.99 435 341.95 383.77 347.13 332.57 349.81 306.97 352.59 281.38"/><polygon class="cls-5" points="361.21 281.89 358.92 307.52 356.52 333.15 351.57 384.38 346.38 435.59 343.71 461.18 340.93 486.77 343.22 461.13 345.62 435.51 350.57 384.28 355.76 333.07 358.44 307.48 361.21 281.89"/><polygon class="cls-5" points="370.24 282.4 367.94 308.03 365.55 333.66 360.59 384.89 355.41 436.09 352.73 461.69 349.95 487.27 352.25 461.64 354.64 436.02 359.6 384.79 364.79 333.58 367.46 307.99 370.24 282.4"/><polygon class="cls-6" points="267.5 578.13 197.6 571.76 217.65 396.75 284.24 407.59 267.5 578.13"/><polygon class="cls-6" points="284.25 578.7 354.15 572.33 332.5 402.56 267.59 408.92 284.25 578.7"/><path class="cls-7" d="M216.48,405.3S267,423,332.42,405.36L332,394.19l-113.88-.49Z"/><path class="cls-8" d="M351.17,199.91c-5.41-1-34.72-7.43-46.36-16.87-9.65-7.83-4.14-23.86-4.14-23.86l-23.4-.2v0h-3.39v0l-23.4.2s5.51,16-4.13,23.86c-11.65,9.44-41.77,15.91-47.17,16.87s65.5,61.31,65.5,61.31l10.9-.33,10.89.33S356.58,200.86,351.17,199.91Z"/><polygon class="cls-9" points="329.61 389.7 216.88 389.7 216.22 375.87 199.18 199.91 275.03 208.12 351.91 199.91 334.41 380.55 329.61 389.7"/><path class="cls-10" d="M237.09,237.65,190,202.1,114.42,302.23A67.08,67.08,0,0,0,101,346.87h0a18.52,18.52,0,0,0,20.18,17.25l77.52-7.21,16.15-53.09-31.47,5Z"/><path class="cls-10" d="M303.55,132.61s4.32-9.13,8.78-4.59c3.41,3.46,1.84,14-.44,17.22s-7.44,10.93-11.27,3.29Z"/><path class="cls-10" d="M247.37,132.61s-4.32-9.13-8.78-4.59c-3.4,3.46-1.83,14,.45,17.22s7.44,10.93,11.27,3.29Z"/><path class="cls-10" d="M304.61,138.54c0-22.63-13.05-41-29.15-41s-29.14,18.35-29.14,41A53.31,53.31,0,0,0,251,161.07h0s2.9,8.66,5.92,11.34,10.82,8,18.63,9h0c7.81-1,15.62-6.27,18.63-9s5.92-11.34,5.92-11.34h0C303.16,154.62,304.61,146.84,304.61,138.54Z"/><path class="cls-10" d="M274.92,186.12s12.81-1.81,21.66-16.91h0l-2.77,3.52-3.94,3.38-14.8,8.56"/><path class="cls-10" d="M183.42,308.79s51.07-52.06,47.8-63.51h0l-50.72-31.9s-30.3,34.52-70.06,95Z"/><polygon class="cls-11" points="214.01 253.7 210.05 252.22 226.65 229.33 233.16 234.05 214.01 253.7"/><polygon class="cls-11" points="210.54 251.84 207.78 251.88 207.53 253.6 210.89 252.78 210.54 251.84"/><path class="cls-10" d="M374.73,216a677.57,677.57,0,0,1,61.78,105.41s4,9.5-.31,19c-6.1,13.55-27,39.18-56.79,64.79l-34.48-35.31L383.82,336l-7.24-8.68s-23.06-26.61-52.51-80.9c-22.14-40.82-4.23.7-4.23.7L371.3,217.8"/><path class="cls-10" d="M198.74,356.91a104.07,104.07,0,0,0,50.8-17.28c5.4-3.68,21.23-26.42,11.4-33.93-1.14-.87,29.26-18.41,29.25-19.85a3.35,3.35,0,0,0-4.54-3.14l-35.51,13.7c-1.23.47-5.89-.42-1.64-7.07l4.61-5.82a2.16,2.16,0,0,0-2.27-3h0c-6.94,1-18.86,9.87-23.77,14.86-5.47,5.55-9.44,7.53-24.6,13.54Z"/><path class="cls-12" d="M216.26,372.58c11.19,2.37,69.08,13.45,120,.38a1.54,1.54,0,0,1,1.93,1.53l-.67,24.34a1.53,1.53,0,0,1-1.13,1.44c-8.42,2.29-64.06,16.13-119.94-.49a1.57,1.57,0,0,1-1.1-1.43l-.93-24.21A1.53,1.53,0,0,1,216.26,372.58Z"/><path class="cls-13" d="M251,201.64s22.64,9,46.51.48v34.82H252S252.49,201.64,251,201.64Z"/><polygon class="cls-9" points="239.3 248.27 178.82 212.27 132.72 274.48 196.11 295.66 239.3 248.27"/><polygon class="cls-9" points="321.1 243.42 374.31 210.21 412.49 274.56 352.98 295.3 321.1 243.42"/><path class="cls-12" d="M275.26,272.66,387.73,208.4,337.3,186.22l3.62-4.6-37.6-15.73s16.54,2.22-28.16,55.05Z"/><path class="cls-12" d="M275.26,272.66,162.65,208.12l50.43-22.19-3.62-4.6,37.6-15.73s-16.59,2.51,28.1,55.34Z"/><path class="cls-14" d="M168.65,240.35c-4-4.27-10.41-.81-10.41-.81"/><polyline class="cls-9" points="343.78 281.46 344.81 280.5 335.33 264.26 337.5 279.96 344.21 281.02"/><path class="cls-10" d="M379.41,405.15s-59.15,37.37-90.53-3.94c-1.6-2.11-2.62-6.67-.53-8.4l13.36-7.65c1.2-.93,3.44-3.12-1.66-4.61l-7.56-2.26c-1.6-.94-1.77-3.27-.31-4.13h0c6.05-3.54,21.42-3.19,28.66-1.86,8,1.47,12.48.72,28.36-3.54Z"/><path class="cls-15" d="M342.15,370.87s21.71,2.76,34.57,36.1c0,0,19.61-13.43,29.22-26.81l-6-24.9a5.29,5.29,0,0,0-4.94-4.05l-27.68-1.1Z"/><path class="cls-16" d="M204.66,286.28,203,288.11l-1-4.84-7.23,5.47a1,1,0,0,1-.59.2.8.8,0,0,1-.26-.05l-.18,0,0,0a1,1,0,0,1-.6-.71l-1.8-8.89-7.23,5.47a1.07,1.07,0,0,1-.59.2,1,1,0,0,1-.81-.4,1,1,0,0,1-.17-.38.9.9,0,0,1-.13-.32l-1.79-8.89-7.24,5.47a1,1,0,0,1-.58.2,1,1,0,0,1-.25-.06l-.19,0h0a1,1,0,0,1-.61-.72l-1.79-8.89-7.23,5.47a1,1,0,0,1-.59.2,1,1,0,0,1-.81-.4,1,1,0,0,1-.17-.81l-1.73-8.59-7.24,5.47a1,1,0,0,1-.58.2,1,1,0,0,1-.25,0l-.19,0h0a1,1,0,0,1-.61-.72l-1.79-8.89-7.23,5.46a1,1,0,0,1-1.4-.19.87.87,0,0,1-.18-.5.89.89,0,0,1-.24-.46l-.3-1.49,1.6-2.16.47,2.33,7.16-5.41a1,1,0,0,1,1-.09l0,0h0a1,1,0,0,1,.72.76l1.75,8.72,7.1-5.37a1,1,0,0,1,1-.09h0l0,0a1,1,0,0,1,.71.75l1.75,8.7,7-5.26a1,1,0,0,1,1.12-.06,1,1,0,0,1,.71.75l1.75,8.72,7.1-5.36a1,1,0,0,1,1-.09h0l.06,0a1,1,0,0,1,.71.75l1.81,9,7.1-5.36a1,1,0,0,1,1-.09h0l.06,0a1,1,0,0,1,.71.76l1.76,8.72,7.09-5.37a1,1,0,0,1,1-.09h0l0,0a1,1,0,0,1,.72.75Z"/><path class="cls-17" d="M214.09,187.26c4,4.26,8.34,8.4,12.71,12.4s8.89,7.86,13.53,11.57,9.47,7.18,14.44,10.44a125.36,125.36,0,0,0,15.63,8.59,127,127,0,0,1-16-7.95c-5.13-3.07-10.11-6.39-15-9.88s-9.52-7.23-14.11-11.08-9-7.8-13.38-12a1.5,1.5,0,1,1,2.09-2.15l0,0Z"/><path class="cls-18" d="M131.41,277.83s2.05.32,4.17.5l1.17,1.43s5.5-2.24,6.65-3.17-1.07-2.63-1.07-2.63-7.26-3.19-9.91,2.22"/><path class="cls-18" d="M203.47,305.85s2.32.17,2.19,1.18a5.06,5.06,0,0,1-.27,1.27s2.6-.5,2.5.85,0,1,0,1a14,14,0,0,1,4.94-1.27h0l.66,1.18a8.28,8.28,0,0,1,3.29-2.38c1.87-.62,3.78-4.4,3.78-4.4l-15.78.61-1.32,1.92"/><path class="cls-19" d="M151.29,249.79l-.64,1a8.24,8.24,0,0,0,2.51.61L152.09,253a11.15,11.15,0,0,1,3.84-.28c1.76.26,3.53-.1,3.61-.9s-6.38-3.29-6.38-3.29l-1.87,1.29"/><path class="cls-20" d="M198,272.93a3.32,3.32,0,0,0-.37,1.84s2.47-1.44,4.37-1.19h0l-2.49,2.54.09.31a26,26,0,0,1,5.27.06h0l.09,1.57a11.07,11.07,0,0,1,3.89-.72c2.37,0,8.46-4.13,8.46-4.13l-12.15-1.47L198,272.93"/><path class="cls-18" d="M233.42,290a49.75,49.75,0,0,1-14.89,16.59l-.52-4.3,13.72-11.56"/><path class="cls-21" d="M275.78,263.17q12-7.38,24.25-14.42c8.14-4.72,16.33-9.34,24.53-13.94S341,225.7,349.3,221.26s16.61-8.81,25-13q-12,7.36-24.26,14.42c-8.13,4.72-16.32,9.33-24.53,13.93s-16.45,9.1-24.74,13.54S284.18,258.92,275.78,263.17Z"/><path class="cls-21" d="M175.78,208.21q12.6,6.36,25,13.06c8.29,4.44,16.52,9,24.74,13.54s16.4,9.22,24.53,13.93,16.23,9.51,24.26,14.43q-12.61-6.37-25-13.06c-8.29-4.44-16.52-9-24.74-13.55s-16.39-9.22-24.53-13.94S183.8,213.12,175.78,208.21Z"/><path class="cls-15" d="M307,105.23s-1.68-12.43-8-18.41a7.4,7.4,0,0,1-.09,4.09A9.12,9.12,0,0,0,298.6,95Z"/><path class="cls-15" d="M301,118.77s-9.73-3.36-16.84-1.87c-3,.63-6.72,3.83-6.72,3.83a11.32,11.32,0,0,1,2-6.16c.34.49-10.32,3.33-19.84,1.43l25.74-7.81Z"/><path class="cls-15" d="M242.9,127.28s-3.65-15.78,2.65-31.65c1.81-4.57,3.31-2,16.64-7.4s13.6-14.89,27.76-5c18.52,12.88,20.22,22.45,16.61,45.15l-4.25,5.45-4.14-25.21-46.5,4.18-3.32,20.58Z"/><path class="cls-22" d="M285.11,158.15s-7.25,5.54-20-2.27c0,0,6.27,8.5,12.75,7.81C277.86,163.69,281.38,163,285.11,158.15Z"/><path class="cls-23" d="M279.07,142.11a7.41,7.41,0,0,0,2.36,5.55c2.64,2.65-3.85,4.81-6.5,4.33"/><path class="cls-24" d="M264.84,155.72A47.15,47.15,0,0,0,270,158a28.41,28.41,0,0,0,5.4,1.47,17.62,17.62,0,0,0,5.52,0,15,15,0,0,0,5.17-2.13,11.43,11.43,0,0,1-5,2.89,15.36,15.36,0,0,1-5.85.2,21.29,21.29,0,0,1-5.54-1.75A22.4,22.4,0,0,1,264.84,155.72Z"/><ellipse class="cls-25" cx="265.32" cy="136.44" rx="1.82" ry="3.94"/><ellipse class="cls-25" cx="287.72" cy="136.26" rx="1.82" ry="3.94"/><path class="cls-26" d="M269.55,126.45s-5.84-3.75-11.63-.83"/><path class="cls-24" d="M286.13,157.41a20.52,20.52,0,0,1-4.47,5,9,9,0,0,1-3.05,1.66,5,5,0,0,1-1.8.19,11.3,11.3,0,0,1-1.73-.19A13.3,13.3,0,0,1,269,161a17.69,17.69,0,0,1-4.16-5.28,24.8,24.8,0,0,0,2.19,2.5,19.4,19.4,0,0,0,2.47,2.16,14.26,14.26,0,0,0,5.78,2.73,10.52,10.52,0,0,0,1.58.21,4.75,4.75,0,0,0,1.51-.12,9.52,9.52,0,0,0,2.86-1.37,20.71,20.71,0,0,0,2.55-2.06C284.61,159,285.37,158.23,286.13,157.41Z"/><path class="cls-12" d="M274.83,114.16V98s-31.45,9.83-35,14.23v9.83S249.78,116.91,274.83,114.16Z"/><path class="cls-12" d="M274.82,114.16V98s31.45,9.83,35,14.23v9.83S299.86,116.91,274.82,114.16Z"/><path class="cls-27" d="M294.22,172.41a12.35,12.35,0,0,0,2.36-3.2,18.12,18.12,0,0,1-5.48,6.52l1.63-2.11Z"/><path class="cls-27" d="M292.58,174.49C287,180.82,282,183.72,278.7,185l-.57.22a15.11,15.11,0,0,1-2.94.82l-.11,0-.15,0,.19-1.47.43-3.28a27.36,27.36,0,0,0,7.17-1.12A24.18,24.18,0,0,0,292.58,174.49Z"/><path class="cls-27" d="M296.52,169.33l-.11.22-.23.44-.19.3-.1.15,0,0c-.09.15-.21.35-.39.61Z"/><path class="cls-27" d="M298.16,165.64v0l-1.61,3.61,0,.05-1,1.74-.22.31c-.07.1-.15.21-.24.32l0,0-.06.08,0,.07a36.94,36.94,0,0,1-9.16,9.38,20.19,20.19,0,0,1-10.8,4.85h0c-5.28,1-25.27-6.94-25.27-6.94s3.89-5.42,1.33-18.1A43.63,43.63,0,0,0,254.3,167c1.41,1.89,10.73,13,21.25,14.41a17.13,17.13,0,0,0,2.07-.35l.17,0A35.68,35.68,0,0,0,298.16,165.64Z"/><path class="cls-27" d="M295.48,171.07l-.12.2-.1.11Z"/><line class="cls-28" x1="245.34" y1="126.4" x2="250.61" y2="131.98"/><path class="cls-26" d="M284.92,126.45s5.84-3.75,11.63-.83"/><path class="cls-24" d="M151.57,313.65a.5.5,0,0,1-.09-1c20.81-3.51,31.49-4.67,31.6-4.69a.51.51,0,0,1,.55.45.5.5,0,0,1-.44.55c-.11,0-10.76,1.17-31.54,4.68Z"/><path class="cls-29" d="M345,279.4l.43-8.59.37-8.54.36-8.56c.13-2.85.25-5.71.53-8.6a64.11,64.11,0,0,1,1,8.59c.18,2.88.17,5.77.08,8.65A85.58,85.58,0,0,1,347,271,46.2,46.2,0,0,1,345,279.4Z"/><path class="cls-30" d="M382.36,401.48c-.76-2-1.6-3.92-2.54-5.81s-1.91-3.75-3-5.56a61.14,61.14,0,0,0-7.39-10.17,42.71,42.71,0,0,0-9.55-8.08,37,37,0,0,0-11.66-4.64,32.53,32.53,0,0,1,6.21,1.37,33.91,33.91,0,0,1,5.84,2.61,41.16,41.16,0,0,1,9.9,8.07,58.45,58.45,0,0,1,12.18,22.21Z"/><path class="cls-30" d="M386.88,398.08c-.75-2-1.6-3.91-2.53-5.8s-1.91-3.76-3-5.57A61.22,61.22,0,0,0,374,376.55a43,43,0,0,0-9.56-8.08,36.86,36.86,0,0,0-11.66-4.65,33.23,33.23,0,0,1,6.22,1.37,33.86,33.86,0,0,1,5.83,2.62,41,41,0,0,1,9.91,8.07,58.31,58.31,0,0,1,12.17,22.2Z"/><path class="cls-30" d="M391.27,394.51c-.76-2-1.6-3.91-2.54-5.8s-1.91-3.76-3-5.57A60.65,60.65,0,0,0,378.35,373a42.71,42.71,0,0,0-9.55-8.08,37.05,37.05,0,0,0-11.66-4.65,32.53,32.53,0,0,1,6.21,1.37,34,34,0,0,1,5.84,2.62,40.93,40.93,0,0,1,9.9,8.07,56.41,56.41,0,0,1,7.32,10.45A57,57,0,0,1,391.27,394.51Z"/><path class="cls-31" d="M304.25,401.62a11.36,11.36,0,0,1-9.05,5.24"/><path class="cls-24" d="M256.69,308.37a.49.49,0,0,1-.49-.41.48.48,0,0,1,.39-.58,11.34,11.34,0,0,0,4-1.44.51.51,0,0,1,.7.12.5.5,0,0,1-.12.7,12.25,12.25,0,0,1-4.34,1.6Z"/><path class="cls-31" d="M313.42,411a9.36,9.36,0,0,1-7.27,3.51"/><path class="cls-31" d="M324.42,415.2s-1.82,3-6.63,3.32"/><path class="cls-31" d="M400,330.53s-8.37-.5-15.41,4.08"/><polygon class="cls-12" points="307.34 114.54 325.26 110.35 307.28 119.72 307.34 114.54"/><polygon class="cls-12" points="297.16 106.3 313.3 97.46 298.5 111.31 297.16 106.3"/><path class="cls-32" d="M213.11,272.33c-.77.22-1.52.47-2.26.72a24.3,24.3,0,0,0-3.23-.76c-.56-.1-1.13-.18-1.68-.26a10.52,10.52,0,0,0,3.08-.37,35.13,35.13,0,0,0-6.16-2l-1.49-.41c-.22-.05-.55-.16-.87-.21a4.44,4.44,0,0,0-1-.07,4,4,0,0,0-1.83.51,1.81,1.81,0,0,0-1,1.49,1.85,1.85,0,0,1,1.35-.56,3.93,3.93,0,0,1,1.38.13,4.34,4.34,0,0,1,.64.2l.68.3a12.37,12.37,0,0,0,1.62.55l.39.08-.21,0-.87-.11a5.07,5.07,0,0,0-1,0,4.12,4.12,0,0,0-1.91.69,1.91,1.91,0,0,0-1,1.67,1.92,1.92,0,0,1,1.37-.77,4.21,4.21,0,0,1,1.5,0,5.65,5.65,0,0,1,.71.17c.2.07.57.17.85.25l.16,0-.38.07a4.17,4.17,0,0,0-1.76,1,1.91,1.91,0,0,0-.64,1.82,1.93,1.93,0,0,1,1.21-1,4.2,4.2,0,0,1,1.46-.28,5.86,5.86,0,0,1,.73,0c.22,0,.59.06.88.09a16,16,0,0,0,1.83,0l.11,0a4,4,0,0,0-.72.92,1.9,1.9,0,0,0-.14,1.92,1.91,1.91,0,0,1,.89-1.3,4.08,4.08,0,0,1,1.34-.66,4.8,4.8,0,0,1,.71-.16l.88-.15c.6-.14,1.18-.31,1.75-.5a19.19,19.19,0,0,0,3.24-1.52,13.75,13.75,0,0,0,2.87-2.21A22.47,22.47,0,0,0,213.11,272.33Z"/><path class="cls-32" d="M143.06,205.1s4.39-4.81,18-4.46c0,0-4.27,2.81-5.25,6.56C155.81,207.2,145.7,206.08,143.06,205.1Z"/><path class="cls-32" d="M162.87,250.86l-.12,2.3-2.05-1.73a17.26,17.26,0,0,1-2.51.38,15.61,15.61,0,0,1-1.81,0c-.29,0-.67-.05-.89-.09s-.48,0-.73,0a4.22,4.22,0,0,0-1.46.29,1.84,1.84,0,0,0-1.21,1,1.92,1.92,0,0,1,.65-1.82,3.77,3.77,0,0,1,.94-.68l-.12,0a17,17,0,0,1-1.76-.47c-.26-.11-.62-.23-.82-.33a5.39,5.39,0,0,0-.68-.22,4,4,0,0,0-1.5-.13,2,2,0,0,0-1.44.65,1.92,1.92,0,0,1,1.11-1.58,4.48,4.48,0,0,1,2-.52l.34,0-.09,0c-.25-.16-.58-.34-.75-.47l-.64-.36a4.38,4.38,0,0,0-1.45-.39,1.94,1.94,0,0,0-1.53.38c.08-.66.77-1.14,1.38-1.35a4,4,0,0,1,2-.14,3.87,3.87,0,0,1,1,.29l.8.33.2.08-.35-.17c-.48-.29.43.44,0,.07l-.58-.47a4.83,4.83,0,0,0-.56-.36,3.86,3.86,0,0,0-1.3-.5,1.79,1.79,0,0,0-1.45.17,1.82,1.82,0,0,1,1.4-1.16,3.9,3.9,0,0,1,1.89,0,4.1,4.1,0,0,1,.91.32,8.08,8.08,0,0,1,.77.44l1.33.8a19.29,19.29,0,0,1,2.87,1.68,3,3,0,0,0,2.15-.62c1.34-1.17,4.37-1.59,4.37-1.59l-.23,4.87a18,18,0,0,1,2.16.18A12.16,12.16,0,0,1,162.87,250.86Z"/><path class="cls-33" d="M267.06,234.39h0c-.31.55-1.32-.45-1.32-.45a3.74,3.74,0,0,1-.14,3.35c-.27.5-.56,1-.86,1.48-.65.78-2,.35-2,.35.67,1.55.35,2.12.14,2.38-.41.56-.85,1.1-1.31,1.64h0c-.64.63-2.22-.65-2.22-.65a5.38,5.38,0,0,1-1.53,4.32l-.51.42a1.74,1.74,0,0,0-.21.15l0,0c-2.25.78-2.44-1.78-2.44-1.78.11,2.86-.85,3.87-1.54,4.27l-.26.14-.15.06c-2.17.6-3.74-2.28-3.74-2.28.16,4.21-1.41,4.06-1.51,4.19-.46.12-.92.22-1.38.31-2.31.14-2.46-3-2.46-3-.83,3.1-2.08,3.52-2.7,3.58s-1.32,0-2,0c-1.21-.45-.41-2.82-.41-2.82a7,7,0,0,1-6,2.16c-1.38-.24-2.79-.55-4.27-.94s-3.1-.84-4.59-1.28c-1.15-.78,0-2.71,0-2.71a5.44,5.44,0,0,1-5.23,1.11c-1.17-.38-2.3-.76-3.41-1.15-1.78-.89.14-3.56.14-3.56a8.25,8.25,0,0,1-7.75.66l-2.38-1c-2-1.23.42-3.37.42-3.37-3.63,2.34-8-.43-8.27-.43-.74-.39-1.46-.79-2.16-1.18-1.14-1.19,1.33-3.17,1.33-3.17-3.6,1.78-7.12-.48-7.81-.81s-1.29-.87-1.9-1.3c-1.61-1.73,1-3.84,1-3.84-3.8,1.87-7.2-1-7.58-1.12l-1.87-1.54c-1.39-1.71,1.33-3.59,1.33-3.59-2.73,1.35-5.32.06-6.7-.82-.72-.56-1.43-1.09-2.12-1.57l-3.18-2.17c-5-4.76,2.85-5.9,2.85-5.9a28.92,28.92,0,0,1-11.24-3.16c3.24-1.37,8.43-.83,8.43-.83-13-7.18-21.53-4.94-22.72-4.57a8.82,8.82,0,0,0-7.81,2.12s.94,3.12,3.31,4.18c3.38,1.51,3.8,1.69,3.47,1.61a12.28,12.28,0,0,0-2.92-.35l-.43-.17a7.27,7.27,0,0,1-3.25-2.63l-.28-.41a5.75,5.75,0,0,0,1.64,5.58c2.76,2.76,4.08,4.31,4.26,4.53a16.69,16.69,0,0,0,1.14,1.8,18.61,18.61,0,0,1,3,8.47s1.88-2.84,3.12-2.85c9.51,9,8.4,26.73,8.4,26.73h0l.1,9.7-18,11a20,20,0,0,0-4-1.44l-1.47-.46a8,8,0,0,0-.85-.26,5.34,5.34,0,0,0-1-.11,4,4,0,0,0-1.84.43,1.82,1.82,0,0,0-1.1,1.44,1.87,1.87,0,0,1,1.38-.5,4.45,4.45,0,0,1,1.37.19,4.8,4.8,0,0,1,.63.24l.49.24.14,0c.13,0,.26.05.38.09l-.21,0-.19,0,.05,0c.31.15.06,0-.09,0l-.63-.11a5,5,0,0,0-1-.05,4.09,4.09,0,0,0-1.94.6,1.9,1.9,0,0,0-1,1.63,1.9,1.9,0,0,1,1.4-.71,4.18,4.18,0,0,1,1.5,0,4.29,4.29,0,0,1,.7.2c.2.08.55.19.84.28a.38.38,0,0,0,.1,0,1.75,1.75,0,0,0-.33.06,4,4,0,0,0-1.8.95,1.88,1.88,0,0,0-.72,1.78,1.9,1.9,0,0,1,1.25-.95,4,4,0,0,1,1.48-.22,6,6,0,0,1,.73.06c.2,0,.58.09.87.13a15.91,15.91,0,0,0,1.82.07h.12a4,4,0,0,0-.77.88,1.92,1.92,0,0,0-.22,1.91,1.89,1.89,0,0,1,.95-1.25,4.18,4.18,0,0,1,1.37-.61,4.33,4.33,0,0,1,.72-.12l.87-.12a13.17,13.17,0,0,0,1.78-.42l.43-.16c2.7-.66,18.49-4.64,23.3-8.35,0,0,4.18-6.59,3-13.46,1.19,1.59,3.13,4.63,2.21,7.6,0,0,1.23-2.53,2.43-2.59,1,.88,4.8,3.93,4.41,7.69,0,0,.64-2.46,1.71-3,1.1.76,2.25,1.49,3.46,2.19,1.58,1.16,3.38,3,3.58,5.35a6.5,6.5,0,0,1,.93-3l1,.42c.39.27,5.82,1.95,6.16,6.17,0,0,.29-3.53,1.66-3.6a58.94,58.94,0,0,0,20.7,1.06L224.68,288a78.92,78.92,0,0,0-8.26,13,2.37,2.37,0,0,1-2.39,1.61h0a49.58,49.58,0,0,0-5.05.08c-.53,0-1,.06-1.55.07-.23,0-.57,0-.89.06a4.08,4.08,0,0,0-.93.23,4,4,0,0,0-1.59,1.05,1.84,1.84,0,0,0-.54,1.73,1.91,1.91,0,0,1,1.13-.94,4.05,4.05,0,0,1,1.35-.3,5,5,0,0,1,.67,0l.74.08a12.23,12.23,0,0,0,1.71,0l.39,0-.21,0-.86.16a5.06,5.06,0,0,0-1,.31,4.11,4.11,0,0,0-1.61,1.24,1.91,1.91,0,0,0-.41,1.89,1.93,1.93,0,0,1,1.07-1.16,4.17,4.17,0,0,1,1.42-.47,4.37,4.37,0,0,1,.72-.06c.22,0,.6,0,.89,0l.16,0a3.9,3.9,0,0,0-.35.19,4.17,4.17,0,0,0-1.35,1.51,1.91,1.91,0,0,0,0,1.93,1.91,1.91,0,0,1,.83-1.34,4.56,4.56,0,0,1,1.31-.72c.24-.07.47-.14.71-.19s.58-.12.86-.18a14,14,0,0,0,1.73-.58.18.18,0,0,0,.11,0,4.07,4.07,0,0,0-.41,1.08,1.91,1.91,0,0,0,.46,1.88,1.9,1.9,0,0,1,.45-1.5,4.26,4.26,0,0,1,1.07-1.05,5,5,0,0,1,.63-.37c.21-.09.53-.28.79-.41a13.23,13.23,0,0,0,1.51-1,18.39,18.39,0,0,0,2.62-2.44c.19-.22.37-.42.55-.64A156.36,156.36,0,0,0,234.9,287.2a5.79,5.79,0,0,0,.51-6.32,48.69,48.69,0,0,0-6.36-9.31,71.42,71.42,0,0,0,24-10.75c10.39-5.79,17.43-17.41,17.53-38.27A45.48,45.48,0,0,1,267.06,234.39Z"/><path class="cls-33" d="M134.27,273.07s0,0,.08.05h0Z"/><path class="cls-34" d="M148.92,213.47a11.61,11.61,0,0,0-.4-1.57,3.31,3.31,0,0,0-.7-1.25,2.16,2.16,0,0,0-1.2-.64,6,6,0,0,0-.76-.12c-.27,0-.54,0-.84,0a7,7,0,0,1,.79-.35,3.17,3.17,0,0,1,.88-.11,2.25,2.25,0,0,1,1.71.71,2.9,2.9,0,0,1,.73,1.67A3.5,3.5,0,0,1,148.92,213.47Z"/><path class="cls-32" d="M217.37,257.78a4.12,4.12,0,0,0-.49.55,6,6,0,0,0-1.57-1.65,10.11,10.11,0,0,0-3.16-1.55L210,254.5l1.94-1.49-2.86,1.22-.32-.1.24.14a5.41,5.41,0,0,0-1.72,1.13,4.12,4.12,0,0,0-.49.55,6,6,0,0,0-1.6-1.62,10.09,10.09,0,0,0-2.2-1.17L205.1,252l-3.12.78-.17.06v0h0v0a5.38,5.38,0,0,0-2.3,1.25,6,6,0,0,0-1.33-1.84,10,10,0,0,0-2.09-1.57l2.06-.85-3.13.43a5.68,5.68,0,0,0-2,.66,4.28,4.28,0,0,0-.61.4,5.79,5.79,0,0,0-1.13-2,10,10,0,0,0-2-1.81l2.23-.85-3,.31h0l0,0-.11,0-.72.05-.42.21a5.2,5.2,0,0,0-.72.31,5.81,5.81,0,0,0-.61.38,6.45,6.45,0,0,0-1.08-2,10.13,10.13,0,0,0-2.63-2.34l-2.37-1.47,2.74-.86-3.15.17a5.61,5.61,0,0,0-2.05.48,6.15,6.15,0,0,0-.63.35,6.2,6.2,0,0,0-1-2.06,10.11,10.11,0,0,0-2.48-2.49l-1.72-1.2.19,0,3.28-.42-3.15-.39a6.07,6.07,0,0,0-1.48,0l0,0,0,0a4.08,4.08,0,0,0-.61.09,4.17,4.17,0,0,0-.68.23,6.13,6.13,0,0,0-.59-2.2,10.13,10.13,0,0,0-2-2.88l-1.09-1.12.3-.05,3.28-.43L165.8,229a6.54,6.54,0,0,0-1.25,0h0a5.87,5.87,0,0,0-.84.13h0a5.41,5.41,0,0,0-.68.23,6.13,6.13,0,0,0-.59-2.2A10,10,0,0,0,161,225l-.65-.75v0h-.05a2.84,2.84,0,0,0-1.2-.17H159a3.85,3.85,0,0,0-.18-1,5.14,5.14,0,0,0-1-1.8l-1.28-1.4.63,1.88a12.28,12.28,0,0,1,.47,1.63,2.43,2.43,0,0,1,0,1.44L156,228.57l2.65-3.17a1.56,1.56,0,0,1,.25-.16,2.08,2.08,0,0,1,.36-.14,5.57,5.57,0,0,1,.65-.1,16,16,0,0,1,1.36,2.65,4.62,4.62,0,0,1,.34,2.85l-1,3.56,2.11-3a2.14,2.14,0,0,1,.53-.47,3.65,3.65,0,0,1,.74-.37,5.79,5.79,0,0,1,.71-.21l.14,0,.14,0,.83,1.56a16.44,16.44,0,0,1,1.5,2.87,4.65,4.65,0,0,1,.34,2.86l-1,3.56,2.11-3a2,2,0,0,1,.53-.47,3.65,3.65,0,0,1,.74-.37,4.56,4.56,0,0,1,.72-.21l.13,0,.21,0,1.57,1.74a16.74,16.74,0,0,1,2,2.56,4.55,4.55,0,0,1,.84,2.75l-.33,3.68,1.54-3.35a2.19,2.19,0,0,1,.45-.56,4.06,4.06,0,0,1,.66-.5c.21-.12.44-.22.66-.32l.13-.06c.24-.1.49-.18.75-.26l.22-.07,2.06,2a17.39,17.39,0,0,1,2.12,2.45,4.64,4.64,0,0,1,1,2.7l-.12,3.69,1.35-3.43a2.11,2.11,0,0,1,.41-.59,3.54,3.54,0,0,1,.64-.53,4.56,4.56,0,0,1,.65-.37l.11-.06.48-.2a14.55,14.55,0,0,1,2,2.19,4.53,4.53,0,0,1,1.07,2.67l0,3.69,1.25-3.47a2.45,2.45,0,0,1,.4-.59,3.41,3.41,0,0,1,.62-.55,5.2,5.2,0,0,1,.64-.39l.11-.06c.22-.11.46-.21.69-.3a16.29,16.29,0,0,1,2.23,2,4.64,4.64,0,0,1,1.33,2.55l.35,3.67.9-3.57a2.05,2.05,0,0,1,.33-.64,3.84,3.84,0,0,1,.56-.61,5.32,5.32,0,0,1,.59-.44l.12-.08c.14-.09.29-.18.48-.28a15.06,15.06,0,0,1,2.47,1.61,4.64,4.64,0,0,1,1.73,2.29l.93,3.57.32-3.67a1.91,1.91,0,0,1,.22-.67,3.36,3.36,0,0,1,.46-.7,5.09,5.09,0,0,1,.51-.53l.1-.1c.19-.17.39-.32.6-.48l.44-.34,2.12,1.17a16.36,16.36,0,0,1,2.7,1.79,4.59,4.59,0,0,1,1.69,2.33l.87,3.59.38-3.67a1.76,1.76,0,0,1,.24-.67,3.31,3.31,0,0,1,.46-.69,5.3,5.3,0,0,1,.53-.53l.1-.09a6,6,0,0,1,.62-.48l2.67-2-2.95,1.19A5.63,5.63,0,0,0,217.37,257.78Z"/><path class="cls-32" d="M255.52,253.65h0a2.56,2.56,0,0,1-.13-.59,5.91,5.91,0,0,1,0-1.39l.36-2.81-1.12,2.6a4.19,4.19,0,0,0-.37,1.65,2.51,2.51,0,0,0,0,.39,4.87,4.87,0,0,0-1.65.05,7.62,7.62,0,0,0-2.6,1l-1.82,1.13.9-2-1.82,2.17a4.17,4.17,0,0,0-.83,1.47c0,.13-.07.26-.1.38a5,5,0,0,0-1.59-.43,7.83,7.83,0,0,0-2.78.23l-.1.05,1.83-2.6L241.32,257a5.62,5.62,0,0,0-1.33,1.63,5.54,5.54,0,0,0-.3.67,6.12,6.12,0,0,0-2-1.07,10,10,0,0,0-3-.46l1.51-1.31-2.85,1.42a5.57,5.57,0,0,0-1.68,1.26,4,4,0,0,0-.46.58,5.94,5.94,0,0,0-1.69-1.52,10.18,10.18,0,0,0-3.27-1.3l-3.48-.71,3.23,1.47a16.06,16.06,0,0,1,2.83,1.57,4.58,4.58,0,0,1,1.87,2.19l1.15,3.51.08-3.69a2.42,2.42,0,0,1,.19-.69,3.84,3.84,0,0,1,.41-.72,6.68,6.68,0,0,1,.49-.57l.09-.1a8,8,0,0,1,.6-.55l.22-.18.23.13a16.93,16.93,0,0,1,3.12.84,4.61,4.61,0,0,1,2.34,1.68l2,3.12-.8-3.6a1.89,1.89,0,0,1,0-.71,3.51,3.51,0,0,1,.23-.8,4.45,4.45,0,0,1,.32-.66l.07-.12.08-.13.63.11a14.41,14.41,0,0,1,2.5.21,3.52,3.52,0,0,1,2,.88l2.64,2.75-1.6-3.44a1.7,1.7,0,0,1-.09-.49h0a2.52,2.52,0,0,1,0-.6,5.61,5.61,0,0,1,.42-1.32l.16-.36,2.23-.62a14.41,14.41,0,0,1,2.46-.51,3.6,3.6,0,0,1,2.13.29l3.31,1.89-2.51-2.86A1.39,1.39,0,0,1,255.52,253.65Z"/><path class="cls-32" d="M260.87,247.71a1.5,1.5,0,0,1-.19-.33,3.38,3.38,0,0,1-.11-.34,7.12,7.12,0,0,1,.82-.57,1.69,1.69,0,0,1,1.06-.39l3.09-.16-2.85-1.06-.17-.13a2.08,2.08,0,0,1-.2-.21,4.76,4.76,0,0,1-.4-.69l-.63-.5-.13.66a2.29,2.29,0,0,0,.19,1,2.88,2.88,0,0,0-.68.43,2.72,2.72,0,0,0-.39.37l-.27-1.4-.4,2c0,.15,0,.29-.05.44l-.48,1.07-.43.19a5.28,5.28,0,0,0-1.62,1.29l-1.21,1.51,1.76-.93a13,13,0,0,1,1.57-.74,2.48,2.48,0,0,1,1.42-.19l3.27.86-2.77-2A1.19,1.19,0,0,1,260.87,247.71Zm-1.23.08h0Z"/><path class="cls-32" d="M206.78,263.69a4.69,4.69,0,0,1,.47-.84l1.16-1.67-1.7,1.11a2.87,2.87,0,0,0-.91.89l-.05.07a3.78,3.78,0,0,0-.94-.48,5.41,5.41,0,0,0-1.17-.24L205,261l-2.38,1.57a4.37,4.37,0,0,0-1.21,1.17c-.08.12-.14.23-.2.34a5.07,5.07,0,0,0-1.41-.86,7.9,7.9,0,0,0-1.41-.43l.77-.44-2.05.29-1.39.38-.22.11a3.79,3.79,0,0,0-.34.2,6.36,6.36,0,0,0-.42-.82,4.66,4.66,0,0,0-.43-.59,7.4,7.4,0,0,0-1.5-1.35l2.48-1.18-3.2.69,0,0-.07,0-.67.17a5.28,5.28,0,0,0-1.32.58,4.71,4.71,0,0,0-.59.42,6.1,6.1,0,0,0-1.21-1.92,10,10,0,0,0-1.95-1.67l-1-.55h0a5.68,5.68,0,0,0-2,.41,6.36,6.36,0,0,0-.64.32,6.16,6.16,0,0,0-.89-2.09,10,10,0,0,0-1.59-1.9l-.78-.67,0,0h0L177.67,252a5.19,5.19,0,0,0-1.06-1.72l-1.34-1.36.7,1.86a12.22,12.22,0,0,1,.53,1.62,2.51,2.51,0,0,1,0,1.44l-1.46,3.88,2.54-3.25a1.3,1.3,0,0,1,.24-.16,2,2,0,0,1,.36-.16,5.33,5.33,0,0,1,.69-.13,16.11,16.11,0,0,1,1.68,2.4,4.55,4.55,0,0,1,.73,2.78l-.47,3.66,1.67-3.29A2.06,2.06,0,0,1,183,259a3.46,3.46,0,0,1,.69-.47,5.37,5.37,0,0,1,.69-.31l.11,0a4.56,4.56,0,0,1,.65-.2,16,16,0,0,1,2.11,2.15,4.6,4.6,0,0,1,1.17,2.63l.12,3.69,1.12-3.52a2.4,2.4,0,0,1,.37-.61,3.68,3.68,0,0,1,.6-.57,5.55,5.55,0,0,1,.62-.41l.12-.07c.17-.09.34-.18.52-.26a12.39,12.39,0,0,1,1.44,1.67,3.56,3.56,0,0,1,.8,2v3.81l1.24-3.59a1.32,1.32,0,0,1,.27-.42,3,3,0,0,1,.45-.41,6.12,6.12,0,0,1,1-.59,13.18,13.18,0,0,1,2.15.86,3.59,3.59,0,0,1,1.63,1.41l1.74,3.39-.55-3.76a1.53,1.53,0,0,1,.06-.5,2.49,2.49,0,0,1,.21-.57,5.31,5.31,0,0,1,.61-.93,11,11,0,0,1,1.4.55,2.44,2.44,0,0,1,1.14.89l2.1,3.58-.93-4a.8.8,0,0,1,0-.29A1.66,1.66,0,0,1,206.78,263.69Z"/><polygon class="cls-32" points="197.05 262.62 197.04 262.63 197.07 262.63 197.05 262.62"/><polygon class="cls-32" points="197.04 262.63 196.73 262.61 194.71 262.5 197.03 262.63 197.04 262.63"/><path class="cls-17" d="M338.47,189.34c-4.33,4.21-8.79,8.16-13.38,12s-9.28,7.54-14.11,11.08-9.82,6.81-15,9.88a127,127,0,0,1-16,7.95,126.08,126.08,0,0,0,15.63-8.59c5-3.26,9.77-6.77,14.44-10.44s9.15-7.57,13.53-11.57,8.66-8.14,12.71-12.4l0,0a1.5,1.5,0,0,1,2.18,2.07Z"/><path class="cls-16" d="M407.68,266.46l-.14.77a1,1,0,0,1-.12.3.92.92,0,0,1-.17.45,1,1,0,0,1-.81.41,1,1,0,0,1-.59-.19l-7.31-5.37-1.67,8.91a1,1,0,0,1-.59.73h0a.59.59,0,0,1-.19,0,1,1,0,0,1-.24.05,1,1,0,0,1-.59-.19L387.92,267l-1.67,8.91a1,1,0,0,1-1,.82l-.17,0a9.72,9.72,0,0,1-.7-.32L377.08,271,375.41,280a1,1,0,0,1-.59.73h0l-.19,0a.8.8,0,0,1-.83-.13l-7.31-5.37-1.67,8.91a1,1,0,0,1-1,.82l-.17,0a1,1,0,0,1-.67-.49l-7.06-5.19-1.67,8.92a1,1,0,0,1-.6.73h0l-.19,0a1.29,1.29,0,0,1-.25.06,1,1,0,0,1-.58-.19l-6.52-4.79-1.86-3,.06,0h0l.06,0a1,1,0,0,1,1,.07l7.17,5.27,1.64-8.74a1,1,0,0,1,.71-.77h0l.06,0a1,1,0,0,1,1,.08l7.15,5.26,1.61-8.58a1,1,0,0,1,.71-.77l.07,0a1,1,0,0,1,1,.08l7.17,5.27,1.64-8.74a1,1,0,0,1,.7-.77h.07a1,1,0,0,1,1,.07l7.39,5.43,1.64-8.74a1,1,0,0,1,.7-.76h0l.06,0a1,1,0,0,1,1,.08l7.17,5.27,1.64-8.75a1,1,0,0,1,.71-.77l.07,0a1,1,0,0,1,1,.08l7.15,5.25.34-1.83Z"/><polygon class="cls-12" points="282.36 101 297.38 90.36 284.26 105.83 282.36 101"/><polygon class="cls-12" points="242.28 114.54 224.36 110.35 242.34 119.72 242.28 114.54"/><polygon class="cls-12" points="252.46 106.3 236.31 97.46 251.12 111.31 252.46 106.3"/><path class="cls-35" d="M216.24,379.67c3.56.55,7.12,1.08,10.68,1.53,1.79.25,3.57.49,5.35.7s3.57.44,5.36.64c7.14.79,14.3,1.55,21.47,1.95s14.36.78,21.54.65c1.8,0,3.59-.1,5.38-.16l2.69-.11c.9,0,1.79-.15,2.69-.22,1.78-.17,3.59-.23,5.36-.5l5.35-.75a119.84,119.84,0,0,1-21.45,2.5l-5.41.12-5.41-.08c-1.8,0-3.6-.1-5.4-.18s-3.61-.13-5.4-.27c-7.2-.49-14.37-1.24-21.51-2.19S223.28,381.18,216.24,379.67Z"/><path class="cls-35" d="M216.27,393.43c2.92.75,5.85,1.45,8.8,2.07s5.9,1.23,8.86,1.76c5.93,1.07,11.88,2,17.87,2.63,3,.39,6,.62,9,.91s6,.43,9,.52l4.51.17,4.52,0,2.26,0,2.26,0,4.52-.1a156,156,0,0,1-18.09.71l-2.27,0-2.26-.11-4.53-.24c-3-.26-6-.46-9-.83-6-.72-12-1.63-17.89-2.87A157.12,157.12,0,0,1,216.27,393.43Z"/><path class="cls-24" d="M306.77,135l-.08,0a.25.25,0,0,1-.16-.31c.13-.38,1.25-3.65,2.86-3.66h0c.92,0,1.72,1,2.43,3.13a.26.26,0,0,1-.16.32.24.24,0,0,1-.31-.16c-.79-2.3-1.5-2.79-2-2.79h0c-1.06,0-2.08,2.39-2.38,3.31A.25.25,0,0,1,306.77,135Z"/><path class="cls-24" d="M309.06,142l-.1,0a.25.25,0,0,1-.12-.33c2.68-6.15-.06-9.64-.08-9.68a.25.25,0,1,1,.38-.32c.13.16,3,3.76.15,10.2A.25.25,0,0,1,309.06,142Z"/><path class="cls-24" d="M244.59,135a.24.24,0,0,1-.23-.18c-.31-.92-1.33-3.31-2.39-3.31h0c-.46,0-1.18.49-2,2.79a.25.25,0,0,1-.32.16.25.25,0,0,1-.15-.32c.71-2.11,1.51-3.13,2.43-3.13h0c1.61,0,2.74,3.28,2.86,3.66a.25.25,0,0,1-.16.31Z"/><path class="cls-24" d="M242.3,142a.25.25,0,0,1-.23-.15c-2.81-6.44,0-10,.15-10.2a.25.25,0,0,1,.35,0,.24.24,0,0,1,0,.35s-2.77,3.53-.08,9.68a.26.26,0,0,1-.13.33Z"/><line class="cls-28" x1="304.39" y1="127.17" x2="299.37" y2="132.98"/><path class="cls-15" d="M277.64,88.05s-.25-.21-.42-.31a6,6,0,0,0-.61-.35,13.47,13.47,0,0,0-1.33-.61,14.7,14.7,0,0,0-2.86-.76,13.14,13.14,0,0,0-6,.46l-.77.25-.89.32-.91.32-.94.24a11.91,11.91,0,0,1-3.8.35,8.57,8.57,0,0,1-6.54-3.59,6.9,6.9,0,0,0,6.4,1.11,10.88,10.88,0,0,0,3-1.4l.69-.46.68-.54.68-.54.83-.61a18.77,18.77,0,0,1,7.39-3.28,19.6,19.6,0,0,1,4.06-.37,18.38,18.38,0,0,1,2.07.16c.36,0,.71.1,1.07.18a8.48,8.48,0,0,1,1.23.34Z"/><path class="cls-36" d="M279.93,89.36c-1.63.35-3.25.75-4.85,1.15s-3.19.86-4.74,1.4a40.27,40.27,0,0,0-4.56,1.85,24.89,24.89,0,0,0-4.19,2.63,14.58,14.58,0,0,1,3.81-3.31A24,24,0,0,1,270,91,30.28,30.28,0,0,1,279.93,89.36Z"/><path class="cls-15" d="M267.07,80.44s-7.73,6.55-20.39,2.4c0,0,2,4.45,12.16,5.43Z"/><path class="cls-15" d="M262.81,87.18s-9.23-3.89-13.25-.35a41.62,41.62,0,0,0-6.28,6.86,64.61,64.61,0,0,0,17.15-4.24C269.88,85.76,262.81,87.18,262.81,87.18Z"/><path class="cls-15" d="M274.75,83.2a24.28,24.28,0,0,0-2.69-.72c-.95-.2-1.91-.36-2.87-.48a29.4,29.4,0,0,0-5.86-.18,25.3,25.3,0,0,0-3,.41,8.16,8.16,0,0,1-3.3,0,5.25,5.25,0,0,1-2.79-1.66,6,6,0,0,1-1.35-2.8,5,5,0,0,0,4.3,3.44,6.7,6.7,0,0,0,2.75-.46l1.44-.56c.49-.2,1-.34,1.51-.52a32,32,0,0,1,6.3-1.25c1.07-.11,2.15-.18,3.24-.2a30.09,30.09,0,0,1,3.36.13Z"/><path class="cls-37" d="M169.67,246.67a21.19,21.19,0,0,0-1.75-3.58,15.49,15.49,0,0,0-2.43-3.08,15.15,15.15,0,0,1,2,3.32,19.65,19.65,0,0,1,1.23,3.63,21,21,0,0,1,.52,3.76,25,25,0,0,1-.12,3.77v0a.49.49,0,0,0,0,.12,1,1,0,1,0,2-.07,27,27,0,0,0-.39-4A22.46,22.46,0,0,0,169.67,246.67Z"/><path class="cls-37" d="M217,272h0a36.79,36.79,0,0,1-2.2-3.77,19.91,19.91,0,0,1-1.6-4.11,20.63,20.63,0,0,0,.66,4.46c.18.73.39,1.46.62,2.18s.46,1.44.75,2.17a.78.78,0,0,0,.11.2,1,1,0,0,0,1.39.27A1,1,0,0,0,217,272Z"/><path class="cls-32" d="M144.4,215.66a1.29,1.29,0,0,1,.95.3,4.84,4.84,0,0,1,.74.69,9.46,9.46,0,0,1,1.15,1.61,17,17,0,0,1,.9,1.75c.27.6.51,1.2.73,1.81l-.91,0a18,18,0,0,0,1-2.85,7.53,7.53,0,0,0,.26-1.48A2.54,2.54,0,0,0,149,216a2.28,2.28,0,0,1,.75,1.44,5.37,5.37,0,0,1,0,1.65,11.1,11.1,0,0,1-.88,3.12l-.46,1.07-.44-1.1c-.47-1.19-.92-2.38-1.44-3.53a16.45,16.45,0,0,0-.84-1.68,5.25,5.25,0,0,0-.53-.77A1.24,1.24,0,0,0,144.4,215.66Z"/><path class="cls-32" d="M150.77,214c0-.23.23-.39.41-.52a2.81,2.81,0,0,1,.6-.3,5.77,5.77,0,0,1,1.27-.32,9.38,9.38,0,0,1,1.28-.12c.43,0,.86,0,1.28,0l-.36.85a17.05,17.05,0,0,0-1.5-1.3,6.2,6.2,0,0,0-.83-.54,1.81,1.81,0,0,0-.95-.26,1.46,1.46,0,0,1,1.09-.17,3.55,3.55,0,0,1,1.06.34,6.94,6.94,0,0,1,1.81,1.22l1,.86h-1.32c-.82,0-1.64-.06-2.46-.06-.41,0-.81,0-1.22,0A1.73,1.73,0,0,0,150.77,214Z"/><path class="cls-32" d="M144.11,207.58a16.07,16.07,0,0,1,2.35-1.17c.81-.32,1.62-.61,2.45-.85l0,.92a11,11,0,0,0-1.26-.36,9.8,9.8,0,0,0-1.32-.21,8.8,8.8,0,0,0-1.36,0,9.53,9.53,0,0,0-1.38.19,5.38,5.38,0,0,1,2.74-.9,7.31,7.31,0,0,1,1.48.05,7,7,0,0,1,1.46.35l1.33.47-1.35.45a24.78,24.78,0,0,1-2.52.7A15,15,0,0,1,144.11,207.58Z"/><path class="cls-38" d="M275.9,496a101.93,101.93,0,0,1-1.12-11c-.22-3.66-.29-7.32-.28-11s.13-7.32.38-11a102.22,102.22,0,0,1,1.22-11,99.63,99.63,0,0,1,1.12,11c.22,3.66.3,7.31.28,11s-.13,7.31-.38,11A102,102,0,0,1,275.9,496Z"/><path class="cls-38" d="M331.77,467.54q2.33,12.18,4.28,24.42c1.32,8.16,2.53,16.33,3.72,24.5s2.28,16.37,3.29,24.57,1.95,16.41,2.73,24.64q-2.32-12.18-4.27-24.42c-1.33-8.16-2.54-16.33-3.73-24.5s-2.27-16.37-3.28-24.57S332.56,475.77,331.77,467.54Z"/><path class="cls-38" d="M327.75,437.61a44.57,44.57,0,0,1,1.52,5.65q.6,2.85,1,5.72c.26,1.92.43,3.84.53,5.78a42.32,42.32,0,0,1,0,5.85,42.18,42.18,0,0,1-1.53-5.65c-.39-1.9-.72-3.8-1-5.72s-.43-3.84-.53-5.78A42.32,42.32,0,0,1,327.75,437.61Z"/><path class="cls-38" d="M266.74,504.74Q266,517.12,265,529.47c-.7,8.23-1.5,16.45-2.34,24.67s-1.76,16.43-2.77,24.63-2.09,16.39-3.32,24.57q.69-12.39,1.77-24.73c.69-8.23,1.5-16.45,2.34-24.67s1.76-16.43,2.77-24.63S265.5,512.92,266.74,504.74Z"/><ellipse class="cls-39" cx="294.93" cy="150.39" rx="5.92" ry="4.38" transform="matrix(0.16, -0.99, 0.99, 0.16, 100.44, 418.29)"/><ellipse class="cls-39" cx="257.93" cy="150.39" rx="4.38" ry="5.92" transform="translate(-20.27 42) rotate(-8.96)"/><path class="cls-40" d="M141,197.34a.39.39,0,0,1-.39-.36l-.67-6a.39.39,0,0,1,.35-.44.4.4,0,0,1,.44.36l.67,6a.4.4,0,0,1-.35.44Z"/><path class="cls-40" d="M133.66,202.1a.38.38,0,0,1-.17,0l-5.47-2.6a.4.4,0,0,1-.19-.54.4.4,0,0,1,.53-.19l5.48,2.61a.4.4,0,0,1,.19.53A.42.42,0,0,1,133.66,202.1Z"/><path class="cls-40" d="M136.28,198.41a.39.39,0,0,1-.32-.16l-2.25-3a.4.4,0,0,1,.09-.56.39.39,0,0,1,.55.08l2.25,3a.41.41,0,0,1-.08.56A.42.42,0,0,1,136.28,198.41Z"/><path class="cls-40" d="M146,198a.4.4,0,0,1-.37-.55L147.1,194a.4.4,0,0,1,.52-.22.4.4,0,0,1,.21.53l-1.46,3.47A.39.39,0,0,1,146,198Z"/><path class="cls-41" d="M308.55,118.68a65.41,65.41,0,0,0-8.12-3.4,89.84,89.84,0,0,0-17.07-4.16c-2.89-.44-5.82-.65-8.73-.81l.05-1c2.95.24,5.89.54,8.8,1.07a88.24,88.24,0,0,1,8.64,1.92c2.84.76,5.64,1.7,8.39,2.74A66.82,66.82,0,0,1,308.55,118.68Z"/><path class="cls-41" d="M240.79,118.68a67.68,67.68,0,0,1,8.05-3.64,91.93,91.93,0,0,1,17-4.66c2.91-.52,5.86-.83,8.81-1.07l.05,1c-2.92.16-5.84.37-8.74.81a87.19,87.19,0,0,0-8.64,1.66c-2.86.68-5.67,1.54-8.45,2.5A66.45,66.45,0,0,0,240.79,118.68Z"/><path class="cls-15" d="M262.19,102.22c-1.43,1.49-2.88,2.82-4.25,4.17a23.44,23.44,0,0,0-3.53,4.1,4.86,4.86,0,0,0-.72,2,1.28,1.28,0,0,0,.09.7c0,.12.14.22.2.35a5.26,5.26,0,0,0,.41.4c.31.27.74.58,1.15.93a4.39,4.39,0,0,1,1.16,1.41,3.06,3.06,0,0,1,.27.91,2.92,2.92,0,0,1,0,.89,3.93,3.93,0,0,1-.24.78,7.74,7.74,0,0,1-.37.7,3.25,3.25,0,0,0-.85-2.45,13.78,13.78,0,0,0-2.39-1.2,7,7,0,0,1-.78-.49,3.72,3.72,0,0,1-.75-.78,3.88,3.88,0,0,1-.72-2.1,6.7,6.7,0,0,1,1-3.6,14,14,0,0,1,4.66-4.41A17.67,17.67,0,0,1,262.19,102.22Z"/><path class="cls-36" d="M276.45,87.37a56.32,56.32,0,0,1-7.4,2.14c-1.25.3-2.51.53-3.78.76-.63.11-1.27.2-1.91.3s-1.3.15-1.85.28a14.69,14.69,0,0,0-6.41,3.57,24,24,0,0,0-4.62,6c.24-.6.49-1.19.76-1.78s.59-1.14.93-1.7a19,19,0,0,1,2.39-3.07,13.93,13.93,0,0,1,6.73-4c.7-.14,1.32-.18,1.94-.27l1.89-.26,3.78-.58c1.26-.2,2.52-.42,3.77-.66S275.19,87.62,276.45,87.37Z"/><polygon class="cls-12" points="267.26 101 252.24 90.36 265.35 105.83 267.26 101"/></g></g></svg>