<svg xmlns="http://www.w3.org/2000/svg" viewBox="0 0 566.93 566.93"><defs><style>.cls-1{fill:#8abcb2;}.cls-2{fill:#45457c;}.cls-3{fill:#e8ddf2;}.cls-4{fill:#7878b5;}.cls-5{fill:#5f5f9b;}.cls-6{fill:#c2bde0;}.cls-7{fill:#bebae0;}.cls-8{fill:#4c4c93;}.cls-9{fill:#6060b2;}.cls-10{fill:#5060d6;}.cls-11{fill:#336;}.cls-12{fill:#3d1a63;}.cls-13{fill:#995cea;}.cls-14{fill:#ede6dd;}.cls-15{fill:#494987;}.cls-16{fill:#95a2bc;}.cls-17{fill:#250e49;}.cls-18{fill:#65a4ef;}.cls-19{fill:#a7a6cc;}.cls-20{fill:#f2eabb;}.cls-21{fill:#303d59;}.cls-22{fill:#f7efdf;}.cls-23{fill:#fcf5e0;stroke:#e8ddf2;stroke-linecap:round;stroke-linejoin:round;stroke-width:0.8px;}</style></defs><g id="BG"><rect class="cls-1" x="-0.26" y="-0.08" width="567.45" height="567.09"/></g><g id="Hair"><path class="cls-2" d="M454.44,567.36S426,516.44,420.17,469.59s-45.91-33.23-24.54-77.72c19.37-40.34-42.9-99.7-42.9-99.7L349.17,229l-91.39,22.8.11,3-87,3.31-27.23,107s14.31,60.3-7.57,84.17-12.92,28.83-25.85,83.52l-10.71,34.7,192.75-.19v-.54Z"/></g><g id="Hair_2" data-name="Hair 2"><path class="cls-3" d="M277.86,72.31s-33.19.09-47.88,21c-24.35,34.64,3.73,34.54-14.36,63C202,177.65,221,183.91,220.52,189s-26.09,3.19-30.17,18.14,12.34,3.07,12.34,3.07h69.7l-.11,13.43,3.13,6.57h79.68S317.31,194,328.24,190.81c3.87-1.12,5-3.54,4.24-8.6-1.15-7.65,16.3-5.33,3.29-23.59-13.31-18.67-7.9-29.28-11-44.2C321,95.66,313.13,85.57,303.05,80.05c-14-7.65-18.53-7.21-25.19-7.74"/></g><g id="Skin"><path class="cls-4" d="M224.72,382.47c-38.07,8.24-78-4.24-101.72-14.23l0,0c-1.39-.58-2.73-1.16-4-1.72l-.06,0c-6-3.34-13.58-11.16-6.69-28.59.22-.49.47-1,.67-1.48,46.15-111,86.54-136.72,86.54-136.72l8,84.91-30.27,39.7a2.91,2.91,0,0,0,1.63,4.59l38.09,9.19Z"/><path class="cls-4" d="M518.58,252,489.07,263.7l-14.26-17.31L427.07,286.7a4,4,0,0,1-6.08-1c-35.86-60.42-69.57-86-69.57-86L342.76,292,399,350.7a19.49,19.49,0,0,0,13.54,6v0a10,10,0,0,0,2.22-.07,19.48,19.48,0,0,0,5.87-1.43C434.57,350.44,466.68,330.83,518.58,252Z"/><path class="cls-4" d="M351.17,199.91c-5.41-1-34.72-7.43-46.36-16.87-9.65-7.83-4.14-23.86-4.14-23.86l-23.4-.2v0h-3.39v0l-23.4.2s5.51,16-4.13,23.86c-11.65,9.44-41.77,15.91-47.17,16.87S265.41,221,265.41,221L283,229l7.57-6.55S356.58,200.86,351.17,199.91Z"/><path class="cls-4" d="M304.86,138.31c0,22.64-13.05,41-29.15,41s-29.14-18.35-29.14-41,13-41,29.14-41c8,0,15.21,4.51,20.47,11.81.44.61.87,1.24,1.28,1.88C302.06,118.27,304.86,127.83,304.86,138.31Z"/><path class="cls-4" d="M303.51,128.67s3.67-6,8.16-2.74,4.81,13.72,2.75,17.21-6.67,11.76-12.62,4.6Z"/><path class="cls-4" d="M248.12,128.67s-3.67-6-8.15-2.74-4.82,13.72-2.76,17.21,6.67,11.76,12.63,4.6Z"/><path class="cls-5" d="M297.63,165.24s-21.06,34.58-46.47-4.43c0,0,3.86,12.13-3.18,20.51C248,181.32,279.66,195.85,297.63,165.24Z"/></g><g id="Clothes"><path class="cls-6" d="M256.88,207.25s23.41,22.63,48.78-.78V251H259.41Z"/><path class="cls-7" d="M350.5,285c1.78-1.58,10.05-8,47.84-33.7l-12.25-24.52L360.54,213.6,330,225.94l.3.88-54.5,13.92-55.25-14.51L202.2,208.69l-32.51,22-20.31,30.54,48.6,36,4.55-6.13a62.49,62.49,0,0,0,4.68,11.73c14.82,28.41,5.38,72.85,2.57,91.35,2.92,2.81.13,5.19,2.95,8h0l57.07,0h0l73.88.19s-18.25-63.49.56-99.56A65.54,65.54,0,0,0,350.5,285Z"/><path class="cls-4" d="M488.85,278.25s62.65-34.14,34-89.68c-.95-1.84-4-1-5.11,1L499.56,212c-.64,1.14-4.56,3.7-5.19-3.54l.11-6.95c-.37-1.48-2.27-1.74-3.37-.45l0,0c-4.54,5.33-8.27,19.25-9.06,25.86-.89,7.35-.16,10.38-12.28,25Z"/><path class="cls-4" d="M215,384.13s77.28-8.63,73.68-79.6c-.12-2.35-3.28-3.27-5.19-1.89l-30.9,22.22c-1.07.77-5.8,1.08-3.37-6.43l3-6.79a2.16,2.16,0,0,0-3-2.35l0,0c-6.47,2.68-15.75,14.31-19.24,20.38-3.89,6.75-13.1,8.39-24.27,7.51Z"/><path class="cls-8" d="M280.42,244.08l94.92-28.74c-5.08-18.63-19.48-22.44-19.48-22.44C329.6,182.73,308,198,299.53,208.14a235.84,235.84,0,0,1-19.33,20,233.71,233.71,0,0,1-19.34-20c-8.47-10.16-30.07-25.41-56.33-15.24,0,0-14.4,3.81-19.48,22.44L280,244.08v.13l.23-.06.22.06Z"/><path class="cls-9" d="M212.28,198.29c-41.52,4.42-52.13,46.79-52.13,46.79s17.09-35.06,51.64-20.26S281,244.24,281,244.24C245,199.9,212.28,198.29,212.28,198.29Z"/><path class="cls-9" d="M349.84,198.29s-32.72,1.61-68.69,46c0,0,34.64-4.62,69.18-19.42s44.18,20.37,44.18,20.37S391.36,202.71,349.84,198.29Z"/><path class="cls-4" d="M340.49,386.06l-4.3-27.7-60,3.08-61.36-3L211,386.06c1.42,19.07,60.62,39.06,64.64,40.4v.07l.11,0,.11,0v-.07C279.88,425.12,339.07,405.13,340.49,386.06Z"/><path class="cls-7" d="M369.85,570.41c-1.29-95.29-25.06-163.25-25.06-163.25l-4.3-21.1c-66,21.28-129.5,0-129.5,0l-3.56,21.1s-29.35,83.24-26.05,163.25l84.18,1s6-36.27,9-68.38c.26-.94,1.49-4.84,2.87.11,2.78,32.09,8.2,68.27,8.2,68.27Z"/></g><g id="Extra_Details" data-name="Extra Details"><path class="cls-3" d="M233.06,324.72s5.1,8.63,15.39-2.06c0,0,1,3.61,4,2,1.48-.8,4.45-2.91,7.58-5.18,4.43-3.22,9.16-6.53,9.12-6.48s-3.47,7.72,6.07,8.64c0,0-3.1,6.4,5,7.36,0,0-2.91,4.42,2.73,5.85a1.52,1.52,0,0,0,.57,2.45c1.82.85-23.26,53.71-97.81,47.3L202,334.42S224.67,339.69,233.06,324.72Z"/><path class="cls-3" d="M518.58,252c-18.75,28.71-38.9,53.24-38.9,53.24l-29.74-37.82s26.79-20.61,31.07-33.25A133.71,133.71,0,0,1,484.47,215s4.66,6.17,13.11-1.51a5.2,5.2,0,0,0,2-1.46c.89-1.08,10.22-12.62,10.22-12.62s-2.4,7.11,5.54,6.65h0s-1.38,6.93,5.82,5.91c0,0-2.68,6.93,5.64,7.11h0s-1.85,4.07,3.05,3.88C529.83,223,529.58,235.13,518.58,252Z"/></g><g id="Details"><path class="cls-10" d="M284.94,300s2.14-12.81,1-16.8-2.57-10.78-13.42,3.9c0,0-1.58,2.44,1.82,8.1,0,0-14.58-.7-11.23,3.92S278,303.52,278,303.52Z"/><ellipse class="cls-11" cx="267.49" cy="133.17" rx="1.82" ry="3.94"/><ellipse class="cls-11" cx="289.89" cy="133" rx="1.82" ry="3.94"/><path class="cls-12" d="M327.51,275.46c.12.49.15.74.21,1.08s.07.62.1.93c.06.6.09,1.2.1,1.78a33.17,33.17,0,0,1-.11,3.47,49.23,49.23,0,0,1-1,6.69A82.58,82.58,0,0,1,323,302.1c-.76,2.06-1.64,4.07-2.52,6.06s-1.93,3.9-2.92,5.83c-2,3.87-4,7.7-6.24,11.43,1.66-4,3.15-8.06,4.57-12.14q1.06-3.06,2.07-6.14c.66-2,1.43-4,2-6.08a80,80,0,0,0,2.8-12.35,44.68,44.68,0,0,0,.47-6.18,27.44,27.44,0,0,0-.11-3q-.06-.74-.18-1.44c0-.23-.07-.47-.12-.68s-.12-.47-.13-.5Z"/><path class="cls-3" d="M252.09,114.25s1.75-6.52,7.06-7.68,26-6.78,32.5-16.9-26.88-6.18-26.88-6.18Z"/><path class="cls-3" d="M235,90.32a82.56,82.56,0,0,0-8,8.51,59.58,59.58,0,0,0-6.53,9.66,26.59,26.59,0,0,0-3.38,11c0,.48,0,1,0,1.43s0,.94.12,1.42c.13,1,.25,1.95.4,2.92.29,2,.63,3.88,1,5.81s.78,3.87,1.12,5.83a21.48,21.48,0,0,1,.33,6,17.52,17.52,0,0,1-.58,3l-.46,1.43a13.48,13.48,0,0,1-.64,1.39,29.27,29.27,0,0,1-3.56,4.8c-2.59,3-5.4,5.79-7.38,9.19a12.28,12.28,0,0,0-1.79,5.53,9.74,9.74,0,0,0,1.64,5.57,9.81,9.81,0,0,1-1.78-5.57,12.39,12.39,0,0,1,1.69-5.67c1.93-3.49,4.69-6.38,7.19-9.41a28.23,28.23,0,0,0,3.38-4.76,14.5,14.5,0,0,0,1-2.7,17.36,17.36,0,0,0,.5-2.85,20.47,20.47,0,0,0-.42-5.77c-.36-1.92-.81-3.84-1.21-5.78s-.79-3.88-1.11-5.84c-.17-1-.3-1.95-.45-2.93-.08-.49-.11-1-.17-1.52s0-1,0-1.53a28.09,28.09,0,0,1,3.28-11.58,61.11,61.11,0,0,1,6.49-10.07,85.27,85.27,0,0,1,8-8.91Z"/><path class="cls-3" d="M324.06,111.52c2.12,8,4.38,16,6.84,23.9,1.23,4,2.52,7.88,3.94,11.76.71,1.93,1.46,3.86,2.3,5.72a24.53,24.53,0,0,0,3.07,5.2c2.45,3.29,5.35,6.28,7.8,9.73a18,18,0,0,1,1.64,2.75,6.72,6.72,0,0,1,.72,3.25,3.93,3.93,0,0,1-.55,1.66,4.75,4.75,0,0,1-1.15,1.25,9.68,9.68,0,0,1-2.9,1.43,20.71,20.71,0,0,0-5.61,2.44,4.65,4.65,0,0,0-1.07,1,1.48,1.48,0,0,0-.31,1.26,2.17,2.17,0,0,0,.87,1.09,6.75,6.75,0,0,0,1.32.73,25.24,25.24,0,0,0,6,1.52c2.05.3,4.12.49,6.19.62-2.07-.07-4.15-.19-6.21-.44a26.33,26.33,0,0,1-6.11-1.36,7.31,7.31,0,0,1-1.41-.74,2.56,2.56,0,0,1-1.06-1.29,1.9,1.9,0,0,1,.33-1.67,5.11,5.11,0,0,1,1.16-1.16,21,21,0,0,1,5.69-2.69,8.86,8.86,0,0,0,2.62-1.38,3.19,3.19,0,0,0,1.3-2.34,5.64,5.64,0,0,0-.72-2.74,19.09,19.09,0,0,0-1.62-2.54c-2.47-3.26-5.47-6.16-8.09-9.46a29.05,29.05,0,0,1-1.88-2.59,30.89,30.89,0,0,1-1.54-2.81c-.92-1.9-1.74-3.82-2.52-5.76-1.55-3.88-3-7.8-4.32-11.74-2.71-7.88-5.22-15.81-7.59-23.8Z"/><path class="cls-3" d="M250,118.35c-.67,4-.9,8.06-1.23,12.17s-.75,8.13-.26,12.11a37.44,37.44,0,0,0,3.22,11.54c1.62,3.71,3.76,7.29,5.11,11.32a20.26,20.26,0,0,1,1.1,6.27,22,22,0,0,1-.84,6.27,43.93,43.93,0,0,1-5.25,11.3c-1.09,1.75-2.24,3.47-3.29,5.22a19.65,19.65,0,0,0-2.5,5.55,8.13,8.13,0,0,0,.83,5.87,17.4,17.4,0,0,0,4,4.63,17.52,17.52,0,0,1-4.17-4.54,8.38,8.38,0,0,1-1-6,20,20,0,0,1,2.38-5.75c1-1.81,2.1-3.56,3.13-5.33a43.62,43.62,0,0,0,4.8-11.19,19.54,19.54,0,0,0-.59-11.77c-1.38-3.76-3.61-7.24-5.41-11a39.6,39.6,0,0,1-3.75-12.05,40.81,40.81,0,0,1-.38-6.34c0-2.15.18-4.14.26-6.22.21-4.1.32-8.25.9-12.45h0a1.5,1.5,0,0,1,3,.41Z"/><path class="cls-3" d="M271.09,78.09s10,25.3,26.62,32.12-12-32.95-12-32.95Z"/><path class="cls-3" d="M286.62,96.29a3.54,3.54,0,0,1-.27.44,3.27,3.27,0,0,1-.25.36c-.16.23-.33.44-.5.64-.33.43-.69.79-1.05,1.18a29,29,0,0,1-2.26,2,34.67,34.67,0,0,1-5,3.29,52,52,0,0,1-10.79,4.32l-2.79.74-2.81.61c-1,.22-1.79.31-2.66.56a13.17,13.17,0,0,0-2.49,1,11.2,11.2,0,0,0-6,8.64,12,12,0,0,1,5.28-9.92,17.39,17.39,0,0,1,5.42-2.37l2.68-.75,2.63-.89a50,50,0,0,0,9.9-4.7,32.71,32.71,0,0,0,4.26-3.24,22.72,22.72,0,0,0,1.81-1.87c.26-.33.55-.65.77-1,.13-.17.24-.34.34-.5a2,2,0,0,0,.14-.23l.1-.17Z"/><polygon class="cls-12" points="315.39 311.68 311.83 321.81 313.07 322.05 317.11 311.74 315.39 311.68"/><rect class="cls-13" x="310.59" y="311.13" width="8.01" height="12.02" rx="1.84" transform="matrix(0.98, 0.2, -0.2, 0.98, 68.11, -55.41)"/><path class="cls-3" d="M317.28,329.49s.55,19.58-11.09,21.89c0,0,5.37-3.05,2.13-12.35C303.05,323.91,315.37,313.25,317.28,329.49Z"/><path class="cls-3" d="M324.87,239.77c7.76-23.57,3.88-32.58,3.88-32.58-6.05-16.84-.51-16.38-.51-16.38l-5.91-9.46-21.73-20s-4.36,19.41,5.81,31.89-9.84,34.29,4.61,59.41c15.29,26.59-.21,71-.21,71s2.4-4.81,5.4-11.25l-.3.88c-1.42,4.08-2.91,8.14-4.57,12.14,2.21-3.73,4.25-7.56,6.24-11.43,1-1.93,2-3.87,2.92-5.83s1.76-4,2.52-6.06a82.58,82.58,0,0,0,3.81-12.69,49.23,49.23,0,0,0,1-6.69c0-.22,0-.44,0-.66C330.72,264.65,318,260.6,324.87,239.77Z"/><path class="cls-3" d="M240.36,252.68c-11.92,20.72-5.13,52.24-1.56,65.15l-1.86,2.11c-1.07-2-2.11-3.95-3.14-5.95s-2-3.88-2.92-5.83-1.76-4-2.52-6.06a83.7,83.7,0,0,1-3.81-12.69,49.47,49.47,0,0,1-1-6.69c0-.22,0-.44,0-.66-2.87-17.41,9.84-21.46,3-42.29-7.75-23.57-3.88-32.58-3.88-32.58,6.07-18.49-2.11-17.63-2.11-17.63l8.53-8.21,21.73-20s4.37,19.41-5.81,31.89S254.82,227.56,240.36,252.68Z"/><path class="cls-14" d="M300.62,219.62a21,21,0,1,1-40.45,1.84c.13-.57.27-1.13.44-1.68a21,21,0,0,0,40-.16Z"/><path class="cls-15" d="M287.33,119.31a18.44,18.44,0,0,1,4.14,0,13.65,13.65,0,0,1,3.95,1,8.64,8.64,0,0,1,3.21,2.45,8.26,8.26,0,0,1,1.5,3.57,7.8,7.8,0,0,0-2.05-3.06,7.51,7.51,0,0,0-3.15-1.55,12.21,12.21,0,0,0-3.52-.2,15.47,15.47,0,0,0-3.42.65h0a1.51,1.51,0,0,1-.94-2.87Z"/><path class="cls-15" d="M269.85,122.24a15.38,15.38,0,0,0-3.41-.65,12.19,12.19,0,0,0-3.52.2,7.45,7.45,0,0,0-3.15,1.55,7.82,7.82,0,0,0-2.06,3.06,8.16,8.16,0,0,1,1.51-3.57,8.56,8.56,0,0,1,3.21-2.45,13.59,13.59,0,0,1,3.94-1,18.44,18.44,0,0,1,4.14,0,1.51,1.51,0,1,1-.34,3,1.36,1.36,0,0,1-.29-.06Z"/><path class="cls-15" d="M278,149.29a5.26,5.26,0,0,1-.93-.07.51.51,0,0,1-.41-.58.5.5,0,0,1,.59-.4c1.85.33,5.69-.79,6.41-2.17.14-.27.26-.7-.36-1.32a7.89,7.89,0,0,1-2.5-6,.51.51,0,0,1,.55-.44.5.5,0,0,1,.45.54A6.84,6.84,0,0,0,284,144a2,2,0,0,1,.54,2.49C283.6,148.24,280.2,149.29,278,149.29Z"/><path class="cls-15" d="M265.12,153.6a37.41,37.41,0,0,0,5.18,3.3,22.92,22.92,0,0,0,5.64,2.12,13.1,13.1,0,0,0,5.91,0,14.36,14.36,0,0,0,5.39-2.71,11.56,11.56,0,0,1-5.18,3.46,12.25,12.25,0,0,1-6.33.24,18.81,18.81,0,0,1-5.81-2.41A21.88,21.88,0,0,1,265.12,153.6Z"/><path class="cls-15" d="M265.12,153.6a41,41,0,0,0,5,3.59,21.92,21.92,0,0,0,5.47,2.49,11.15,11.15,0,0,0,5.84.24,12.14,12.14,0,0,0,5.23-2.93,9.73,9.73,0,0,1-8.19,4.15,13.51,13.51,0,0,1-3.16-.49,18.76,18.76,0,0,1-5.62-2.81A23.19,23.19,0,0,1,265.12,153.6Z"/><path class="cls-15" d="M246.66,135a.25.25,0,0,1-.22-.15s-1.6-3.33-3.53-3.34h0c-1,0-2,1-2.92,2.82a.25.25,0,0,1-.34.12.26.26,0,0,1-.11-.34c1-2.06,2.13-3.1,3.37-3.1h0c2.25,0,3.91,3.48,4,3.63a.25.25,0,0,1-.12.33A.23.23,0,0,1,246.66,135Z"/><path class="cls-15" d="M243.38,142a.22.22,0,0,1-.21-.12c-4.07-6.48.16-10.22.21-10.26a.25.25,0,0,1,.35,0,.24.24,0,0,1,0,.35c-.16.14-3.94,3.51-.11,9.61a.26.26,0,0,1-.08.35A.33.33,0,0,1,243.38,142Z"/><path class="cls-15" d="M304.75,135a.19.19,0,0,1-.1,0,.24.24,0,0,1-.12-.33c.07-.15,1.73-3.62,4-3.63h0c1.23,0,2.37,1,3.37,3.1a.25.25,0,0,1-.12.34.24.24,0,0,1-.33-.12c-.91-1.87-1.89-2.82-2.92-2.82h0c-1.93,0-3.51,3.31-3.53,3.34A.25.25,0,0,1,304.75,135Z"/><path class="cls-15" d="M308,142a.28.28,0,0,1-.13,0,.25.25,0,0,1-.08-.35c3.82-6.1.05-9.47-.12-9.61a.25.25,0,0,1,.33-.38s4.27,3.78.21,10.26A.27.27,0,0,1,308,142Z"/><path class="cls-15" d="M288.28,308.33a.51.51,0,0,0-.69.18c-.07.13-7.33,12.47-28.42,24a.49.49,0,0,0-.2.68.51.51,0,0,0,.44.26.39.39,0,0,0,.23-.07C281,321.71,288.39,309.13,288.46,309A.49.49,0,0,0,288.28,308.33Z"/><path class="cls-15" d="M287.7,319.73a.49.49,0,0,0-.64.3c0,.08-3.21,8.55-19.5,17.85a.5.5,0,0,0-.19.68.51.51,0,0,0,.43.26.55.55,0,0,0,.25-.07c16.67-9.51,19.83-18,19.95-18.39A.49.49,0,0,0,287.7,319.73Z"/><path class="cls-15" d="M284.81,332.36a.51.51,0,0,0-.65.28s-1.74,4.26-9.1,8.08a.51.51,0,0,0-.21.68.5.5,0,0,0,.44.27.46.46,0,0,0,.23-.06c7.74-4,9.5-8.42,9.58-8.61A.5.5,0,0,0,284.81,332.36Z"/><path class="cls-15" d="M248.63,311.74s-2.71,3.52-5.56,2.09a.5.5,0,0,0-.45.89,4.08,4.08,0,0,0,1.87.45c2.17,0,4.09-1.69,4.94-2.83a.5.5,0,0,0-.1-.7A.51.51,0,0,0,248.63,311.74Z"/><path class="cls-15" d="M496.55,213.61a.5.5,0,0,0-.07.7c.08.09,7.28,8.92,2.08,22.55a.5.5,0,0,0,.29.64.47.47,0,0,0,.17,0,.51.51,0,0,0,.47-.32c5.42-14.2-2.16-23.45-2.24-23.54A.49.49,0,0,0,496.55,213.61Z"/><path class="cls-15" d="M516.73,233.15c-8.41-5.46-8.28-17.88-8.28-18a.6.6,0,0,0-.06-.23c11.92-11.38,15.37-23.77,15.41-23.9a.5.5,0,0,0-.35-.61.51.51,0,0,0-.62.35c0,.12-3.45,12.37-15.29,23.59a.5.5,0,0,0-.06.64.7.7,0,0,0,0,.14c0,.53-.14,13.11,8.73,18.87a.57.57,0,0,0,.28.08.5.5,0,0,0,.27-.92Z"/><path class="cls-15" d="M514.78,219a.49.49,0,0,0,0,.7.48.48,0,0,0,.36.16.52.52,0,0,0,.35-.14c11.39-11,12.34-18,12.38-18.27a.51.51,0,0,0-.44-.56.48.48,0,0,0-.55.44C526.86,201.44,525.88,208.3,514.78,219Z"/><path class="cls-15" d="M529.48,213.14h0a.5.5,0,0,0-.5.5s-.17,4.58-8.3,12a.49.49,0,0,0,0,.7.51.51,0,0,0,.37.17.53.53,0,0,0,.34-.13c8.52-7.79,8.63-12.55,8.63-12.75A.5.5,0,0,0,529.48,213.14Z"/><rect class="cls-16" x="310.59" y="311.13" width="8.01" height="12.02" rx="1.84" transform="matrix(0.98, 0.2, -0.2, 0.98, 68.11, -55.41)"/><path class="cls-16" d="M241.29,315.22a82.18,82.18,0,0,0-5.57,6.25l-3.22-5.55a1.86,1.86,0,0,1,.68-2.52l3.75-2.16a1.83,1.83,0,0,1,2.51.67Z"/><path class="cls-17" d="M273.65,307.94c1-1.12,2.15-2.14,3.21-3.21s2.2-2.07,3.33-3.05,2-2.28,3.43-2.89a9.91,9.91,0,0,1,4.7-1.08.25.25,0,0,1,.24.25s0,.05,0,.08a10,10,0,0,1-2.64,4c-1.05,1.1-2.58,1.51-3.89,2.23s-2.66,1.4-4,2.07-2.72,1.31-4.13,1.9a.2.2,0,0,1-.26-.11A.2.2,0,0,1,273.65,307.94Z"/><path class="cls-17" d="M287.07,298a21.81,21.81,0,0,1,1.29-5.13,20.58,20.58,0,0,1,2.52-4.74.5.5,0,0,1,.7-.12.51.51,0,0,1,.11.7l0,0h0a20.29,20.29,0,0,0-2.84,4.32A22.24,22.24,0,0,0,287.07,298Z"/><path class="cls-17" d="M287.63,297.94a9.21,9.21,0,0,1,4-5.3.51.51,0,0,1,.69.16.52.52,0,0,1-.16.7l-.07,0A8.7,8.7,0,0,0,287.63,297.94Z"/><path class="cls-18" d="M282.92,299.25s-1.3-13.8-3.53-17.6-5.6-10.41-12.77,7.68c0,0-1,3,4.09,7.86,0,0-15.22,3.27-10.51,7.11s16.51.46,16.51.46Z"/><path class="cls-19" d="M351.52,269.21c-.19-1.17-.43-2.33-.68-3.5s-.57-2.31-1-3.42a29,29,0,0,0-3-6.46c.48,2.34,1.07,4.58,1.5,6.86s.88,4.54,1.2,6.83c.73,4.57,1.2,9.15,1.75,13.86a32.35,32.35,0,0,0,.75-7.07A45.76,45.76,0,0,0,351.52,269.21Z"/><path class="cls-19" d="M200,271.61a41,41,0,0,0-.12,7.35,29.84,29.84,0,0,0,1.36,7.2c.07-4.87.21-9.62.75-14.33a69.5,69.5,0,0,1,1.11-7c.46-2.33,1.16-4.6,1.83-7a24.23,24.23,0,0,0-3.33,6.55A34.08,34.08,0,0,0,200,271.61Z"/><path class="cls-14" d="M485.18,192.79a8,8,0,0,0-3.43.85,8.27,8.27,0,0,0-3.94,4.16,8.36,8.36,0,0,0-.66,3.47,8.08,8.08,0,0,0-.85-3.43h0a8.31,8.31,0,0,0-4.16-3.94h-.05l-.12,0h0l-.09,0-.11,0-.22-.07-.19-.07h-.05l-.1,0-.07,0h-.06l-.11,0-.09,0-.15,0-.16,0-.18,0h0l-.16,0h-.06l-.13,0h-1.31a8.25,8.25,0,0,0,7.37-5,8.16,8.16,0,0,0,.65-3.47,8.24,8.24,0,0,0,5,7.37h0A8.4,8.4,0,0,0,485.18,192.79Z"/><path class="cls-14" d="M536.51,263.91a8.26,8.26,0,0,0-7.36,5,8.2,8.2,0,0,0-.66,3.47,8.15,8.15,0,0,0-.85-3.42h0a8.25,8.25,0,0,0-4.16-3.93h0l0,0h0l-.11-.05h0l-.09,0-.11,0-.22-.08-.2-.06h0l-.1,0-.07,0-.06,0-.11,0-.1,0-.14,0-.16,0-.19,0h0l-.15,0h-.25l-.15,0H520a8.23,8.23,0,0,0,3.43-.85,8.31,8.31,0,0,0,3.94-4.16,8.19,8.19,0,0,0,.65-3.47,8.26,8.26,0,0,0,5,7.37h0A8.19,8.19,0,0,0,536.51,263.91Z"/><path class="cls-14" d="M545.73,179.53a.6.6,0,0,0-.61.6V191a.61.61,0,1,0,1.21,0V180.13A.6.6,0,0,0,545.73,179.53Z"/><path class="cls-14" d="M545.73,194.26a.61.61,0,0,0-.61.61v10.88a.61.61,0,0,0,1.21,0V194.87A.61.61,0,0,0,545.73,194.26Z"/><path class="cls-14" d="M543.64,192.23h-5a.61.61,0,1,0,0,1.21h5a.61.61,0,1,0,0-1.21Z"/><path class="cls-14" d="M552.69,192.23h-5.06a.61.61,0,0,0,0,1.21h5.06a.61.61,0,0,0,0-1.21Z"/><path class="cls-15" d="M176.32,327c-.18-.07-4.65-1.77-13.06-1.09a.5.5,0,0,0-.46.53.51.51,0,0,0,.54.46c8.16-.65,12.58,1,12.62,1a.39.39,0,0,0,.18,0,.5.5,0,0,0,.18-1Z"/><path class="cls-15" d="M422.91,287.59a.49.49,0,0,0-.64-.3.5.5,0,0,0-.3.64,25.78,25.78,0,0,1,1,10.81.5.5,0,0,0,.43.56h.07a.5.5,0,0,0,.49-.44A26.16,26.16,0,0,0,422.91,287.59Z"/><path class="cls-20" d="M273.62,96c-1.89,0-46.41-.1-46.41-9.19a1.5,1.5,0,0,1,3,0C230.85,89,245.92,93,273.62,93S316.39,89,317,86.8a1.49,1.49,0,0,1,1.5-1.49,1.52,1.52,0,0,1,1.5,1.52c0,1.91-1.49,4.71-14.4,6.92A199.17,199.17,0,0,1,273.62,96Z"/><path class="cls-9" d="M298.94,395.24l.61,21.66-1.61-21.69a.5.5,0,1,1,1-.08v.11Z"/><path class="cls-9" d="M288.17,396.1l.26,21.66-1.26-21.71a.51.51,0,0,1,.47-.53.5.5,0,0,1,.53.47v.11Z"/><path class="cls-9" d="M277.56,396.25l-.42,21.66-.57-21.74a.5.5,0,0,1,.48-.52.51.51,0,0,1,.52.49v.11Z"/><path class="cls-9" d="M265.5,395.68l-.42,21.67-.57-21.75a.5.5,0,1,1,1,0v.1Z"/><path class="cls-9" d="M254.8,395.09l-1.46,21.62L253.8,395a.5.5,0,0,1,.51-.49.49.49,0,0,1,.49.51v.1Z"/><path class="cls-9" d="M243.45,393.9,241,415.43l1.48-21.7a.5.5,0,0,1,.53-.46.48.48,0,0,1,.46.53v.1Z"/><path class="cls-9" d="M232.44,392.24,230,413.77l1.47-21.7a.51.51,0,0,1,.54-.47.5.5,0,0,1,.46.54v.1Z"/><path class="cls-9" d="M222.55,389.92l-4.65,21.16,3.69-21.44a.5.5,0,0,1,1,.17v0Z"/><path class="cls-9" d="M311.83,415.54l-3.36-21.49a.5.5,0,0,1,.42-.57.51.51,0,0,1,.57.42v.1Z"/><path class="cls-9" d="M320,392.22l2.36,21.54L319,392.27a.5.5,0,1,1,1-.15v.1Z"/><path class="cls-9" d="M330.47,389.85l2.36,21.54-3.36-21.49a.5.5,0,0,1,1-.16v.11Z"/><path class="cls-19" d="M190.62,532.16c.66-9.4,1.62-18.78,2.8-28.13s2.58-18.67,4.16-28,3.49-18.54,5.75-27.7,4.87-18.29,8.85-26.86c-3.25,8.85-5.32,18-7.33,27.21-.52,2.29-1,4.6-1.43,6.9s-1,4.6-1.35,6.92l-1.3,6.93-1.22,6.94c-1.62,9.26-3.12,18.55-4.59,27.84Z"/><path class="cls-19" d="M189.92,537c0,1.13,0,2.27,0,3.4l-.09,3.4-.23,6.78-.23,6.78-.18,6.8a59.43,59.43,0,0,1-.59-6.79c-.1-2.28-.06-4.55,0-6.82s.22-4.54.45-6.8S189.51,539.27,189.92,537Z"/><path class="cls-19" d="M388.53,247.81l-5.86,2.89c-3.85,2.05-7.64,4.21-11.31,6.58a101.07,101.07,0,0,0-10.51,7.81,46.83,46.83,0,0,0-8.85,9.59,38.29,38.29,0,0,1,4.43-4.75q2.37-2.24,4.91-4.25t5.18-3.93c1.78-1.23,3.55-2.49,5.39-3.63s3.65-2.33,5.5-3.47,3.77-2.15,5.62-3.27l5.72-3.13c1.92-1,3.85-2,5.76-3.06C392.51,246,390.53,246.94,388.53,247.81Z"/><path class="cls-19" d="M179.29,271.11c-4.1-2.92-8.22-5.83-12.43-8.6s-8.46-5.48-12.82-8l6.2,4.31,6.19,4.32c4.11,2.9,8.23,5.79,12.27,8.78s8.09,6,12.07,9c2,1.56,4,3.09,5.91,4.7s3.87,3.21,5.82,4.81c-3.57-3.56-7.37-6.89-11.25-10.11S183.33,274.12,179.29,271.11Z"/><path class="cls-21" d="M250.39,158.62c-1.56,1.95-2.88,2.89-4,2.89a2,2,0,0,1-.77-.14C242,160,243,148,243.25,145.63a.75.75,0,0,1,1.5.15c-.65,6.34-.32,13.56,1.35,14.19.28.11,1.32.17,3.66-3C250,157.53,250.16,158.08,250.39,158.62Z"/><path class="cls-21" d="M305.23,161.37a2,2,0,0,1-.76.14c-1.07,0-2.26-.79-3.65-2.41q.35-.78.63-1.59c2.06,2.63,3,2.56,3.26,2.46,1.66-.63,2-7.86,1.35-14.19a.75.75,0,0,1,.67-.82.74.74,0,0,1,.82.67C307.8,148,308.83,160,305.23,161.37Z"/><path class="cls-14" d="M239.42,132.25a1,1,0,0,1-.56-.18l-2.2-1.5a1,1,0,0,1-.25-1.4,1,1,0,0,1,1.39-.25l2.19,1.5a1,1,0,0,1-.57,1.83Z"/><circle class="cls-14" cx="240.89" cy="144.14" r="1.18"/><circle class="cls-14" cx="310.27" cy="144.7" r="1.18"/><path class="cls-14" d="M312.23,132.25a1,1,0,0,1-.82-.43,1,1,0,0,1,.25-1.4l2.2-1.5a1,1,0,0,1,1.39.25,1,1,0,0,1-.26,1.4l-2.19,1.5A1,1,0,0,1,312.23,132.25Z"/><path class="cls-22" d="M301.65,79.3c.45.23.92.49,1.4.75a36.07,36.07,0,0,1,5.11,3.37c5.53,1.15,8.52,2.44,8.86,3.41-.2.57-1.32,1.25-3.35,2-5.91,2-19.5,4.24-40.05,4.24s-34-2.17-40-4.18c-2.13-.72-3.29-1.41-3.46-2,.3-1.06,3.81-2.5,10.34-3.74A52.92,52.92,0,0,1,248,79c-2.25.27-4.37.57-6.34.91-12.91,2.21-14.4,5-14.4,6.92s1.67,3.19,4.39,4.33c11.27,4.8,40.49,4.86,42,4.86a200.33,200.33,0,0,0,32-2.27,49.39,49.39,0,0,0,9.92-2.53c3.86-1.57,4.48-3.16,4.48-4.39C320,82.83,311.44,80.57,301.65,79.3Z"/><path class="cls-23" d="M311.79,91.26a10.58,10.58,0,0,0-9,11.95A10.48,10.48,0,0,0,301.24,99h0a10.66,10.66,0,0,0-5.87-4.4h-.07l-.16,0h0l-.12,0-.15,0-.28-.07-.26,0h-.06l-.14,0-.08,0h-.08l-.15,0-.12,0-.19,0-.21,0-.24,0h-1.4l-.22,0-.25,0-.29,0a10.58,10.58,0,0,0,9-11.95,10.52,10.52,0,0,0,7.44,8.64h0A10.62,10.62,0,0,0,311.79,91.26Z"/></g></svg>