<svg xmlns="http://www.w3.org/2000/svg" viewBox="0 0 255.9 255.9"><defs><style>.cls-1{fill:#1a023f;}.cls-2{fill:#fff;}.cls-3{fill:#fdfdfc;}</style></defs><g id="Layer_2" data-name="Layer 2"><path class="cls-1" d="M256,128a127.34,127.34,0,0,1-13.6,57.45c-.9,1.81-1.86,3.6-2.85,5.36-1.7,3-3.53,6-5.46,8.82q-1.94,2.86-4,5.61c-1.82,2.41-3.74,4.76-5.73,7l-.34.39q-3.42,3.87-7.14,7.45-2.22,2.16-4.54,4.18A128.12,128.12,0,0,1,104.81,253.8,126.3,126.3,0,0,1,78.46,246h0a127,127,0,0,1-12.84-6.27h0a124,124,0,0,1-11.48-7.26q-3.63-2.57-7.07-5.38t-6.57-5.77Q38,219,35.7,216.53A127.95,127.95,0,1,1,256,128Z"/></g><g id="Layer_4" data-name="Layer 4"><path class="cls-2" d="M242.38,185.41c-.9,1.81-1.86,3.6-2.85,5.36-9.9-3.21-33.29-1.46-88.21,21.56-69.72,29.24-83.95,23.35-88.58,16.38-4.76-7.16-.1-19.52,14.24-37.79,1.56-2,3.14-3.91,4.7-5.77q1.14-1.36,2.28-2.67c.78-.91,1.55-1.79,2.3-2.64,6.52-7.36,11.8-12.56,12.12-12.87l4.21,4.28c-3.76,3.69-7.72,7.86-11.6,12.22l-2.31,2.64-2.27,2.67c-12.51,14.94-22.57,30.75-18.68,36.61C70.15,229,82.92,234.51,149,206.8,196.49,186.88,227.27,179.81,242.38,185.41Z"/><path class="cls-2" d="M54.12,232.41q-3.63-2.57-7.07-5.38c-.12-9.48,4.89-22.23,15-38.09,2.8-4.39,5.71-8.57,8.47-12.35.7-1,1.4-1.9,2.08-2.81l.42-.57,1.36-1.78.34-.44c5.52-7.18,9.73-12,10-12.29l4.5,4c-2.66,3-6.1,7.15-9.79,12-.7.9-1.4,1.83-2.12,2.78s-1.38,1.86-2.07,2.82C62.48,197.77,49,220.9,54.12,232.41Z"/><path class="cls-2" d="M230,205.2c-3.13,0-8.37.48-17,2.36-16.71,3.63-41.94,11.48-75,23.33-25.15,9-44.93,14-59.55,15.06h0a127,127,0,0,1-12.84-6.27C76.82,241.62,97.7,239,136,225.24c34.36-12.32,60.38-20.35,77.35-23.88,9.64-2,16.36-2.61,20.74-1.77Q232.14,202.46,230,205.2Z"/><path class="cls-2" d="M76.72,154.82l1.23,1c-2.38,2.95-5.28,6.77-8.44,11.18-.66.93-1.33,1.88-2,2.86s-1.32,1.91-2,2.89c-9.75,14.33-20.58,32.86-25,48.52Q38,219,35.7,216.53C41,199.86,52,181.85,60.76,169.09c1.23-1.8,2.42-3.5,3.53-5.07,1.79-2.5,3.4-4.68,4.74-6.48,2.33-3.1,3.9-5,4.25-5.49l1.86,1.5Z"/><path class="cls-2" d="M224.31,212.23l-.34.39q-3.42,3.87-7.14,7.45l-5.27,1.34c-14.55,3.91-41.1,11.77-89.44,27.28q-9.14,2.94-17.31,5.11a126,126,0,0,1-12.93-3.07c9.55-2,19.34-4.84,28.41-7.75,39.26-12.6,68.34-21.51,86.43-26.47,7.71-2.11,13.53-3.53,17.3-4.23Z"/><path class="cls-3" d="M63.5,166.78l2.76-3.73c-1.6.82-2.64,1.29-2.79,1.36l-1.91.84L43.32,151.14l6.26-2c5.09-1.67,17.66-15.72,24.39-24.18l2.12-2.67,50.63,38.23-26.09,34.81Z"/><path class="cls-1" d="M69.51,167c-.66.93-1.33,1.88-2,2.86l5.11,3.93.42-.57,1.36-1.78.34-.44Zm5.63-13.44,1.58,1.27,6-8.11A43.1,43.1,0,0,1,75.14,153.55Zm0,0,1.58,1.27,6-8.11A43.1,43.1,0,0,1,75.14,153.55Zm0,0,1.58,1.27,6-8.11A43.1,43.1,0,0,1,75.14,153.55Zm0,0,1.58,1.27,6-8.11A43.1,43.1,0,0,1,75.14,153.55Zm54.63,4.84-1.6-1.2L126.58,156l-.43-.31-.11-.09L81.48,121.93l-.4-.3-.16-.12-1-.78-1.59-1.21-2.81-2.12-4.25,5.34c-8.88,11.15-19.5,21.91-22.75,23L36,149.88,46.39,158l11.37,8.8.89.69,0,0,2.13,1.63,3.33,2.56,1.42,1.09,5,3.85,4.74,3.64,6.41,4.92,4.73,3.63,9.28,7.12,5.61,4.32,4.25-5.67,21.87-29.19,4.19-5.58ZM91,183.47l-4.73-3.63-6.8-5.21L74.73,171l-5.22-4-1.16-.89,8.37-11.28,6-8.11a43.1,43.1,0,0,1-7.59,6.84c-2.1,1.53-4.21,2.87-6.11,4a77.39,77.39,0,0,1-7,3.67l-11.37-8.8c7.11-2.34,22.23-20.63,25.43-24.57l.6-.75.13.1,45,34-.39.52-2.1,2.8L100,190.35ZM75.14,153.55l1.58,1.27,6-8.11A43.1,43.1,0,0,1,75.14,153.55Zm0,0,1.58,1.27,6-8.11A43.1,43.1,0,0,1,75.14,153.55Z"/><path class="cls-3" d="M138.08,140.09l-18.7,24.43L74.53,130.19l18.7-24.43.23.18c2,1.43,15.9,11.06,22.73,2.4l.15.11L167.22,42a7.94,7.94,0,0,1,11.13-1.49h0a8,8,0,0,1,1.48,11.14l-50.55,66.07a8.66,8.66,0,0,0-1.74,4.11C127,125.69,128.24,132.3,138.08,140.09Z"/><rect class="cls-3" x="97.75" y="107.74" width="13.99" height="60.51" transform="translate(-68.5 139.35) rotate(-53.25)"/><path class="cls-1" d="M132.76,147.7l-.33-.24L87.49,113.89l-.31-.23-2.9-2.17-2.39,3.21-3.6,4.82-2.1,2.81-.28.37-2.39,3.21,2.58,1.93.15.11.47.35,44.71,33.38.08.06.49.37,2.23,1.67,1,.73,2.39-3.21,2.18-2.91,3.8-5.09,2.39-3.2Zm-8.28,11.09-.09.12-.46-.34L79.12,125.1l.27-.36,2.09-2.81,3.61-4.84L130,150.64l.37.27L126.58,156Z"/></g></svg>