<?xml version="1.0" encoding="utf-8"?>
<!-- Generator: Adobe Illustrator 25.2.0, SVG Export Plug-In . SVG Version: 6.00 Build 0)  -->
<svg version="1.1" id="Layer_1" xmlns="http://www.w3.org/2000/svg" xmlns:xlink="http://www.w3.org/1999/xlink" x="0px" y="0px"
	 viewBox="0 0 255.9 255.9" style="enable-background:new 0 0 255.9 255.9;" xml:space="preserve">
<style type="text/css">
	.st0{fill:#351588;}
</style>
<g>
	<path class="st0" d="M254.7,109.6C254.7,109.6,254.7,109.6,254.7,109.6l-40.1,20.5l36.3,33.7c0-0.1,0-0.1,0.1-0.2
		c3.3-11.6,5-23.6,5-35.6C256,121.9,255.6,115.7,254.7,109.6z"/>
	<path class="st0" d="M90.8,149.9l29.3,5.5l0,0c1.8-4.3,6-11.5,15-15.2l0,0l-6-28.5l0,0l0,0l-0.2-0.7c-2.8,0.7-10.9,5.8-22,16.8
		c-9.3,9.3-14.3,16.5-16.1,20.2c-0.3,0.7-0.6,1.3-0.7,1.7L90.8,149.9L90.8,149.9L90.8,149.9z"/>
	<path class="st0" d="M208.9,133l-60.4,31l-2.5-13.3l52.8-27l0.1,0l-0.1-0.1l-55.9-51.4c-1.2-1.1-1.3-3-0.2-4.2s3-1.3,4.2-0.2
		l57.5,52.9l0,0l47.7-24.4c-10.6-41.7-41.4-75.7-82.7-89.9c-42-14.5-86.5-6-119.5,18.9l82.2,82.3l0.4,0.4l0,0l0.5,2.2l7.7,36.6
		l1.2,5.7l2.4,11.3v0.2l-0.4-0.1l-17.8-3.3l-1.7-0.3l-0.5-0.1l-36.8-7l0,0l0,0l-0.6-0.6L9.9,76c-1.4,3.3-2.8,6.6-3.9,10
		c-23.2,67.1,12.4,140.3,79.6,163.5c67.1,23.2,140.3-12.4,163.5-79.5L208.9,133z M106.2,185.7c-3.2,1.6-7.1,0.4-8.8-2.8
		c-1.6-3.2-0.4-7.1,2.8-8.8l12.7-6.5l21.1,3.8L106.2,185.7z"/>
</g>
</svg>
