<svg xmlns="http://www.w3.org/2000/svg" viewBox="0 0 1200 869.81"><defs><style>.cls-1{fill:#351688;}.cls-2{fill:#fff;}.cls-3{fill:#4e41ef;}.cls-4{fill:#efae92;}.cls-5{fill:#fdc8c5;}.cls-6{fill:#f6c0cf;}</style></defs><g id="bgs"><rect class="cls-1" y="0.03" width="1200" height="869.71"/></g><g id="words"><rect class="cls-2" x="144.64" y="243.39" width="370.06" height="218.95" rx="58.03"/><rect class="cls-3" x="693.14" y="221.37" width="363.89" height="219.83" rx="109.92"/><circle class="cls-4" cx="666.27" cy="193.18" r="112.34"/><rect class="cls-2" x="723.96" y="547.81" width="310.15" height="233.49" rx="52.18"/><path class="cls-3" d="M259.79,726.54a112,112,0,0,1-44.17-8.34l-16,9L139,761.12a3.55,3.55,0,0,1-5-4.41l25.84-64.5,5.78-14.43a112.34,112.34,0,1,1,94.24,48.76Z"/><path class="cls-5" d="M399.28,534.37A110.25,110.25,0,0,0,509.2,644.29h88.86l33.7,30.05,47.48,42.35a3.55,3.55,0,0,0,5.89-3L679,650.38l-.86-9c48.56-11.36,85-55.15,85-107A110.23,110.23,0,0,0,653.26,424.45H509.2C448.74,424.45,399.28,473.91,399.28,534.37Z"/><path class="cls-2" d="M470.21,500.53h3.26v24h-3.26Z"/><path class="cls-2" d="M487.41,512.51a4.8,4.8,0,0,0-1.34-1.14,3.91,3.91,0,0,0-1.95-.46,3.77,3.77,0,0,0-1.88.46,1.45,1.45,0,0,0-.8,1.34,1.49,1.49,0,0,0,.46,1.15,3.4,3.4,0,0,0,1.08.72,6.5,6.5,0,0,0,1.34.4l1.22.24a13.38,13.38,0,0,1,1.85.58,5.06,5.06,0,0,1,1.49.88,3.83,3.83,0,0,1,1,1.32,5.17,5.17,0,0,1-.22,4.23,4.87,4.87,0,0,1-1.49,1.57,6.32,6.32,0,0,1-2.09.89,10.48,10.48,0,0,1-2.36.27,9.48,9.48,0,0,1-3.51-.61,6.42,6.42,0,0,1-2.7-2.24l2.31-1.9a9.26,9.26,0,0,0,1.66,1.32,4.08,4.08,0,0,0,2.24.58,5.81,5.81,0,0,0,1.17-.12,3.51,3.51,0,0,0,1.05-.37,2.27,2.27,0,0,0,.75-.65,1.49,1.49,0,0,0,.29-.9,1.54,1.54,0,0,0-.43-1.12,3.12,3.12,0,0,0-1-.69,7.43,7.43,0,0,0-1.26-.41c-.44-.1-.83-.19-1.17-.25a17.76,17.76,0,0,1-1.86-.55,5.69,5.69,0,0,1-1.57-.81,3.77,3.77,0,0,1-1.08-1.29,4.14,4.14,0,0,1-.41-1.93,4.38,4.38,0,0,1,.53-2.19,4.57,4.57,0,0,1,1.39-1.54,6.15,6.15,0,0,1,2-.92,8.21,8.21,0,0,1,5.34.3,4.94,4.94,0,0,1,2.37,2Z"/><path class="cls-2" d="M512,511.12h-4.38v7.29c0,.45,0,.9,0,1.34a3.4,3.4,0,0,0,.25,1.19,2,2,0,0,0,.68.85,2.34,2.34,0,0,0,1.34.32A7.39,7.39,0,0,0,511,522a3.38,3.38,0,0,0,1.05-.38v2.78a3.85,3.85,0,0,1-1.41.43,10.31,10.31,0,0,1-1.34.12,6.29,6.29,0,0,1-2.73-.49,3.37,3.37,0,0,1-1.42-1.28,4.09,4.09,0,0,1-.55-1.74c-.05-.65-.08-1.3-.08-2v-8.38H501v-2.65h3.53V504h3v4.51H512Z"/><path class="cls-2" d="M515.9,498.9H519V511H519a4.57,4.57,0,0,1,2-2.09,6.69,6.69,0,0,1,3.3-.8,6.93,6.93,0,0,1,2.22.36,5.13,5.13,0,0,1,1.86,1.1,5.43,5.43,0,0,1,1.28,1.92,7.45,7.45,0,0,1,.47,2.76v10.35h-3v-9.5a5.2,5.2,0,0,0-.31-1.91,3.32,3.32,0,0,0-.81-1.29,3.1,3.1,0,0,0-1.17-.72,4.53,4.53,0,0,0-1.38-.22,5,5,0,0,0-1.76.31,3.51,3.51,0,0,0-1.42,1,4.61,4.61,0,0,0-1,1.67,7.89,7.89,0,0,0-.33,2.41v8.28H515.9Z"/><path class="cls-2" d="M537.07,517.63a4,4,0,0,0,.46,1.92,4.62,4.62,0,0,0,1.2,1.47,5.48,5.48,0,0,0,1.73,1,6.15,6.15,0,0,0,2,.34,4.54,4.54,0,0,0,2.47-.66,7.92,7.92,0,0,0,1.94-1.75l2.3,1.77a8.49,8.49,0,0,1-7.12,3.29,8.82,8.82,0,0,1-3.44-.65,7.43,7.43,0,0,1-2.61-1.78,7.65,7.65,0,0,1-1.65-2.68,9.56,9.56,0,0,1-.58-3.34,8.75,8.75,0,0,1,.63-3.34,8.41,8.41,0,0,1,1.73-2.68,7.89,7.89,0,0,1,2.63-1.78,8.47,8.47,0,0,1,3.32-.65,7.94,7.94,0,0,1,3.62.75,7.19,7.19,0,0,1,2.42,1.95,7.69,7.69,0,0,1,1.38,2.72,11.3,11.3,0,0,1,.42,3.06v1.09Zm9.63-2.44a6.47,6.47,0,0,0-.32-1.87,4.16,4.16,0,0,0-.86-1.47,4.11,4.11,0,0,0-1.44-1,5.44,5.44,0,0,0-2-.35,4.94,4.94,0,0,0-3.63,1.52,5.09,5.09,0,0,0-1,1.51,4.17,4.17,0,0,0-.36,1.65Z"/><path class="cls-2" d="M553.62,508.47h3.06V511h.07a4.23,4.23,0,0,1,.81-1.17,5.52,5.52,0,0,1,1.14-.9,5.86,5.86,0,0,1,1.37-.6,5.49,5.49,0,0,1,1.49-.22,4.17,4.17,0,0,1,1.36.21l-.14,3.29a6.58,6.58,0,0,0-.74-.17,3.81,3.81,0,0,0-.75-.07,4.51,4.51,0,0,0-3.43,1.26,5.5,5.5,0,0,0-1.18,3.9v8.07h-3.06Z"/><path class="cls-2" d="M567.87,517.63a4,4,0,0,0,.46,1.92,4.76,4.76,0,0,0,1.2,1.47,5.48,5.48,0,0,0,1.73,1,6.15,6.15,0,0,0,2,.34,4.59,4.59,0,0,0,2.48-.66,7.88,7.88,0,0,0,1.93-1.75l2.31,1.77a8.51,8.51,0,0,1-7.13,3.29,8.86,8.86,0,0,1-3.44-.65,7.43,7.43,0,0,1-2.61-1.78,7.8,7.8,0,0,1-1.65-2.68,9.56,9.56,0,0,1-.57-3.34,8.74,8.74,0,0,1,.62-3.34,8.41,8.41,0,0,1,1.73-2.68,7.89,7.89,0,0,1,2.63-1.78,8.49,8.49,0,0,1,3.33-.65,7.9,7.9,0,0,1,3.61.75,7.19,7.19,0,0,1,2.42,1.95,7.53,7.53,0,0,1,1.38,2.72,11.3,11.3,0,0,1,.42,3.06v1.09Zm9.64-2.44a6.83,6.83,0,0,0-.33-1.87,4.16,4.16,0,0,0-.86-1.47,4.11,4.11,0,0,0-1.44-1,5.44,5.44,0,0,0-2-.35,5,5,0,0,0-3.63,1.52,5.29,5.29,0,0,0-1,1.51,4.17,4.17,0,0,0-.36,1.65Z"/><path class="cls-2" d="M593.35,508.06h4.88v2.24h.07a4.22,4.22,0,0,1,.68-.95,4.67,4.67,0,0,1,1-.84,5.7,5.7,0,0,1,3.09-.85,6.41,6.41,0,0,1,3.07.71,4.54,4.54,0,0,1,2,2.24,5.48,5.48,0,0,1,2.13-2.27,6.36,6.36,0,0,1,3.09-.68,6.21,6.21,0,0,1,2.8.56,4.63,4.63,0,0,1,1.8,1.52,6.69,6.69,0,0,1,1,2.28,13.09,13.09,0,0,1,.28,2.8v9.73h-5.08V515a3.78,3.78,0,0,0-.5-2,1.83,1.83,0,0,0-1.74-.83,3.43,3.43,0,0,0-1.48.28,2.56,2.56,0,0,0-1,.8,3.28,3.28,0,0,0-.51,1.19,6.57,6.57,0,0,0-.15,1.42v8.72h-5.09v-8.72q0-.44,0-1.08a4.07,4.07,0,0,0-.24-1.22,2.4,2.4,0,0,0-.66-1,2,2,0,0,0-1.34-.4,3.14,3.14,0,0,0-1.6.35,2.57,2.57,0,0,0-.93,1,4,4,0,0,0-.42,1.34,11.26,11.26,0,0,0-.1,1.56v8.21h-5.09Z"/><path class="cls-2" d="M622.25,516.31a8.7,8.7,0,0,1,.71-3.56,8.19,8.19,0,0,1,1.95-2.73,8.52,8.52,0,0,1,2.92-1.75,10.81,10.81,0,0,1,7.16,0A8.38,8.38,0,0,1,637.9,510a7.92,7.92,0,0,1,2,2.73,9.16,9.16,0,0,1,0,7.12,8.12,8.12,0,0,1-2,2.73,8.54,8.54,0,0,1-2.91,1.75,10.81,10.81,0,0,1-7.16,0,8.68,8.68,0,0,1-2.92-1.75,8.4,8.4,0,0,1-1.95-2.73A8.7,8.7,0,0,1,622.25,516.31Zm5.09,0a4.24,4.24,0,0,0,1.07,3,4.49,4.49,0,0,0,6,0,4.8,4.8,0,0,0,0-6,4.49,4.49,0,0,0-6,0A4.23,4.23,0,0,0,627.34,516.31Z"/><path class="cls-2" d="M643.55,508.06h4.89v2.24h.06a4.56,4.56,0,0,1,.68-.95,5.17,5.17,0,0,1,1.05-.84,6,6,0,0,1,1.4-.62,6.06,6.06,0,0,1,1.69-.23,7.08,7.08,0,0,1,3.12.59,4.5,4.5,0,0,1,1.85,1.65,6.66,6.66,0,0,1,.9,2.47,18.63,18.63,0,0,1,.24,3.09v9.09h-5.09v-8.07c0-.48,0-1-.05-1.48a4.84,4.84,0,0,0-.31-1.41,2.17,2.17,0,0,0-2.29-1.45,3.12,3.12,0,0,0-1.59.35,2.42,2.42,0,0,0-.93,1,3.84,3.84,0,0,0-.43,1.34,11.26,11.26,0,0,0-.1,1.56v8.21h-5.09Z"/><path class="cls-2" d="M678.63,521.7a8.26,8.26,0,0,1-3.09,2.41,9.31,9.31,0,0,1-3.87.85,10.6,10.6,0,0,1-3.58-.61,8.54,8.54,0,0,1-2.91-1.75,8.12,8.12,0,0,1-1.95-2.73,9.16,9.16,0,0,1,0-7.12,7.92,7.92,0,0,1,1.95-2.73,8.38,8.38,0,0,1,2.91-1.75,10.36,10.36,0,0,1,3.58-.61,8.09,8.09,0,0,1,3.21.61,6.6,6.6,0,0,1,2.44,1.75,7.74,7.74,0,0,1,1.54,2.73,10.77,10.77,0,0,1,.55,3.56v1.59H667.6a4.14,4.14,0,0,0,1.32,2.33,3.79,3.79,0,0,0,2.52.86,3.87,3.87,0,0,0,2.12-.56,5.68,5.68,0,0,0,1.5-1.44Zm-4.31-7.26a2.94,2.94,0,0,0-.85-2.2,3,3,0,0,0-2.27-.92,3.78,3.78,0,0,0-1.49.27,3.89,3.89,0,0,0-1.11.7,3.12,3.12,0,0,0-.71,1,3.15,3.15,0,0,0-.29,1.17Z"/><path class="cls-2" d="M692,527.23c-.34.88-.67,1.66-1,2.34a5.55,5.55,0,0,1-1.21,1.71,4.59,4.59,0,0,1-1.85,1.06,10.25,10.25,0,0,1-3,.35,11.9,11.9,0,0,1-3.8-.61l.68-4.17a5.82,5.82,0,0,0,2.38.51,4.2,4.2,0,0,0,1.39-.19,2.26,2.26,0,0,0,.9-.54,3.25,3.25,0,0,0,.59-.87c.16-.34.33-.73.51-1.18l.37-.95-7.22-16.63h5.49L690.53,519h.07l3.63-10.89h5.22Z"/><path class="cls-2" d="M469,543.41a2.16,2.16,0,0,1,.66-1.58,2.21,2.21,0,0,1,3.15,0,2.24,2.24,0,0,1-1.58,3.82,2.14,2.14,0,0,1-1.57-.66A2.16,2.16,0,0,1,469,543.41Zm.71,5.77h3.05v16.08h-3.05Z"/><path class="cls-2" d="M477.57,549.18h3.05v2.47h.07a4.5,4.5,0,0,1,2-2.08,6.65,6.65,0,0,1,3.29-.8,7,7,0,0,1,2.23.36,4.86,4.86,0,0,1,1.86,1.1,5.2,5.2,0,0,1,1.27,1.92,7.25,7.25,0,0,1,.48,2.76v10.35h-3.05v-9.5a5.44,5.44,0,0,0-.31-1.92,3.47,3.47,0,0,0-.81-1.29,3.2,3.2,0,0,0-1.17-.71,4.24,4.24,0,0,0-1.38-.22,4.83,4.83,0,0,0-1.76.31,3.69,3.69,0,0,0-1.43,1,4.7,4.7,0,0,0-1,1.68,7.82,7.82,0,0,0-.34,2.41v8.28h-3.05Z"/><path class="cls-2" d="M514.48,551.82H510.1v7.3c0,.45,0,.9,0,1.34a3.35,3.35,0,0,0,.25,1.18,1.9,1.9,0,0,0,.68.85,2.27,2.27,0,0,0,1.34.32,6.29,6.29,0,0,0,1.12-.1,3.36,3.36,0,0,0,1.05-.37v2.78a3.86,3.86,0,0,1-1.41.42,10.31,10.31,0,0,1-1.34.12,6.14,6.14,0,0,1-2.73-.49,3.35,3.35,0,0,1-1.42-1.27,4.09,4.09,0,0,1-.55-1.75c-.05-.64-.08-1.29-.08-1.95v-8.38h-3.53v-2.64h3.53v-4.51h3.05v4.51h4.38Z"/><path class="cls-2" d="M518.41,539.61h3.06v12h.06a4.52,4.52,0,0,1,2-2.08,6.62,6.62,0,0,1,3.29-.8,6.93,6.93,0,0,1,2.22.36,4.86,4.86,0,0,1,1.86,1.1,5.34,5.34,0,0,1,1.28,1.92,7.45,7.45,0,0,1,.47,2.76v10.35h-3v-9.5a5.22,5.22,0,0,0-.31-1.92,3.47,3.47,0,0,0-.81-1.29,3.2,3.2,0,0,0-1.17-.71,4.24,4.24,0,0,0-1.38-.22,4.83,4.83,0,0,0-1.76.31,3.58,3.58,0,0,0-1.42,1,4.42,4.42,0,0,0-1,1.68,7.53,7.53,0,0,0-.34,2.41v8.28h-3.06Z"/><path class="cls-2" d="M539.58,558.34a3.94,3.94,0,0,0,.46,1.91,4.8,4.8,0,0,0,1.2,1.48,5.69,5.69,0,0,0,1.73.95,6.42,6.42,0,0,0,2,.34,4.54,4.54,0,0,0,2.47-.66,8.15,8.15,0,0,0,1.94-1.75l2.31,1.76a8.49,8.49,0,0,1-7.13,3.29,8.82,8.82,0,0,1-3.44-.64,7.43,7.43,0,0,1-2.61-1.78,7.89,7.89,0,0,1-1.65-2.68,9.56,9.56,0,0,1-.58-3.34,8.71,8.71,0,0,1,.63-3.34,8.3,8.3,0,0,1,1.73-2.68,7.92,7.92,0,0,1,2.63-1.79,8.67,8.67,0,0,1,3.33-.64,7.93,7.93,0,0,1,3.61.75,7,7,0,0,1,2.42,2,7.65,7.65,0,0,1,1.38,2.71,11.42,11.42,0,0,1,.42,3.07v1.09Zm9.63-2.45a6.41,6.41,0,0,0-.32-1.86,3.9,3.9,0,0,0-2.3-2.46,5.24,5.24,0,0,0-2-.36,4.77,4.77,0,0,0-2.05.43,4.91,4.91,0,0,0-1.58,1.1,4.85,4.85,0,0,0-1,1.51,4.09,4.09,0,0,0-.36,1.64Z"/><path class="cls-2" d="M573.88,541.24h3l10.28,24h-3.8l-2.41-5.94H569.47l-2.38,5.94h-3.8Zm5.83,15.23-4.48-11h-.06l-4.55,11Z"/><path class="cls-2" d="M589.45,549.18h3v2.47h.07a4.23,4.23,0,0,1,.81-1.17,5.52,5.52,0,0,1,1.14-.9,6.51,6.51,0,0,1,1.37-.59,5.17,5.17,0,0,1,1.49-.22,4.46,4.46,0,0,1,1.36.2l-.13,3.29-.75-.17a4.74,4.74,0,0,0-.75-.06,4.5,4.5,0,0,0-3.42,1.25,5.48,5.48,0,0,0-1.19,3.9v8.08h-3Z"/><path class="cls-2" d="M610.61,551.82h-4.37v7.3c0,.45,0,.9,0,1.34a3.35,3.35,0,0,0,.26,1.18,1.88,1.88,0,0,0,.67.85,2.31,2.31,0,0,0,1.34.32,6.14,6.14,0,0,0,1.12-.1,3.33,3.33,0,0,0,1.06-.37v2.78a4,4,0,0,1-1.41.42,10.61,10.61,0,0,1-1.34.12,6.08,6.08,0,0,1-2.73-.49,3.38,3.38,0,0,1-1.43-1.27,4.23,4.23,0,0,1-.54-1.75q-.09-1-.09-1.95v-8.38h-3.52v-2.64h3.52v-4.51h3.06v4.51h4.37Z"/><path class="cls-2" d="M623.1,553.21a4.74,4.74,0,0,0-1.34-1.13,3.85,3.85,0,0,0-2-.46,3.68,3.68,0,0,0-1.89.46,1.45,1.45,0,0,0-.79,1.34,1.54,1.54,0,0,0,.45,1.15,3.73,3.73,0,0,0,1.09.71,6.33,6.33,0,0,0,1.34.41l1.22.24a15.45,15.45,0,0,1,1.85.57,5.22,5.22,0,0,1,1.49.89,3.83,3.83,0,0,1,1,1.32,4.67,4.67,0,0,1,.35,1.9,4.39,4.39,0,0,1-.58,2.32,4.8,4.8,0,0,1-1.49,1.58,6.16,6.16,0,0,1-2.08.88,10.48,10.48,0,0,1-2.36.27,9.21,9.21,0,0,1-3.51-.61,6.22,6.22,0,0,1-2.7-2.24l2.31-1.9a9.78,9.78,0,0,0,1.66,1.33,4.17,4.17,0,0,0,2.24.57,5.28,5.28,0,0,0,1.17-.12,3.34,3.34,0,0,0,1-.37,2.34,2.34,0,0,0,.75-.64,1.49,1.49,0,0,0,.29-.9,1.56,1.56,0,0,0-.43-1.12,3.09,3.09,0,0,0-1-.7,7,7,0,0,0-1.25-.4c-.44-.11-.83-.19-1.17-.26-.66-.16-1.28-.34-1.87-.54a5.75,5.75,0,0,1-1.56-.81,3.77,3.77,0,0,1-1.08-1.29,4.19,4.19,0,0,1-.41-1.94,4.33,4.33,0,0,1,.53-2.19,4.66,4.66,0,0,1,1.39-1.54,6.08,6.08,0,0,1,2-.91,8.24,8.24,0,0,1,5.35.3,5,5,0,0,1,2.37,2Z"/><path class="cls-2" d="M634.43,558.54v-2.07a7.33,7.33,0,0,1,.13-1.53,4.24,4.24,0,0,1,.41-1.1,4.17,4.17,0,0,1,.73-1l1.13-1.1c.37-.34.73-.68,1.09-1a10.87,10.87,0,0,0,1-1.08,5.44,5.44,0,0,0,.73-1.19,3.38,3.38,0,0,0,.29-1.41,3.6,3.6,0,0,0-.29-1.44,3.46,3.46,0,0,0-1.9-1.88,3.67,3.67,0,0,0-1.4-.27,3.62,3.62,0,0,0-2.7,1,4.59,4.59,0,0,0-1.24,2.75l-3.46-.34a7.11,7.11,0,0,1,2.46-4.63,7.54,7.54,0,0,1,5-1.68,8.3,8.3,0,0,1,2.67.42,6.58,6.58,0,0,1,2.15,1.22,5.71,5.71,0,0,1,1.44,2,6.44,6.44,0,0,1,.53,2.66,6.22,6.22,0,0,1-.38,2.26,6.43,6.43,0,0,1-1,1.82l-2,2.1-.34.3q-.54.51-.87.87a3.5,3.5,0,0,0-.51.74,3.38,3.38,0,0,0-.25.87,7.92,7.92,0,0,0-.07,1.19v1.49Zm-.65,4.68a2.25,2.25,0,1,1,.66,1.58A2.16,2.16,0,0,1,633.78,563.22Z"/><path class="cls-1" d="M187,303.61h3.39l5.31,19.2h.07l5.65-19.2h3.73l5.65,19.2h.06l5.31-19.2h3.4l-7,24h-3.46L203.29,308h-.07l-5.77,19.61H194Z"/><path class="cls-1" d="M221.4,305.78a2.25,2.25,0,1,1,.66,1.58A2.16,2.16,0,0,1,221.4,305.78Zm.71,5.77h3.06v16.08h-3.06Z"/><path class="cls-1" d="M230.25,302h3.06v25.65h-3.06Z"/><path class="cls-1" d="M238.4,302h3v25.65h-3Z"/><path class="cls-1" d="M255.25,305.78a2.27,2.27,0,0,1,2.24-2.24,2.24,2.24,0,0,1,0,4.48,2.27,2.27,0,0,1-2.24-2.24Zm.72,5.77h3v16.08h-3Z"/><path class="cls-1" d="M272.49,314.19h-4.38v7.3c0,.45,0,.89,0,1.34a3.58,3.58,0,0,0,.26,1.18,1.9,1.9,0,0,0,.68.85,2.27,2.27,0,0,0,1.34.32,6.29,6.29,0,0,0,1.12-.1,3.36,3.36,0,0,0,1-.37v2.78a4.06,4.06,0,0,1-1.41.42,10.46,10.46,0,0,1-1.34.12,6.08,6.08,0,0,1-2.73-.49,3.35,3.35,0,0,1-1.42-1.27,4.09,4.09,0,0,1-.55-1.75c-.05-.64-.08-1.29-.08-1.95v-8.38h-3.53v-2.64h3.53V307h3.05v4.52h4.38Z"/><path class="cls-1" d="M285.85,311.55h3v2.3H289a5.87,5.87,0,0,1,2.43-2,7.54,7.54,0,0,1,3.17-.71,8.65,8.65,0,0,1,3.37.64,7.41,7.41,0,0,1,2.58,1.8,8.24,8.24,0,0,1,1.65,2.7,9.47,9.47,0,0,1,.57,3.31,9.6,9.6,0,0,1-.57,3.34,8,8,0,0,1-1.65,2.68,7.63,7.63,0,0,1-2.58,1.78,8.47,8.47,0,0,1-3.37.64,7.44,7.44,0,0,1-3.26-.73,5.46,5.46,0,0,1-2.34-2h-.07v11.87h-3ZM294.2,314a5.58,5.58,0,0,0-2.21.42,4.86,4.86,0,0,0-1.66,1.16,5.06,5.06,0,0,0-1.05,1.76,6.88,6.88,0,0,0,0,4.51,5.2,5.2,0,0,0,1.05,1.77,4.84,4.84,0,0,0,1.66,1.15,6,6,0,0,0,4.41,0,4.84,4.84,0,0,0,1.66-1.15,4.9,4.9,0,0,0,1.05-1.77,6.88,6.88,0,0,0,0-4.51,4.77,4.77,0,0,0-1.05-1.76,4.86,4.86,0,0,0-1.66-1.16A5.57,5.57,0,0,0,294.2,314Z"/><path class="cls-1" d="M306.58,311.55h3.05V314h.07a4.23,4.23,0,0,1,.81-1.17,5.52,5.52,0,0,1,1.14-.9,6,6,0,0,1,1.37-.59,5.19,5.19,0,0,1,1.5-.22,4.45,4.45,0,0,1,1.35.2l-.13,3.29-.75-.17a4.74,4.74,0,0,0-.75-.06,4.5,4.5,0,0,0-3.42,1.25,5.53,5.53,0,0,0-1.19,3.9v8.08h-3.05Z"/><path class="cls-1" d="M320.82,320.71a4.05,4.05,0,0,0,.46,1.91,4.83,4.83,0,0,0,1.21,1.48,5.66,5.66,0,0,0,1.73.95,6.31,6.31,0,0,0,2,.34,4.57,4.57,0,0,0,2.48-.66,8.3,8.3,0,0,0,1.93-1.75l2.31,1.76a8.48,8.48,0,0,1-7.13,3.29,8.86,8.86,0,0,1-3.44-.64,7.56,7.56,0,0,1-2.61-1.78,8,8,0,0,1-1.65-2.68,9.6,9.6,0,0,1-.57-3.34,8.8,8.8,0,0,1,.63-3.35,8,8,0,0,1,1.73-2.67,7.88,7.88,0,0,1,2.62-1.79,8.67,8.67,0,0,1,3.33-.64,7.9,7.9,0,0,1,3.61.75,7,7,0,0,1,2.43,1.95,7.63,7.63,0,0,1,1.37,2.71,11.42,11.42,0,0,1,.42,3.07v1.09Zm9.64-2.45a6.35,6.35,0,0,0-.32-1.86,4.14,4.14,0,0,0-.87-1.48,3.92,3.92,0,0,0-1.44-1,5.24,5.24,0,0,0-2-.36,4.77,4.77,0,0,0-2.05.43,5,5,0,0,0-2.58,2.61,4.09,4.09,0,0,0-.36,1.64Z"/><path class="cls-1" d="M337.38,311.55h3.05v2.3h.07a5.9,5.9,0,0,1,2.42-2,7.59,7.59,0,0,1,3.18-.71,8.65,8.65,0,0,1,3.37.64,7.41,7.41,0,0,1,2.58,1.8,8.05,8.05,0,0,1,1.64,2.7,9.25,9.25,0,0,1,.58,3.31,9.38,9.38,0,0,1-.58,3.34,7.87,7.87,0,0,1-1.64,2.68,7.63,7.63,0,0,1-2.58,1.78,8.47,8.47,0,0,1-3.37.64,7.41,7.41,0,0,1-3.26-.73,5.46,5.46,0,0,1-2.34-2h-.07v11.87h-3.05Zm8.34,2.44a5.53,5.53,0,0,0-2.2.42,4.86,4.86,0,0,0-1.66,1.16,4.93,4.93,0,0,0-1.06,1.76,7.06,7.06,0,0,0,0,4.51,5.07,5.07,0,0,0,1.06,1.77,4.84,4.84,0,0,0,1.66,1.15,6,6,0,0,0,4.41,0,4.94,4.94,0,0,0,1.66-1.15,5.2,5.2,0,0,0,1.05-1.77,6.88,6.88,0,0,0,0-4.51,5.06,5.06,0,0,0-1.05-1.76,5,5,0,0,0-1.66-1.16A5.58,5.58,0,0,0,345.72,314Z"/><path class="cls-1" d="M358.17,313.51a8.62,8.62,0,0,1,3-1.78,10.34,10.34,0,0,1,3.39-.59,9.43,9.43,0,0,1,3,.44,5.83,5.83,0,0,1,2.08,1.19,4.78,4.78,0,0,1,1.21,1.71,5.38,5.38,0,0,1,.39,2v8.21q0,.84,0,1.56c0,.47.06.93.1,1.36h-2.71c-.07-.82-.1-1.63-.1-2.45h-.07a5.86,5.86,0,0,1-2.41,2.21,8.16,8.16,0,0,1-5.36.34,5.28,5.28,0,0,1-1.78-.92,4.32,4.32,0,0,1-1.2-1.51,4.58,4.58,0,0,1-.45-2.08,4.71,4.71,0,0,1,.7-2.62,5.25,5.25,0,0,1,1.9-1.71,9.11,9.11,0,0,1,2.81-.95,19.9,19.9,0,0,1,3.45-.29h2.24V317a3.35,3.35,0,0,0-.24-1.22,3.51,3.51,0,0,0-.71-1.1,3.42,3.42,0,0,0-1.19-.78,4.58,4.58,0,0,0-1.7-.29,6.42,6.42,0,0,0-1.54.17,6.5,6.5,0,0,0-1.2.43,5.08,5.08,0,0,0-1,.59c-.29.23-.57.44-.85.64Zm8.62,6.38a20.92,20.92,0,0,0-2.22.12,8.5,8.5,0,0,0-2.07.46,3.87,3.87,0,0,0-1.53.95,2.16,2.16,0,0,0-.59,1.56,2.21,2.21,0,0,0,.93,2,4.53,4.53,0,0,0,2.53.61,4.9,4.9,0,0,0,2.13-.42,4,4,0,0,0,1.43-1.11,4.26,4.26,0,0,0,.78-1.51,5.87,5.87,0,0,0,.24-1.64v-1Z"/><path class="cls-1" d="M375.71,311.55h3.05V314h.07a4.27,4.27,0,0,1,.82-1.17,5.21,5.21,0,0,1,1.13-.9,6.11,6.11,0,0,1,1.38-.59,5.07,5.07,0,0,1,1.49-.22,4.35,4.35,0,0,1,1.35.2l-.13,3.29-.75-.17a4.71,4.71,0,0,0-.74-.06,4.51,4.51,0,0,0-3.43,1.25,5.53,5.53,0,0,0-1.19,3.9v8.08h-3.05Z"/><path class="cls-1" d="M390,320.71a3.94,3.94,0,0,0,.46,1.91,4.66,4.66,0,0,0,1.2,1.48,5.78,5.78,0,0,0,1.73.95,6.31,6.31,0,0,0,2,.34,4.57,4.57,0,0,0,2.48-.66,8.11,8.11,0,0,0,1.93-1.75l2.31,1.76A8.46,8.46,0,0,1,395,328a8.87,8.87,0,0,1-3.45-.64,7.66,7.66,0,0,1-2.61-1.78,7.87,7.87,0,0,1-1.64-2.68,9.38,9.38,0,0,1-.58-3.34,8.8,8.8,0,0,1,.63-3.35,8.2,8.2,0,0,1,1.73-2.67,7.82,7.82,0,0,1,2.63-1.79,8.61,8.61,0,0,1,3.32-.64,7.87,7.87,0,0,1,3.61.75,6.9,6.9,0,0,1,2.43,1.95,7.63,7.63,0,0,1,1.37,2.71,11,11,0,0,1,.43,3.07v1.09Zm9.63-2.45a6.35,6.35,0,0,0-.32-1.86,4,4,0,0,0-.87-1.48,3.92,3.92,0,0,0-1.44-1,5.21,5.21,0,0,0-2-.36,4.8,4.8,0,0,0-2.05.43,5,5,0,0,0-2.58,2.61,4.25,4.25,0,0,0-.35,1.64Z"/><path class="cls-1" d="M415.16,319.59a8.16,8.16,0,0,1,.66-3.29,8.55,8.55,0,0,1,4.53-4.5,8.88,8.88,0,0,1,6.72,0,8.55,8.55,0,0,1,4.53,4.5,8.16,8.16,0,0,1,.66,3.29,8.31,8.31,0,0,1-.66,3.3,8.21,8.21,0,0,1-1.82,2.68,8.68,8.68,0,0,1-12.14,0,8.21,8.21,0,0,1-1.82-2.68A8.31,8.31,0,0,1,415.16,319.59Zm3.26,0a6.56,6.56,0,0,0,.37,2.25,5.2,5.2,0,0,0,1,1.77,4.94,4.94,0,0,0,1.66,1.15,5.62,5.62,0,0,0,2.21.42,5.53,5.53,0,0,0,2.2-.42,5,5,0,0,0,1.67-1.15,5.2,5.2,0,0,0,1.05-1.77,7.06,7.06,0,0,0,0-4.51,5.06,5.06,0,0,0-1.05-1.76,5,5,0,0,0-1.67-1.16,5.53,5.53,0,0,0-2.2-.42,5.62,5.62,0,0,0-2.21.42,5,5,0,0,0-1.66,1.16,5.06,5.06,0,0,0-1,1.76A6.57,6.57,0,0,0,418.42,319.59Z"/><path class="cls-1" d="M450.34,327.63h-3v-2.48h-.07a4.57,4.57,0,0,1-2,2.09,6.65,6.65,0,0,1-3.29.79,7.1,7.1,0,0,1-2.24-.35,5.06,5.06,0,0,1-1.85-1.11,5.16,5.16,0,0,1-1.27-1.91,7.26,7.26,0,0,1-.48-2.77V311.55h3.05V321a5.44,5.44,0,0,0,.31,1.92,3.47,3.47,0,0,0,.81,1.29,3,3,0,0,0,1.17.71,4.24,4.24,0,0,0,1.38.22,5,5,0,0,0,1.76-.3,3.83,3.83,0,0,0,1.43-1,4.7,4.7,0,0,0,.95-1.68,7.82,7.82,0,0,0,.34-2.41v-8.27h3Z"/><path class="cls-1" d="M455,311.55H458V314h.07a4.49,4.49,0,0,1,.82-1.17A5.46,5.46,0,0,1,460,312a6.11,6.11,0,0,1,1.38-.59,5.07,5.07,0,0,1,1.49-.22,4.46,4.46,0,0,1,1.36.2l-.14,3.29-.75-.17a5.2,5.2,0,0,0-4.17,1.19,5.53,5.53,0,0,0-1.19,3.9v8.08H455Z"/><path class="cls-1" d="M197.79,356.29a4.8,4.8,0,0,0-1.34-1.14,3.91,3.91,0,0,0-1.95-.46,3.77,3.77,0,0,0-1.88.46,1.47,1.47,0,0,0-.8,1.34,1.53,1.53,0,0,0,.46,1.16,3.68,3.68,0,0,0,1.08.71,6.52,6.52,0,0,0,1.34.41l1.23.23a13.67,13.67,0,0,1,1.84.58,5.25,5.25,0,0,1,1.5.88,3.8,3.8,0,0,1,1,1.32A5.07,5.07,0,0,1,200,366a4.9,4.9,0,0,1-1.49,1.58,6.43,6.43,0,0,1-2.09.88,10.48,10.48,0,0,1-2.36.27,9.48,9.48,0,0,1-3.51-.61,6.32,6.32,0,0,1-2.69-2.24l2.3-1.9a9.26,9.26,0,0,0,1.66,1.32,4.1,4.1,0,0,0,2.24.58,5.81,5.81,0,0,0,1.17-.12,3.68,3.68,0,0,0,1.06-.37,2.33,2.33,0,0,0,.74-.65,1.49,1.49,0,0,0,.29-.9,1.57,1.57,0,0,0-.42-1.12,3.28,3.28,0,0,0-1-.69,7.43,7.43,0,0,0-1.26-.41l-1.17-.25a19.31,19.31,0,0,1-1.86-.55,5.49,5.49,0,0,1-1.56-.81,3.69,3.69,0,0,1-1.09-1.29,4.14,4.14,0,0,1-.41-1.93,4.38,4.38,0,0,1,.53-2.19,4.57,4.57,0,0,1,1.39-1.54,6.15,6.15,0,0,1,2-.92,8.37,8.37,0,0,1,2.22-.3,8.07,8.07,0,0,1,3.12.61,4.89,4.89,0,0,1,2.38,2Z"/><path class="cls-1" d="M212.92,354.9h-4.38v7.29c0,.45,0,.9,0,1.34a3.65,3.65,0,0,0,.25,1.19,2,2,0,0,0,.68.85,2.37,2.37,0,0,0,1.34.32,6.21,6.21,0,0,0,1.12-.1,3.14,3.14,0,0,0,1.05-.38v2.79a4.06,4.06,0,0,1-1.41.42,10.31,10.31,0,0,1-1.34.12,6.29,6.29,0,0,1-2.73-.49,3.35,3.35,0,0,1-1.42-1.27,4,4,0,0,1-.54-1.75q-.09-1-.09-2V354.9H202v-2.65h3.53v-4.51h3v4.51h4.38Z"/><path class="cls-1" d="M231.1,368.33h-3v-2.47H228a4.45,4.45,0,0,1-2,2.08,6.65,6.65,0,0,1-3.29.8,6.87,6.87,0,0,1-2.24-.36,4.9,4.9,0,0,1-1.85-1.1,5.41,5.41,0,0,1-1.27-1.92,7.25,7.25,0,0,1-.48-2.76V352.25h3.06v9.5a5.45,5.45,0,0,0,.3,1.92A3.62,3.62,0,0,0,221,365a3.2,3.2,0,0,0,1.17.71,4.23,4.23,0,0,0,1.37.22,4.83,4.83,0,0,0,1.76-.31,3.62,3.62,0,0,0,1.43-1,4.56,4.56,0,0,0,1-1.68,7.53,7.53,0,0,0,.34-2.41v-8.28h3Z"/><path class="cls-1" d="M251.83,368.33h-3.05V366h-.07a5.94,5.94,0,0,1-2.43,2,7.54,7.54,0,0,1-3.17.71,8.47,8.47,0,0,1-3.37-.65,7.38,7.38,0,0,1-2.58-1.79,8.19,8.19,0,0,1-1.65-2.68,9.47,9.47,0,0,1-.57-3.33,9.56,9.56,0,0,1,.57-3.34,7.89,7.89,0,0,1,1.65-2.68,7.49,7.49,0,0,1,2.58-1.78,8.47,8.47,0,0,1,3.37-.64,7.57,7.57,0,0,1,3.26.72,5.61,5.61,0,0,1,2.34,2h.07V342.69h3.05Zm-8.35-2.44a5.58,5.58,0,0,0,2.21-.42,5,5,0,0,0,1.66-1.16,5.06,5.06,0,0,0,1.05-1.76,6.88,6.88,0,0,0,0-4.51,5.2,5.2,0,0,0-1.05-1.77,4.94,4.94,0,0,0-1.66-1.15,5.87,5.87,0,0,0-4.41,0,4.84,4.84,0,0,0-1.66,1.15,5.07,5.07,0,0,0-1.06,1.77,7.06,7.06,0,0,0,0,4.51,4.93,4.93,0,0,0,1.06,1.76,4.86,4.86,0,0,0,1.66,1.16A5.53,5.53,0,0,0,243.48,365.89Z"/><path class="cls-1" d="M258.75,361.41a4,4,0,0,0,.46,1.92,4.62,4.62,0,0,0,1.2,1.47,5.38,5.38,0,0,0,1.73.95,6.11,6.11,0,0,0,2,.34,4.54,4.54,0,0,0,2.47-.66,7.92,7.92,0,0,0,1.94-1.75l2.3,1.77a8.49,8.49,0,0,1-7.12,3.29,8.79,8.79,0,0,1-3.44-.65,7.56,7.56,0,0,1-2.62-1.78,7.77,7.77,0,0,1-1.64-2.68,9.3,9.3,0,0,1-.58-3.34,8.75,8.75,0,0,1,.63-3.34,8.24,8.24,0,0,1,1.73-2.68,7.79,7.79,0,0,1,2.63-1.78,8.43,8.43,0,0,1,3.32-.64,8,8,0,0,1,3.62.74,7.19,7.19,0,0,1,2.42,2,7.76,7.76,0,0,1,1.37,2.72,11,11,0,0,1,.43,3.07v1.08Zm9.63-2.44a6.47,6.47,0,0,0-.32-1.87,4,4,0,0,0-.87-1.47,3.94,3.94,0,0,0-1.44-1,5.4,5.4,0,0,0-2-.35,5,5,0,0,0-2.05.42,5,5,0,0,0-1.58,1.1,5.51,5.51,0,0,0-1,1.51,4.33,4.33,0,0,0-.35,1.65Z"/><path class="cls-1" d="M275.3,352.25h3.06v2.48h.06a4.52,4.52,0,0,1,2-2.09,6.65,6.65,0,0,1,3.29-.79,7,7,0,0,1,2.23.35,5.13,5.13,0,0,1,1.86,1.1,5.28,5.28,0,0,1,1.27,1.92,7.25,7.25,0,0,1,.48,2.76v10.35H286.5v-9.5a5.2,5.2,0,0,0-.31-1.91,3.47,3.47,0,0,0-.81-1.29,3,3,0,0,0-1.17-.71,4.25,4.25,0,0,0-1.38-.23,5,5,0,0,0-1.76.31,3.71,3.71,0,0,0-1.43,1,4.7,4.7,0,0,0-.95,1.68,7.78,7.78,0,0,0-.33,2.4v8.28H275.3Z"/><path class="cls-1" d="M302.78,354.9H298.4v7.29c0,.45,0,.9,0,1.34a3.4,3.4,0,0,0,.25,1.19,2,2,0,0,0,.68.85,2.37,2.37,0,0,0,1.34.32,6.29,6.29,0,0,0,1.12-.1,3.14,3.14,0,0,0,1.05-.38v2.79a4.06,4.06,0,0,1-1.41.42,10.31,10.31,0,0,1-1.34.12,6.29,6.29,0,0,1-2.73-.49A3.35,3.35,0,0,1,296,367a4,4,0,0,1-.54-1.75q-.09-1-.09-2V354.9h-3.53v-2.65h3.53v-4.51h3v4.51h4.38Z"/><path class="cls-1" d="M315.26,356.29a4.8,4.8,0,0,0-1.34-1.14,3.91,3.91,0,0,0-1.95-.46,3.77,3.77,0,0,0-1.88.46,1.47,1.47,0,0,0-.8,1.34,1.53,1.53,0,0,0,.46,1.16,3.73,3.73,0,0,0,1.09.71,6.16,6.16,0,0,0,1.34.41l1.22.23a14.29,14.29,0,0,1,1.85.58,5.33,5.33,0,0,1,1.49.88,3.8,3.8,0,0,1,1,1.32,4.57,4.57,0,0,1,.36,1.9,4.43,4.43,0,0,1-.58,2.33,4.9,4.9,0,0,1-1.49,1.58,6.43,6.43,0,0,1-2.09.88,10.42,10.42,0,0,1-2.36.27,9.48,9.48,0,0,1-3.51-.61,6.32,6.32,0,0,1-2.69-2.24l2.3-1.9a9.33,9.33,0,0,0,1.67,1.32,4,4,0,0,0,2.23.58,6,6,0,0,0,1.18-.12,3.72,3.72,0,0,0,1.05-.37,2.33,2.33,0,0,0,.74-.65,1.43,1.43,0,0,0,.29-.9,1.57,1.57,0,0,0-.42-1.12,3.28,3.28,0,0,0-1-.69,7.15,7.15,0,0,0-1.26-.41l-1.17-.25a19.31,19.31,0,0,1-1.86-.55,5.49,5.49,0,0,1-1.56-.81,3.8,3.8,0,0,1-1.09-1.29,4.15,4.15,0,0,1-.4-1.93,4.38,4.38,0,0,1,.52-2.19,4.68,4.68,0,0,1,1.39-1.54,6.15,6.15,0,0,1,2-.92,8.42,8.42,0,0,1,2.22-.3,8.07,8.07,0,0,1,3.12.61,4.89,4.89,0,0,1,2.38,2Z"/><path class="cls-1" d="M332.39,354.9h-3.46v-2.65h3.46v-3.59a7.68,7.68,0,0,1,1.24-4.8c.83-1.05,2.24-1.58,4.26-1.58l1.07,0a6.32,6.32,0,0,1,1.2.21l-.34,2.71A5,5,0,0,0,339,345a6,6,0,0,0-.88-.06,3.09,3.09,0,0,0-1.36.25,1.92,1.92,0,0,0-.79.73,3,3,0,0,0-.38,1.14,13.37,13.37,0,0,0-.08,1.51v3.69h3.63v2.65h-3.66v13.43h-3.06Z"/><path class="cls-1" d="M341.72,360.29a8.23,8.23,0,0,1,.66-3.29,8.54,8.54,0,0,1,1.82-2.68,8.42,8.42,0,0,1,2.71-1.81,8.88,8.88,0,0,1,6.72,0,8.42,8.42,0,0,1,2.71,1.81,8.54,8.54,0,0,1,1.82,2.68,8.23,8.23,0,0,1,.66,3.29,8.33,8.33,0,0,1-2.48,6,8.68,8.68,0,0,1-12.14,0,8.33,8.33,0,0,1-2.48-6Zm3.26,0a6.57,6.57,0,0,0,.37,2.26,5.06,5.06,0,0,0,1,1.76,5,5,0,0,0,1.66,1.16,5.62,5.62,0,0,0,2.21.42,5.53,5.53,0,0,0,2.2-.42,5,5,0,0,0,1.67-1.16,5.06,5.06,0,0,0,1.05-1.76,7.06,7.06,0,0,0,0-4.51,5.2,5.2,0,0,0-1.05-1.77,5,5,0,0,0-1.67-1.15,5.53,5.53,0,0,0-2.2-.43,5.62,5.62,0,0,0-2.21.43,4.94,4.94,0,0,0-1.66,1.15,5.2,5.2,0,0,0-1,1.77A6.56,6.56,0,0,0,345,360.29Z"/><path class="cls-1" d="M362.65,352.25h3.05v2.48h.07a4.27,4.27,0,0,1,.82-1.17,5.21,5.21,0,0,1,1.13-.9,5.69,5.69,0,0,1,1.38-.59,5.07,5.07,0,0,1,1.49-.22,4.18,4.18,0,0,1,1.36.2l-.14,3.29c-.25-.07-.5-.12-.75-.17a3.71,3.71,0,0,0-.74-.07,4.48,4.48,0,0,0-3.43,1.26,5.5,5.5,0,0,0-1.19,3.9v8.07h-3.05Z"/><path class="cls-1" d="M393.25,354.9h-4.38v7.29c0,.45,0,.9,0,1.34a3.4,3.4,0,0,0,.25,1.19,2,2,0,0,0,.68.85,2.34,2.34,0,0,0,1.34.32,6.29,6.29,0,0,0,1.12-.1,3.14,3.14,0,0,0,1.05-.38v2.79a4.06,4.06,0,0,1-1.41.42,10.46,10.46,0,0,1-1.34.12,6.29,6.29,0,0,1-2.73-.49,3.35,3.35,0,0,1-1.42-1.27,4.18,4.18,0,0,1-.55-1.75c0-.65-.08-1.3-.08-2V354.9h-3.53v-2.65h3.53v-4.51h3.05v4.51h4.38Z"/><path class="cls-1" d="M397.18,342.69h3.06v12h.06a4.52,4.52,0,0,1,2-2.09,6.65,6.65,0,0,1,3.29-.79,7,7,0,0,1,2.23.35,5.13,5.13,0,0,1,1.86,1.1,5.28,5.28,0,0,1,1.27,1.92,7.25,7.25,0,0,1,.48,2.76v10.35h-3.05v-9.5a5.42,5.42,0,0,0-.31-1.91,3.47,3.47,0,0,0-.81-1.29,3,3,0,0,0-1.17-.71,4.25,4.25,0,0,0-1.38-.23A5,5,0,0,0,403,355a3.71,3.71,0,0,0-1.43,1,4.7,4.7,0,0,0-.95,1.68,7.78,7.78,0,0,0-.33,2.4v8.28h-3.06Z"/><path class="cls-1" d="M418.35,361.41a4,4,0,0,0,.46,1.92,4.62,4.62,0,0,0,1.2,1.47,5.48,5.48,0,0,0,1.73.95,6.15,6.15,0,0,0,2,.34,4.54,4.54,0,0,0,2.47-.66,7.92,7.92,0,0,0,1.94-1.75l2.3,1.77a8.49,8.49,0,0,1-7.12,3.29,8.82,8.82,0,0,1-3.44-.65,7.56,7.56,0,0,1-2.62-1.78,7.77,7.77,0,0,1-1.64-2.68,9.52,9.52,0,0,1-.58-3.34,8.75,8.75,0,0,1,.63-3.34,8.41,8.41,0,0,1,1.73-2.68,7.89,7.89,0,0,1,2.63-1.78,8.47,8.47,0,0,1,3.32-.64,8,8,0,0,1,3.62.74,7.19,7.19,0,0,1,2.42,2,7.78,7.78,0,0,1,1.38,2.72,11.37,11.37,0,0,1,.42,3.07v1.08ZM428,359a6.47,6.47,0,0,0-.32-1.87,4.16,4.16,0,0,0-.86-1.47,4.06,4.06,0,0,0-1.45-1,5.39,5.39,0,0,0-2-.35,4.94,4.94,0,0,0-3.63,1.52,5.09,5.09,0,0,0-1,1.51,4.17,4.17,0,0,0-.36,1.65Z"/><path class="cls-1" d="M186.77,392.55h5.42l3.36,10.35h.07l2.82-10.35H204l3.05,10.35h.07l3.09-10.35h5.15L209.49,409h-5l-3.42-11H201l-3,11H192.8Z"/><path class="cls-1" d="M216.38,400.8a8.75,8.75,0,0,1,.71-3.57A8.4,8.4,0,0,1,219,394.5a8.66,8.66,0,0,1,2.92-1.74,10.81,10.81,0,0,1,7.16,0A8.66,8.66,0,0,1,232,394.5a8.4,8.4,0,0,1,2,2.73,9.31,9.31,0,0,1,0,7.13,8.4,8.4,0,0,1-2,2.73,8.68,8.68,0,0,1-2.92,1.75,10.81,10.81,0,0,1-7.16,0,8.68,8.68,0,0,1-2.92-1.75,8.4,8.4,0,0,1-1.95-2.73A8.74,8.74,0,0,1,216.38,400.8Zm5.09,0a4.24,4.24,0,0,0,1.07,3,4.49,4.49,0,0,0,6,0,4.8,4.8,0,0,0,0-6,4.46,4.46,0,0,0-6,0A4.23,4.23,0,0,0,221.47,400.8Z"/><path class="cls-1" d="M237.68,392.55h5.09v2.65h.07a6.27,6.27,0,0,1,1.93-2.29,4.9,4.9,0,0,1,2.82-.76c.29,0,.59,0,.88,0a4,4,0,0,1,.81.14V397a7.06,7.06,0,0,0-1.06-.25,6.65,6.65,0,0,0-1.11-.09,5.38,5.38,0,0,0-2.3.41,3,3,0,0,0-1.31,1.14,4.17,4.17,0,0,0-.59,1.74,17.13,17.13,0,0,0-.14,2.24V409h-5.09Z"/><path class="cls-1" d="M251.49,383.39h5.09v15.68l5.63-6.52h6.24L261.9,400l6.72,9.06h-6.41l-5.56-8.35h-.07V409h-5.09Z"/><path class="cls-1" d="M272.11,396.62h-3.35v-4.07h3.35v-2.91a13.2,13.2,0,0,1,.24-2.57,5.14,5.14,0,0,1,.92-2.12,4.46,4.46,0,0,1,2-1.44,8.9,8.9,0,0,1,3.34-.52q.78,0,1.53.06a11.54,11.54,0,0,1,1.45.24l-.23,4.31a5.71,5.71,0,0,0-.82-.25,3.63,3.63,0,0,0-.85-.09,2.76,2.76,0,0,0-1.83.53,2.86,2.86,0,0,0-.61,2.15v2.61H281v4.07H277.2V409h-5.09Z"/><path class="cls-1" d="M282.29,400.8a8.75,8.75,0,0,1,.71-3.57A8.4,8.4,0,0,1,285,394.5a8.66,8.66,0,0,1,2.92-1.74,10.81,10.81,0,0,1,7.16,0,8.52,8.52,0,0,1,2.91,1.74,8.28,8.28,0,0,1,2,2.73,9.31,9.31,0,0,1,0,7.13,8.28,8.28,0,0,1-2,2.73,8.54,8.54,0,0,1-2.91,1.75,10.81,10.81,0,0,1-7.16,0,8.68,8.68,0,0,1-2.92-1.75,8.4,8.4,0,0,1-1.95-2.73A8.74,8.74,0,0,1,282.29,400.8Zm5.09,0a4.24,4.24,0,0,0,1.07,3,4.49,4.49,0,0,0,6,0,4.8,4.8,0,0,0,0-6,4.46,4.46,0,0,0-6,0A4.23,4.23,0,0,0,287.38,400.8Z"/><path class="cls-1" d="M303.59,392.55h5.09v2.65h.07a6.27,6.27,0,0,1,1.93-2.29,4.9,4.9,0,0,1,2.82-.76c.29,0,.59,0,.88,0a4,4,0,0,1,.81.14V397a6.9,6.9,0,0,0-1.07-.25,6.45,6.45,0,0,0-1.1-.09,5.38,5.38,0,0,0-2.3.41,3,3,0,0,0-1.31,1.14,4.17,4.17,0,0,0-.59,1.74,17.13,17.13,0,0,0-.14,2.24V409h-5.09Z"/><path class="cls-1" d="M328,397.88a2.92,2.92,0,0,0-1.05-.9,3.09,3.09,0,0,0-1.46-.36,3.88,3.88,0,0,0-3,1.16,4.8,4.8,0,0,0,0,6,3.91,3.91,0,0,0,3,1.15,2.85,2.85,0,0,0,1.46-.37,4.76,4.76,0,0,0,1.05-.89l3.36,3.53a6.37,6.37,0,0,1-2.8,1.71,10.26,10.26,0,0,1-6.65-.11,8.68,8.68,0,0,1-2.92-1.75,8.4,8.4,0,0,1-1.95-2.73,9.31,9.31,0,0,1,0-7.13,8.4,8.4,0,0,1,1.95-2.73,8.66,8.66,0,0,1,2.92-1.74,10.32,10.32,0,0,1,3.58-.61,10.48,10.48,0,0,1,3.07.49,6.56,6.56,0,0,1,2.8,1.71Z"/><path class="cls-1" d="M348.74,406.19a8.15,8.15,0,0,1-3.08,2.41,9.38,9.38,0,0,1-3.87.85,10.56,10.56,0,0,1-3.58-.61,8.68,8.68,0,0,1-2.92-1.75,8.4,8.4,0,0,1-2-2.73,9.31,9.31,0,0,1,0-7.13,8.4,8.4,0,0,1,2-2.73,8.66,8.66,0,0,1,2.92-1.74,10.32,10.32,0,0,1,3.58-.61,8.08,8.08,0,0,1,3.2.61,6.64,6.64,0,0,1,2.45,1.74,8.08,8.08,0,0,1,1.54,2.73,11.1,11.1,0,0,1,.54,3.57v1.59h-11.8a4,4,0,0,0,1.32,2.32,3.74,3.74,0,0,0,2.51.87,3.85,3.85,0,0,0,2.12-.56,5.57,5.57,0,0,0,1.51-1.44Zm-4.31-7.26a2.93,2.93,0,0,0-.84-2.2,3,3,0,0,0-2.28-.92,3.85,3.85,0,0,0-1.49.27,3.51,3.51,0,0,0-1.1.7,3,3,0,0,0-.71,1,3.15,3.15,0,0,0-.29,1.17Z"/><path class="cls-1" d="M358.14,399.61a4.87,4.87,0,0,1,.27-1.73,3.48,3.48,0,0,1,.92-1.32c.63-.62,1.21-1.15,1.74-1.6s1-.88,1.38-1.27a7.35,7.35,0,0,0,.9-1.12,2.12,2.12,0,0,0,.32-1.1,2.22,2.22,0,0,0-.7-1.75,2.48,2.48,0,0,0-1.74-.63,3.2,3.2,0,0,0-2.43.88,3.49,3.49,0,0,0-.93,2.14l-5.23-.34a7.84,7.84,0,0,1,2.65-5.48,8.85,8.85,0,0,1,5.83-1.88,9.72,9.72,0,0,1,2.94.43,7.09,7.09,0,0,1,2.42,1.27,6.05,6.05,0,0,1,1.67,2.1,6.62,6.62,0,0,1,.61,2.88,7,7,0,0,1-.21,1.78,5.21,5.21,0,0,1-.69,1.58,9.34,9.34,0,0,1-1.29,1.58,23.63,23.63,0,0,1-2,1.75A3.46,3.46,0,0,0,363.5,399a2.73,2.73,0,0,0-.27,1.16v1h-5.09Zm-.58,6.51a3,3,0,0,1,1.9-2.88,3.16,3.16,0,0,1,1.22-.24,3.12,3.12,0,0,1,1.22.24,3,3,0,0,1,1.67,1.66,3.35,3.35,0,0,1,0,2.44,2.89,2.89,0,0,1-.67,1,2.73,2.73,0,0,1-1,.66,3.12,3.12,0,0,1-1.22.24,3.16,3.16,0,0,1-1.22-.24,2.82,2.82,0,0,1-1-.66,3,3,0,0,1-.66-1A3.12,3.12,0,0,1,357.56,406.12Z"/><path class="cls-2" d="M752.65,279H756l5.31,19.2h.07l5.65-19.2h3.73l5.64,19.2h.07l5.31-19.2h3.39l-7,24h-3.46L769,283.36h-.07L763.13,303h-3.46Z"/><path class="cls-2" d="M787.55,277.32h3.06v12.05h.07a4.47,4.47,0,0,1,2-2.09,6.62,6.62,0,0,1,3.29-.8,6.89,6.89,0,0,1,2.22.36,5,5,0,0,1,1.86,1.1,5.3,5.3,0,0,1,1.28,1.92,7.45,7.45,0,0,1,.47,2.76V303h-3v-9.5a5.26,5.26,0,0,0-.31-1.92,3.47,3.47,0,0,0-.81-1.29,3.2,3.2,0,0,0-1.17-.71,4.24,4.24,0,0,0-1.38-.22,4.83,4.83,0,0,0-1.76.31,3.58,3.58,0,0,0-1.42,1,4.42,4.42,0,0,0-.95,1.68,7.53,7.53,0,0,0-.34,2.41V303h-3.06Z"/><path class="cls-2" d="M806.48,288.86a8.47,8.47,0,0,1,3-1.78,10.1,10.1,0,0,1,3.39-.6,9.43,9.43,0,0,1,3,.44,6,6,0,0,1,2.08,1.19,4.66,4.66,0,0,1,1.21,1.71,5.38,5.38,0,0,1,.39,2v8.21q0,.85,0,1.56c0,.48.06.93.1,1.36H817c-.07-.82-.1-1.63-.1-2.44h-.07a5.83,5.83,0,0,1-2.41,2.2,8,8,0,0,1-5.36.34,5.11,5.11,0,0,1-1.78-.92,4.29,4.29,0,0,1-1.2-1.5,5.15,5.15,0,0,1,.25-4.7,5.28,5.28,0,0,1,1.9-1.72,9.35,9.35,0,0,1,2.82-1,19.72,19.72,0,0,1,3.44-.28h2.24v-.68a3.27,3.27,0,0,0-.24-1.22,3.27,3.27,0,0,0-1.9-1.89,4.54,4.54,0,0,0-1.7-.29,6.42,6.42,0,0,0-1.54.17,7.32,7.32,0,0,0-1.2.43,5.63,5.63,0,0,0-1,.59l-.85.65Zm8.62,6.37a20.92,20.92,0,0,0-2.22.12,8.5,8.5,0,0,0-2.07.46,4.06,4.06,0,0,0-1.53.95,2.18,2.18,0,0,0-.59,1.56,2.2,2.2,0,0,0,.93,2,4.53,4.53,0,0,0,2.53.61,5,5,0,0,0,2.14-.42,4,4,0,0,0,1.42-1.1,4.44,4.44,0,0,0,.78-1.51,6,6,0,0,0,.24-1.65v-1Z"/><path class="cls-2" d="M832.64,289.53h-4.38v7.3c0,.45,0,.9,0,1.34a3.64,3.64,0,0,0,.26,1.19,1.87,1.87,0,0,0,.68.84,2.26,2.26,0,0,0,1.34.33,6.33,6.33,0,0,0,1.12-.11,3.13,3.13,0,0,0,1-.37v2.78a3.85,3.85,0,0,1-1.41.43,10.46,10.46,0,0,1-1.34.12,6.07,6.07,0,0,1-2.73-.5,3.28,3.28,0,0,1-1.42-1.27,4.09,4.09,0,0,1-.55-1.75c0-.64-.08-1.29-.08-1.95v-8.38h-3.53v-2.64h3.53v-4.51h3v4.51h4.38Z"/><path class="cls-2" d="M846.07,288.86a8.43,8.43,0,0,1,3-1.78,10.2,10.2,0,0,1,3.4-.6,9.4,9.4,0,0,1,3,.44,5.94,5.94,0,0,1,2.09,1.19,4.76,4.76,0,0,1,1.2,1.71,5.38,5.38,0,0,1,.39,2v8.21c0,.57,0,1.09,0,1.56s0,.93.1,1.36h-2.71c-.07-.82-.11-1.63-.11-2.44h-.06a5.9,5.9,0,0,1-2.41,2.2,7.6,7.6,0,0,1-3.23.65,7.51,7.51,0,0,1-2.13-.31,5.11,5.11,0,0,1-1.78-.92,4.43,4.43,0,0,1-1.21-1.5,4.76,4.76,0,0,1-.44-2.09,4.58,4.58,0,0,1,.7-2.61,5.2,5.2,0,0,1,1.9-1.72,9.39,9.39,0,0,1,2.81-1,19.84,19.84,0,0,1,3.45-.28h2.23v-.68a3.47,3.47,0,0,0-.23-1.22,3.32,3.32,0,0,0-.72-1.11,3.42,3.42,0,0,0-1.18-.78,4.58,4.58,0,0,0-1.7-.29,6.36,6.36,0,0,0-1.54.17,7.44,7.44,0,0,0-1.21.43,5.54,5.54,0,0,0-1,.59l-.85.65Zm8.62,6.37a21.25,21.25,0,0,0-2.23.12,8.72,8.72,0,0,0-2.07.46,4,4,0,0,0-1.52.95,2.14,2.14,0,0,0-.6,1.56,2.19,2.19,0,0,0,.94,2,4.52,4.52,0,0,0,2.52.61,5,5,0,0,0,2.14-.42,4.08,4.08,0,0,0,1.43-1.1,4.44,4.44,0,0,0,.78-1.51,6.37,6.37,0,0,0,.23-1.65v-1Z"/><path class="cls-2" d="M863.61,277.32h3V289.2h.07a5.55,5.55,0,0,1,2.34-2,7.55,7.55,0,0,1,3.26-.73,8.51,8.51,0,0,1,3.37.65,7.49,7.49,0,0,1,2.58,1.78,7.87,7.87,0,0,1,1.64,2.68,9.34,9.34,0,0,1,.58,3.34,9.15,9.15,0,0,1-.58,3.32,8.06,8.06,0,0,1-1.64,2.68,7.41,7.41,0,0,1-2.58,1.8,8.51,8.51,0,0,1-3.37.65,7.45,7.45,0,0,1-3.18-.72,5.76,5.76,0,0,1-2.42-2h-.07V303h-3ZM872,300.53a5.41,5.41,0,0,0,2.21-.43,4.8,4.8,0,0,0,1.66-1.15,5.2,5.2,0,0,0,1-1.77,7.06,7.06,0,0,0,0-4.51,5.15,5.15,0,0,0-1-1.76,4.8,4.8,0,0,0-1.66-1.15,5.87,5.87,0,0,0-4.41,0,4.84,4.84,0,0,0-1.67,1.15,5.15,5.15,0,0,0-1.05,1.76,7.06,7.06,0,0,0,0,4.51,5.2,5.2,0,0,0,1.05,1.77,4.84,4.84,0,0,0,1.67,1.15A5.37,5.37,0,0,0,872,300.53Z"/><path class="cls-2" d="M883.55,294.93a8.19,8.19,0,0,1,.66-3.29A8.71,8.71,0,0,1,886,289a8.45,8.45,0,0,1,2.71-1.82,8.88,8.88,0,0,1,6.72,0,8.45,8.45,0,0,1,2.71,1.82,8.54,8.54,0,0,1,1.82,2.68,8.19,8.19,0,0,1,.66,3.29,8.33,8.33,0,0,1-2.48,6,8.7,8.7,0,0,1-2.71,1.79,8.76,8.76,0,0,1-6.72,0,8.7,8.7,0,0,1-2.71-1.79,8.48,8.48,0,0,1-1.82-2.68A8.32,8.32,0,0,1,883.55,294.93Zm3.26,0a6.56,6.56,0,0,0,.37,2.25,5.2,5.2,0,0,0,1.05,1.77,4.84,4.84,0,0,0,1.67,1.15,5.87,5.87,0,0,0,4.41,0A4.8,4.8,0,0,0,896,299a5.2,5.2,0,0,0,1-1.77,7.06,7.06,0,0,0,0-4.51,5.15,5.15,0,0,0-1-1.76,4.8,4.8,0,0,0-1.66-1.15,5.87,5.87,0,0,0-4.41,0,4.84,4.84,0,0,0-1.67,1.15,5.15,5.15,0,0,0-1.05,1.76A6.57,6.57,0,0,0,886.81,294.93Z"/><path class="cls-2" d="M918.73,303h-3.05v-2.48h-.07a4.52,4.52,0,0,1-2,2.09,6.65,6.65,0,0,1-3.29.8,6.87,6.87,0,0,1-2.24-.36,5.17,5.17,0,0,1-1.85-1.1A5.28,5.28,0,0,1,905,300a7.25,7.25,0,0,1-.48-2.76V286.89h3.06v9.5a5.43,5.43,0,0,0,.3,1.91,3.44,3.44,0,0,0,.81,1.29,3.06,3.06,0,0,0,1.18.72,4.47,4.47,0,0,0,1.37.22,5,5,0,0,0,1.76-.31,3.64,3.64,0,0,0,1.43-1,4.7,4.7,0,0,0,1-1.68,7.76,7.76,0,0,0,.34-2.4v-8.28h3.05Z"/><path class="cls-2" d="M932,289.53h-4.38v7.3c0,.45,0,.9,0,1.34a3.4,3.4,0,0,0,.25,1.19,1.94,1.94,0,0,0,.68.84,2.28,2.28,0,0,0,1.34.33,6.33,6.33,0,0,0,1.12-.11,3.13,3.13,0,0,0,1-.37v2.78a3.85,3.85,0,0,1-1.41.43,10.31,10.31,0,0,1-1.34.12,6.13,6.13,0,0,1-2.73-.5,3.28,3.28,0,0,1-1.42-1.27,4,4,0,0,1-.54-1.75q-.09-1-.09-1.95v-8.38H921v-2.64h3.53v-4.51h3.05v4.51H932Z"/><path class="cls-2" d="M944.54,294.93a8,8,0,0,1,.67-3.29,8.66,8.66,0,0,1,11.24-4.5,8.34,8.34,0,0,1,2.71,1.82,8.54,8.54,0,0,1,1.82,2.68,8.19,8.19,0,0,1,.66,3.29,8.33,8.33,0,0,1-2.48,6,8.73,8.73,0,0,1-9.43,1.79,8.7,8.7,0,0,1-2.71-1.79,8.29,8.29,0,0,1-1.81-2.68A8.16,8.16,0,0,1,944.54,294.93Zm3.26,0a6.56,6.56,0,0,0,.37,2.25,5.07,5.07,0,0,0,1.06,1.77,4.71,4.71,0,0,0,1.66,1.15,5.87,5.87,0,0,0,4.41,0A4.8,4.8,0,0,0,957,299a5.2,5.2,0,0,0,1-1.77,7.06,7.06,0,0,0,0-4.51,5.15,5.15,0,0,0-1-1.76,4.8,4.8,0,0,0-1.66-1.15,5.87,5.87,0,0,0-4.41,0,4.71,4.71,0,0,0-1.66,1.15,5,5,0,0,0-1.06,1.76A6.57,6.57,0,0,0,947.8,294.93Z"/><path class="cls-2" d="M979.72,303h-3.05v-2.48h-.07a4.47,4.47,0,0,1-2,2.09,6.65,6.65,0,0,1-3.29.8,6.87,6.87,0,0,1-2.24-.36,5.17,5.17,0,0,1-1.85-1.1A5.41,5.41,0,0,1,966,300a7.25,7.25,0,0,1-.48-2.76V286.89h3.06v9.5a5.43,5.43,0,0,0,.3,1.91,3.45,3.45,0,0,0,.82,1.29,3.1,3.1,0,0,0,1.17.72,4.52,4.52,0,0,0,1.37.22,5,5,0,0,0,1.76-.31,3.64,3.64,0,0,0,1.43-1,4.56,4.56,0,0,0,1-1.68,7.76,7.76,0,0,0,.34-2.4v-8.28h3.05Z"/><path class="cls-2" d="M984.33,286.89h3.06v2.48h.07a4.43,4.43,0,0,1,.81-1.18,5.9,5.9,0,0,1,2.51-1.49,5.49,5.49,0,0,1,1.49-.22,4.17,4.17,0,0,1,1.36.21l-.14,3.29a6.58,6.58,0,0,0-.74-.17,3.81,3.81,0,0,0-.75-.07,4.54,4.54,0,0,0-3.43,1.25,5.54,5.54,0,0,0-1.18,3.91V303h-3.06Z"/><path class="cls-2" d="M770,340.82a8.06,8.06,0,0,1-3.09,2.41,9.16,9.16,0,0,1-3.87.85,10.36,10.36,0,0,1-3.58-.61,8.54,8.54,0,0,1-2.91-1.75,7.92,7.92,0,0,1-2-2.73,9.16,9.16,0,0,1,0-7.12,8.12,8.12,0,0,1,2-2.73,8.54,8.54,0,0,1,2.91-1.75,10.36,10.36,0,0,1,3.58-.61,8.09,8.09,0,0,1,3.21.61,6.71,6.71,0,0,1,2.44,1.75,7.92,7.92,0,0,1,1.54,2.73,10.77,10.77,0,0,1,.55,3.56V337H759a4.11,4.11,0,0,0,1.32,2.32,3.74,3.74,0,0,0,2.52.86,3.79,3.79,0,0,0,2.12-.56,5.87,5.87,0,0,0,1.51-1.44Zm-4.31-7.25a3,3,0,0,0-.85-2.21,3,3,0,0,0-2.27-.92,3.77,3.77,0,0,0-1.49.28,3.86,3.86,0,0,0-1.11.69,3,3,0,0,0-.71,1,3.15,3.15,0,0,0-.29,1.17Z"/><path class="cls-2" d="M773.88,327.19h4.89v2.24h.07a3.76,3.76,0,0,1,.67-.95,5,5,0,0,1,1.06-.85A5.9,5.9,0,0,1,782,327a5.7,5.7,0,0,1,1.69-.24,6.47,6.47,0,0,1,3.07.71,4.49,4.49,0,0,1,2,2.24,5.49,5.49,0,0,1,2.14-2.27,6.45,6.45,0,0,1,3.09-.68,6.3,6.3,0,0,1,2.79.56,4.5,4.5,0,0,1,1.8,1.53,6.37,6.37,0,0,1,1,2.27,13.08,13.08,0,0,1,.29,2.8v9.73h-5.09v-9.6a3.8,3.8,0,0,0-.49-2,1.87,1.87,0,0,0-1.75-.83,3.35,3.35,0,0,0-1.47.29,2.46,2.46,0,0,0-1,.79,3.28,3.28,0,0,0-.51,1.19,6.6,6.6,0,0,0-.15,1.43v8.71H784.3V335c0-.3,0-.66,0-1.09a4.4,4.4,0,0,0-.23-1.22,2.43,2.43,0,0,0-.66-1,2,2,0,0,0-1.35-.41,3.23,3.23,0,0,0-1.59.35,2.38,2.38,0,0,0-.93,1,3.78,3.78,0,0,0-.43,1.33,13.09,13.09,0,0,0-.1,1.57v8.2h-5.09Z"/><path class="cls-2" d="M803.87,327.19h4.68v2.17h.07a5.76,5.76,0,0,1,.8-.9,5.66,5.66,0,0,1,1.15-.83A7.17,7.17,0,0,1,812,327a5.65,5.65,0,0,1,1.66-.24,8.48,8.48,0,0,1,3.33.63,7.55,7.55,0,0,1,2.56,1.76,8,8,0,0,1,1.65,2.7,9.91,9.91,0,0,1,.57,3.43,10.36,10.36,0,0,1-.52,3.3,9,9,0,0,1-1.5,2.8,7.14,7.14,0,0,1-2.35,2,6.66,6.66,0,0,1-3.16.73,8.73,8.73,0,0,1-3-.49,4.75,4.75,0,0,1-2.25-1.68H809v9.5h-5.09Zm4.68,8.24a4.27,4.27,0,0,0,1.07,3,4.49,4.49,0,0,0,6,0,4.8,4.8,0,0,0,0-6,4.49,4.49,0,0,0-6,0A4.29,4.29,0,0,0,808.55,335.43Z"/><path class="cls-2" d="M824.83,318h5.09v25.64h-5.09Z"/><path class="cls-2" d="M833,335.43a8.54,8.54,0,0,1,.71-3.56,8.12,8.12,0,0,1,1.95-2.73,8.58,8.58,0,0,1,2.92-1.75,10.78,10.78,0,0,1,7.15,0,8.68,8.68,0,0,1,2.92,1.75,8.12,8.12,0,0,1,2,2.73,9.28,9.28,0,0,1,0,7.12,7.92,7.92,0,0,1-2,2.73,8.68,8.68,0,0,1-2.92,1.75,10.78,10.78,0,0,1-7.15,0,8.58,8.58,0,0,1-2.92-1.75,7.92,7.92,0,0,1-1.95-2.73A8.54,8.54,0,0,1,833,335.43Zm5.08,0a4.27,4.27,0,0,0,1.07,3,4.5,4.5,0,0,0,6,0,4.8,4.8,0,0,0,0-6,4.5,4.5,0,0,0-6,0A4.29,4.29,0,0,0,838.06,335.43Z"/><path class="cls-2" d="M863.78,346.35q-.51,1.33-1,2.34a5.69,5.69,0,0,1-1.2,1.72,4.77,4.77,0,0,1-1.85,1,9.91,9.91,0,0,1-3,.36,11.87,11.87,0,0,1-3.8-.62l.68-4.17a5.81,5.81,0,0,0,2.37.51,4.47,4.47,0,0,0,1.39-.18,2.4,2.4,0,0,0,.9-.55,3,3,0,0,0,.6-.86c.15-.34.32-.74.5-1.19l.38-.95-7.23-16.62h5.5l4.24,10.89h.07L866,327.19h5.22Z"/><path class="cls-2" d="M873.14,327.19H878v2.24h.07a4.09,4.09,0,0,1,.68-.95,4.7,4.7,0,0,1,1.05-.85,6.08,6.08,0,0,1,1.39-.61,5.77,5.77,0,0,1,1.7-.24,6.53,6.53,0,0,1,3.07.71,4.58,4.58,0,0,1,2,2.24,5.48,5.48,0,0,1,2.13-2.27,6.47,6.47,0,0,1,3.09-.68,6.35,6.35,0,0,1,2.8.56,4.5,4.5,0,0,1,1.8,1.53,6.56,6.56,0,0,1,.95,2.27,13.08,13.08,0,0,1,.29,2.8v9.73H894v-9.6a3.9,3.9,0,0,0-.49-2,1.88,1.88,0,0,0-1.75-.83,3.42,3.42,0,0,0-1.48.29,2.54,2.54,0,0,0-1,.79,3.46,3.46,0,0,0-.51,1.19,6.6,6.6,0,0,0-.15,1.43v8.71h-5.09V335c0-.3,0-.66,0-1.09a4.07,4.07,0,0,0-.24-1.22,2.25,2.25,0,0,0-.66-1,1.92,1.92,0,0,0-1.34-.41,3.18,3.18,0,0,0-1.59.35,2.48,2.48,0,0,0-.94,1,4,4,0,0,0-.42,1.33,11.3,11.3,0,0,0-.1,1.57v8.2h-5.09Z"/><path class="cls-2" d="M918.25,340.82a8,8,0,0,1-3.08,2.41,9.19,9.19,0,0,1-3.87.85,10.32,10.32,0,0,1-3.58-.61,8.54,8.54,0,0,1-2.91-1.75,8.08,8.08,0,0,1-2-2.73,9.28,9.28,0,0,1,0-7.12,8.28,8.28,0,0,1,2-2.73,8.54,8.54,0,0,1,2.91-1.75,10.32,10.32,0,0,1,3.58-.61,8.09,8.09,0,0,1,3.21.61,6.71,6.71,0,0,1,2.44,1.75,7.92,7.92,0,0,1,1.54,2.73,11,11,0,0,1,.55,3.56V337H907.23a4,4,0,0,0,1.32,2.32,4.18,4.18,0,0,0,4.63.3,5.57,5.57,0,0,0,1.51-1.44Zm-4.3-7.25a3,3,0,0,0-.85-2.21,3,3,0,0,0-2.27-.92,3.86,3.86,0,0,0-1.5.28,3.81,3.81,0,0,0-1.1.69,3,3,0,0,0-.71,1,3.15,3.15,0,0,0-.29,1.17Z"/><path class="cls-2" d="M922.12,327.19H927v2.24h.06a4.09,4.09,0,0,1,.68-.95,5.21,5.21,0,0,1,1-.85,6.17,6.17,0,0,1,1.4-.61,5.7,5.7,0,0,1,1.69-.24,7.08,7.08,0,0,1,3.12.59,4.57,4.57,0,0,1,1.85,1.65,6.71,6.71,0,0,1,.9,2.48,18.6,18.6,0,0,1,.24,3.08v9.09h-5.09V335.6c0-.47,0-1,0-1.47a4.84,4.84,0,0,0-.31-1.41,2.42,2.42,0,0,0-.78-1.05,2.36,2.36,0,0,0-1.51-.41,3.23,3.23,0,0,0-1.59.35,2.38,2.38,0,0,0-.93,1,3.78,3.78,0,0,0-.43,1.33,11.3,11.3,0,0,0-.1,1.57v8.2h-5.09Z"/><path class="cls-2" d="M952.82,331.26h-4.48v5.49a11.4,11.4,0,0,0,.07,1.24,2.52,2.52,0,0,0,.31,1,1.52,1.52,0,0,0,.73.63,3.31,3.31,0,0,0,1.3.22,8.32,8.32,0,0,0,1.07-.09,1.73,1.73,0,0,0,1-.39v4.24a7.4,7.4,0,0,1-1.76.41,15.76,15.76,0,0,1-1.8.1,9.91,9.91,0,0,1-2.38-.27,5.42,5.42,0,0,1-1.9-.87,4.08,4.08,0,0,1-1.27-1.54,5.33,5.33,0,0,1-.46-2.3v-7.84H940v-4.07h3.25V322.3h5.09v4.89h4.48Z"/><path class="cls-2" d="M763.47,372.34a4.8,4.8,0,0,0-1.34-1.14,3.91,3.91,0,0,0-2-.46,3.77,3.77,0,0,0-1.88.46,1.47,1.47,0,0,0-.8,1.34,1.53,1.53,0,0,0,.46,1.16,3.56,3.56,0,0,0,1.08.71,6.52,6.52,0,0,0,1.34.41l1.22.23a13.38,13.38,0,0,1,1.85.58,5.25,5.25,0,0,1,1.5.88,3.93,3.93,0,0,1,1,1.32,5.07,5.07,0,0,1-.22,4.23,5,5,0,0,1-1.49,1.58,6.43,6.43,0,0,1-2.09.88,10.48,10.48,0,0,1-2.36.27,9.48,9.48,0,0,1-3.51-.61,6.34,6.34,0,0,1-2.7-2.24l2.31-1.9a9.26,9.26,0,0,0,1.66,1.32,4.08,4.08,0,0,0,2.24.58,5.81,5.81,0,0,0,1.17-.12,3.51,3.51,0,0,0,1-.37,2.27,2.27,0,0,0,.75-.65,1.49,1.49,0,0,0,.29-.9,1.54,1.54,0,0,0-.43-1.12,3.12,3.12,0,0,0-1-.69,7.43,7.43,0,0,0-1.26-.41l-1.17-.25a18.5,18.5,0,0,1-1.86-.55,5.49,5.49,0,0,1-1.56-.81,3.69,3.69,0,0,1-1.09-1.29,4.14,4.14,0,0,1-.41-1.93,4.38,4.38,0,0,1,.53-2.19,4.57,4.57,0,0,1,1.39-1.54,6.15,6.15,0,0,1,2-.92,8.37,8.37,0,0,1,2.22-.3,8.14,8.14,0,0,1,3.12.61,4.87,4.87,0,0,1,2.37,2Z"/><path class="cls-2" d="M778.6,371h-4.38v7.29c0,.45,0,.9,0,1.34a3.4,3.4,0,0,0,.25,1.19,2,2,0,0,0,.68.85,2.34,2.34,0,0,0,1.34.32,7.39,7.39,0,0,0,1.12-.1,3.14,3.14,0,0,0,1.05-.38v2.79a4.06,4.06,0,0,1-1.41.42,10.31,10.31,0,0,1-1.34.12,6.29,6.29,0,0,1-2.73-.49A3.35,3.35,0,0,1,771.8,383a4.18,4.18,0,0,1-.55-1.75c0-.65-.08-1.3-.08-1.95V371h-3.53V368.3h3.53v-4.51h3.05v4.51h4.38Z"/><path class="cls-2" d="M782.6,370.27a8.47,8.47,0,0,1,3-1.78,10.09,10.09,0,0,1,3.39-.59,9.1,9.1,0,0,1,3,.44,5.92,5.92,0,0,1,2.09,1.18,4.86,4.86,0,0,1,1.21,1.72,5.49,5.49,0,0,1,.38,2v8.2c0,.57,0,1.09,0,1.57s.06.92.1,1.35h-2.71c-.07-.81-.1-1.63-.1-2.44H793a5.83,5.83,0,0,1-2.41,2.2,7.59,7.59,0,0,1-3.22.65,7.19,7.19,0,0,1-2.14-.31,5.26,5.26,0,0,1-1.78-.91,4.47,4.47,0,0,1-1.21-1.51,4.76,4.76,0,0,1-.44-2.09,4.58,4.58,0,0,1,.7-2.61,5.17,5.17,0,0,1,1.9-1.71,9.11,9.11,0,0,1,2.81-.95,19,19,0,0,1,3.45-.29h2.24v-.68a3.39,3.39,0,0,0-1-2.32,3.42,3.42,0,0,0-1.19-.78,4.39,4.39,0,0,0-1.7-.29,5.9,5.9,0,0,0-1.54.17,6.88,6.88,0,0,0-1.21.42,5,5,0,0,0-1,.6l-.85.64Zm8.62,6.38a20.92,20.92,0,0,0-2.22.12,9,9,0,0,0-2.07.45,4,4,0,0,0-1.53.95,2.13,2.13,0,0,0-.59,1.56,2.23,2.23,0,0,0,.93,2,4.62,4.62,0,0,0,2.53.61,4.93,4.93,0,0,0,2.13-.43,4,4,0,0,0,1.43-1.1,4.35,4.35,0,0,0,.78-1.51,5.88,5.88,0,0,0,.24-1.65v-1Z"/><path class="cls-2" d="M808.75,371h-4.37v7.29c0,.45,0,.9,0,1.34a3.64,3.64,0,0,0,.26,1.19,1.89,1.89,0,0,0,.68.85,2.34,2.34,0,0,0,1.34.32,7.39,7.39,0,0,0,1.12-.1,3.14,3.14,0,0,0,1.05-.38v2.79a4.13,4.13,0,0,1-1.41.42,10.46,10.46,0,0,1-1.34.12,6.23,6.23,0,0,1-2.73-.49A3.38,3.38,0,0,1,802,383a4.32,4.32,0,0,1-.54-1.75c-.06-.65-.08-1.3-.08-1.95V371H797.8V368.3h3.53v-4.51h3v4.51h4.37Z"/><path class="cls-2" d="M821.24,372.34a4.8,4.8,0,0,0-1.34-1.14,3.91,3.91,0,0,0-1.95-.46,3.81,3.81,0,0,0-1.89.46,1.46,1.46,0,0,0-.79,1.34,1.53,1.53,0,0,0,.46,1.16,3.56,3.56,0,0,0,1.08.71,6.52,6.52,0,0,0,1.34.41l1.22.23a13.82,13.82,0,0,1,1.85.58,5.2,5.2,0,0,1,1.49.88,3.83,3.83,0,0,1,1,1.32,4.74,4.74,0,0,1,.35,1.9,4.52,4.52,0,0,1-.57,2.33,5,5,0,0,1-1.5,1.58,6.37,6.37,0,0,1-2.08.88,10.48,10.48,0,0,1-2.36.27,9.48,9.48,0,0,1-3.51-.61,6.29,6.29,0,0,1-2.7-2.24l2.31-1.9a9.26,9.26,0,0,0,1.66,1.32,4.08,4.08,0,0,0,2.24.58,6,6,0,0,0,1.17-.12,3.51,3.51,0,0,0,1-.37,2.27,2.27,0,0,0,.75-.65,1.49,1.49,0,0,0,.29-.9,1.54,1.54,0,0,0-.43-1.12,3.06,3.06,0,0,0-1-.69,7,7,0,0,0-1.25-.41l-1.17-.25a18.71,18.71,0,0,1-1.87-.55,5.77,5.77,0,0,1-1.56-.81,3.77,3.77,0,0,1-1.08-1.29,4.14,4.14,0,0,1-.41-1.93,4.38,4.38,0,0,1,.53-2.19,4.57,4.57,0,0,1,1.39-1.54,6.06,6.06,0,0,1,2-.92,8.37,8.37,0,0,1,2.22-.3,8.14,8.14,0,0,1,3.12.61,4.91,4.91,0,0,1,2.37,2Z"/><path class="cls-2" d="M832.57,377.66V375.6a7.26,7.26,0,0,1,.13-1.53,4,4,0,0,1,1.14-2.05c.31-.31.68-.68,1.14-1.11l1.08-1a11.2,11.2,0,0,0,1-1.09,5.74,5.74,0,0,0,.72-1.18,3.23,3.23,0,0,0,.29-1.41,3.43,3.43,0,0,0-.29-1.44,3.61,3.61,0,0,0-.76-1.14,3.48,3.48,0,0,0-1.14-.75,3.67,3.67,0,0,0-1.4-.27,3.62,3.62,0,0,0-2.7,1,4.62,4.62,0,0,0-1.24,2.75l-3.46-.34a7.22,7.22,0,0,1,2.46-4.63,7.57,7.57,0,0,1,5-1.68,8.29,8.29,0,0,1,2.66.43,6.4,6.4,0,0,1,2.15,1.22,5.62,5.62,0,0,1,1.44,2,6.41,6.41,0,0,1,.53,2.66,6.49,6.49,0,0,1-.37,2.26,6.81,6.81,0,0,1-1.06,1.81l-2,2.1-.34.31c-.36.34-.65.63-.86.86a2.93,2.93,0,0,0-.51.75,3,3,0,0,0-.26.86,9.64,9.64,0,0,0-.07,1.19v1.49Zm-.65,4.69a2.24,2.24,0,0,1,4.48,0,2.14,2.14,0,0,1-.66,1.57,2.22,2.22,0,0,1-3.16,0A2.14,2.14,0,0,1,831.92,382.35Z"/><path class="cls-1" d="M799.3,612h8.45a9.89,9.89,0,0,1,3.8.63,6.48,6.48,0,0,1,2.35,1.59,5.47,5.47,0,0,1,1.21,2.18,8.74,8.74,0,0,1,.34,2.32,6.26,6.26,0,0,1-1.58,4.15,6.49,6.49,0,0,1-1.87,1.46,6.36,6.36,0,0,1-2.46.73l6.82,11h-4.07l-6.1-10.58h-3.63V636H799.3Zm3.26,10.59h4.27a10.76,10.76,0,0,0,1.88-.16,4.84,4.84,0,0,0,1.67-.56,3.13,3.13,0,0,0,1.17-1.17,4,4,0,0,0,.44-2,4,4,0,0,0-.44-2,3.28,3.28,0,0,0-1.17-1.17,5.3,5.3,0,0,0-1.67-.56,11.82,11.82,0,0,0-1.88-.15h-4.27Z"/><path class="cls-1" d="M821.55,629.09A4.12,4.12,0,0,0,822,631a5,5,0,0,0,1.2,1.47,5.43,5.43,0,0,0,1.74.95,6.05,6.05,0,0,0,2,.34,4.57,4.57,0,0,0,2.48-.66,7.88,7.88,0,0,0,1.93-1.75l2.31,1.77a8.51,8.51,0,0,1-7.13,3.29,8.86,8.86,0,0,1-3.44-.65,7.43,7.43,0,0,1-2.61-1.78,8,8,0,0,1-1.65-2.68,9.56,9.56,0,0,1-.57-3.34,8.94,8.94,0,0,1,.62-3.34,8.41,8.41,0,0,1,1.73-2.68,8,8,0,0,1,2.63-1.78,8.49,8.49,0,0,1,3.33-.65,7.9,7.9,0,0,1,3.61.75,7.32,7.32,0,0,1,2.43,2,7.71,7.71,0,0,1,1.37,2.71,11.42,11.42,0,0,1,.42,3.07v1.09Zm9.64-2.44a6.47,6.47,0,0,0-.33-1.87,4,4,0,0,0-2.3-2.46,5.25,5.25,0,0,0-2-.35,5,5,0,0,0-3.63,1.52,5.16,5.16,0,0,0-1,1.51,4.13,4.13,0,0,0-.36,1.65Z"/><path class="cls-1" d="M854.22,636h-3.05V633.7h-.07a5.79,5.79,0,0,1-2.43,2,7.41,7.41,0,0,1-3.17.72,8.47,8.47,0,0,1-3.37-.65,7.41,7.41,0,0,1-2.58-1.8,8.15,8.15,0,0,1-1.65-2.68,9.37,9.37,0,0,1-.57-3.32,9.56,9.56,0,0,1,.57-3.34,8,8,0,0,1,1.65-2.68,7.49,7.49,0,0,1,2.58-1.78,8.47,8.47,0,0,1,3.37-.65,7.55,7.55,0,0,1,3.26.73,5.55,5.55,0,0,1,2.34,2h.07V610.36h3.05Zm-8.35-2.44a5.41,5.41,0,0,0,2.21-.43,4.71,4.71,0,0,0,1.66-1.15,5.15,5.15,0,0,0,1-1.76,6.91,6.91,0,0,0,0-4.52,5.15,5.15,0,0,0-1-1.76,4.71,4.71,0,0,0-1.66-1.15,5.87,5.87,0,0,0-4.41,0A4.71,4.71,0,0,0,842,624a5.15,5.15,0,0,0-1,1.76,6.91,6.91,0,0,0,0,4.52,5.15,5.15,0,0,0,1,1.76,4.71,4.71,0,0,0,1.66,1.15A5.4,5.4,0,0,0,845.87,633.57Z"/><path class="cls-1" d="M873.08,636H870v-2.48H870a4.52,4.52,0,0,1-2,2.09,6.65,6.65,0,0,1-3.29.8,6.87,6.87,0,0,1-2.24-.36,5,5,0,0,1-1.85-1.1,5.28,5.28,0,0,1-1.27-1.92,7.25,7.25,0,0,1-.48-2.76V619.93h3.06v9.5a5.53,5.53,0,0,0,.3,1.92,3.49,3.49,0,0,0,.82,1.28,3,3,0,0,0,1.17.72,4.47,4.47,0,0,0,1.37.22,4.83,4.83,0,0,0,1.76-.31,3.54,3.54,0,0,0,1.43-1,4.6,4.6,0,0,0,1-1.67,7.87,7.87,0,0,0,.34-2.41v-8.28h3.05Z"/><path class="cls-1" d="M889.19,624.2a6.61,6.61,0,0,0-1.78-1.34,5.05,5.05,0,0,0-2.22-.45,5,5,0,0,0-2.19.45,4.57,4.57,0,0,0-1.56,1.26,5.69,5.69,0,0,0-1,1.83,7.38,7.38,0,0,0-.32,2.16,6,6,0,0,0,.37,2.12,5.36,5.36,0,0,0,1.05,1.74,4.88,4.88,0,0,0,1.63,1.17,5.11,5.11,0,0,0,2.14.43,5,5,0,0,0,2.21-.46,5.68,5.68,0,0,0,1.69-1.34l2.17,2.17a6.8,6.8,0,0,1-2.76,1.9,9.77,9.77,0,0,1-3.34.58,9.32,9.32,0,0,1-3.41-.61,7.92,7.92,0,0,1-2.67-1.72,7.62,7.62,0,0,1-1.73-2.64,9.36,9.36,0,0,1-.61-3.41,9.47,9.47,0,0,1,.61-3.43,7.86,7.86,0,0,1,1.72-2.68,7.64,7.64,0,0,1,2.64-1.74,9.06,9.06,0,0,1,3.45-.63,9.17,9.17,0,0,1,3.37.63,7.26,7.26,0,0,1,2.8,1.91Z"/><path class="cls-1" d="M896.35,629.09a4,4,0,0,0,.46,1.92,4.88,4.88,0,0,0,1.2,1.47,5.48,5.48,0,0,0,1.73.95,6.15,6.15,0,0,0,2,.34,4.54,4.54,0,0,0,2.47-.66,7.74,7.74,0,0,0,1.94-1.75l2.3,1.77a8.49,8.49,0,0,1-7.12,3.29,8.82,8.82,0,0,1-3.44-.65,7.43,7.43,0,0,1-2.61-1.78,7.89,7.89,0,0,1-1.65-2.68,9.56,9.56,0,0,1-.58-3.34,8.75,8.75,0,0,1,.63-3.34,8.41,8.41,0,0,1,1.73-2.68,7.89,7.89,0,0,1,2.63-1.78,8.49,8.49,0,0,1,3.33-.65,7.93,7.93,0,0,1,3.61.75,7.19,7.19,0,0,1,2.42,2,7.73,7.73,0,0,1,1.38,2.71,11.42,11.42,0,0,1,.42,3.07v1.09Zm9.63-2.44a6.47,6.47,0,0,0-.32-1.87,4,4,0,0,0-2.3-2.46,5.25,5.25,0,0,0-2-.35,5,5,0,0,0-3.63,1.52,5,5,0,0,0-1,1.51,4.13,4.13,0,0,0-.36,1.65Z"/><path class="cls-1" d="M929,636H926V633.7h-.06a5.79,5.79,0,0,1-2.43,2,7.41,7.41,0,0,1-3.17.72,8.56,8.56,0,0,1-3.38-.65,7.46,7.46,0,0,1-2.57-1.8,8,8,0,0,1-1.65-2.68,9.37,9.37,0,0,1-.58-3.32,9.56,9.56,0,0,1,.58-3.34,7.89,7.89,0,0,1,1.65-2.68,7.55,7.55,0,0,1,2.57-1.78,8.56,8.56,0,0,1,3.38-.65,7.58,7.58,0,0,1,3.26.73,5.67,5.67,0,0,1,2.34,2H926V610.36H929Zm-8.35-2.44a5.41,5.41,0,0,0,2.21-.43,4.8,4.8,0,0,0,1.66-1.15,5.15,5.15,0,0,0,1.05-1.76,7.09,7.09,0,0,0,0-4.52,5.15,5.15,0,0,0-1.05-1.76,4.8,4.8,0,0,0-1.66-1.15,5.87,5.87,0,0,0-4.41,0,4.71,4.71,0,0,0-1.66,1.15,5,5,0,0,0-1.06,1.76,7.09,7.09,0,0,0,0,4.52,5,5,0,0,0,1.06,1.76,4.71,4.71,0,0,0,1.66,1.15A5.37,5.37,0,0,0,920.67,633.57Z"/><path class="cls-1" d="M797.37,664.71a13.65,13.65,0,0,1,1-5.23,11.5,11.5,0,0,1,2.7-4,11.85,11.85,0,0,1,4.1-2.53,15.77,15.77,0,0,1,10.39,0,11.85,11.85,0,0,1,4.1,2.53,11.5,11.5,0,0,1,2.7,4,14.7,14.7,0,0,1,0,10.45,11.64,11.64,0,0,1-2.7,4,11.82,11.82,0,0,1-4.1,2.52,15.61,15.61,0,0,1-10.39,0,11.82,11.82,0,0,1-4.1-2.52,11.64,11.64,0,0,1-2.7-4A13.63,13.63,0,0,1,797.37,664.71Zm5.49,0a8.81,8.81,0,0,0,.53,3.1,7,7,0,0,0,1.51,2.44,6.79,6.79,0,0,0,2.35,1.61,8.44,8.44,0,0,0,6.15,0,6.79,6.79,0,0,0,2.35-1.61,7,7,0,0,0,1.51-2.44,9.3,9.3,0,0,0,0-6.19,7,7,0,0,0-1.51-2.46,6.79,6.79,0,0,0-2.35-1.61,8.44,8.44,0,0,0-6.15,0,6.79,6.79,0,0,0-2.35,1.61,7,7,0,0,0-1.51,2.46A8.87,8.87,0,0,0,802.86,664.71Z"/><path class="cls-1" d="M830.68,667.9l-5.5-7.67h6l2.91,4.48,2.82-4.48h5.66l-5.36,7.67,6.35,8.82h-6l-3.59-5.5-3.87,5.5h-5.94Z"/><path class="cls-1" d="M845.57,651.07h5.09V662h.07a4.75,4.75,0,0,1,2.25-1.68,9,9,0,0,1,3-.49,6.71,6.71,0,0,1,3.15.73,7.32,7.32,0,0,1,2.36,2,9.06,9.06,0,0,1,1.49,2.8,10.11,10.11,0,0,1,.53,3.31,9.67,9.67,0,0,1-.58,3.42,7.86,7.86,0,0,1-1.64,2.7,7.28,7.28,0,0,1-2.56,1.76,8.52,8.52,0,0,1-3.33.63,5.94,5.94,0,0,1-1.66-.23,7.19,7.19,0,0,1-1.44-.62,5.3,5.3,0,0,1-1.15-.83,5,5,0,0,1-.8-.9h-.07v2.18h-4.68Zm4.68,17.4a4.27,4.27,0,0,0,1.07,3,4.46,4.46,0,0,0,6,0,4.8,4.8,0,0,0,0-6,4.49,4.49,0,0,0-6,0A4.29,4.29,0,0,0,850.25,668.47Z"/><path class="cls-1" d="M866.47,660.23h5.08v2.65h.07a6.12,6.12,0,0,1,1.94-2.29,4.85,4.85,0,0,1,2.81-.77,8.64,8.64,0,0,1,.88,0,4,4,0,0,1,.82.13v4.65a9.22,9.22,0,0,0-1.07-.26,7.8,7.8,0,0,0-1.1-.08,5.4,5.4,0,0,0-2.31.41,3.09,3.09,0,0,0-1.31,1.13,4.42,4.42,0,0,0-.59,1.75,17.13,17.13,0,0,0-.14,2.24v6.89h-5.08Z"/><path class="cls-1" d="M879.93,655a3,3,0,1,1,.87,2.09A2.86,2.86,0,0,1,879.93,655Zm.41,5.19h5.09v16.49h-5.09Z"/><path class="cls-1" d="M906.39,676.72h-4.68v-2.18h-.07a5,5,0,0,1-.8.9,5.3,5.3,0,0,1-1.15.83,7.12,7.12,0,0,1-1.46.62,6,6,0,0,1-1.64.23,8.52,8.52,0,0,1-3.33-.63,7.28,7.28,0,0,1-2.56-1.76,7.86,7.86,0,0,1-1.64-2.7,9.67,9.67,0,0,1-.58-3.42,10.39,10.39,0,0,1,.53-3.31,9.06,9.06,0,0,1,1.49-2.8,7.32,7.32,0,0,1,2.36-2,6.71,6.71,0,0,1,3.15-.73,9,9,0,0,1,3,.49,4.7,4.7,0,0,1,2.25,1.68h.07V651.07h5.09Zm-4.68-8.25a4.29,4.29,0,0,0-1.07-3,4.49,4.49,0,0,0-6,0,4.8,4.8,0,0,0,0,6,4.46,4.46,0,0,0,6,0A4.27,4.27,0,0,0,901.71,668.47Z"/><path class="cls-1" d="M927.76,675.32c0,3.13-.78,5.49-2.36,7.11s-4,2.43-7.17,2.43a19.14,19.14,0,0,1-4.34-.5,9.7,9.7,0,0,1-3.94-1.91l2.82-4.21a10.34,10.34,0,0,0,2.49,1.56,6.94,6.94,0,0,0,2.87.58,4.59,4.59,0,0,0,3.44-1.14,4,4,0,0,0,1.1-2.9v-1.59h-.06a4.84,4.84,0,0,1-2.19,1.68,7.17,7.17,0,0,1-2.46.49,8.52,8.52,0,0,1-3.33-.63,7.51,7.51,0,0,1-2.56-1.76,7.86,7.86,0,0,1-1.64-2.7,9.68,9.68,0,0,1-.58-3.43,9.91,9.91,0,0,1,.53-3.18,8.59,8.59,0,0,1,1.49-2.75,7.5,7.5,0,0,1,2.36-1.92,6.74,6.74,0,0,1,3.15-.73,7.75,7.75,0,0,1,2,.24,8,8,0,0,1,1.61.61,6.35,6.35,0,0,1,1.22.83,5.38,5.38,0,0,1,.81.9h.07v-2.17h4.68Zm-12.82-7a4,4,0,0,0,.3,1.54,4.08,4.08,0,0,0,.87,1.29,4.16,4.16,0,0,0,1.29.9,3.93,3.93,0,0,0,3.2,0,4.14,4.14,0,0,0,1.31-.9,4.08,4.08,0,0,0,.87-1.29,4.1,4.1,0,0,0,0-3.08,4.08,4.08,0,0,0-.87-1.29,4.31,4.31,0,0,0-1.31-.9,3.93,3.93,0,0,0-3.2,0,4.34,4.34,0,0,0-1.29.9,4.08,4.08,0,0,0-.87,1.29A4,4,0,0,0,914.94,668.37Z"/><path class="cls-1" d="M947.44,673.87a8.13,8.13,0,0,1-3.09,2.4,9.16,9.16,0,0,1-3.87.85,10.36,10.36,0,0,1-3.58-.61,8.52,8.52,0,0,1-2.91-1.74,8.06,8.06,0,0,1-2-2.74,9.16,9.16,0,0,1,0-7.12,8.12,8.12,0,0,1,2-2.73,8.54,8.54,0,0,1,2.91-1.75,10.6,10.6,0,0,1,3.58-.61,8.27,8.27,0,0,1,3.21.61,6.71,6.71,0,0,1,2.44,1.75,7.92,7.92,0,0,1,1.54,2.73,10.77,10.77,0,0,1,.55,3.56v1.6H936.41a4.11,4.11,0,0,0,1.32,2.32,3.74,3.74,0,0,0,2.51.87,3.82,3.82,0,0,0,2.12-.56,5.77,5.77,0,0,0,1.51-1.45Zm-4.31-7.26a3,3,0,0,0-.85-2.21,3,3,0,0,0-2.27-.91,3.86,3.86,0,0,0-1.5.27,3.81,3.81,0,0,0-1.1.69,3.22,3.22,0,0,0-1,2.16Z"/><path class="cls-1" d="M807.07,705.38a4.8,4.8,0,0,0-1.34-1.14,3.91,3.91,0,0,0-2-.45,3.74,3.74,0,0,0-1.88.45,1.46,1.46,0,0,0-.8,1.34,1.53,1.53,0,0,0,.46,1.16,3.56,3.56,0,0,0,1.08.71,6.52,6.52,0,0,0,1.34.41l1.22.23a13.82,13.82,0,0,1,1.85.58,5.06,5.06,0,0,1,1.49.88,3.86,3.86,0,0,1,1,1.33,5.15,5.15,0,0,1-.22,4.22,4.93,4.93,0,0,1-1.5,1.58,6.37,6.37,0,0,1-2.08.88,10.48,10.48,0,0,1-2.36.27,9.28,9.28,0,0,1-3.51-.61,6.29,6.29,0,0,1-2.7-2.24l2.31-1.9a9.26,9.26,0,0,0,1.66,1.32,4.08,4.08,0,0,0,2.24.58,5.81,5.81,0,0,0,1.17-.12,3.51,3.51,0,0,0,1.05-.37,2.27,2.27,0,0,0,.75-.65,1.6,1.6,0,0,0-.14-2,3,3,0,0,0-1-.7,7.43,7.43,0,0,0-1.26-.41l-1.17-.25c-.66-.16-1.28-.34-1.87-.54a6.09,6.09,0,0,1-1.56-.82,3.77,3.77,0,0,1-1.08-1.29,4.14,4.14,0,0,1-.41-1.93,4.38,4.38,0,0,1,.53-2.19,4.66,4.66,0,0,1,1.39-1.54,6.06,6.06,0,0,1,2-.92,8.37,8.37,0,0,1,2.22-.3,8.14,8.14,0,0,1,3.12.61,4.91,4.91,0,0,1,2.37,2Z"/><path class="cls-1" d="M827.83,717.42h-3.05V715h-.07a4.5,4.5,0,0,1-2,2.08,6.65,6.65,0,0,1-3.29.8,6.83,6.83,0,0,1-2.24-.36,4.9,4.9,0,0,1-1.85-1.1,5.28,5.28,0,0,1-1.27-1.92,7.25,7.25,0,0,1-.48-2.76V701.34h3v9.5a5.44,5.44,0,0,0,.31,1.92,3.47,3.47,0,0,0,.81,1.29,3.07,3.07,0,0,0,1.17.71,4.24,4.24,0,0,0,1.38.22,4.83,4.83,0,0,0,1.76-.31,3.69,3.69,0,0,0,1.43-1,4.7,4.7,0,0,0,1-1.68,7.82,7.82,0,0,0,.34-2.41v-8.28h3.05Z"/><path class="cls-1" d="M843.94,705.62a6.22,6.22,0,0,0-1.78-1.34,4.91,4.91,0,0,0-2.22-.46,4.84,4.84,0,0,0-2.19.46,4.43,4.43,0,0,0-1.56,1.25,5.79,5.79,0,0,0-1,1.83,7.38,7.38,0,0,0-.32,2.16,6,6,0,0,0,.37,2.12,5.41,5.41,0,0,0,1.05,1.75,5.07,5.07,0,0,0,1.63,1.17,5.24,5.24,0,0,0,2.14.42,4.8,4.8,0,0,0,2.2-.46,5.56,5.56,0,0,0,1.7-1.34l2.17,2.17a6.8,6.8,0,0,1-2.76,1.9,9.59,9.59,0,0,1-3.35.58,9.06,9.06,0,0,1-3.4-.61,8,8,0,0,1-2.67-1.71,7.76,7.76,0,0,1-1.73-2.65,9.86,9.86,0,0,1,0-6.83,7.64,7.64,0,0,1,4.36-4.43,9,9,0,0,1,3.44-.63,9.18,9.18,0,0,1,3.38.63,7.44,7.44,0,0,1,2.8,1.91Z"/><path class="cls-1" d="M860.29,705.62a6.22,6.22,0,0,0-1.78-1.34,4.91,4.91,0,0,0-2.22-.46,4.84,4.84,0,0,0-2.19.46,4.43,4.43,0,0,0-1.56,1.25,5.79,5.79,0,0,0-.95,1.83,7.38,7.38,0,0,0-.32,2.16,6,6,0,0,0,.37,2.12,5.41,5.41,0,0,0,1.05,1.75,5.18,5.18,0,0,0,1.63,1.17,5.24,5.24,0,0,0,2.14.42,4.8,4.8,0,0,0,2.2-.46,5.56,5.56,0,0,0,1.7-1.34l2.17,2.17a6.8,6.8,0,0,1-2.76,1.9,9.59,9.59,0,0,1-3.35.58,9.06,9.06,0,0,1-3.4-.61,8,8,0,0,1-2.67-1.71,7.76,7.76,0,0,1-1.73-2.65,9.86,9.86,0,0,1,0-6.83A7.64,7.64,0,0,1,853,701.6a9,9,0,0,1,3.44-.63,9.18,9.18,0,0,1,3.38.63,7.44,7.44,0,0,1,2.8,1.91Z"/><path class="cls-1" d="M867.45,710.5a4,4,0,0,0,.46,1.92,4.52,4.52,0,0,0,1.2,1.47,5.48,5.48,0,0,0,1.73,1,6.15,6.15,0,0,0,2,.34,4.54,4.54,0,0,0,2.47-.66,8.08,8.08,0,0,0,1.94-1.74l2.3,1.76a8.49,8.49,0,0,1-7.12,3.29,9,9,0,0,1-3.44-.64,7.58,7.58,0,0,1-2.62-1.79,7.77,7.77,0,0,1-1.64-2.68,9.3,9.3,0,0,1-.58-3.34,8.75,8.75,0,0,1,.63-3.34,8.24,8.24,0,0,1,1.73-2.68,7.79,7.79,0,0,1,2.63-1.78,8.43,8.43,0,0,1,3.32-.64,8.08,8.08,0,0,1,3.62.74,7.19,7.19,0,0,1,2.42,2,8,8,0,0,1,1.38,2.72,11.37,11.37,0,0,1,.42,3.07v1.08Zm9.63-2.44a6.47,6.47,0,0,0-.32-1.87,4.16,4.16,0,0,0-.86-1.47,4.06,4.06,0,0,0-1.45-1,5.39,5.39,0,0,0-2-.35,5,5,0,0,0-2.06.42,5,5,0,0,0-1.57,1.1,5.09,5.09,0,0,0-1,1.51,4.17,4.17,0,0,0-.36,1.65Z"/><path class="cls-1" d="M892.55,705.38a4.8,4.8,0,0,0-1.34-1.14,3.91,3.91,0,0,0-2-.45,3.76,3.76,0,0,0-1.88.45,1.48,1.48,0,0,0-.8,1.34,1.53,1.53,0,0,0,.46,1.16,3.68,3.68,0,0,0,1.08.71,6.52,6.52,0,0,0,1.34.41l1.23.23a13.67,13.67,0,0,1,1.84.58,5.25,5.25,0,0,1,1.5.88,3.84,3.84,0,0,1,1,1.33,5,5,0,0,1-.22,4.22,4.9,4.9,0,0,1-1.49,1.58,6.43,6.43,0,0,1-2.09.88,10.42,10.42,0,0,1-2.36.27,9.28,9.28,0,0,1-3.51-.61,6.32,6.32,0,0,1-2.69-2.24l2.3-1.9a9,9,0,0,0,1.67,1.32,4,4,0,0,0,2.23.58,5.81,5.81,0,0,0,1.17-.12,3.68,3.68,0,0,0,1.06-.37,2.33,2.33,0,0,0,.74-.65,1.49,1.49,0,0,0,.29-.9,1.53,1.53,0,0,0-.42-1.11,3.15,3.15,0,0,0-1-.7,7.43,7.43,0,0,0-1.26-.41l-1.17-.25q-1-.24-1.86-.54a5.77,5.77,0,0,1-1.56-.82,3.69,3.69,0,0,1-1.09-1.29,4.14,4.14,0,0,1-.41-1.93,4.38,4.38,0,0,1,.53-2.19,4.66,4.66,0,0,1,1.39-1.54,6.15,6.15,0,0,1,2-.92,8.37,8.37,0,0,1,2.22-.3,8.07,8.07,0,0,1,3.12.61,4.89,4.89,0,0,1,2.38,2Z"/><path class="cls-1" d="M907.61,705.38a4.8,4.8,0,0,0-1.34-1.14,3.91,3.91,0,0,0-1.95-.45,3.76,3.76,0,0,0-1.88.45,1.48,1.48,0,0,0-.8,1.34,1.53,1.53,0,0,0,.46,1.16,3.73,3.73,0,0,0,1.09.71,6.16,6.16,0,0,0,1.34.41l1.22.23a14.29,14.29,0,0,1,1.85.58,5.33,5.33,0,0,1,1.49.88,3.84,3.84,0,0,1,1,1.33,4.5,4.5,0,0,1,.36,1.9,4.42,4.42,0,0,1-.58,2.32,4.9,4.9,0,0,1-1.49,1.58,6.43,6.43,0,0,1-2.09.88,10.4,10.4,0,0,1-2.35.27,9.3,9.3,0,0,1-3.52-.61,6.32,6.32,0,0,1-2.69-2.24l2.3-1.9a9.33,9.33,0,0,0,1.67,1.32,4.06,4.06,0,0,0,2.24.58,6,6,0,0,0,1.17-.12,3.72,3.72,0,0,0,1-.37,2.33,2.33,0,0,0,.74-.65,1.43,1.43,0,0,0,.29-.9,1.53,1.53,0,0,0-.42-1.11,3.15,3.15,0,0,0-1-.7,7.15,7.15,0,0,0-1.26-.41l-1.17-.25q-1-.24-1.86-.54a5.77,5.77,0,0,1-1.56-.82,3.8,3.8,0,0,1-1.09-1.29,4.15,4.15,0,0,1-.4-1.93,4.38,4.38,0,0,1,.52-2.19,4.78,4.78,0,0,1,1.39-1.54,6.15,6.15,0,0,1,2-.92,8.42,8.42,0,0,1,2.22-.3,8.07,8.07,0,0,1,3.12.61,4.89,4.89,0,0,1,2.38,2Z"/><path class="cls-1" d="M918.94,710.71v-2.07a7.25,7.25,0,0,1,.14-1.53,4.1,4.1,0,0,1,.4-1.1,4.55,4.55,0,0,1,.73-1c.31-.31.69-.67,1.14-1.1l1.09-1a10.87,10.87,0,0,0,1-1.08,6.14,6.14,0,0,0,.73-1.19,3.38,3.38,0,0,0,.29-1.41,3.6,3.6,0,0,0-.29-1.44,3.79,3.79,0,0,0-.76-1.14,3.56,3.56,0,0,0-1.14-.74,3.51,3.51,0,0,0-1.41-.28,3.59,3.59,0,0,0-2.69,1.06,4.45,4.45,0,0,0-1.24,2.74l-3.46-.34a7.13,7.13,0,0,1,2.46-4.63,7.59,7.59,0,0,1,5-1.68,8.2,8.2,0,0,1,2.66.43,6.35,6.35,0,0,1,2.16,1.22,5.62,5.62,0,0,1,1.44,2,6.44,6.44,0,0,1,.52,2.66,6.26,6.26,0,0,1-.37,2.26,6.89,6.89,0,0,1-1.05,1.81l-2,2.1-.34.31c-.36.34-.65.63-.86.86a3.21,3.21,0,0,0-.51.75,2.94,2.94,0,0,0-.25.87,7.78,7.78,0,0,0-.07,1.18v1.5Zm-.64,4.68a2.25,2.25,0,0,1,2.24-2.24,2.14,2.14,0,0,1,1.57.66,2.17,2.17,0,0,1,.67,1.58,2.15,2.15,0,0,1-.67,1.57,2.11,2.11,0,0,1-1.57.67,2.27,2.27,0,0,1-2.24-2.24Z"/><path class="cls-2" d="M201.51,560h3.39l5.31,19.2h.07l5.64-19.2h3.74l5.64,19.2h.07l5.31-19.2h3.39l-7,24h-3.46l-5.81-19.61h-.06L212,584h-3.46Z"/><path class="cls-2" d="M236.41,558.38h3.06v12h.06a4.52,4.52,0,0,1,2-2.08,6.62,6.62,0,0,1,3.29-.8,6.93,6.93,0,0,1,2.22.36,4.86,4.86,0,0,1,1.86,1.1,5.3,5.3,0,0,1,1.28,1.91,7.51,7.51,0,0,1,.47,2.77V584h-3v-9.5a5.22,5.22,0,0,0-.31-1.92,3.47,3.47,0,0,0-.81-1.29,3.07,3.07,0,0,0-1.17-.71,4.24,4.24,0,0,0-1.38-.22,5,5,0,0,0-1.76.3,3.72,3.72,0,0,0-1.42,1,4.42,4.42,0,0,0-.95,1.68,7.53,7.53,0,0,0-.34,2.41V584h-3.06Z"/><path class="cls-2" d="M255.34,569.91a8.62,8.62,0,0,1,3-1.78,10.34,10.34,0,0,1,3.39-.59,9.43,9.43,0,0,1,3,.44,5.83,5.83,0,0,1,2.08,1.19,4.7,4.7,0,0,1,1.21,1.71,5.38,5.38,0,0,1,.39,2v8.21q0,.84,0,1.56c0,.47.06.93.1,1.36h-2.71c-.07-.82-.1-1.63-.1-2.45h-.07a5.86,5.86,0,0,1-2.41,2.21,8.16,8.16,0,0,1-5.36.34,5.28,5.28,0,0,1-1.78-.92,4.32,4.32,0,0,1-1.2-1.51,4.6,4.6,0,0,1-.45-2.09,4.66,4.66,0,0,1,.7-2.61,5.25,5.25,0,0,1,1.9-1.71,9.11,9.11,0,0,1,2.81-.95,19.9,19.9,0,0,1,3.45-.29h2.24v-.68a3.35,3.35,0,0,0-.24-1.22,3.3,3.3,0,0,0-1.9-1.88,4.58,4.58,0,0,0-1.7-.29,6.42,6.42,0,0,0-1.54.17,6.5,6.5,0,0,0-1.2.42,5.11,5.11,0,0,0-1,.6c-.29.23-.57.44-.85.64Zm8.62,6.38a20.92,20.92,0,0,0-2.22.12,8.5,8.5,0,0,0-2.07.46,3.87,3.87,0,0,0-1.53,1,2.14,2.14,0,0,0-.59,1.56,2.21,2.21,0,0,0,.93,2A4.53,4.53,0,0,0,261,582a4.9,4.9,0,0,0,2.13-.42,4,4,0,0,0,1.43-1.11,4.26,4.26,0,0,0,.78-1.51,5.87,5.87,0,0,0,.24-1.64v-1Z"/><path class="cls-2" d="M281.5,570.59h-4.38v7.3c0,.45,0,.89,0,1.34a3.58,3.58,0,0,0,.26,1.18,1.9,1.9,0,0,0,.68.85,2.27,2.27,0,0,0,1.34.32,6.29,6.29,0,0,0,1.12-.1,3.36,3.36,0,0,0,1.05-.37v2.78a4.06,4.06,0,0,1-1.41.42,10.46,10.46,0,0,1-1.34.12,6.08,6.08,0,0,1-2.73-.49,3.44,3.44,0,0,1-1.43-1.27,4.23,4.23,0,0,1-.54-1.75c0-.64-.08-1.29-.08-1.95v-8.38h-3.53V568h3.53v-4.52h3.05V568h4.38Z"/><path class="cls-2" d="M203.85,610.62a8.43,8.43,0,0,1,3-1.78,10.12,10.12,0,0,1,3.4-.6,9.12,9.12,0,0,1,3,.45,5.92,5.92,0,0,1,2.09,1.18,4.71,4.71,0,0,1,1.2,1.72,5.3,5.3,0,0,1,.39,2v8.2c0,.57,0,1.09,0,1.56s.05.93.1,1.36h-2.72c-.06-.81-.1-1.63-.1-2.44h-.07a5.81,5.81,0,0,1-2.4,2.2,7.6,7.6,0,0,1-3.23.65,7.13,7.13,0,0,1-2.13-.31,5.17,5.17,0,0,1-1.78-.91,4.47,4.47,0,0,1-1.21-1.51,4.76,4.76,0,0,1-.44-2.09,4.58,4.58,0,0,1,.7-2.61,5.17,5.17,0,0,1,1.9-1.71,9.11,9.11,0,0,1,2.81-1,18.77,18.77,0,0,1,3.44-.29h2.24v-.68a3.51,3.51,0,0,0-.23-1.22,3.18,3.18,0,0,0-.72-1.1A3.29,3.29,0,0,0,212,611a4.39,4.39,0,0,0-1.7-.29,5.9,5.9,0,0,0-1.54.17,6.6,6.6,0,0,0-1.21.42,5.54,5.54,0,0,0-1,.59l-.85.65Zm8.61,6.38a21.21,21.21,0,0,0-2.22.12,8.61,8.61,0,0,0-2.07.45,4.07,4.07,0,0,0-1.52.95,2.14,2.14,0,0,0-.6,1.56,2.21,2.21,0,0,0,.94,2,4.6,4.6,0,0,0,2.52.61,5,5,0,0,0,2.14-.43,4.08,4.08,0,0,0,1.43-1.1,4.35,4.35,0,0,0,.78-1.51,6.25,6.25,0,0,0,.23-1.65v-1Z"/><path class="cls-2" d="M221.39,599.09h3.05V611h.07a5.55,5.55,0,0,1,2.34-2,7.54,7.54,0,0,1,3.25-.73,8.52,8.52,0,0,1,3.38.65,7.49,7.49,0,0,1,2.58,1.78,7.87,7.87,0,0,1,1.64,2.68,9.34,9.34,0,0,1,.58,3.34,9.25,9.25,0,0,1-.58,3.33,8.17,8.17,0,0,1-1.64,2.68,7.52,7.52,0,0,1-2.58,1.79,8.52,8.52,0,0,1-3.38.65,7.58,7.58,0,0,1-3.17-.71,5.79,5.79,0,0,1-2.42-2h-.07v2.31h-3.05Zm8.34,23.2a5.41,5.41,0,0,0,2.21-.43,4.8,4.8,0,0,0,1.66-1.15,5.06,5.06,0,0,0,1.05-1.76,7.06,7.06,0,0,0,0-4.51,5.2,5.2,0,0,0-1.05-1.77,4.94,4.94,0,0,0-1.66-1.15,5.87,5.87,0,0,0-4.41,0,5,5,0,0,0-1.67,1.15,5.2,5.2,0,0,0-1.05,1.77,7.06,7.06,0,0,0,0,4.51,5.06,5.06,0,0,0,1.05,1.76,4.84,4.84,0,0,0,1.67,1.15A5.37,5.37,0,0,0,229.73,622.29Z"/><path class="cls-2" d="M241.33,616.69a8.23,8.23,0,0,1,.66-3.29,8.54,8.54,0,0,1,1.82-2.68,8.42,8.42,0,0,1,2.71-1.81,8.76,8.76,0,0,1,6.72,0,8.42,8.42,0,0,1,2.71,1.81,8.54,8.54,0,0,1,1.82,2.68,8.23,8.23,0,0,1,.66,3.29,8.33,8.33,0,0,1-2.48,6,8.68,8.68,0,0,1-12.14,0,8.33,8.33,0,0,1-2.48-6Zm3.26,0A6.57,6.57,0,0,0,245,619a5.06,5.06,0,0,0,1,1.76,4.84,4.84,0,0,0,1.67,1.15,5.37,5.37,0,0,0,2.2.43,5.45,5.45,0,0,0,2.21-.43,4.89,4.89,0,0,0,1.66-1.15A5.06,5.06,0,0,0,254.8,619a7.06,7.06,0,0,0,0-4.51,5.2,5.2,0,0,0-1.05-1.77,5,5,0,0,0-1.66-1.15,5.62,5.62,0,0,0-2.21-.43,5.53,5.53,0,0,0-2.2.43,5,5,0,0,0-1.67,1.15,5.2,5.2,0,0,0-1,1.77A6.56,6.56,0,0,0,244.59,616.69Z"/><path class="cls-2" d="M276.51,624.73h-3.05v-2.48h-.07a4.52,4.52,0,0,1-2,2.09,6.65,6.65,0,0,1-3.29.8,6.83,6.83,0,0,1-2.24-.36,5,5,0,0,1-1.85-1.1,5.28,5.28,0,0,1-1.27-1.92,7.25,7.25,0,0,1-.48-2.76V608.65h3.05v9.5a5.44,5.44,0,0,0,.31,1.92,3.61,3.61,0,0,0,.81,1.29,3.2,3.2,0,0,0,1.17.71,4.29,4.29,0,0,0,1.38.22,4.83,4.83,0,0,0,1.76-.31,3.62,3.62,0,0,0,1.43-1,4.7,4.7,0,0,0,.95-1.68,7.82,7.82,0,0,0,.34-2.41v-8.28h3.05Z"/><path class="cls-2" d="M289.74,611.3h-4.38v7.29c0,.45,0,.9,0,1.34a3.4,3.4,0,0,0,.25,1.19,2,2,0,0,0,.68.85,2.34,2.34,0,0,0,1.34.32,7.39,7.39,0,0,0,1.12-.1,3.38,3.38,0,0,0,1-.38v2.79a4.06,4.06,0,0,1-1.41.42,10.31,10.31,0,0,1-1.34.12,6.29,6.29,0,0,1-2.73-.49,3.3,3.3,0,0,1-1.42-1.28,4.09,4.09,0,0,1-.55-1.74c-.05-.65-.08-1.3-.08-2V611.3h-3.53v-2.65h3.53v-4.51h3.05v4.51h4.38Z"/><path class="cls-2" d="M215.79,647.29a3.77,3.77,0,0,0-1.75-1.2,6.26,6.26,0,0,0-2.08-.4,5.51,5.51,0,0,0-1.19.14,4.19,4.19,0,0,0-1.15.43,2.44,2.44,0,0,0-.89.76,2,2,0,0,0-.34,1.15,1.91,1.91,0,0,0,.82,1.66,7.53,7.53,0,0,0,2,1c.83.27,1.71.54,2.66.81a11.34,11.34,0,0,1,2.67,1.15,6.34,6.34,0,0,1,2,2,6.1,6.1,0,0,1,.81,3.36,7.83,7.83,0,0,1-.74,3.49,7.07,7.07,0,0,1-2,2.47,8.41,8.41,0,0,1-2.95,1.46,13.51,13.51,0,0,1-7.89-.23,11,11,0,0,1-3.73-2.31l3.76-4.14a5.62,5.62,0,0,0,2.06,1.68,5.8,5.8,0,0,0,3.86.44,4,4,0,0,0,1.19-.46,2.55,2.55,0,0,0,.85-.78,2,2,0,0,0,.32-1.12,2,2,0,0,0-.83-1.71,7.7,7.7,0,0,0-2.09-1.07c-.83-.29-1.74-.59-2.71-.88a11.79,11.79,0,0,1-2.71-1.19,6.42,6.42,0,0,1-2.09-2,5.69,5.69,0,0,1-.83-3.23,7.18,7.18,0,0,1,.76-3.39,7.32,7.32,0,0,1,2-2.44,8.8,8.8,0,0,1,2.93-1.48,12.31,12.31,0,0,1,3.43-.49,13.26,13.26,0,0,1,3.93.58,9.07,9.07,0,0,1,3.43,1.93Z"/><path class="cls-2" d="M228,646.1h-6.86v-4.68h19v4.68h-6.85v19.34H228Z"/><path class="cls-2" d="M243.06,641.42h16.32v4.89h-11v4.47h10.42v4.89H248.35v4.88H260v4.89H243.06Z"/><path class="cls-2" d="M264.23,641.42h8l5.53,15.67h.07l5.57-15.67h8v24h-5.3V647H286l-6.31,18.42h-4L269.59,647h-.07v18.42h-5.29Z"/><path class="cls-2" d="M301.14,656a4.87,4.87,0,0,1,.27-1.73,3.56,3.56,0,0,1,.91-1.33c.64-.61,1.22-1.14,1.75-1.59s1-.88,1.37-1.27a6.29,6.29,0,0,0,.9-1.12,2,2,0,0,0,.33-1.1,2.25,2.25,0,0,0-.7-1.75,2.51,2.51,0,0,0-1.75-.63,3.19,3.19,0,0,0-2.42.88,3.42,3.42,0,0,0-.94,2.14l-5.22-.34a7.84,7.84,0,0,1,2.65-5.48,8.85,8.85,0,0,1,5.83-1.88,10,10,0,0,1,2.94.42,7.29,7.29,0,0,1,2.42,1.28,5.92,5.92,0,0,1,1.66,2.1,6.48,6.48,0,0,1,.61,2.88,7,7,0,0,1-.2,1.78,5.51,5.51,0,0,1-.7,1.58,8.79,8.79,0,0,1-1.28,1.58,25.29,25.29,0,0,1-2,1.75,3.46,3.46,0,0,0-1.05,1.18,2.6,2.6,0,0,0-.28,1.16v1h-5.08Zm-.58,6.51a3.12,3.12,0,0,1,.24-1.22,2.82,2.82,0,0,1,.66-1,3,3,0,0,1,1-.66,3.22,3.22,0,0,1,2.44,0,3,3,0,0,1,1,.66,3.2,3.2,0,0,1,.66,3.44,3,3,0,0,1-.66,1,2.73,2.73,0,0,1-1,.66,3.22,3.22,0,0,1-2.44,0,3,3,0,0,1-1.66-1.66A3.12,3.12,0,0,1,300.56,662.52Z"/><path class="cls-2" d="M594.73,181.64a5.24,5.24,0,0,0,2.26,2,6.74,6.74,0,0,0,2.83.63,5.72,5.72,0,0,0,1.66-.25,5.11,5.11,0,0,0,1.55-.77,4.1,4.1,0,0,0,1.13-1.25,3.3,3.3,0,0,0,.44-1.73,2.57,2.57,0,0,0-.88-2.12,7.56,7.56,0,0,0-2.18-1.22c-.88-.33-1.83-.65-2.85-.95a11.49,11.49,0,0,1-2.85-1.28,7,7,0,0,1-2.19-2.18,6.83,6.83,0,0,1-.88-3.72,6.3,6.3,0,0,1,1.9-4.41,7.91,7.91,0,0,1,2.52-1.64,9.45,9.45,0,0,1,3.72-.66,13,13,0,0,1,3.76.54,6.53,6.53,0,0,1,3.16,2.2l-2.65,2.41a4.36,4.36,0,0,0-1.73-1.52,5.37,5.37,0,0,0-2.54-.58,6.35,6.35,0,0,0-2.26.35,4.11,4.11,0,0,0-1.44.92,3.16,3.16,0,0,0-.76,1.21,3.58,3.58,0,0,0-.22,1.18,3,3,0,0,0,.88,2.34,6.79,6.79,0,0,0,2.19,1.33,25.86,25.86,0,0,0,2.85.91,12.3,12.3,0,0,1,2.85,1.14,6.62,6.62,0,0,1,2.18,2,5.76,5.76,0,0,1,.89,3.41,7.21,7.21,0,0,1-.67,3.12,7,7,0,0,1-1.78,2.34,8,8,0,0,1-2.64,1.46,10.25,10.25,0,0,1-3.26.5,11.91,11.91,0,0,1-4.38-.81,7.21,7.21,0,0,1-3.29-2.51Z"/><path class="cls-2" d="M626.35,186.66H623.3v-2.47h-.07a4.5,4.5,0,0,1-2,2.08,6.65,6.65,0,0,1-3.29.8,6.87,6.87,0,0,1-2.24-.36,4.9,4.9,0,0,1-1.85-1.1,5.24,5.24,0,0,1-1.27-1.91,7.3,7.3,0,0,1-.48-2.77V170.58h3.06v9.5a5.45,5.45,0,0,0,.3,1.92,3.61,3.61,0,0,0,.81,1.29,3.07,3.07,0,0,0,1.17.71,4.29,4.29,0,0,0,1.38.22,5,5,0,0,0,1.76-.3,3.75,3.75,0,0,0,1.43-1,4.7,4.7,0,0,0,1-1.68,7.82,7.82,0,0,0,.34-2.41v-8.28h3.05Z"/><path class="cls-2" d="M642.46,174.86a6.22,6.22,0,0,0-1.78-1.34,4.91,4.91,0,0,0-2.22-.46,4.84,4.84,0,0,0-2.19.46,4.43,4.43,0,0,0-1.56,1.25,5.84,5.84,0,0,0-1,1.84,7.31,7.31,0,0,0-.32,2.15,6,6,0,0,0,.37,2.12,5.41,5.41,0,0,0,1.05,1.75,5.18,5.18,0,0,0,1.63,1.17,5.24,5.24,0,0,0,2.14.42,4.8,4.8,0,0,0,2.2-.46,5.56,5.56,0,0,0,1.7-1.34l2.17,2.17a6.7,6.7,0,0,1-2.76,1.9,9.54,9.54,0,0,1-3.34.58,9.08,9.08,0,0,1-3.41-.61,8,8,0,0,1-2.67-1.71,7.76,7.76,0,0,1-1.73-2.65,9.32,9.32,0,0,1-.61-3.41,9.45,9.45,0,0,1,.61-3.42,7.77,7.77,0,0,1,1.72-2.68,7.67,7.67,0,0,1,2.64-1.75,9.06,9.06,0,0,1,3.45-.63,9.17,9.17,0,0,1,3.37.63,7.47,7.47,0,0,1,2.8,1.92Z"/><path class="cls-2" d="M658.81,174.86a6.22,6.22,0,0,0-1.78-1.34,4.91,4.91,0,0,0-2.22-.46,4.84,4.84,0,0,0-2.19.46,4.43,4.43,0,0,0-1.56,1.25,5.84,5.84,0,0,0-.95,1.84,7.31,7.31,0,0,0-.32,2.15,6,6,0,0,0,.37,2.12,5.41,5.41,0,0,0,1.05,1.75,5.18,5.18,0,0,0,1.63,1.17,5.27,5.27,0,0,0,2.14.42,4.8,4.8,0,0,0,2.2-.46,5.56,5.56,0,0,0,1.7-1.34l2.17,2.17a6.7,6.7,0,0,1-2.76,1.9,9.54,9.54,0,0,1-3.34.58,9.08,9.08,0,0,1-3.41-.61,8,8,0,0,1-2.67-1.71,7.76,7.76,0,0,1-1.73-2.65,9.32,9.32,0,0,1-.61-3.41,9.45,9.45,0,0,1,.61-3.42,7.77,7.77,0,0,1,1.72-2.68,7.67,7.67,0,0,1,2.64-1.75,9.06,9.06,0,0,1,3.45-.63,9.17,9.17,0,0,1,3.37.63,7.47,7.47,0,0,1,2.8,1.92Z"/><path class="cls-2" d="M666,179.74a4,4,0,0,0,.46,1.92,4.66,4.66,0,0,0,1.2,1.48,5.91,5.91,0,0,0,1.73,1,6.41,6.41,0,0,0,2,.33,4.54,4.54,0,0,0,2.47-.66,8.08,8.08,0,0,0,1.94-1.74l2.3,1.76a8.49,8.49,0,0,1-7.12,3.29,8.82,8.82,0,0,1-3.44-.64,7.56,7.56,0,0,1-2.61-1.78,7.83,7.83,0,0,1-1.65-2.68,9.62,9.62,0,0,1-.58-3.35,8.79,8.79,0,0,1,.63-3.34,8.41,8.41,0,0,1,1.73-2.68,8,8,0,0,1,2.63-1.78,8.47,8.47,0,0,1,3.32-.64,8.08,8.08,0,0,1,3.62.74,7.19,7.19,0,0,1,2.42,2,7.78,7.78,0,0,1,1.38,2.72,11.37,11.37,0,0,1,.42,3.07v1.08Zm9.63-2.44a6.35,6.35,0,0,0-.32-1.86,4.12,4.12,0,0,0-.86-1.48,3.92,3.92,0,0,0-1.45-1,5.15,5.15,0,0,0-2-.36,4.89,4.89,0,0,0-3.63,1.53,4.85,4.85,0,0,0-1,1.51,4.09,4.09,0,0,0-.36,1.64Z"/><path class="cls-2" d="M691.07,174.62a4.8,4.8,0,0,0-1.34-1.14,3.91,3.91,0,0,0-2-.45,3.76,3.76,0,0,0-1.88.45,1.48,1.48,0,0,0-.8,1.34,1.53,1.53,0,0,0,.46,1.16,3.73,3.73,0,0,0,1.09.71,6.16,6.16,0,0,0,1.34.41l1.22.24a14.29,14.29,0,0,1,1.85.57,5.33,5.33,0,0,1,1.49.88,3.93,3.93,0,0,1,1,1.33,4.5,4.5,0,0,1,.36,1.9,4.39,4.39,0,0,1-.58,2.32,4.9,4.9,0,0,1-1.49,1.58,6.43,6.43,0,0,1-2.09.88,10.42,10.42,0,0,1-2.36.27,9.28,9.28,0,0,1-3.51-.61,6.32,6.32,0,0,1-2.69-2.24l2.3-1.9a9.33,9.33,0,0,0,1.67,1.32,4,4,0,0,0,2.23.58,6,6,0,0,0,1.18-.12,3.72,3.72,0,0,0,1.05-.37,2.22,2.22,0,0,0,.74-.65,1.4,1.4,0,0,0,.29-.89,1.54,1.54,0,0,0-.42-1.12,3.15,3.15,0,0,0-1-.7,8.08,8.08,0,0,0-1.26-.41l-1.17-.25q-1-.24-1.86-.54a5.77,5.77,0,0,1-1.56-.82,3.8,3.8,0,0,1-1.09-1.29,4.15,4.15,0,0,1-.4-1.93,4.38,4.38,0,0,1,.52-2.19,4.78,4.78,0,0,1,1.39-1.54,6.37,6.37,0,0,1,2-.92,8.42,8.42,0,0,1,2.22-.3,8.07,8.07,0,0,1,3.12.61,4.89,4.89,0,0,1,2.38,2Z"/><path class="cls-2" d="M706.13,174.62a4.8,4.8,0,0,0-1.34-1.14,3.91,3.91,0,0,0-1.95-.45,3.76,3.76,0,0,0-1.88.45,1.48,1.48,0,0,0-.8,1.34,1.57,1.57,0,0,0,.46,1.16,3.73,3.73,0,0,0,1.09.71,6.16,6.16,0,0,0,1.34.41l1.22.24a14.29,14.29,0,0,1,1.85.57,5.33,5.33,0,0,1,1.49.88,3.81,3.81,0,0,1,1,1.33A4.5,4.5,0,0,1,709,182a4.39,4.39,0,0,1-.58,2.32,4.9,4.9,0,0,1-1.49,1.58,6.43,6.43,0,0,1-2.09.88,10.4,10.4,0,0,1-2.35.27,9.3,9.3,0,0,1-3.52-.61,6.32,6.32,0,0,1-2.69-2.24l2.3-1.9a9.33,9.33,0,0,0,1.67,1.32,4.06,4.06,0,0,0,2.24.58,6,6,0,0,0,1.17-.12,3.72,3.72,0,0,0,1-.37,2.22,2.22,0,0,0,.74-.65,1.4,1.4,0,0,0,.29-.89,1.54,1.54,0,0,0-.42-1.12,3,3,0,0,0-1-.7A8.31,8.31,0,0,0,703,180l-1.17-.25c-.66-.16-1.28-.34-1.87-.54a5.77,5.77,0,0,1-1.56-.82,3.8,3.8,0,0,1-1.09-1.29,4.15,4.15,0,0,1-.4-1.93,4.38,4.38,0,0,1,.52-2.19,4.78,4.78,0,0,1,1.39-1.54,6.48,6.48,0,0,1,2-.92,8.48,8.48,0,0,1,2.22-.3,8.07,8.07,0,0,1,3.12.61,4.89,4.89,0,0,1,2.38,2Z"/><path class="cls-2" d="M713.83,173.23h-3.46v-2.65h3.46V167a7.74,7.74,0,0,1,1.24-4.8c.83-1.05,2.25-1.58,4.26-1.58.34,0,.69,0,1.07,0a6.25,6.25,0,0,1,1.2.2l-.34,2.71a4.73,4.73,0,0,0-.85-.24,6,6,0,0,0-.88-.06,3,3,0,0,0-1.35.25,1.88,1.88,0,0,0-.8.73,3,3,0,0,0-.38,1.14,13.37,13.37,0,0,0-.08,1.51v3.69h3.63v2.65h-3.66v13.43h-3.06Z"/><path class="cls-2" d="M738.19,186.66h-3.05v-2.47h-.07a4.5,4.5,0,0,1-2,2.08,6.65,6.65,0,0,1-3.29.8,6.83,6.83,0,0,1-2.24-.36,4.9,4.9,0,0,1-1.85-1.1,5.24,5.24,0,0,1-1.27-1.91,7.3,7.3,0,0,1-.48-2.77V170.58H727v9.5a5.45,5.45,0,0,0,.3,1.92,3.61,3.61,0,0,0,.81,1.29,3.07,3.07,0,0,0,1.17.71,4.29,4.29,0,0,0,1.38.22,5,5,0,0,0,1.76-.3,3.75,3.75,0,0,0,1.43-1,4.7,4.7,0,0,0,.95-1.68,7.82,7.82,0,0,0,.34-2.41v-8.28h3.05Z"/><path class="cls-2" d="M743,161h3.05v25.64H743Z"/><path class="cls-2" d="M603.08,225.3H603a4.75,4.75,0,0,1-2.26,1.9,7.77,7.77,0,0,1-3,.58,7.57,7.57,0,0,1-2.23-.33,5.58,5.58,0,0,1-1.88-1,4.7,4.7,0,0,1-1.29-1.6,4.92,4.92,0,0,1-.47-2.2,5.08,5.08,0,0,1,.52-2.41,4.68,4.68,0,0,1,1.43-1.63,7.11,7.11,0,0,1,2-1,14.51,14.51,0,0,1,2.39-.52,20.74,20.74,0,0,1,2.48-.21l2.29,0a2.65,2.65,0,0,0-1-2.16,3.48,3.48,0,0,0-2.29-.79,5,5,0,0,0-2.29.52,6.35,6.35,0,0,0-1.85,1.44L593,213.12a9.38,9.38,0,0,1,3.32-2,11.94,11.94,0,0,1,3.94-.66,10.14,10.14,0,0,1,3.68.56,5.38,5.38,0,0,1,2.31,1.64,6.5,6.5,0,0,1,1.2,2.66,17.3,17.3,0,0,1,.34,3.65v8.38h-4.68Zm-1.26-5.16c-.38,0-.86,0-1.44.05a8.23,8.23,0,0,0-1.66.29,3.77,3.77,0,0,0-1.36.72,1.63,1.63,0,0,0-.56,1.32,1.47,1.47,0,0,0,.78,1.36,3.33,3.33,0,0,0,1.63.44,4.92,4.92,0,0,0,1.44-.21,4,4,0,0,0,1.24-.57,2.93,2.93,0,0,0,.87-.95,2.82,2.82,0,0,0,.32-1.36v-1.09Z"/><path class="cls-2" d="M611,201.72h5.08v25.65H611Z"/><path class="cls-2" d="M635.64,227.37h-4.88v-2.24h-.07a5.69,5.69,0,0,1-.69,1,4.64,4.64,0,0,1-1,.85,6.08,6.08,0,0,1-1.39.61,5.77,5.77,0,0,1-1.7.24,7,7,0,0,1-3.13-.6,4.41,4.41,0,0,1-1.87-1.64,6.36,6.36,0,0,1-.88-2.48,19.87,19.87,0,0,1-.22-3.09v-9.09h5.09V219c0,.47,0,1,0,1.47a4.54,4.54,0,0,0,.3,1.41,2.2,2.2,0,0,0,2.29,1.46,3.13,3.13,0,0,0,1.6-.36A2.43,2.43,0,0,0,630,222a3.76,3.76,0,0,0,.42-1.34,11.06,11.06,0,0,0,.1-1.56v-8.21h5.09Z"/><path class="cls-2" d="M639.24,210.88h4.88v2.24h.07a4.56,4.56,0,0,1,.68-1,5,5,0,0,1,1-.85,6.55,6.55,0,0,1,1.39-.61,6.13,6.13,0,0,1,1.7-.23,6.41,6.41,0,0,1,3.07.71,4.54,4.54,0,0,1,2,2.24,5.51,5.51,0,0,1,2.13-2.28,6.48,6.48,0,0,1,3.09-.67,6.21,6.21,0,0,1,2.8.56,4.56,4.56,0,0,1,1.8,1.52,6.69,6.69,0,0,1,1,2.28,13.07,13.07,0,0,1,.28,2.79v9.74h-5.08v-9.6a3.78,3.78,0,0,0-.5-2,1.84,1.84,0,0,0-1.74-.84,3.42,3.42,0,0,0-1.48.29,2.56,2.56,0,0,0-1,.8,3.46,3.46,0,0,0-.51,1.19,6.51,6.51,0,0,0-.15,1.42v8.72h-5.09v-8.72q0-.43,0-1.08a4.07,4.07,0,0,0-.24-1.22,2.31,2.31,0,0,0-.66-1,2,2,0,0,0-1.34-.41,3.07,3.07,0,0,0-1.59.36,2.45,2.45,0,0,0-.94.95,4,4,0,0,0-.42,1.34,11.26,11.26,0,0,0-.1,1.56v8.21h-5.09Z"/><path class="cls-2" d="M668.75,210.88h4.89v2.24h.06a4.56,4.56,0,0,1,.68-1,5.57,5.57,0,0,1,1-.85,6.55,6.55,0,0,1,1.39-.61,6.13,6.13,0,0,1,1.7-.23,6.94,6.94,0,0,1,3.12.59,4.5,4.5,0,0,1,1.85,1.65,6.66,6.66,0,0,1,.9,2.47,18.63,18.63,0,0,1,.24,3.09v9.09h-5.09V219.3c0-.48,0-1,0-1.48a4.84,4.84,0,0,0-.31-1.41,2.2,2.2,0,0,0-2.29-1.46,3.09,3.09,0,0,0-1.59.36,2.45,2.45,0,0,0-.94.95,4,4,0,0,0-.42,1.34,11.26,11.26,0,0,0-.1,1.56v8.21h-5.09Z"/><path class="cls-2" d="M687.88,205.69a3,3,0,1,1,.87,2.09A2.82,2.82,0,0,1,687.88,205.69Zm.41,5.19h5.09v16.49h-5.09Z"/><path class="cls-2" d="M702.57,217.94a4.87,4.87,0,0,1,.27-1.73,3.48,3.48,0,0,1,.92-1.32c.63-.61,1.21-1.15,1.74-1.6a18,18,0,0,0,1.38-1.27,7.35,7.35,0,0,0,.9-1.12,2.12,2.12,0,0,0,.32-1.1,2.22,2.22,0,0,0-.7-1.75,2.48,2.48,0,0,0-1.74-.63,3.18,3.18,0,0,0-2.43.89,3.44,3.44,0,0,0-.93,2.13l-5.22-.34a7.83,7.83,0,0,1,2.64-5.48,8.88,8.88,0,0,1,5.84-1.88,9.66,9.66,0,0,1,2.93.43,7.14,7.14,0,0,1,2.43,1.27,6,6,0,0,1,1.66,2.1,6.64,6.64,0,0,1,.61,2.89,7.07,7.07,0,0,1-.21,1.78,5.27,5.27,0,0,1-.69,1.57,9.34,9.34,0,0,1-1.29,1.58,20.72,20.72,0,0,1-2,1.75,3.46,3.46,0,0,0-1.05,1.18,2.73,2.73,0,0,0-.27,1.16v1h-5.09Zm-.58,6.51a3.16,3.16,0,0,1,.24-1.22,3.11,3.11,0,0,1,.66-1,3.22,3.22,0,0,1,1-.66,3.16,3.16,0,0,1,1.22-.24,3.16,3.16,0,0,1,2.23.9,3.11,3.11,0,0,1,.66,1,3.16,3.16,0,0,1,.24,1.22,3.12,3.12,0,0,1-.24,1.22,3,3,0,0,1-.66,1,3.08,3.08,0,0,1-1,.67,3.4,3.4,0,0,1-1.23.23,3.35,3.35,0,0,1-1.22-.23,3.08,3.08,0,0,1-1-.67,3,3,0,0,1-.66-1A3.12,3.12,0,0,1,702,224.45Z"/><circle class="cls-4" cx="440.25" cy="721.82" r="46.26"/><circle class="cls-6" cx="858.35" cy="139.43" r="46.26"/><circle class="cls-3" cx="569.77" cy="372.47" r="24.23"/><circle class="cls-4" cx="938.97" cy="186.13" r="11.01"/><circle class="cls-5" cx="103.23" cy="683.94" r="11.01"/><circle class="cls-3" cx="513.38" cy="688.78" r="11.01"/></g></svg>