<?xml version="1.0" encoding="utf-8"?>
<!-- Generator: Adobe Illustrator 25.2.0, SVG Export Plug-In . SVG Version: 6.00 Build 0)  -->
<svg version="1.1" id="Layer_1" xmlns="http://www.w3.org/2000/svg" xmlns:xlink="http://www.w3.org/1999/xlink" x="0px" y="0px"
	 viewBox="0 0 255.9 255.9" style="enable-background:new 0 0 255.9 255.9;" xml:space="preserve">
<style type="text/css">
	.st0{fill:#24DB8F;}
</style>
<path class="st0" d="M128,0C57.4,0,0.1,57.3,0.1,127.9c0,39.3,17.7,74.4,45.5,97.9c1.9-4.8,5.2-8.8,9.7-11.8
	c16-10.8,44.2-7.2,62.7-3.7c-13-9.4-22.8-21.9-21.1-33.1c1.7-11.4,14.2-19,37-22.5c11.9-1.8,18.8-5.6,20.5-11.2
	c3-10-10.2-25-15.6-29.9c-1.2-1.1-1.3-3-0.2-4.2c1.1-1.2,3-1.3,4.2-0.2c0.2,0.2,5.5,5,10.2,11.7c6.7,9.4,9.1,17.6,7.1,24.4
	c-2.4,8-11,13.2-25.3,15.4c-19.6,3-30.7,9.1-32,17.5c-1.7,11.4,14.3,26.6,30.8,34.6c1.4,0.7,4.1,2,3.1,4.7c-0.9,2.6-3.7,2.1-5.1,1.8
	c-1.1-0.2-2.7-0.5-4.6-1c-14-3-51.1-11-68.4,0.6c-4,2.7-6.7,6.3-8.1,10.8c1.7,1.3,3.5,2.6,5.2,3.8c0.6-3.9,2.4-7.1,5.4-9.5
	c9.8-7.6,30.5-4.6,50.5-1.7c16.4,2.4,35,5.1,38.6-0.5c2.5-4-8.8-11.4-17.9-17.4c-11.8-7.8-23-15.1-21.5-23.5
	c1.2-6.4,9.3-11,26.2-14.8c17.3-3.9,27.3-10.5,29.9-19.7c4.9-17.8-18.5-40.4-18.7-40.6c-1.2-1.1-1.2-3-0.1-4.2
	c1.1-1.2,3-1.2,4.2-0.1c1.1,1,26.3,25.3,20.4,46.5c-3.2,11.5-14.8,19.6-34.4,24c-18.7,4.2-21.4,8.4-21.7,10
	c-0.8,4.5,10.6,12,18.9,17.4c12.5,8.2,25.3,16.6,19.7,25.6c-5.6,8.9-23.6,6.3-44.5,3.3c-17.9-2.6-38.1-5.6-45.9,0.5
	c-1.9,1.5-3,3.6-3.3,6.3c-0.1,0.7-0.4,1.2-0.8,1.7c19.5,12.1,42.5,19,67.1,19c70.7,0,128-57.3,128-128S198.7,0,128,0z M130.5,98.9
	c-10.4,0-18.9-8.5-18.9-18.9c0-10.4,8.5-18.9,18.9-18.9s18.9,8.5,18.9,18.9C149.4,90.4,140.9,98.9,130.5,98.9z"/>
</svg>
