<?xml version="1.0" encoding="utf-8"?>
<!-- Generator: Adobe Illustrator 25.2.0, SVG Export Plug-In . SVG Version: 6.00 Build 0)  -->
<svg version="1.1" id="Layer_1" xmlns="http://www.w3.org/2000/svg" xmlns:xlink="http://www.w3.org/1999/xlink" x="0px" y="0px"
	 viewBox="0 0 255.9 255.9" style="enable-background:new 0 0 255.9 255.9;" xml:space="preserve">
<style type="text/css">
	.st0{fill:#4D38F4;}
</style>
<path class="st0" d="M128,0C57.4,0,0.1,57.3,0.1,127.9c0,38.5,17,73,43.9,96.4c18.1-6.7,75.9-30.5,89.8-64.9
	c4.7-11.5,3.9-23.2-2.2-34.9c-0.8-1.5-0.2-3.3,1.3-4c1.5-0.8,3.3-0.2,4,1.3c7,13.3,7.8,26.8,2.4,40c-7.4,18.3-26.4,35.7-56.4,51.7
	c-13.2,7-25.7,12.3-33.7,15.3c2.8,2.2,5.7,4.2,8.7,6.2c7.5-3,20.2-8.5,33.8-16.3c19.3-11.1,44.2-29.3,53-52.5
	c5.7-15.1,4.1-30.7-4.8-46.6c-0.8-1.4-0.3-3.3,1.1-4.1c1.4-0.8,3.3-0.3,4.1,1.1c9.9,17.5,11.6,34.9,5.2,51.7
	c-7.6,20-26.4,38.7-55.7,55.6c-11.7,6.7-22.6,11.7-30.3,15c3.2,1.9,6.5,3.6,9.9,5.1c11.7-5,66.4-30.4,81.2-71.6
	c6.6-18.5,4.3-37.9-6.9-57.7c-0.8-1.4-0.3-3.3,1.1-4.1c1.4-0.8,3.3-0.3,4.1,1.1c12.1,21.4,14.5,42.5,7.3,62.7
	c-9.1,25.5-32.3,44.8-50.2,56.6c-11.6,7.6-22.3,13-29.1,16.2c14.4,5.6,30,8.6,46.3,8.6c70.7,0,128-57.3,128-128S198.7,0,128,0z
	 M155.6,97l-35.6,19.9c-6.2,3.4-13.9,1.2-17.4-4.9L82.8,76.3c-3.4-6.2-1.2-13.9,4.9-17.4l35.6-19.9c6.2-3.4,13.9-1.2,17.4,4.9
	l19.9,35.6C164,85.8,161.8,93.5,155.6,97z"/>
</svg>
