<svg xmlns="http://www.w3.org/2000/svg" viewBox="0 0 1200 869.81"><defs><style>.cls-1{fill:#4e41ef;}.cls-2{fill:#efae92;}.cls-3{fill:#351688;}.cls-4{fill:#fff;}.cls-5{fill:#f6c0cf;}.cls-6{fill:#fdc8c5;}</style></defs><g id="bgs"><rect class="cls-1" x="0.39" y="0.32" width="1202.68" height="869.44"/></g><g id="words"><rect class="cls-2" x="650.99" y="371.07" width="363.89" height="219.83" rx="109.92"/><path class="cls-3" d="M523.77,457.63A110.25,110.25,0,0,1,413.85,567.55H325l-33.7,30.06L243.81,640a3.54,3.54,0,0,1-5.89-3l6.1-63.33.86-9c-48.56-11.35-85-55.15-85-107A110.23,110.23,0,0,1,269.79,347.72H413.85C474.31,347.72,523.77,397.18,523.77,457.63Z"/><path class="cls-4" d="M405.61,231.73V334.62a58,58,0,0,0,58,58h150.5l32.47,29L694.08,464a3.55,3.55,0,0,0,5.89-3l-6.1-63.32-.48-5h24.25a58,58,0,0,0,58-58V231.73a58,58,0,0,0-58-58h-254A58,58,0,0,0,405.61,231.73Z"/><path class="cls-3" d="M473.48,229.52h3.4l5.3,19.2h.07l5.65-19.2h3.73l5.65,19.2h.07l5.31-19.2h3.39l-7,24H495.6l-5.8-19.61h-.07L484,253.54h-3.46Z"/><path class="cls-3" d="M507.91,231.69a2.27,2.27,0,0,1,2.24-2.24,2.24,2.24,0,0,1,0,4.48,2.27,2.27,0,0,1-2.24-2.24Zm.72,5.77h3.05v16.08h-3.05Z"/><path class="cls-3" d="M516.77,227.89h3.05v25.65h-3.05Z"/><path class="cls-3" d="M524.91,227.89H528v25.65h-3.05Z"/><path class="cls-3" d="M542.24,237.46h2.85V240h.07a2.56,2.56,0,0,1,.53-.85,5.45,5.45,0,0,1,1.08-1,7.1,7.1,0,0,1,1.56-.78,6,6,0,0,1,2-.32,5.8,5.8,0,0,1,3,.74,5.63,5.63,0,0,1,2,2.24,5.18,5.18,0,0,1,2.2-2.24,6.23,6.23,0,0,1,2.88-.74,6.64,6.64,0,0,1,3.06.61,4.89,4.89,0,0,1,1.86,1.61,6.1,6.1,0,0,1,.94,2.27,13.4,13.4,0,0,1,.25,2.63v9.37h-3v-9a12.48,12.48,0,0,0-.12-1.76,4.08,4.08,0,0,0-.49-1.5,2.81,2.81,0,0,0-1-1,4.37,4.37,0,0,0-5,1,6,6,0,0,0-1,3.5v8.79h-3v-8.42a16.76,16.76,0,0,0-.12-2.1,5.24,5.24,0,0,0-.47-1.65,2.65,2.65,0,0,0-1-1.08,3.51,3.51,0,0,0-1.78-.39,4.13,4.13,0,0,0-1.58.32,3.84,3.84,0,0,0-1.34,1,4.88,4.88,0,0,0-.92,1.64,7.6,7.6,0,0,0-.33,2.36v8.35h-3.06Z"/><path class="cls-3" d="M569.24,237.46h3.53L577.53,250h.07l4.57-12.55h3.26L577.79,257c-.27.7-.55,1.33-.84,1.91a5.63,5.63,0,0,1-1.05,1.48,4.29,4.29,0,0,1-1.47.95,5.9,5.9,0,0,1-2.11.34,10.62,10.62,0,0,1-1.37-.09,4.75,4.75,0,0,1-1.33-.35l.37-2.79a4.75,4.75,0,0,0,1.82.38,3.41,3.41,0,0,0,1.19-.19,2.42,2.42,0,0,0,.85-.54,3.56,3.56,0,0,0,.59-.83c.15-.32.31-.68.47-1.09l1-2.54Z"/><path class="cls-3" d="M609,241.73a6.27,6.27,0,0,0-1.78-1.34,5.51,5.51,0,0,0-4.41,0,4.46,4.46,0,0,0-1.56,1.26,5.69,5.69,0,0,0-.95,1.83,7.31,7.31,0,0,0-.32,2.15,6.22,6.22,0,0,0,.37,2.12,5.26,5.26,0,0,0,1.06,1.75,4.74,4.74,0,0,0,1.62,1.17,5.27,5.27,0,0,0,2.14.42,4.84,4.84,0,0,0,2.21-.46,5.52,5.52,0,0,0,1.69-1.34l2.17,2.18a6.89,6.89,0,0,1-2.76,1.9,9.77,9.77,0,0,1-3.34.57,9.12,9.12,0,0,1-3.41-.61,7.9,7.9,0,0,1-2.66-1.71,7.48,7.48,0,0,1-1.73-2.65,9.12,9.12,0,0,1-.62-3.41,9.25,9.25,0,0,1,.62-3.42,7.6,7.6,0,0,1,1.71-2.68,7.76,7.76,0,0,1,2.64-1.75,9.06,9.06,0,0,1,3.45-.63,9.17,9.17,0,0,1,3.37.63,7.39,7.39,0,0,1,2.8,1.92Z"/><path class="cls-3" d="M613.89,227.89h3.05v12H617a4.45,4.45,0,0,1,2-2.08,6.62,6.62,0,0,1,3.29-.8,6.89,6.89,0,0,1,2.22.36,5,5,0,0,1,1.87,1.1,5.28,5.28,0,0,1,1.27,1.91,7.51,7.51,0,0,1,.47,2.77v10.35h-3V244a5.22,5.22,0,0,0-.31-1.92,3.47,3.47,0,0,0-.81-1.29,3.07,3.07,0,0,0-1.17-.71,4.23,4.23,0,0,0-1.37-.22,5.06,5.06,0,0,0-1.77.3,3.72,3.72,0,0,0-1.42,1,4.42,4.42,0,0,0-1,1.68,7.53,7.53,0,0,0-.34,2.41v8.28h-3.05Z"/><path class="cls-3" d="M632.27,231.69a2.25,2.25,0,1,1,.66,1.58A2.16,2.16,0,0,1,632.27,231.69Zm.71,5.77H636v16.08H633Z"/><path class="cls-3" d="M641.12,227.89h3.06v25.65h-3.06Z"/><path class="cls-3" d="M665.14,253.54h-3v-2.31H662a5.9,5.9,0,0,1-2.42,2,7.44,7.44,0,0,1-3.18.71,8.47,8.47,0,0,1-3.37-.64,7.41,7.41,0,0,1-2.58-1.8,8.26,8.26,0,0,1-1.65-2.68,9.45,9.45,0,0,1-.57-3.32,9.62,9.62,0,0,1,.57-3.35,8.15,8.15,0,0,1,1.65-2.68,7.63,7.63,0,0,1,2.58-1.78,8.47,8.47,0,0,1,3.37-.64,7.41,7.41,0,0,1,3.26.73,5.53,5.53,0,0,1,2.34,2h.07V227.89h3Zm-8.34-2.45a5.53,5.53,0,0,0,2.2-.42,4.84,4.84,0,0,0,1.66-1.15,5.07,5.07,0,0,0,1.06-1.77,7.06,7.06,0,0,0,0-4.51,4.93,4.93,0,0,0-1.06-1.76,4.86,4.86,0,0,0-1.66-1.16,6,6,0,0,0-4.41,0,5,5,0,0,0-1.66,1.16,5.06,5.06,0,0,0-1,1.76,6.88,6.88,0,0,0,0,4.51,5.2,5.2,0,0,0,1,1.77,4.94,4.94,0,0,0,1.66,1.15A5.58,5.58,0,0,0,656.8,251.09Z"/><path class="cls-3" d="M475.76,268.6h3.05v11.87h.07a5.55,5.55,0,0,1,2.34-2,7.54,7.54,0,0,1,3.25-.73,8.52,8.52,0,0,1,3.38.65,7.49,7.49,0,0,1,2.58,1.78,7.87,7.87,0,0,1,1.64,2.68,9.34,9.34,0,0,1,.58,3.34,9.25,9.25,0,0,1-.58,3.33,8.17,8.17,0,0,1-1.64,2.68,7.52,7.52,0,0,1-2.58,1.79,8.52,8.52,0,0,1-3.38.65,7.58,7.58,0,0,1-3.17-.71,5.79,5.79,0,0,1-2.42-2h-.07v2.31h-3.05Zm8.34,23.2a5.58,5.58,0,0,0,2.21-.42,5,5,0,0,0,1.66-1.16,5.06,5.06,0,0,0,1-1.76,7.06,7.06,0,0,0,0-4.51,5.2,5.2,0,0,0-1-1.77,4.94,4.94,0,0,0-1.66-1.15,5.87,5.87,0,0,0-4.41,0,5,5,0,0,0-1.67,1.15,5.2,5.2,0,0,0-1.05,1.77,7.06,7.06,0,0,0,0,4.51,5.06,5.06,0,0,0,1.05,1.76,5,5,0,0,0,1.67,1.16A5.53,5.53,0,0,0,484.1,291.8Z"/><path class="cls-3" d="M498.79,287.32a4,4,0,0,0,.46,1.92,4.62,4.62,0,0,0,1.2,1.47,5.48,5.48,0,0,0,1.73,1,6.15,6.15,0,0,0,2,.34,4.54,4.54,0,0,0,2.47-.66,7.92,7.92,0,0,0,1.94-1.75l2.3,1.77a8.49,8.49,0,0,1-7.12,3.29,8.82,8.82,0,0,1-3.44-.65,7.56,7.56,0,0,1-2.62-1.78,7.77,7.77,0,0,1-1.64-2.68,9.34,9.34,0,0,1-.58-3.34,8.75,8.75,0,0,1,.63-3.34,8.41,8.41,0,0,1,1.73-2.68,7.89,7.89,0,0,1,2.63-1.78,8.44,8.44,0,0,1,3.32-.65,7.94,7.94,0,0,1,3.62.75,7.19,7.19,0,0,1,2.42,1.95,7.86,7.86,0,0,1,1.38,2.72,11.37,11.37,0,0,1,.42,3.07v1.08Zm9.63-2.44a6.47,6.47,0,0,0-.32-1.87,4.16,4.16,0,0,0-.86-1.47,4.06,4.06,0,0,0-1.45-1,5.39,5.39,0,0,0-2-.35,4.94,4.94,0,0,0-3.63,1.52,5.09,5.09,0,0,0-1,1.51,4.17,4.17,0,0,0-.36,1.65Z"/><path class="cls-3" d="M524.84,280.13a8.47,8.47,0,0,1,3-1.78,10.1,10.1,0,0,1,3.39-.6,9.08,9.08,0,0,1,3,.45,5.92,5.92,0,0,1,2.09,1.18,4.73,4.73,0,0,1,1.21,1.72,5.5,5.5,0,0,1,.39,2v8.2q0,.85,0,1.56c0,.48.06.93.1,1.36h-2.71c-.07-.81-.1-1.63-.1-2.44h-.07a5.83,5.83,0,0,1-2.41,2.2,7.59,7.59,0,0,1-3.22.65,7.19,7.19,0,0,1-2.14-.31,5.26,5.26,0,0,1-1.78-.91,4.47,4.47,0,0,1-1.21-1.51,4.76,4.76,0,0,1-.44-2.09,4.66,4.66,0,0,1,.7-2.61,5.25,5.25,0,0,1,1.9-1.71,9.11,9.11,0,0,1,2.81-.95,19,19,0,0,1,3.45-.29h2.24v-.68a3.39,3.39,0,0,0-1-2.32,3.42,3.42,0,0,0-1.19-.78,4.39,4.39,0,0,0-1.7-.29,5.9,5.9,0,0,0-1.54.17,6.88,6.88,0,0,0-1.21.42,5.54,5.54,0,0,0-1,.59l-.85.65Zm8.62,6.38a20.92,20.92,0,0,0-2.22.12,9,9,0,0,0-2.07.45,4.11,4.11,0,0,0-1.53.95,2.13,2.13,0,0,0-.59,1.56,2.23,2.23,0,0,0,.93,2,4.62,4.62,0,0,0,2.53.61,4.9,4.9,0,0,0,2.13-.43,4,4,0,0,0,1.43-1.1,4.35,4.35,0,0,0,.78-1.51,5.88,5.88,0,0,0,.24-1.65v-1Z"/><path class="cls-3" d="M542.38,268.6h3v11.87h.07a5.55,5.55,0,0,1,2.34-2,7.55,7.55,0,0,1,3.26-.73,8.47,8.47,0,0,1,3.37.65,7.49,7.49,0,0,1,2.58,1.78,8,8,0,0,1,1.65,2.68,9.56,9.56,0,0,1,.57,3.34,9.47,9.47,0,0,1-.57,3.33,8.36,8.36,0,0,1-1.65,2.68,7.52,7.52,0,0,1-2.58,1.79,8.47,8.47,0,0,1-3.37.65,7.51,7.51,0,0,1-3.17-.71,5.89,5.89,0,0,1-2.43-2h-.07v2.31h-3Zm8.34,23.2a5.58,5.58,0,0,0,2.21-.42,5,5,0,0,0,1.66-1.16,5.06,5.06,0,0,0,1-1.76,6.88,6.88,0,0,0,0-4.51,5.2,5.2,0,0,0-1-1.77,4.94,4.94,0,0,0-1.66-1.15,5.87,5.87,0,0,0-4.41,0,4.84,4.84,0,0,0-1.66,1.15,4.9,4.9,0,0,0-1.05,1.77,6.88,6.88,0,0,0,0,4.51,4.77,4.77,0,0,0,1.05,1.76,4.86,4.86,0,0,0,1.66,1.16A5.53,5.53,0,0,0,550.72,291.8Z"/><path class="cls-3" d="M563.34,268.6h3.06v25.64h-3.06Z"/><path class="cls-3" d="M573.55,287.32a4.12,4.12,0,0,0,.46,1.92,4.91,4.91,0,0,0,1.2,1.47,5.43,5.43,0,0,0,1.74,1,6.05,6.05,0,0,0,2,.34,4.57,4.57,0,0,0,2.48-.66,7.88,7.88,0,0,0,1.93-1.75l2.31,1.77a8.51,8.51,0,0,1-7.13,3.29,8.86,8.86,0,0,1-3.44-.65,7.43,7.43,0,0,1-2.61-1.78,8,8,0,0,1-1.65-2.68,9.56,9.56,0,0,1-.57-3.34,8.94,8.94,0,0,1,.62-3.34,8.41,8.41,0,0,1,1.73-2.68,8,8,0,0,1,2.63-1.78,8.49,8.49,0,0,1,3.33-.65,7.9,7.9,0,0,1,3.61.75,7.32,7.32,0,0,1,2.43,1.95,7.67,7.67,0,0,1,1.37,2.72,11.37,11.37,0,0,1,.42,3.07v1.08Zm9.64-2.44a6.47,6.47,0,0,0-.33-1.87,4.16,4.16,0,0,0-.86-1.47,4.11,4.11,0,0,0-1.44-1,5.44,5.44,0,0,0-2-.35,5,5,0,0,0-3.63,1.52,5.29,5.29,0,0,0-1,1.51,4.17,4.17,0,0,0-.36,1.65Z"/><path class="cls-3" d="M608.15,280.81h-4.37v7.29c0,.45,0,.9,0,1.34a3.41,3.41,0,0,0,.26,1.19,1.93,1.93,0,0,0,.67.85,2.39,2.39,0,0,0,1.34.32,7.17,7.17,0,0,0,1.12-.1,3.35,3.35,0,0,0,1.06-.38v2.79a4.2,4.2,0,0,1-1.41.42,10.61,10.61,0,0,1-1.34.12,6.23,6.23,0,0,1-2.73-.49,3.33,3.33,0,0,1-1.43-1.28,4.23,4.23,0,0,1-.54-1.74q-.09-1-.09-1.95v-8.38H597.2v-2.65h3.52v-4.51h3.06v4.51h4.37Z"/><path class="cls-3" d="M611.31,286.2a8.23,8.23,0,0,1,.66-3.29,8.68,8.68,0,0,1,1.81-2.68,8.58,8.58,0,0,1,14,2.68,8.23,8.23,0,0,1,.66,3.29,8.37,8.37,0,0,1-2.47,6,8.7,8.7,0,0,1-12.15,0,8.45,8.45,0,0,1-1.81-2.68A8.32,8.32,0,0,1,611.31,286.2Zm3.25,0a6.58,6.58,0,0,0,.38,2.26,5.06,5.06,0,0,0,1,1.76,5,5,0,0,0,1.66,1.16,6,6,0,0,0,4.41,0,4.86,4.86,0,0,0,1.66-1.16,4.77,4.77,0,0,0,1-1.76,6.88,6.88,0,0,0,0-4.51,4.9,4.9,0,0,0-1-1.77,4.84,4.84,0,0,0-1.66-1.15,5.87,5.87,0,0,0-4.41,0,4.94,4.94,0,0,0-1.66,1.15,5.2,5.2,0,0,0-1,1.77A6.56,6.56,0,0,0,614.56,286.2Z"/><path class="cls-3" d="M657.78,294.11a8.6,8.6,0,0,1-.63,3.34,7.72,7.72,0,0,1-1.78,2.61,8,8,0,0,1-2.78,1.71,10.11,10.11,0,0,1-3.6.61,13.2,13.2,0,0,1-4.22-.64,10.17,10.17,0,0,1-3.64-2.24l2.06-2.58a8.5,8.5,0,0,0,2.58,1.95,7.29,7.29,0,0,0,3.16.66,6.94,6.94,0,0,0,2.81-.49,4.81,4.81,0,0,0,1.78-1.27,4.69,4.69,0,0,0,.94-1.78,7.74,7.74,0,0,0,.27-2V291.6h-.1a5.37,5.37,0,0,1-2.4,2.15,7.51,7.51,0,0,1-3.17.69,8.39,8.39,0,0,1-3.27-.62,7.67,7.67,0,0,1-4.29-4.34,8.62,8.62,0,0,1-.61-3.28,9.51,9.51,0,0,1,.57-3.31,8.3,8.3,0,0,1,1.65-2.69,7.41,7.41,0,0,1,2.58-1.8,8.47,8.47,0,0,1,3.37-.65,7.37,7.37,0,0,1,3.17.72,5.79,5.79,0,0,1,2.43,2h.07v-2.31h3Zm-8.34-13.51a5.58,5.58,0,0,0-2.21.43,4.84,4.84,0,0,0-1.66,1.15,5.2,5.2,0,0,0-1.05,1.77,6.56,6.56,0,0,0-.38,2.25,5.4,5.4,0,0,0,1.43,3.92,5.79,5.79,0,0,0,7.73,0,5.4,5.4,0,0,0,1.43-3.92,6.56,6.56,0,0,0-.38-2.25,5,5,0,0,0-1.05-1.77,4.84,4.84,0,0,0-1.66-1.15A5.57,5.57,0,0,0,649.44,280.6Z"/><path class="cls-3" d="M664.7,287.32a4,4,0,0,0,.46,1.92,4.62,4.62,0,0,0,1.2,1.47,5.48,5.48,0,0,0,1.73,1,6.15,6.15,0,0,0,2,.34,4.54,4.54,0,0,0,2.47-.66,7.92,7.92,0,0,0,1.94-1.75l2.3,1.77a8.49,8.49,0,0,1-7.12,3.29,8.82,8.82,0,0,1-3.44-.65,7.43,7.43,0,0,1-2.61-1.78,7.65,7.65,0,0,1-1.65-2.68,9.56,9.56,0,0,1-.58-3.34,8.75,8.75,0,0,1,.63-3.34,8.41,8.41,0,0,1,1.73-2.68,7.89,7.89,0,0,1,2.63-1.78,8.47,8.47,0,0,1,3.32-.65,7.94,7.94,0,0,1,3.62.75,7.19,7.19,0,0,1,2.42,1.95,7.69,7.69,0,0,1,1.38,2.72,11.37,11.37,0,0,1,.42,3.07v1.08Zm9.63-2.44A6.47,6.47,0,0,0,674,283a4.16,4.16,0,0,0-.86-1.47,4.11,4.11,0,0,0-1.44-1,5.44,5.44,0,0,0-2-.35,4.94,4.94,0,0,0-3.63,1.52,5.09,5.09,0,0,0-1,1.51,4.17,4.17,0,0,0-.36,1.65Z"/><path class="cls-3" d="M689.87,280.81h-4.38v7.29c0,.45,0,.9,0,1.34a3.65,3.65,0,0,0,.25,1.19,2,2,0,0,0,.68.85,2.37,2.37,0,0,0,1.34.32,7.28,7.28,0,0,0,1.12-.1,3.2,3.2,0,0,0,1.05-.38v2.79a4.06,4.06,0,0,1-1.41.42,10.31,10.31,0,0,1-1.34.12,6.29,6.29,0,0,1-2.73-.49,3.3,3.3,0,0,1-1.42-1.28,4,4,0,0,1-.54-1.74q-.09-1-.09-1.95v-8.38h-3.53v-2.65h3.53v-4.51h3v4.51h4.38Z"/><path class="cls-3" d="M475.82,320.84a8.32,8.32,0,0,1,3-1.78,10.1,10.1,0,0,1,3.39-.6,9.43,9.43,0,0,1,3,.44,5.89,5.89,0,0,1,2.08,1.19,4.66,4.66,0,0,1,1.21,1.71,5.38,5.38,0,0,1,.39,2V332q0,.86,0,1.56c0,.48.06.93.1,1.36h-2.71c-.07-.82-.1-1.63-.1-2.44h-.07a5.83,5.83,0,0,1-2.41,2.2,8,8,0,0,1-5.36.34,5.11,5.11,0,0,1-1.78-.92,4.29,4.29,0,0,1-1.2-1.5,5.24,5.24,0,0,1,.25-4.7,5.28,5.28,0,0,1,1.9-1.72,9.35,9.35,0,0,1,2.82-.95,19.72,19.72,0,0,1,3.44-.28h2.24v-.68a3.44,3.44,0,0,0-.95-2.33,3.47,3.47,0,0,0-1.19-.78,4.52,4.52,0,0,0-1.69-.29,6.44,6.44,0,0,0-1.55.17,7.32,7.32,0,0,0-1.2.43,6,6,0,0,0-1,.59l-.84.65Zm8.62,6.37a21.21,21.21,0,0,0-2.22.12,8.5,8.5,0,0,0-2.07.46,4.06,4.06,0,0,0-1.53.95,2.18,2.18,0,0,0-.59,1.56,2.2,2.2,0,0,0,.93,2,4.55,4.55,0,0,0,2.53.61,5,5,0,0,0,2.14-.42,4,4,0,0,0,1.42-1.1,4.44,4.44,0,0,0,.78-1.51,6,6,0,0,0,.24-1.65v-1Z"/><path class="cls-3" d="M507.44,336.17a12,12,0,0,1-.31,2.87,5.58,5.58,0,0,1-1,2.17,4.71,4.71,0,0,1-1.89,1.39,7.63,7.63,0,0,1-2.9.49c-.38,0-.78,0-1.18,0a6.58,6.58,0,0,1-1.19-.22l.27-4.51a3,3,0,0,0,1.32.3,1.45,1.45,0,0,0,1-.34,1.89,1.89,0,0,0,.54-.85,4.22,4.22,0,0,0,.21-1.08q0-.58,0-1V318.46h5.09Zm-5.5-22.9a3,3,0,1,1,5,2.09,3,3,0,0,1-5-2.09Z"/><path class="cls-3" d="M510.49,326.71a8.75,8.75,0,0,1,.71-3.57,8.4,8.4,0,0,1,1.95-2.73,8.66,8.66,0,0,1,2.92-1.74,10.65,10.65,0,0,1,7.16,0,8.66,8.66,0,0,1,2.92,1.74,8.4,8.4,0,0,1,2,2.73,9.31,9.31,0,0,1,0,7.13,8.4,8.4,0,0,1-2,2.73,8.68,8.68,0,0,1-2.92,1.75,10.81,10.81,0,0,1-7.16,0,8.68,8.68,0,0,1-2.92-1.75,8.4,8.4,0,0,1-1.95-2.73A8.74,8.74,0,0,1,510.49,326.71Zm5.09,0a4.25,4.25,0,0,0,1.07,3,4.46,4.46,0,0,0,6,0,4.78,4.78,0,0,0,0-6,4.46,4.46,0,0,0-6,0A4.27,4.27,0,0,0,515.58,326.71Z"/><path class="cls-3" d="M532.27,309.3h5.09v10.93h.07a4.69,4.69,0,0,1,2.25-1.68,8.73,8.73,0,0,1,3-.5,6.71,6.71,0,0,1,3.15.73,7.23,7.23,0,0,1,2.36,2,8.9,8.9,0,0,1,1.49,2.79,10.43,10.43,0,0,1,.53,3.31,9.72,9.72,0,0,1-.58,3.43A7.72,7.72,0,0,1,548,333a7.44,7.44,0,0,1-2.56,1.77,8.52,8.52,0,0,1-3.33.63,5.6,5.6,0,0,1-1.66-.24,7.17,7.17,0,0,1-1.44-.61,6.07,6.07,0,0,1-1.15-.83,5.76,5.76,0,0,1-.8-.9H537V335h-4.68ZM537,326.71a4.25,4.25,0,0,0,1.07,3,4.46,4.46,0,0,0,6,0,4.78,4.78,0,0,0,0-6,4.46,4.46,0,0,0-6,0A4.27,4.27,0,0,0,537,326.71Z"/><path class="cls-3" d="M558.69,325.52a4.65,4.65,0,0,1,.28-1.73,3.56,3.56,0,0,1,.91-1.33c.63-.61,1.22-1.14,1.75-1.59s1-.88,1.37-1.27a6.29,6.29,0,0,0,.9-1.12,2,2,0,0,0,.32-1.1,2.25,2.25,0,0,0-.69-1.75,2.52,2.52,0,0,0-1.75-.63,3.19,3.19,0,0,0-2.42.88,3.42,3.42,0,0,0-.94,2.14l-5.22-.34a7.87,7.87,0,0,1,2.64-5.48,8.9,8.9,0,0,1,5.84-1.88,9.61,9.61,0,0,1,2.93.43A7,7,0,0,1,567,312a6,6,0,0,1,1.66,2.1,6.48,6.48,0,0,1,.61,2.88,7.45,7.45,0,0,1-.2,1.78,5.51,5.51,0,0,1-.7,1.58,8.46,8.46,0,0,1-1.29,1.58,23.33,23.33,0,0,1-2,1.75,3.5,3.5,0,0,0-1.06,1.18,2.73,2.73,0,0,0-.27,1.16v1h-5.09Zm-.57,6.51a3.12,3.12,0,0,1,.24-1.22,2.82,2.82,0,0,1,.66-1,3,3,0,0,1,1-.66,3.12,3.12,0,0,1,1.22-.24,3.16,3.16,0,0,1,1.22.24,3.15,3.15,0,0,1,1.66,4.1,3,3,0,0,1-.66,1,2.82,2.82,0,0,1-1,.66,3.16,3.16,0,0,1-1.22.24,3.12,3.12,0,0,1-1.22-.24,3,3,0,0,1-1.66-1.66A3.12,3.12,0,0,1,558.12,332Z"/><path class="cls-4" d="M230.3,400.89h3.39l5.31,19.2h.07l5.65-19.2h3.73l5.65,19.2h.06l5.31-19.2h3.4l-7,24h-3.46l-5.8-19.61h-.07l-5.77,19.61h-3.46Z"/><path class="cls-4" d="M264.73,403.06a2.25,2.25,0,1,1,.66,1.58A2.16,2.16,0,0,1,264.73,403.06Zm.71,5.77h3.06v16.08h-3.06Z"/><path class="cls-4" d="M273.59,399.26h3.05v25.65h-3.05Z"/><path class="cls-4" d="M281.73,399.26h3v25.65h-3Z"/><path class="cls-4" d="M307.68,411.47H303.3v7.3c0,.45,0,.9,0,1.34a3.58,3.58,0,0,0,.26,1.18,1.9,1.9,0,0,0,.68.85,2.27,2.27,0,0,0,1.34.32,6.29,6.29,0,0,0,1.12-.1,3.36,3.36,0,0,0,1-.37v2.78a3.86,3.86,0,0,1-1.41.42,10.46,10.46,0,0,1-1.34.12,6.08,6.08,0,0,1-2.73-.49,3.35,3.35,0,0,1-1.42-1.27,4.09,4.09,0,0,1-.55-1.75c-.05-.64-.08-1.29-.08-1.95v-8.38h-3.53v-2.64h3.53v-4.51h3.05v4.51h4.38Z"/><path class="cls-4" d="M311.61,399.26h3.05v12h.07a4.5,4.5,0,0,1,2-2.08,6.65,6.65,0,0,1,3.29-.8,7,7,0,0,1,2.23.36,4.86,4.86,0,0,1,1.86,1.1,5.24,5.24,0,0,1,1.27,1.91,7.33,7.33,0,0,1,.48,2.77v10.35h-3.05v-9.5a5.44,5.44,0,0,0-.31-1.92,3.61,3.61,0,0,0-.81-1.29,3.2,3.2,0,0,0-1.17-.71,4.29,4.29,0,0,0-1.38-.22,4.83,4.83,0,0,0-1.76.31,3.69,3.69,0,0,0-1.43,1,4.7,4.7,0,0,0-.95,1.68,7.82,7.82,0,0,0-.34,2.41v8.28h-3.05Z"/><path class="cls-4" d="M332.78,418a3.94,3.94,0,0,0,.46,1.91,4.66,4.66,0,0,0,1.2,1.48,5.57,5.57,0,0,0,1.73.95,6.37,6.37,0,0,0,2,.34,4.54,4.54,0,0,0,2.47-.66,8.34,8.34,0,0,0,1.94-1.75l2.3,1.76a8.46,8.46,0,0,1-7.12,3.29,8.79,8.79,0,0,1-3.44-.64,7.56,7.56,0,0,1-2.62-1.78,7.87,7.87,0,0,1-1.64-2.68,9.34,9.34,0,0,1-.58-3.34,8.71,8.71,0,0,1,.63-3.34,8.14,8.14,0,0,1,1.73-2.68,7.82,7.82,0,0,1,2.63-1.79,8.61,8.61,0,0,1,3.32-.64,7.94,7.94,0,0,1,3.62.75,7,7,0,0,1,2.42,1.95,7.63,7.63,0,0,1,1.37,2.71,11,11,0,0,1,.43,3.07V418Zm9.63-2.45a6.41,6.41,0,0,0-.32-1.86,4.12,4.12,0,0,0-.86-1.48,4,4,0,0,0-1.45-1,5.19,5.19,0,0,0-2-.36,4.81,4.81,0,0,0-2.06.43,4.87,4.87,0,0,0-1.57,1.1,5.06,5.06,0,0,0-1,1.51,4.25,4.25,0,0,0-.35,1.64Z"/><path class="cls-4" d="M347.43,408.83H351l4.76,12.55h.07l4.57-12.55h3.25L356,428.37a20.52,20.52,0,0,1-.84,1.91,6.13,6.13,0,0,1-1.05,1.48,4.33,4.33,0,0,1-1.47.95,5.9,5.9,0,0,1-2.11.34,10.62,10.62,0,0,1-1.37-.09,4.66,4.66,0,0,1-1.33-.35l.37-2.78a4.89,4.89,0,0,0,1.82.37,3.19,3.19,0,0,0,1.19-.19,2.29,2.29,0,0,0,.85-.54,3.56,3.56,0,0,0,.59-.83c.15-.32.31-.68.47-1.09l1-2.54Z"/><path class="cls-4" d="M241.39,454a3.59,3.59,0,0,0-2.95-1.39,2.77,2.77,0,0,0-1.25.3,1.08,1.08,0,0,0-.61,1.05,1,1,0,0,0,.62.9,8.65,8.65,0,0,0,1.6.51l2.07.48a8,8,0,0,1,2.07.79,4.79,4.79,0,0,1,1.59,1.48,4.37,4.37,0,0,1,.63,2.49,4.56,4.56,0,0,1-.7,2.63,5.25,5.25,0,0,1-1.78,1.66,7.39,7.39,0,0,1-2.44.88,14.48,14.48,0,0,1-2.68.26,12.84,12.84,0,0,1-3.49-.49,6.55,6.55,0,0,1-3-1.75l3.09-3.43a4.94,4.94,0,0,0,1.58,1.34,4.14,4.14,0,0,0,2,.46,4.75,4.75,0,0,0,1.6-.25.94.94,0,0,0,.71-.94,1,1,0,0,0-.63-1,6.4,6.4,0,0,0-1.59-.54l-2.07-.48a8.39,8.39,0,0,1-2.07-.76,4.31,4.31,0,0,1-1.59-1.44,4.43,4.43,0,0,1-.63-2.5,5.09,5.09,0,0,1,.59-2.51,5.4,5.4,0,0,1,1.56-1.73,7,7,0,0,1,2.22-1,10.48,10.48,0,0,1,2.55-.32,12.22,12.22,0,0,1,3.29.47,6.1,6.1,0,0,1,2.81,1.7Z"/><path class="cls-4" d="M263.65,465.61h-4.89v-2.24h-.07a5.31,5.31,0,0,1-.69.95,4.43,4.43,0,0,1-1,.85,5.9,5.9,0,0,1-1.39.61,5.7,5.7,0,0,1-1.69.24,7.21,7.21,0,0,1-3.14-.59,4.56,4.56,0,0,1-1.87-1.65,6.52,6.52,0,0,1-.88-2.48,19.74,19.74,0,0,1-.22-3.08v-9.09h5.09v8.07c0,.47,0,1,0,1.47a4.54,4.54,0,0,0,.31,1.41,2.42,2.42,0,0,0,.78,1.05,2.36,2.36,0,0,0,1.51.41,3.23,3.23,0,0,0,1.59-.35,2.42,2.42,0,0,0,.93-.95,3.91,3.91,0,0,0,.43-1.34,13.09,13.09,0,0,0,.1-1.57v-8.2h5.09Z"/><path class="cls-4" d="M267.72,449.13h4.68v2.17h.07a4.9,4.9,0,0,1,.79-.9,6,6,0,0,1,1.16-.83,7.17,7.17,0,0,1,1.44-.61,5.6,5.6,0,0,1,1.66-.24,8.43,8.43,0,0,1,3.32.63,7.45,7.45,0,0,1,2.57,1.76,7.86,7.86,0,0,1,1.64,2.7,9.67,9.67,0,0,1,.58,3.42,10.39,10.39,0,0,1-.53,3.31,9.16,9.16,0,0,1-1.49,2.8,7.43,7.43,0,0,1-2.36,2,6.65,6.65,0,0,1-3.15.73,8.65,8.65,0,0,1-3-.49,4.78,4.78,0,0,1-2.26-1.68h-.06v9.5h-5.09Zm4.68,8.24a4.24,4.24,0,0,0,1.07,3,4.49,4.49,0,0,0,6,0,4.8,4.8,0,0,0,0-6,4.49,4.49,0,0,0-6,0A4.24,4.24,0,0,0,272.4,457.37Z"/><path class="cls-4" d="M289.09,449.13h4.68v2.17h.07a5.3,5.3,0,0,1,.79-.9,6,6,0,0,1,1.16-.83,7.17,7.17,0,0,1,1.44-.61,5.6,5.6,0,0,1,1.66-.24,8.52,8.52,0,0,1,3.33.63,7.51,7.51,0,0,1,2.56,1.76,7.86,7.86,0,0,1,1.64,2.7,9.67,9.67,0,0,1,.58,3.42,10.39,10.39,0,0,1-.53,3.31,9.16,9.16,0,0,1-1.49,2.8,7.32,7.32,0,0,1-2.36,2,6.65,6.65,0,0,1-3.15.73,8.69,8.69,0,0,1-3-.49,4.78,4.78,0,0,1-2.26-1.68h-.06v9.5h-5.09Zm4.68,8.24a4.24,4.24,0,0,0,1.07,3,4.49,4.49,0,0,0,6,0,4.8,4.8,0,0,0,0-6,4.49,4.49,0,0,0-6,0A4.24,4.24,0,0,0,293.77,457.37Z"/><path class="cls-4" d="M309.37,457.37a8.7,8.7,0,0,1,.71-3.56,8.18,8.18,0,0,1,2-2.73,8.54,8.54,0,0,1,2.91-1.75,10.81,10.81,0,0,1,7.16,0,8.68,8.68,0,0,1,2.92,1.75,8.3,8.3,0,0,1,2,2.73,9.28,9.28,0,0,1,0,7.12,8.4,8.4,0,0,1-2,2.73,8.68,8.68,0,0,1-2.92,1.75,10.81,10.81,0,0,1-7.16,0,8.54,8.54,0,0,1-2.91-1.75,8.28,8.28,0,0,1-2-2.73A8.7,8.7,0,0,1,309.37,457.37Zm5.09,0a4.29,4.29,0,0,0,1.07,3,4.49,4.49,0,0,0,6,0,4.8,4.8,0,0,0,0-6,4.49,4.49,0,0,0-6,0A4.29,4.29,0,0,0,314.46,457.37Z"/><path class="cls-4" d="M330.67,449.13h5.09v2.64h.07a6.27,6.27,0,0,1,1.93-2.29,4.9,4.9,0,0,1,2.82-.76c.29,0,.59,0,.88,0a4.82,4.82,0,0,1,.82.14v4.65a7.55,7.55,0,0,0-1.07-.26,7.8,7.8,0,0,0-1.1-.08,5.41,5.41,0,0,0-2.31.4,3.11,3.11,0,0,0-1.31,1.14,4.42,4.42,0,0,0-.59,1.75,17,17,0,0,0-.14,2.24v6.88h-5.09Z"/><path class="cls-4" d="M355.71,453.2h-4.48v5.49a9.44,9.44,0,0,0,.07,1.24,2.57,2.57,0,0,0,.3,1,1.55,1.55,0,0,0,.73.62,3.21,3.21,0,0,0,1.31.23,8.32,8.32,0,0,0,1.07-.09,1.88,1.88,0,0,0,1-.39v4.24a8,8,0,0,1-1.76.41,15.89,15.89,0,0,1-1.8.1,9.91,9.91,0,0,1-2.38-.27,5.42,5.42,0,0,1-1.9-.87,4.08,4.08,0,0,1-1.27-1.54,5.34,5.34,0,0,1-.46-2.31V453.2h-3.25v-4.07h3.25v-4.89h5.09v4.89h4.48Z"/><path class="cls-4" d="M243.29,493.9h-4.47v5.5a11.84,11.84,0,0,0,.06,1.24,2.53,2.53,0,0,0,.31,1,1.52,1.52,0,0,0,.73.63,3.17,3.17,0,0,0,1.3.22,10,10,0,0,0,1.07-.08,1.84,1.84,0,0,0,1-.39v4.24a7.92,7.92,0,0,1-1.76.41c-.61.06-1.21.1-1.8.1a9.76,9.76,0,0,1-2.37-.27,5.44,5.44,0,0,1-1.9-.87,4,4,0,0,1-1.27-1.54,5.26,5.26,0,0,1-.46-2.31V493.9h-3.26v-4.07h3.26V485h5.09v4.88h4.47Z"/><path class="cls-4" d="M251,480.67v11.4H251a3.11,3.11,0,0,1,.57-.95,4.86,4.86,0,0,1,1-.85,5.62,5.62,0,0,1,1.35-.61,6.13,6.13,0,0,1,1.7-.23,6.94,6.94,0,0,1,3.12.59,4.5,4.5,0,0,1,1.85,1.65,6.66,6.66,0,0,1,.9,2.47,18.63,18.63,0,0,1,.24,3.09v9.09h-5.09v-8.07c0-.48,0-1-.05-1.48a4.84,4.84,0,0,0-.31-1.41A2.2,2.2,0,0,0,254,493.9a3.12,3.12,0,0,0-1.59.36,2.36,2.36,0,0,0-.93.95,3.84,3.84,0,0,0-.43,1.34,11.26,11.26,0,0,0-.1,1.56v8.21h-5.09V480.67Z"/><path class="cls-4" d="M281,503.47a8.26,8.26,0,0,1-3.09,2.41,9.31,9.31,0,0,1-3.87.85,10.6,10.6,0,0,1-3.58-.61,8.54,8.54,0,0,1-2.91-1.75,8.12,8.12,0,0,1-1.95-2.73,9.19,9.19,0,0,1,0-7.13,8.12,8.12,0,0,1,1.95-2.73,8.52,8.52,0,0,1,2.91-1.74,10.36,10.36,0,0,1,3.58-.61,8.09,8.09,0,0,1,3.21.61,6.69,6.69,0,0,1,2.44,1.74,7.92,7.92,0,0,1,1.54,2.73,10.83,10.83,0,0,1,.55,3.57v1.59H269.92a4.08,4.08,0,0,0,1.32,2.32,3.74,3.74,0,0,0,2.51.87,3.88,3.88,0,0,0,2.13-.56,5.68,5.68,0,0,0,1.5-1.44Zm-4.31-7.26a2.94,2.94,0,0,0-.85-2.2,3,3,0,0,0-2.27-.92,3.86,3.86,0,0,0-1.5.27,3.76,3.76,0,0,0-1.1.7,3.12,3.12,0,0,0-.71,1,3.15,3.15,0,0,0-.29,1.17Z"/><path class="cls-4" d="M284.81,489.83h4.89v2.24h.07a4.15,4.15,0,0,1,.67-.95,5.34,5.34,0,0,1,1.06-.85,6.34,6.34,0,0,1,1.39-.61,6.06,6.06,0,0,1,1.69-.23,6.35,6.35,0,0,1,3.07.71,4.45,4.45,0,0,1,2,2.24,5.52,5.52,0,0,1,2.14-2.28,6.42,6.42,0,0,1,3.09-.67,6.17,6.17,0,0,1,2.79.56,4.56,4.56,0,0,1,1.8,1.52,6.5,6.5,0,0,1,.95,2.28,13.05,13.05,0,0,1,.29,2.79v9.74h-5.09v-9.6a3.78,3.78,0,0,0-.49-2,1.86,1.86,0,0,0-1.75-.84,3.35,3.35,0,0,0-1.47.29,2.33,2.33,0,0,0-.95.8,3.21,3.21,0,0,0-.51,1.19,6.51,6.51,0,0,0-.15,1.42v8.72h-5.09V497.6c0-.29,0-.65,0-1.08a4.54,4.54,0,0,0-.23-1.23,2.36,2.36,0,0,0-.67-1,2,2,0,0,0-1.34-.41,3.12,3.12,0,0,0-1.59.36,2.36,2.36,0,0,0-.93.95,3.84,3.84,0,0,0-.43,1.34,13.05,13.05,0,0,0-.1,1.56v8.21h-5.09Z"/><path class="cls-4" d="M323.65,494.68a3.61,3.61,0,0,0-2.95-1.39,2.66,2.66,0,0,0-1.25.31,1.07,1.07,0,0,0-.61,1,1,1,0,0,0,.62.9,8.65,8.65,0,0,0,1.6.51l2.07.47a8,8,0,0,1,2.07.8,4.59,4.59,0,0,1,1.59,1.48,4.37,4.37,0,0,1,.63,2.49,4.58,4.58,0,0,1-.7,2.63,5.25,5.25,0,0,1-1.78,1.66,7.62,7.62,0,0,1-2.44.88,14.48,14.48,0,0,1-2.68.26,12.85,12.85,0,0,1-3.49-.5,6.53,6.53,0,0,1-3-1.74l3.09-3.43A4.94,4.94,0,0,0,318,502.4a4.14,4.14,0,0,0,2,.46,4.75,4.75,0,0,0,1.6-.26.92.92,0,0,0,.71-.93,1,1,0,0,0-.63-1,6.81,6.81,0,0,0-1.59-.55l-2.07-.47a8.41,8.41,0,0,1-2.07-.77,4.31,4.31,0,0,1-1.59-1.44,4.37,4.37,0,0,1-.63-2.49,5.09,5.09,0,0,1,.59-2.51,5.3,5.3,0,0,1,1.56-1.73,6.8,6.8,0,0,1,2.22-1,10,10,0,0,1,2.55-.32,11.84,11.84,0,0,1,3.29.47,6,6,0,0,1,2.81,1.7Z"/><path class="cls-4" d="M345.64,503.47a8.26,8.26,0,0,1-3.09,2.41,9.35,9.35,0,0,1-3.87.85,10.56,10.56,0,0,1-3.58-.61,8.54,8.54,0,0,1-2.91-1.75,8.28,8.28,0,0,1-2-2.73,9.31,9.31,0,0,1,0-7.13,8.28,8.28,0,0,1,2-2.73A8.52,8.52,0,0,1,335.1,490a10.32,10.32,0,0,1,3.58-.61,8.09,8.09,0,0,1,3.21.61,6.69,6.69,0,0,1,2.44,1.74,7.92,7.92,0,0,1,1.54,2.73,11.1,11.1,0,0,1,.55,3.57v1.59H334.61a4,4,0,0,0,1.32,2.32,3.74,3.74,0,0,0,2.51.87,3.82,3.82,0,0,0,2.12-.56,5.57,5.57,0,0,0,1.51-1.44Zm-4.31-7.26a2.94,2.94,0,0,0-.85-2.2,3,3,0,0,0-2.27-.92,3.86,3.86,0,0,0-1.5.27,3.63,3.63,0,0,0-1.1.7,3.12,3.12,0,0,0-.71,1,3.15,3.15,0,0,0-.29,1.17Z"/><path class="cls-4" d="M349.57,480.67h5.09v25.65h-5.09Z"/><path class="cls-4" d="M356.59,489.83h5.5l4.17,11.2h.07l3.86-11.2h5.13l-6.52,16.49h-5.39Z"/><path class="cls-4" d="M392.79,503.47a8.26,8.26,0,0,1-3.09,2.41,9.31,9.31,0,0,1-3.87.85,10.6,10.6,0,0,1-3.58-.61,8.54,8.54,0,0,1-2.91-1.75,8.12,8.12,0,0,1-1.95-2.73,9.19,9.19,0,0,1,0-7.13,8.12,8.12,0,0,1,1.95-2.73,8.52,8.52,0,0,1,2.91-1.74,10.36,10.36,0,0,1,3.58-.61A8.09,8.09,0,0,1,389,490a6.69,6.69,0,0,1,2.44,1.74,7.92,7.92,0,0,1,1.54,2.73,10.83,10.83,0,0,1,.55,3.57v1.59H381.76a4,4,0,0,0,1.33,2.32,3.7,3.7,0,0,0,2.51.87,3.87,3.87,0,0,0,2.12-.56,5.87,5.87,0,0,0,1.51-1.44Zm-4.31-7.26a2.94,2.94,0,0,0-.85-2.2,3,3,0,0,0-2.27-.92,3.78,3.78,0,0,0-1.49.27,3.68,3.68,0,0,0-1.11.7,3.12,3.12,0,0,0-.71,1,3.15,3.15,0,0,0-.29,1.17Z"/><path class="cls-4" d="M406,494.68a3.61,3.61,0,0,0-3-1.39,2.66,2.66,0,0,0-1.25.31,1.07,1.07,0,0,0-.61,1,.93.93,0,0,0,.62.9,8.65,8.65,0,0,0,1.6.51l2.07.47a8,8,0,0,1,2.07.8,4.59,4.59,0,0,1,1.59,1.48,4.37,4.37,0,0,1,.63,2.49,4.58,4.58,0,0,1-.7,2.63,5.25,5.25,0,0,1-1.78,1.66,7.62,7.62,0,0,1-2.44.88,14.56,14.56,0,0,1-2.68.26,12.85,12.85,0,0,1-3.49-.5,6.48,6.48,0,0,1-3-1.74l3.09-3.43a5,5,0,0,0,1.57,1.34,4.21,4.21,0,0,0,2,.46,4.75,4.75,0,0,0,1.6-.26.92.92,0,0,0,.71-.93,1,1,0,0,0-.63-1,6.81,6.81,0,0,0-1.59-.55l-2.07-.47a8.41,8.41,0,0,1-2.07-.77,4.33,4.33,0,0,1-1.6-1.44,4.45,4.45,0,0,1-.62-2.49,5,5,0,0,1,.59-2.51,5.3,5.3,0,0,1,1.56-1.73,6.8,6.8,0,0,1,2.22-1,10,10,0,0,1,2.55-.32,11.84,11.84,0,0,1,3.29.47,6.07,6.07,0,0,1,2.81,1.7Z"/><path class="cls-4" d="M417.89,496.89a4.87,4.87,0,0,1,.27-1.73,3.48,3.48,0,0,1,.92-1.32c.63-.61,1.21-1.15,1.74-1.6s1-.87,1.38-1.27a7.35,7.35,0,0,0,.9-1.12,2.12,2.12,0,0,0,.32-1.1,2.22,2.22,0,0,0-.7-1.75,2.48,2.48,0,0,0-1.74-.63,3.2,3.2,0,0,0-2.43.88,3.49,3.49,0,0,0-.93,2.14l-5.23-.34a7.84,7.84,0,0,1,2.65-5.48,8.85,8.85,0,0,1,5.83-1.88,9.72,9.72,0,0,1,2.94.43,7.09,7.09,0,0,1,2.42,1.27,6.05,6.05,0,0,1,1.67,2.1,6.64,6.64,0,0,1,.61,2.89,7.07,7.07,0,0,1-.21,1.78,5.27,5.27,0,0,1-.69,1.57,9.34,9.34,0,0,1-1.29,1.58,23.63,23.63,0,0,1-2,1.75,3.46,3.46,0,0,0-1.05,1.18,2.73,2.73,0,0,0-.27,1.16v1h-5.09Zm-.58,6.51a3.16,3.16,0,0,1,.24-1.22,3,3,0,0,1,1.66-1.66,3.16,3.16,0,0,1,1.22-.24,3.12,3.12,0,0,1,1.22.24,3.16,3.16,0,0,1,1,.66,3.11,3.11,0,0,1,.66,1,3.35,3.35,0,0,1,.23,1.22,3.31,3.31,0,0,1-.23,1.22,3,3,0,0,1-1.67,1.67,3.31,3.31,0,0,1-1.22.23,3.35,3.35,0,0,1-1.22-.23,3,3,0,0,1-1.66-1.67A3.12,3.12,0,0,1,417.31,503.4Z"/><circle class="cls-3" cx="868.62" cy="273.27" r="46.26"/><circle class="cls-2" cx="374.77" cy="649.49" r="46.26"/><circle class="cls-3" cx="774.78" cy="638.04" r="24.23"/><circle class="cls-2" cx="932.5" cy="216.43" r="11.01"/><circle class="cls-4" cx="1010.04" cy="606.76" r="11.01"/><circle class="cls-5" cx="175.2" cy="593.98" r="11.01"/><circle class="cls-6" cx="571.26" cy="566.67" r="112.34"/><path class="cls-4" d="M500.77,534.38H504v24h-3.25Z"/><path class="cls-4" d="M518,546.35a4.75,4.75,0,0,0-1.33-1.14,4,4,0,0,0-2-.45,3.76,3.76,0,0,0-1.88.45,1.48,1.48,0,0,0-.8,1.34,1.57,1.57,0,0,0,.46,1.16,3.73,3.73,0,0,0,1.09.71,6.33,6.33,0,0,0,1.34.41l1.22.23a16,16,0,0,1,1.85.58,5.33,5.33,0,0,1,1.49.88,3.72,3.72,0,0,1,1,1.33,4.5,4.5,0,0,1,.36,1.9,4.42,4.42,0,0,1-.58,2.32,4.9,4.9,0,0,1-1.49,1.58,6.37,6.37,0,0,1-2.08.88,10.55,10.55,0,0,1-2.36.27,9.21,9.21,0,0,1-3.51-.61,6.29,6.29,0,0,1-2.7-2.24l2.31-1.9a8.92,8.92,0,0,0,1.66,1.32,4.08,4.08,0,0,0,2.24.58,6,6,0,0,0,1.17-.12,3.72,3.72,0,0,0,1-.37,2.48,2.48,0,0,0,.75-.65,1.47,1.47,0,0,0,.28-.89,1.54,1.54,0,0,0-.42-1.12,3,3,0,0,0-1-.7,7,7,0,0,0-1.25-.41l-1.17-.25c-.66-.16-1.28-.34-1.87-.54a5.77,5.77,0,0,1-1.56-.82,3.77,3.77,0,0,1-1.08-1.29,4,4,0,0,1-.41-1.93,4.38,4.38,0,0,1,.52-2.19,4.78,4.78,0,0,1,1.39-1.54,6.48,6.48,0,0,1,2-.92,8.48,8.48,0,0,1,2.22-.3,8.07,8.07,0,0,1,3.12.61,4.89,4.89,0,0,1,2.38,2Z"/><path class="cls-4" d="M533.43,536.55a2.24,2.24,0,0,1,4.48,0,2.24,2.24,0,0,1-4.48,0Zm.72,5.76h3.05v16.08h-3.05Z"/><path class="cls-4" d="M550.67,545h-4.38v7.29c0,.46,0,.9,0,1.34a3.64,3.64,0,0,0,.26,1.19,1.89,1.89,0,0,0,.68.85,2.34,2.34,0,0,0,1.34.32,6.29,6.29,0,0,0,1.12-.1,3.36,3.36,0,0,0,1-.37v2.78a4.13,4.13,0,0,1-1.41.42,10.46,10.46,0,0,1-1.34.12,6.08,6.08,0,0,1-2.73-.49,3.38,3.38,0,0,1-1.43-1.27,4.27,4.27,0,0,1-.54-1.75c-.06-.65-.08-1.3-.08-1.95V545h-3.53v-2.65h3.53V537.8h3v4.51h4.38Z"/><path class="cls-4" d="M497.51,582.61h5.43L506.3,593h.06l2.82-10.35h5.56L517.8,593h.06L521,582.61h5.16l-5.87,16.49h-5l-3.43-11h-.07l-3.05,11h-5.12Z"/><path class="cls-4" d="M527.12,590.86a8.59,8.59,0,0,1,.72-3.57,8.12,8.12,0,0,1,1.95-2.73,8.52,8.52,0,0,1,2.91-1.74,10.81,10.81,0,0,1,7.16,0,8.66,8.66,0,0,1,2.92,1.74,8.4,8.4,0,0,1,2,2.73,9.31,9.31,0,0,1,0,7.13,8.4,8.4,0,0,1-2,2.73,8.68,8.68,0,0,1-2.92,1.75,10.81,10.81,0,0,1-7.16,0,8.54,8.54,0,0,1-2.91-1.75,8.12,8.12,0,0,1-1.95-2.73A8.58,8.58,0,0,1,527.12,590.86Zm5.09,0a4.29,4.29,0,0,0,1.07,3,4.49,4.49,0,0,0,6,0,4.8,4.8,0,0,0,0-6,4.46,4.46,0,0,0-6,0A4.27,4.27,0,0,0,532.21,590.86Z"/><path class="cls-4" d="M548.43,582.61h5.08v2.65h.07a6.29,6.29,0,0,1,1.94-2.29,4.85,4.85,0,0,1,2.81-.76c.3,0,.59,0,.88,0a4,4,0,0,1,.82.14V587a7.18,7.18,0,0,0-1.07-.25,6.53,6.53,0,0,0-1.1-.09,5.4,5.4,0,0,0-2.31.41,3,3,0,0,0-1.31,1.14,4.32,4.32,0,0,0-.59,1.74,17.13,17.13,0,0,0-.14,2.24v6.89h-5.08Z"/><path class="cls-4" d="M573.46,586.68H569v5.5a11.71,11.71,0,0,0,.07,1.24,2.53,2.53,0,0,0,.31,1,1.47,1.47,0,0,0,.73.63,3.14,3.14,0,0,0,1.3.22,10.18,10.18,0,0,0,1.07-.08,1.88,1.88,0,0,0,1-.39V599a7.38,7.38,0,0,1-1.76.4,15.8,15.8,0,0,1-1.8.11,9.42,9.42,0,0,1-2.38-.28,5.41,5.41,0,0,1-1.9-.86,4.16,4.16,0,0,1-1.27-1.54,5.4,5.4,0,0,1-.46-2.31v-7.84h-3.25v-4.07h3.25v-4.88H569v4.88h4.48Z"/><path class="cls-4" d="M581.13,573.45v11.4h.06a3.37,3.37,0,0,1,.58-1,4.34,4.34,0,0,1,1-.85,5.25,5.25,0,0,1,1.35-.61,6.13,6.13,0,0,1,1.7-.23,6.94,6.94,0,0,1,3.12.59,4.55,4.55,0,0,1,1.85,1.64,6.78,6.78,0,0,1,.9,2.48,19.83,19.83,0,0,1,.23,3.09v9.09h-5.08V591c0-.48,0-1-.06-1.48a4.54,4.54,0,0,0-.3-1.41,2.2,2.2,0,0,0-2.29-1.46,3.07,3.07,0,0,0-1.59.36,2.45,2.45,0,0,0-.94,1,4,4,0,0,0-.42,1.34,11.26,11.26,0,0,0-.1,1.56v8.21H576V573.45Z"/><path class="cls-4" d="M605.21,577.42a2.95,2.95,0,0,1,5-2.08,2.95,2.95,0,1,1-5,2.08Zm.41,5.19h5.09V599.1h-5.09Z"/><path class="cls-4" d="M625.6,586.68h-4.48v5.5a9.54,9.54,0,0,0,.07,1.24,2.36,2.36,0,0,0,.3,1,1.52,1.52,0,0,0,.73.63,3.22,3.22,0,0,0,1.31.22,10.18,10.18,0,0,0,1.07-.08,1.88,1.88,0,0,0,1-.39V599a7.58,7.58,0,0,1-1.77.4,15.77,15.77,0,0,1-1.79.11,9.36,9.36,0,0,1-2.38-.28,5.33,5.33,0,0,1-1.9-.86,4.07,4.07,0,0,1-1.27-1.54,5.26,5.26,0,0,1-.46-2.31v-7.84h-3.26v-4.07H616v-4.88h5.09v4.88h4.48Z"/><path class="cls-4" d="M633.7,589.67a4.65,4.65,0,0,1,.28-1.73,3.45,3.45,0,0,1,.91-1.32c.63-.62,1.22-1.15,1.75-1.6s1-.88,1.37-1.27a6.29,6.29,0,0,0,.9-1.12,2,2,0,0,0,.32-1.1,2.25,2.25,0,0,0-.69-1.75,2.52,2.52,0,0,0-1.75-.63,3.19,3.19,0,0,0-2.42.88,3.42,3.42,0,0,0-.94,2.14l-5.22-.34a7.84,7.84,0,0,1,2.65-5.48,8.85,8.85,0,0,1,5.83-1.88,9.61,9.61,0,0,1,2.93.43,7,7,0,0,1,2.43,1.27,6,6,0,0,1,1.66,2.1,6.48,6.48,0,0,1,.61,2.88,7.45,7.45,0,0,1-.2,1.78,5.51,5.51,0,0,1-.7,1.58,8.46,8.46,0,0,1-1.29,1.58,23.33,23.33,0,0,1-2,1.75,3.61,3.61,0,0,0-1.06,1.18,2.73,2.73,0,0,0-.27,1.16v1H633.7Zm-.57,6.51a3.12,3.12,0,0,1,.24-1.22,2.82,2.82,0,0,1,.66-1,3,3,0,0,1,1-.66,3.14,3.14,0,0,1,4.1,4.1,3,3,0,0,1-.66,1,2.82,2.82,0,0,1-1,.66,3.22,3.22,0,0,1-2.44,0,3,3,0,0,1-1.66-1.66A3.12,3.12,0,0,1,633.13,596.18Z"/><path class="cls-4" d="M721.51,452.43h3.39l5.31,19.2h.07l5.65-19.2h3.73l5.65,19.2h.07l5.3-19.2h3.4l-7,24h-3.46l-5.8-19.61h-.07L732,476.45h-3.46Z"/><path class="cls-4" d="M756.42,450.81h3.05v12h.07a4.47,4.47,0,0,1,2-2.09,6.65,6.65,0,0,1,3.29-.8,6.89,6.89,0,0,1,2.22.36,5.17,5.17,0,0,1,1.87,1.1,5.41,5.41,0,0,1,1.27,1.92,7.25,7.25,0,0,1,.47,2.76v10.35h-3V467a5.43,5.43,0,0,0-.3-1.91,3.53,3.53,0,0,0-.82-1.29,3,3,0,0,0-1.17-.71,4.24,4.24,0,0,0-1.37-.23,5.1,5.1,0,0,0-1.77.31,3.68,3.68,0,0,0-1.42,1,4.56,4.56,0,0,0-1,1.68,7.47,7.47,0,0,0-.34,2.4v8.28h-3.05Z"/><path class="cls-4" d="M775.35,462.34a8.43,8.43,0,0,1,3-1.78,10.1,10.1,0,0,1,3.39-.6,9.14,9.14,0,0,1,3,.45,6,6,0,0,1,2.09,1.18,4.71,4.71,0,0,1,1.2,1.72,5.3,5.3,0,0,1,.39,2v8.2q0,.86,0,1.56c0,.48.06.93.11,1.36h-2.72c-.07-.81-.1-1.63-.1-2.44h-.07a5.83,5.83,0,0,1-2.41,2.2,7.55,7.55,0,0,1-3.22.65,7.19,7.19,0,0,1-2.14-.31,5.35,5.35,0,0,1-1.78-.91,4.32,4.32,0,0,1-1.2-1.51,5.24,5.24,0,0,1,.25-4.7,5.34,5.34,0,0,1,1.9-1.71,9.18,9.18,0,0,1,2.82-1,18.77,18.77,0,0,1,3.44-.29h2.24v-.68a3.31,3.31,0,0,0-.24-1.22,3.15,3.15,0,0,0-.71-1.1,3.33,3.33,0,0,0-1.19-.78,4.33,4.33,0,0,0-1.69-.29,6,6,0,0,0-1.55.17,6.5,6.5,0,0,0-1.2.42,5.54,5.54,0,0,0-1,.59l-.85.65Zm8.61,6.38a21.21,21.21,0,0,0-2.22.12,9,9,0,0,0-2.07.45,4.19,4.19,0,0,0-1.53.95,2.18,2.18,0,0,0-.59,1.56,2.23,2.23,0,0,0,.93,2,4.66,4.66,0,0,0,2.53.61,5,5,0,0,0,2.14-.43,4,4,0,0,0,1.42-1.1,4.35,4.35,0,0,0,.78-1.51,5.88,5.88,0,0,0,.24-1.65v-1Z"/><path class="cls-4" d="M801.5,463h-4.38v7.29c0,.45,0,.9,0,1.34a3.4,3.4,0,0,0,.25,1.19,2,2,0,0,0,.68.85,2.37,2.37,0,0,0,1.34.32,7.28,7.28,0,0,0,1.12-.1,3.38,3.38,0,0,0,1.05-.38v2.79a4.06,4.06,0,0,1-1.41.42,10.31,10.31,0,0,1-1.34.12,6.29,6.29,0,0,1-2.73-.49,3.3,3.3,0,0,1-1.42-1.28,4,4,0,0,1-.54-1.74q-.09-1-.09-2V463h-3.53v-2.65h3.53v-4.51h3v4.51h4.38Z"/><path class="cls-4" d="M824.29,464.82a3.59,3.59,0,0,0-2.95-1.4,2.82,2.82,0,0,0-1.25.31,1.08,1.08,0,0,0-.61,1,.94.94,0,0,0,.63.9,8.29,8.29,0,0,0,1.59.51l2.07.48a7.64,7.64,0,0,1,2.07.79,4.69,4.69,0,0,1,1.59,1.48,4.37,4.37,0,0,1,.63,2.49,4.58,4.58,0,0,1-.7,2.63,5.25,5.25,0,0,1-1.78,1.66,7.54,7.54,0,0,1-2.44.88,14.48,14.48,0,0,1-2.68.26,13.24,13.24,0,0,1-3.49-.49,6.55,6.55,0,0,1-3-1.75l3.09-3.43a4.94,4.94,0,0,0,1.58,1.34,4.17,4.17,0,0,0,2,.46,4.75,4.75,0,0,0,1.6-.25.94.94,0,0,0,.71-.94,1,1,0,0,0-.63-1,6.65,6.65,0,0,0-1.59-.55l-2.07-.47a8.7,8.7,0,0,1-2.07-.76,4.33,4.33,0,0,1-1.59-1.45,4.37,4.37,0,0,1-.63-2.49,5.09,5.09,0,0,1,.59-2.51,5.3,5.3,0,0,1,1.56-1.73,7,7,0,0,1,2.23-1,10.34,10.34,0,0,1,2.54-.32,12.16,12.16,0,0,1,3.29.47,6.18,6.18,0,0,1,2.82,1.7Z"/><path class="cls-4" d="M830.67,450.81h5.09v15.67l5.63-6.52h6.24l-6.54,7.43,6.71,9.06h-6.41l-5.56-8.34h-.07v8.34h-5.09Z"/><path class="cls-4" d="M849.19,454.78a3,3,0,1,1,.87,2.08A2.84,2.84,0,0,1,849.19,454.78Zm.41,5.18h5.09v16.49H849.6Z"/><path class="cls-4" d="M858.42,450.81h5.09v25.64h-5.09Z"/><path class="cls-4" d="M867.24,450.81h5.09v25.64h-5.09Z"/><path class="cls-4" d="M885.32,464.82a3.61,3.61,0,0,0-3-1.4,2.86,2.86,0,0,0-1.26.31,1.09,1.09,0,0,0-.61,1,.94.94,0,0,0,.63.9,8.78,8.78,0,0,0,1.59.51l2.07.48a7.4,7.4,0,0,1,2.07.79,4.63,4.63,0,0,1,1.6,1.48,4.37,4.37,0,0,1,.62,2.49,4.66,4.66,0,0,1-.69,2.63,5.34,5.34,0,0,1-1.78,1.66,7.71,7.71,0,0,1-2.44.88,14.56,14.56,0,0,1-2.68.26,13.31,13.31,0,0,1-3.5-.49,6.52,6.52,0,0,1-3-1.75l3.08-3.43a5.05,5.05,0,0,0,1.58,1.34,4.21,4.21,0,0,0,2,.46,4.65,4.65,0,0,0,1.59-.25.94.94,0,0,0,.72-.94,1,1,0,0,0-.63-1,6.75,6.75,0,0,0-1.6-.55l-2.06-.47a8.39,8.39,0,0,1-2.07-.76,4.28,4.28,0,0,1-1.6-1.45,4.37,4.37,0,0,1-.63-2.49,5,5,0,0,1,.6-2.51,5.08,5.08,0,0,1,1.56-1.73,6.82,6.82,0,0,1,2.22-1,10.4,10.4,0,0,1,2.54-.32,12.11,12.11,0,0,1,3.29.47,6.18,6.18,0,0,1,2.82,1.7Z"/><path class="cls-4" d="M900.31,460.37h3.43l3.61,12h.07l3.85-12h3.26l4.07,12h.06l3.43-12h3.26l-5.19,16.08h-3.09l-4.26-12h-.07l-3.88,12H905.6Z"/><path class="cls-4" d="M927.52,454.61a2.25,2.25,0,0,1,2.24-2.24,2.14,2.14,0,0,1,1.57.66,2.17,2.17,0,0,1,.67,1.58,2.24,2.24,0,0,1-4.48,0Zm.71,5.76h3v16.08h-3Z"/><path class="cls-4" d="M936.37,450.81h3v25.64h-3Z"/><path class="cls-4" d="M944.51,450.81h3.06v25.64h-3.06Z"/><path class="cls-4" d="M732.4,503.72H728V511c0,.45,0,.9,0,1.34a3.58,3.58,0,0,0,.25,1.18,1.91,1.91,0,0,0,.68.85,2.29,2.29,0,0,0,1.34.32,6.21,6.21,0,0,0,1.12-.1,3.19,3.19,0,0,0,1-.37V517a4,4,0,0,1-1.41.43,12,12,0,0,1-1.34.11,6.14,6.14,0,0,1-2.73-.49,3.28,3.28,0,0,1-1.42-1.27,4,4,0,0,1-.54-1.75q-.09-1-.09-1.95v-8.38h-3.53v-2.64H725v-4.51h3v4.51h4.38Z"/><path class="cls-4" d="M736.34,491.51h3v12h.07a4.5,4.5,0,0,1,2-2.08,6.62,6.62,0,0,1,3.29-.8A6.89,6.89,0,0,1,747,501a5,5,0,0,1,1.87,1.1,5.41,5.41,0,0,1,1.27,1.92,7.45,7.45,0,0,1,.47,2.76v10.35h-3.05v-9.5a5.22,5.22,0,0,0-.31-1.92,3.47,3.47,0,0,0-.81-1.29,3.2,3.2,0,0,0-1.17-.71,4.23,4.23,0,0,0-1.37-.22,4.84,4.84,0,0,0-1.77.31,3.58,3.58,0,0,0-1.42,1,4.42,4.42,0,0,0-.95,1.68,7.53,7.53,0,0,0-.34,2.41v8.28h-3Z"/><path class="cls-4" d="M757.5,510.24a4.05,4.05,0,0,0,.46,1.91,5,5,0,0,0,1.2,1.48,5.62,5.62,0,0,0,1.74,1,6.05,6.05,0,0,0,2,.34,4.57,4.57,0,0,0,2.48-.66,8.09,8.09,0,0,0,1.93-1.75l2.31,1.76a8.48,8.48,0,0,1-7.13,3.29,8.86,8.86,0,0,1-3.44-.64,7.43,7.43,0,0,1-2.61-1.78,8,8,0,0,1-1.65-2.68,9.56,9.56,0,0,1-.57-3.34,8.94,8.94,0,0,1,.62-3.34,8.3,8.3,0,0,1,1.73-2.68,7.89,7.89,0,0,1,2.63-1.78,8.49,8.49,0,0,1,3.33-.65,7.9,7.9,0,0,1,3.61.75,7.32,7.32,0,0,1,2.43,1.95,7.71,7.71,0,0,1,1.37,2.71,11.42,11.42,0,0,1,.42,3.07v1.09Zm9.64-2.45a6.4,6.4,0,0,0-.33-1.86,4.12,4.12,0,0,0-.86-1.48,4.23,4.23,0,0,0-1.44-1,5.24,5.24,0,0,0-2-.36,4.77,4.77,0,0,0-2,.43,4.91,4.91,0,0,0-1.58,1.1,5.16,5.16,0,0,0-1,1.51,4.09,4.09,0,0,0-.36,1.64Z"/><path class="cls-4" d="M772.16,501.08h3.53l4.76,12.55h.06l4.57-12.55h3.26l-7.63,19.54a20.46,20.46,0,0,1-.85,1.91,5.63,5.63,0,0,1-1.05,1.48,4.15,4.15,0,0,1-1.47,1,5.65,5.65,0,0,1-2.11.34,10.74,10.74,0,0,1-1.37-.09,4.75,4.75,0,0,1-1.33-.35l.37-2.78a4.93,4.93,0,0,0,1.82.37,3.28,3.28,0,0,0,1.2-.19,2.33,2.33,0,0,0,.84-.54,3.12,3.12,0,0,0,.59-.83c.16-.32.31-.68.47-1.09l1-2.54Z"/><path class="cls-4" d="M800.69,491.51h3v25.65h-3Z"/><path class="cls-4" d="M810.9,510.24a4,4,0,0,0,.45,1.91,4.83,4.83,0,0,0,1.21,1.48,5.57,5.57,0,0,0,1.73,1,6.05,6.05,0,0,0,2,.34,4.57,4.57,0,0,0,2.48-.66,8.09,8.09,0,0,0,1.93-1.75l2.31,1.76a8.47,8.47,0,0,1-7.12,3.29,8.87,8.87,0,0,1-3.45-.64,7.43,7.43,0,0,1-2.61-1.78,7.87,7.87,0,0,1-1.64-2.68,9.34,9.34,0,0,1-.58-3.34,8.75,8.75,0,0,1,.63-3.34A8.14,8.14,0,0,1,810,503.1a7.79,7.79,0,0,1,2.63-1.78,8.4,8.4,0,0,1,3.32-.65,7.87,7.87,0,0,1,3.61.75,7.13,7.13,0,0,1,2.43,1.95,7.71,7.71,0,0,1,1.37,2.71,11.43,11.43,0,0,1,.43,3.07v1.09Zm9.63-2.45a6.41,6.41,0,0,0-.32-1.86,4.14,4.14,0,0,0-.87-1.48,4,4,0,0,0-1.44-1,5.24,5.24,0,0,0-2-.36,4.8,4.8,0,0,0-2,.43,5,5,0,0,0-1.58,1.1,5.16,5.16,0,0,0-1,1.51,4.07,4.07,0,0,0-.35,1.64Z"/><path class="cls-4" d="M827.52,503.05a8.45,8.45,0,0,1,3-1.79,10.36,10.36,0,0,1,3.4-.59,9.4,9.4,0,0,1,3,.44A6,6,0,0,1,839,502.3a4.76,4.76,0,0,1,1.2,1.71,5.38,5.38,0,0,1,.39,2v8.21c0,.57,0,1.09,0,1.56s.05.93.1,1.36H838c-.06-.82-.1-1.63-.1-2.45h-.07a5.84,5.84,0,0,1-2.4,2.21,7.63,7.63,0,0,1-3.23.64,7.46,7.46,0,0,1-2.13-.3,5.15,5.15,0,0,1-1.79-.92,4.35,4.35,0,0,1-1.2-1.51,4.72,4.72,0,0,1-.44-2.08,4.65,4.65,0,0,1,.69-2.61,5.27,5.27,0,0,1,1.9-1.72,9.55,9.55,0,0,1,2.82-.95,19.69,19.69,0,0,1,3.44-.29h2.24v-.67a3.36,3.36,0,0,0-.24-1.23,3.19,3.19,0,0,0-.71-1.1,3.29,3.29,0,0,0-1.18-.78,4.62,4.62,0,0,0-1.7-.29,6.36,6.36,0,0,0-1.54.17,7.12,7.12,0,0,0-1.21.43,5.54,5.54,0,0,0-1,.59l-.85.65Zm8.61,6.37a21.21,21.21,0,0,0-2.22.12,8.5,8.5,0,0,0-2.07.46,4,4,0,0,0-1.52.95,2.14,2.14,0,0,0-.6,1.56,2.2,2.2,0,0,0,.94,2,4.52,4.52,0,0,0,2.52.61,5,5,0,0,0,2.14-.42,4,4,0,0,0,1.42-1.1,4.11,4.11,0,0,0,.78-1.51,6,6,0,0,0,.24-1.65v-1Z"/><path class="cls-4" d="M845.06,501.08h3.05v2.47h.07a4.55,4.55,0,0,1,.81-1.17,5.15,5.15,0,0,1,1.14-.89,5.86,5.86,0,0,1,1.37-.6,5.54,5.54,0,0,1,1.49-.22,4.17,4.17,0,0,1,1.36.21l-.14,3.29a6.11,6.11,0,0,0-.74-.17,3.81,3.81,0,0,0-.75-.07,4.5,4.5,0,0,0-3.42,1.25,5.48,5.48,0,0,0-1.19,3.9v8.08h-3.05Z"/><path class="cls-4" d="M857.61,501.08h3v2.47h.07a4.5,4.5,0,0,1,2-2.08,6.62,6.62,0,0,1,3.29-.8,6.89,6.89,0,0,1,2.22.36,5,5,0,0,1,1.87,1.1,5.41,5.41,0,0,1,1.27,1.92,7.45,7.45,0,0,1,.47,2.76v10.35H868.8v-9.5a5.45,5.45,0,0,0-.3-1.92,3.62,3.62,0,0,0-.82-1.29,3.2,3.2,0,0,0-1.17-.71,4.23,4.23,0,0,0-1.37-.22,4.88,4.88,0,0,0-1.77.31,3.66,3.66,0,0,0-1.42,1,4.42,4.42,0,0,0-1,1.68,7.53,7.53,0,0,0-.34,2.41v8.28h-3Z"/><path class="cls-4" d="M881.28,510.44v-2.07a7.25,7.25,0,0,1,.14-1.53,4.24,4.24,0,0,1,.41-1.1,4.39,4.39,0,0,1,.73-.95l1.13-1.1,1.09-1a12.2,12.2,0,0,0,1-1.09,5.44,5.44,0,0,0,.73-1.19,3.35,3.35,0,0,0,.29-1.41,3.62,3.62,0,0,0-1-2.57,3.43,3.43,0,0,0-1.14-.75,3.69,3.69,0,0,0-1.41-.27,3.62,3.62,0,0,0-2.69,1.05,4.54,4.54,0,0,0-1.24,2.75l-3.46-.34a7.11,7.11,0,0,1,2.46-4.63,7.54,7.54,0,0,1,5-1.68,8.19,8.19,0,0,1,2.66.42,6.52,6.52,0,0,1,2.16,1.22,5.71,5.71,0,0,1,1.44,2,6.46,6.46,0,0,1,.53,2.67,6.16,6.16,0,0,1-.38,2.25,6.94,6.94,0,0,1-1,1.82l-2,2.1-.34.3c-.37.34-.65.63-.87.87a3.56,3.56,0,0,0-.51.75,2.87,2.87,0,0,0-.25.86,7.92,7.92,0,0,0-.07,1.19v1.49Zm-.64,4.68a2.25,2.25,0,1,1,.66,1.58A2.18,2.18,0,0,1,880.64,515.12Z"/></g></svg>