<svg xmlns="http://www.w3.org/2000/svg" viewBox="0 0 255.9 255.9"><defs><style>.cls-1{fill:#fdb73b;}.cls-2{fill:#fdfdfc;}.cls-3{fill:none;stroke:#fdfdfc;stroke-linecap:round;stroke-miterlimit:10;stroke-width:6px;}</style></defs><g id="Layer_2" data-name="Layer 2"><circle class="cls-1" cx="128.04" cy="127.95" r="127.95"/></g><g id="Layer_4" data-name="Layer 4"><path class="cls-2" d="M118.35,99.2,126,55a3.11,3.11,0,0,1,6.16.17l5.08,44.2a3.13,3.13,0,0,0,3.84,2.67l21.87-5.36a3.12,3.12,0,0,1,2.69,5.46l-12.55,10a3.12,3.12,0,0,0,.87,5.36l46.16,17.09a3.12,3.12,0,0,1-.83,6l-50.5,4.16a3.12,3.12,0,0,0-2.84,3.44l1.76,16.28a3.12,3.12,0,0,1-5.46,2.37l-8.93-10.42a3.12,3.12,0,0,0-5.34,1.07l-12.33,38.54a3.12,3.12,0,0,1-6.08-.77l-2.75-45.73a3.12,3.12,0,0,0-3.85-2.84L85.39,151a3.12,3.12,0,0,1-2.88-5.3l16.86-15.89a3.13,3.13,0,0,0,0-4.56L59.61,88.49a3.11,3.11,0,0,1,3.16-5.22l51.46,18.33A3.12,3.12,0,0,0,118.35,99.2Z"/><circle class="cls-2" cx="82.14" cy="180.1" r="5.21"/><circle class="cls-2" cx="191.58" cy="88.66" r="5.21"/><line class="cls-3" x1="180.07" y1="185.51" x2="168.15" y2="175.25"/><line class="cls-3" x1="64.52" y1="122.48" x2="48.8" y2="123.08"/><circle class="cls-2" cx="95.8" cy="68.93" r="7.86"/><circle class="cls-1" cx="128.16" cy="127.55" r="15.44"/><line class="cls-3" x1="167.45" y1="160.21" x2="192.22" y2="181.49"/><line class="cls-3" x1="39.41" y1="134.87" x2="72.04" y2="133.56"/></g></svg>