<svg xmlns="http://www.w3.org/2000/svg" viewBox="0 0 255.9 255.9"><defs><style>.cls-1{fill:#fc4a1f;}.cls-2{fill:#fdfdfc;}.cls-3,.cls-5{fill:none;stroke-miterlimit:10;}.cls-3{stroke:#fff;stroke-width:6px;}.cls-4{fill:#fff;}.cls-5{stroke:#fc4a1f;stroke-width:3px;}</style></defs><g id="Layer_2" data-name="Layer 2"><circle class="cls-1" cx="128.04" cy="127.95" r="127.95"/><path class="cls-1" d="M131.1,226.62c3.85-.13-2.85,2.12-2.85,2.12l-3.42.18,1.08-1.6"/></g><g id="Layer_4" data-name="Layer 4"><path class="cls-2" d="M189.52,126.54c0,52.64-14,95.3-31.29,95.3-4.47,0-8.72-2.86-12.57-8a44.57,44.57,0,0,1-2.95-4.54c-.45-.8-.91-1.62-1.34-2.49a83.71,83.71,0,0,0,4.29-10c5.83-16.28,10-40.42,10-69.21,0-24.21-2.93-45.13-7.33-60.84a93.8,93.8,0,0,0-7.51-19.38,51.67,51.67,0,0,1,3-5.48c.35-.58.72-1.13,1.08-1.65,4-5.79,8.56-9,13.31-9C175.51,31.25,189.52,73.91,189.52,126.54Z"/><path class="cls-2" d="M153.5,59.12a98.94,98.94,0,0,0-4.75-12c-.56-1.15-1.11-2.23-1.67-3.24-.72-1.31-1.44-2.5-2.16-3.59-6-9.18-12.19-11.56-17-11.56h-.21c-7.08.1-17.18,5.52-25.33,30.4-6,18.35-9.34,42.68-9.34,68.51s3.32,50.16,9.34,68.51c8.08,24.66,18.07,30.18,25.14,30.38h.4c5,0,11.44-2.57,17.7-12.7a82.11,82.11,0,0,0,7.84-17.69c6-18.35,9.35-42.68,9.35-68.51S159.53,77.47,153.5,59.12Zm-7.84,137.72a83.71,83.71,0,0,1-4.29,10c-4.22,8.06-8.91,12.52-13.41,12.52-13.09,0-27.67-37.65-27.67-91.69s14.58-91.7,27.67-91.7c4.31,0,8.78,4.07,12.84,11.48a93.8,93.8,0,0,1,7.51,19.38c4.4,15.71,7.33,36.63,7.33,60.84C155.64,156.42,151.49,180.56,145.66,196.84Z"/><line class="cls-3" x1="53.49" y1="131.15" x2="124.07" y2="130.99"/><path class="cls-4" d="M81.57,131.24l-11.8,7.95-11.81,8H51.67a.47.47,0,0,1-.32-.81l9.19-8.25a.47.47,0,0,0-.53-.77l-19,9.78a.42.42,0,0,1-.22,0H23.39l11.46-7.94,10.95-7.55a.47.47,0,0,0,0-.77l-10.95-7.58-11.46-7.93v0H58l11.81,8,11.57,7.8Z"/><path class="cls-2" d="M177.08,63.78l-8.31,105.93-10.54,52.13-31.62,5.55,1-.87,5.71-5.23,9.44-12,2.76-3.52.19-8.93c5.83-16.28,10-40.42,10-69.21,0-24.21-2.93-45.13-7.33-60.84l.44-19.68.05-2.19-1.72-1.05-3.24-1.94L128,32.33l-.21-3.61,0-.43,30.5,3Z"/><ellipse class="cls-2" cx="125" cy="130.99" rx="5.99" ry="23.15"/><ellipse class="cls-5" cx="122.46" cy="131.01" rx="2.47" ry="5.84"/><rect class="cls-4" x="113.41" y="128" width="9.58" height="6.01"/><path class="cls-1" d="M126.92,226.49a32.49,32.49,0,0,0,5.2,0c2-.27-4,2-4,2"/><polygon class="cls-1" points="127.25 226.69 126.25 227.29 126.76 227.84 127.93 227.35 127.25 226.69"/></g></svg>